<svg width="28" height="28" viewBox="0 0 28 28" fill="none" xmlns="http://www.w3.org/2000/svg">
<g clip-path="url(#clip0_1_192)">
<path d="M10.1825 26.728H17.8189C24.1825 26.728 26.728 24.1825 26.728 17.8189V10.1825C26.728 3.81889 24.1825 1.27344 17.8189 1.27344H10.1825C3.81889 1.27344 1.27344 3.81889 1.27344 10.1825V17.8189C1.27344 24.1825 3.81889 26.728 10.1825 26.728Z" stroke="#363636" stroke-width="1.5" stroke-linecap="round" stroke-linejoin="round"/>
<path d="M14 20C14.7879 20 15.5681 19.8448 16.2961 19.5433C17.0241 19.2417 17.6855 18.7998 18.2426 18.2426C18.7998 17.6855 19.2417 17.0241 19.5433 16.2961C19.8448 15.5681 20 14.7879 20 14C20 13.2121 19.8448 12.4319 19.5433 11.7039C19.2417 10.9759 18.7998 10.3145 18.2426 9.75736C17.6855 9.20021 17.0241 8.75825 16.2961 8.45672C15.5681 8.15519 14.7879 8 14 8C12.4087 8 10.8826 8.63214 9.75736 9.75736C8.63214 10.8826 8 12.4087 8 14C8 15.5913 8.63214 17.1174 9.75736 18.2426C10.8826 19.3679 12.4087 20 14 20Z" stroke="#363636" stroke-width="1.5" stroke-linecap="round" stroke-linejoin="round"/>
<circle cx="21" cy="6" r="1" fill="#363636"/>
</g>
<defs>
<clipPath id="clip0_1_192">
<rect width="28" height="28" fill="white"/>
</clipPath>
</defs>
</svg>
