<svg width="270" height="47" viewBox="0 0 270 47" fill="none" xmlns="http://www.w3.org/2000/svg">
<g clip-path="url(#clip0_1_5)">
<path d="M28.1895 36.9449C28.0792 36.8053 27.9589 36.673 27.8295 36.5487C27.7847 36.5021 27.7292 36.4656 27.6673 36.4419C27.6054 36.4182 27.5387 36.408 27.472 36.412H15.8445C15.8598 36.3167 15.8911 36.2244 15.937 36.1384C16.157 35.8625 16.387 35.5984 16.617 35.3319C16.847 35.0655 17.0445 34.8603 17.247 34.6245C17.4151 34.4268 17.5044 34.1798 17.4995 33.9265C17.4995 31.6627 17.4995 29.3989 17.4995 27.1351V19.7494C17.4995 19.6975 17.4995 19.6433 17.4995 19.5914C17.4995 19.5395 17.532 19.4758 17.6145 19.4711C17.7244 19.4615 17.8309 19.43 17.927 19.3788C18.0231 19.3276 18.1066 19.2578 18.172 19.174C18.2542 19.1051 18.3257 19.0258 18.3845 18.9382C18.512 18.6552 18.6195 18.3628 18.737 18.0728C18.887 17.7025 19.0345 17.3276 19.187 16.9574C19.3095 16.6532 19.437 16.3513 19.562 16.0448C19.717 15.6549 19.8704 15.2619 20.022 14.8657C20.117 14.6299 20.207 14.3705 20.302 14.1252C20.397 13.88 20.4921 13.6536 20.592 13.4178C20.6091 13.3699 20.6435 13.3292 20.6892 13.3029C20.735 13.2766 20.7891 13.2663 20.842 13.2739C21.512 13.2739 22.182 13.2739 22.842 13.2739C22.8902 13.2668 22.9379 13.2566 22.9845 13.2433C23.1945 13.2174 23.307 13.0617 23.4245 12.9273C23.5111 12.8283 23.5626 12.7063 23.572 12.5783C23.587 11.6539 23.572 10.7248 23.5895 9.80041C23.5895 8.99393 23.607 8.18981 23.6145 7.38332C23.6145 7.00131 23.6145 6.62165 23.6145 6.23963C23.6145 6.14059 23.647 6.11936 23.7395 6.11936C24.0895 6.11936 24.4395 6.09814 24.787 6.11936C24.9225 6.12508 25.057 6.09472 25.175 6.03175C25.2931 5.96878 25.3899 5.87575 25.4545 5.76329C25.5283 5.6814 25.5736 5.58017 25.5845 5.47323C25.5845 3.88385 25.5845 2.29447 25.5845 0.707443C25.5872 0.660662 25.5759 0.61412 25.552 0.57303C25.432 0.424467 25.302 0.280621 25.182 0.136774C25.1408 0.0969167 25.0907 0.0661141 25.0354 0.0465523C24.9801 0.0269905 24.9209 0.0191489 24.862 0.023584C24.0145 0.023584 23.167 0.0377328 22.322 0.023584C21.147 0.023584 19.972 -0.0070718 18.797 -0.00942993C17.5821 -0.00942993 16.3645 0.0117933 15.147 0.0165096C14.8345 0.0283002 14.5195 2.60957e-06 14.2045 2.60957e-06C12.7045 2.60957e-06 11.2045 0.0259421 9.70455 0.0306584C8.84455 0.0306584 7.99955 2.60957e-06 7.14705 2.60957e-06C6.19455 2.60957e-06 5.24955 0.0212258 4.29455 0.0306584C3.98205 0.0306584 3.66955 0.0306584 3.35705 0.0306584C3.27705 0.0306584 3.16955 0.0306584 3.12455 0.0731048C2.87455 0.308918 2.49705 0.490495 2.62455 0.92675C2.62829 0.961246 2.62829 0.996012 2.62455 1.03051C2.62455 2.49255 2.62455 3.9546 2.62455 5.41428C2.64681 5.57954 2.7204 5.73488 2.83607 5.86077C2.95173 5.98666 3.1043 6.07745 3.27455 6.12172C3.52261 6.1592 3.77333 6.17891 4.02455 6.18068C4.14955 6.18068 4.27455 6.18068 4.40205 6.18068C4.52955 6.18068 4.53955 6.18068 4.54705 6.31509C4.59455 7.27485 4.54705 8.23461 4.61705 9.19673C4.67706 10.2224 4.68206 11.2503 4.63205 12.2765C4.60845 12.4346 4.63008 12.5958 4.69469 12.7434C4.7593 12.891 4.86455 13.0196 4.99955 13.116C5.01741 13.1297 5.03412 13.1446 5.04955 13.1608C5.15254 13.2392 5.27977 13.2839 5.41205 13.2881C6.03205 13.2881 6.66205 13.2881 7.26705 13.2881C7.53455 13.2881 7.53455 13.2881 7.63455 13.5239C7.64026 13.5354 7.64695 13.5464 7.65455 13.5569C7.74205 13.7479 7.83955 13.9366 7.91705 14.1299C8.04955 14.4554 8.16705 14.7855 8.29455 15.1133C8.33205 15.217 8.37955 15.3208 8.41705 15.4269C8.45455 15.533 8.45955 15.6109 8.49455 15.6981C8.56705 15.8868 8.65205 16.0731 8.72955 16.2641C8.81955 16.4999 8.90455 16.7357 8.99705 16.9715C9.03705 17.0729 9.09955 17.1672 9.14205 17.2663C9.21955 17.4455 9.28455 17.6294 9.35705 17.811C9.42955 17.9926 9.52455 18.1836 9.58955 18.3746C9.67113 18.7193 9.85902 19.0336 10.1295 19.2778C10.272 19.3886 10.3795 19.49 10.587 19.4523C10.692 19.4334 10.7245 19.4853 10.722 19.5796C10.722 19.7871 10.722 19.9923 10.722 20.1998C10.722 22.1225 10.722 24.0443 10.722 25.9654C10.722 28.6238 10.722 31.283 10.722 33.943C10.7254 34.2365 10.848 34.5175 11.0645 34.7283C11.142 34.8108 11.2345 34.8792 11.3145 34.9641C11.477 35.1598 11.627 35.3673 11.792 35.563C11.957 35.7588 12.1545 35.9592 12.322 36.1644C12.3595 36.2383 12.3816 36.3184 12.387 36.4002C12.3271 36.4147 12.2661 36.425 12.2045 36.4308H1.07955C0.46705 36.4308 0.647049 36.3719 0.169549 36.7963C0.0669 36.8995 0.00976562 37.0357 0.00976562 37.1772C0.00976563 37.3187 0.0669 37.4549 0.169549 37.558C0.244549 37.6311 0.322049 37.6995 0.394549 37.7726C0.426505 37.8048 0.465284 37.8302 0.50836 37.8473C0.551435 37.8643 0.59784 37.8726 0.644549 37.8717H5.58705C7.26872 37.8717 8.95288 37.8717 10.6395 37.8717C11.5195 37.8717 12.3895 37.8717 13.277 37.8717H23.157H27.2745C27.7745 37.8717 27.7745 37.8717 28.097 37.5344L28.117 37.5156C28.1823 37.4353 28.2235 37.34 28.2362 37.2396C28.249 37.1392 28.2329 37.0374 28.1895 36.9449ZM12.3145 24.5788C12.3095 24.5274 12.3214 24.4758 12.3487 24.431C12.376 24.3863 12.4174 24.3506 12.467 24.3289C12.717 24.2015 12.9245 24.0436 13.157 23.9044C13.6245 23.6191 14.0945 23.3432 14.562 23.0555C14.812 22.9046 15.047 22.7395 15.292 22.5839C15.4293 22.4984 15.5712 22.4197 15.717 22.348C15.7808 22.3388 15.8458 22.3388 15.9095 22.348V22.5296C15.9095 23.4234 15.8945 24.3195 15.9095 25.2132C15.9156 25.3166 15.8876 25.4192 15.8294 25.507C15.7712 25.5948 15.6857 25.6635 15.5845 25.7037C15.3345 25.8334 15.1145 25.9819 14.882 26.1211L14.157 26.5502H14.142C13.9823 26.6974 13.7972 26.8178 13.5945 26.9063C13.3595 27.0572 13.112 27.1917 12.872 27.3379C12.7745 27.3992 12.6845 27.4746 12.592 27.5407C12.5712 27.5584 12.5486 27.5742 12.5245 27.5878C12.387 27.6539 12.3145 27.6161 12.3145 27.4699V25.0127C12.3145 24.8689 12.317 24.7227 12.3145 24.5788ZM15.6645 20.6502C15.4545 20.7609 15.2509 20.8821 15.0545 21.0133C14.8045 21.1596 14.5545 21.3034 14.317 21.452C14.1345 21.5652 13.957 21.6878 13.7745 21.7986C13.5395 21.9448 13.302 22.0887 13.0645 22.2325C12.8979 22.3394 12.7204 22.4432 12.532 22.5438C12.4662 22.5727 12.3976 22.5956 12.327 22.6122V19.5018H15.9045C15.9045 19.5537 15.9045 19.5937 15.9045 19.6362C15.8933 19.8373 15.8933 20.0388 15.9045 20.2399C15.9224 20.324 15.908 20.4113 15.8641 20.4864C15.8202 20.5615 15.7495 20.6196 15.6645 20.6502ZM4.42955 4.65968C4.24455 4.65968 4.23205 4.64789 4.23205 4.47103C4.23205 3.56315 4.23205 2.65526 4.23205 1.74738C4.23205 1.55873 4.23205 1.56109 4.42955 1.58939C4.46618 1.59157 4.50292 1.59157 4.53955 1.58939H5.04955C6.02455 1.57759 6.99705 1.55637 7.97205 1.55637C10.722 1.55637 13.457 1.58467 16.1995 1.58703C17.607 1.58703 19.0145 1.56109 20.422 1.55401C21.422 1.55401 22.422 1.55401 23.422 1.55401C23.567 1.55401 23.7095 1.55401 23.8545 1.55401C23.9595 1.55401 24.0045 1.58467 24.002 1.68843C24.002 2.39587 24.002 3.07501 24.002 3.7683C24.002 4.0277 24.002 4.28709 24.002 4.54649C24.002 4.64081 23.972 4.67854 23.867 4.67854C22.4245 4.67854 20.9846 4.67854 19.5395 4.67854C18.5395 4.67854 17.5395 4.67854 16.5395 4.67854H14.1295L4.42955 4.65968ZM7.42955 11.7341C7.07705 11.7341 6.72705 11.7553 6.37455 11.7647C6.26955 11.7647 6.20455 11.7459 6.20705 11.6209C6.20705 9.85701 6.20705 8.09312 6.20705 6.32924V6.17832C11.482 6.17832 16.742 6.17832 22.0195 6.20426C22.0195 6.48252 22.0195 6.7537 22.0195 7.02489C22.0195 7.83373 22.047 8.64257 22.0545 9.45377C22.0545 10.1895 22.0545 10.9276 22.0545 11.6633C22.0545 11.7553 22.0095 11.7671 21.937 11.7624C21.807 11.7624 21.687 11.7364 21.552 11.7364C20.217 11.7364 18.882 11.7364 17.552 11.7364C15.2145 11.7364 12.8745 11.76 10.537 11.7647C9.49955 11.7742 8.45705 11.7506 7.42205 11.7435L7.42955 11.7341ZM11.317 17.9831C11.097 17.9831 11.107 17.9831 11.0395 17.7803C10.972 17.5775 10.8795 17.3865 10.8045 17.1884C10.7295 16.9904 10.6445 16.7168 10.5545 16.4952C10.5195 16.3961 10.4745 16.2994 10.4345 16.2027C10.347 15.9834 10.262 15.7618 10.1695 15.5448C10.042 15.2477 9.90455 14.9529 9.77955 14.6558C9.68955 14.4483 9.61205 14.2384 9.52955 14.0286C9.44705 13.8187 9.38955 13.6772 9.32705 13.498C9.30835 13.4282 9.29499 13.3573 9.28705 13.2857H9.80955C10.4945 13.2857 11.177 13.2857 11.862 13.2857L17.8195 13.3022C18.1345 13.3022 18.452 13.3022 18.767 13.3022C18.9095 13.3022 18.947 13.3494 18.8995 13.4697C18.7845 13.7668 18.6645 14.0616 18.542 14.354C18.4195 14.6464 18.272 14.9954 18.142 15.3184C17.9895 15.7028 17.8445 16.0872 17.6995 16.4739C17.5546 16.8607 17.4245 17.2073 17.2845 17.5705C17.2295 17.7096 17.1645 17.844 17.0945 17.9996L11.317 17.9831ZM12.547 32.58C12.392 32.6625 12.3195 32.6295 12.3195 32.4645C12.3195 31.5212 12.3195 30.5779 12.3195 29.6347C12.3195 29.3989 12.5145 29.3541 12.6545 29.2597C12.9045 29.09 13.1795 28.932 13.442 28.774C13.7535 28.5605 14.0801 28.3675 14.4195 28.1962H14.4445C14.6945 28.0335 14.9445 27.8661 15.1945 27.7057C15.367 27.5949 15.542 27.4841 15.722 27.3827C15.852 27.3072 15.9345 27.3567 15.9345 27.5077V30.3751C15.9464 30.4354 15.933 30.4976 15.8971 30.5487C15.8611 30.5998 15.8055 30.6356 15.742 30.6487C15.5847 30.7125 15.4361 30.794 15.2995 30.8916C15.0495 31.0566 14.7995 31.2241 14.5495 31.3844C14.4195 31.467 14.2745 31.5283 14.142 31.6084C14.0095 31.6886 13.822 31.8089 13.6595 31.9079L12.9995 32.3065L12.6095 32.5423C12.582 32.5423 12.567 32.5682 12.547 32.58ZM15.047 34.9146C14.9345 35.0395 14.817 35.1645 14.707 35.2919C14.597 35.4192 14.4295 35.6149 14.297 35.78C14.1645 35.9451 14.047 35.9026 13.9195 35.7517C13.792 35.6008 13.6845 35.4522 13.5595 35.3084C13.3095 35.0207 13.0595 34.7353 12.8095 34.45C12.7893 34.4261 12.7746 34.3984 12.7664 34.3688C12.7581 34.3393 12.7566 34.3084 12.7617 34.2782C12.7669 34.2479 12.7787 34.2191 12.7964 34.1935C12.8142 34.1678 12.8373 34.146 12.8645 34.1293C13.2295 33.8935 13.6145 33.6836 13.967 33.4572C14.2445 33.2874 14.5145 33.1129 14.787 32.9408C15.0595 32.7687 15.3845 32.5564 15.687 32.3725C15.7421 32.3422 15.8074 32.3329 15.8695 32.3465C15.892 32.3465 15.9095 32.4338 15.9095 32.4833C15.9095 32.7026 15.9095 32.9219 15.9095 33.1412C15.9095 33.3629 15.9095 33.5869 15.9095 33.8109C15.9041 33.8829 15.8762 33.9518 15.8295 34.009C15.5695 34.3132 15.3045 34.6127 15.0395 34.9146H15.047Z" fill="white"/>
<path d="M19.9701 33.1931C19.8855 33.2088 19.7977 33.2001 19.7184 33.1681C19.639 33.1362 19.5717 33.0824 19.5251 33.0139C19.5003 32.9818 19.4698 32.9539 19.4351 32.9314C19.3336 32.8649 19.2573 32.7695 19.2173 32.6592C19.1773 32.5489 19.1756 32.4295 19.2126 32.3182C19.2481 32.203 19.3076 32.0956 19.3876 32.0023C19.6826 31.5904 19.9818 31.1816 20.2851 30.776C20.5351 30.4553 20.7676 30.137 21.0176 29.821C21.1251 29.6818 21.2526 29.5569 21.3751 29.4248C21.4799 29.3491 21.6082 29.308 21.7401 29.308C21.8721 29.308 22.0004 29.3491 22.1051 29.4248C22.1726 29.5038 22.2489 29.5758 22.3326 29.6394C22.3941 29.69 22.4443 29.7516 22.4802 29.8207C22.5162 29.8898 22.5372 29.9649 22.5421 30.0417C22.547 30.1185 22.5357 30.1955 22.5087 30.2681C22.4818 30.3407 22.4397 30.4076 22.3851 30.4647C22.2051 30.7006 22.0326 30.9364 21.8526 31.1722C21.7326 31.3302 21.6026 31.4787 21.4851 31.6438C21.3676 31.8089 21.2351 32.0353 21.0926 32.2334C21.0926 32.2334 21.0926 32.2499 21.0926 32.2569C20.8665 32.5899 20.5893 32.8895 20.2701 33.1459C20.1926 33.1955 20.0676 33.179 19.9701 33.1931Z" fill="white"/>
<path d="M8.24987 33.1625C8.05237 33.2167 7.92737 33.12 7.79737 32.9974C7.4369 32.6258 7.11071 32.2258 6.82237 31.8018L6.59737 31.4929C6.36487 31.1746 6.13487 30.8515 5.89987 30.5331C5.78409 30.4307 5.71223 30.2917 5.69794 30.1426C5.68365 29.9935 5.72793 29.8446 5.82237 29.7243C5.92628 29.6066 6.04088 29.4977 6.16487 29.3989C6.26388 29.3349 6.3811 29.3007 6.50112 29.3007C6.62114 29.3007 6.73835 29.3349 6.83737 29.3989C7.15423 29.6825 7.42769 30.0063 7.64987 30.361C7.86987 30.6605 8.04987 30.9883 8.30237 31.2712C8.56064 31.5643 8.78836 31.8802 8.98237 32.2145C9.03417 32.3053 9.05523 32.4089 9.04272 32.5114C9.0302 32.6138 8.98471 32.7102 8.91237 32.7875C8.82131 32.899 8.71448 32.9982 8.59487 33.0823C8.4876 33.133 8.37306 33.1688 8.25487 33.1884L8.24987 33.1625Z" fill="white"/>
<path d="M7.3576 35.7399C7.23278 35.7563 7.10562 35.7445 6.98655 35.7056C6.86748 35.6666 6.75989 35.6016 6.6726 35.5159C6.4651 35.3673 6.2451 35.2376 6.0301 35.0961C5.8851 34.9994 5.7326 34.9098 5.5976 34.8037C5.3226 34.5868 5.0576 34.3627 4.7901 34.1387C4.5901 33.9713 4.6276 33.7449 4.6351 33.528C4.6351 33.5067 4.6651 33.4855 4.6826 33.4667C4.76117 33.3985 4.83546 33.326 4.9051 33.2497C5.1326 32.9667 5.4376 33.0139 5.7376 33.0846C5.8401 33.1082 5.9201 33.2049 6.0126 33.2662C6.27198 33.4225 6.52234 33.5917 6.7626 33.7732C7.1251 34.0751 7.5651 34.2778 7.9001 34.6151C7.97368 34.6795 8.03166 34.7581 8.07006 34.8456C8.10846 34.9331 8.12638 35.0274 8.1226 35.1221C8.12703 35.1911 8.11417 35.2602 8.08508 35.3237C8.05598 35.3872 8.01145 35.4433 7.9551 35.4876C7.94 35.4975 7.92652 35.5094 7.9151 35.5229C7.85987 35.6114 7.77555 35.6805 7.67493 35.7196C7.57431 35.7588 7.46289 35.7659 7.3576 35.7399Z" fill="white"/>
<path d="M20.8802 35.7399C20.4852 35.8413 20.3252 35.5489 20.1302 35.339C20.0727 35.2754 20.1152 35.1362 20.1002 35.0348C20.0908 34.9679 20.1002 34.8998 20.1274 34.8373C20.1546 34.7748 20.1987 34.7202 20.2552 34.6787C20.4687 34.452 20.7225 34.2621 21.0052 34.1175C21.1181 34.0488 21.2236 33.9698 21.3202 33.8817C21.3927 33.8275 21.4727 33.7779 21.5477 33.7261C21.8177 33.5398 22.0827 33.3488 22.3527 33.1672C22.4865 33.0777 22.6476 33.032 22.8115 33.0371C22.9754 33.0422 23.133 33.0978 23.2602 33.1955C23.3002 33.2379 23.3427 33.2757 23.3852 33.3157C23.4977 33.4242 23.6177 33.5138 23.5977 33.7001C23.6014 33.7954 23.584 33.8903 23.5466 33.9788C23.5091 34.0674 23.4524 34.1475 23.3802 34.2142C23.1552 34.384 22.9252 34.549 22.6952 34.7165C22.5202 34.8415 22.3452 34.9664 22.1652 35.0891C21.8777 35.2895 21.5977 35.4994 21.2952 35.6786C21.1606 35.7307 21.0179 35.7617 20.8727 35.7706L20.8802 35.7399Z" fill="white"/>
<path d="M54.9774 16.9432C55.9774 17.2167 56.7449 17.396 57.4974 17.6506C58.2469 17.8742 58.9184 18.2844 59.4412 18.8381C59.9639 19.3918 60.3185 20.0684 60.4674 20.7964C60.6396 21.4529 60.7369 22.1248 60.7574 22.8008C60.7824 27.5501 60.7724 32.2994 60.7574 37.0487C60.7574 38.4989 60.5774 38.6569 59.0374 38.6593H58.4749C57.1974 38.6593 57.0674 38.5414 57.0649 37.3458C57.0649 32.4503 57.0649 27.5548 57.0524 22.657C57.0493 22.0691 56.9653 21.4841 56.8024 20.9167C56.4974 19.8649 54.6749 18.9146 53.6399 19.266C53.5366 19.3357 53.4516 19.4267 53.3914 19.5322C53.3312 19.6376 53.2973 19.7547 53.2924 19.8744C53.2524 20.787 53.2724 21.7019 53.2724 22.6169C53.2724 26.9535 53.2724 31.2877 53.2724 35.6244C53.2724 37.5462 52.1199 38.6498 50.0774 38.664C46.7924 38.6876 43.5091 38.6876 40.2274 38.664C38.1349 38.6498 37.2274 37.8198 37.2274 35.8531C37.2074 28.0068 37.2074 20.1613 37.2274 12.3165C37.2274 10.4772 37.8824 9.63062 39.7599 9.5811C43.5974 9.4797 47.4424 9.53866 51.2824 9.64713C52.5624 9.6825 53.2424 10.5762 53.2824 11.8095C53.3074 12.7174 53.2824 13.6253 53.2824 14.7926C54.0724 14.1064 54.6849 13.5899 55.2824 13.0546C56.4524 11.9911 57.6099 10.9158 58.7824 9.84286C59.5699 9.11419 59.8724 9.10947 60.6524 9.82635C62.4349 11.4605 62.4249 11.5148 60.4199 12.9721C58.8124 14.1512 57.2224 15.3302 55.6249 16.5093C55.4449 16.6131 55.2774 16.7286 54.9774 16.9432Z" fill="#FE201D"/>
<path d="M217.802 28.7905C219.147 29.4201 220.17 30.1063 220.582 31.3656C221.53 34.2566 219.995 37.0675 216.762 37.9188C215.018 38.3617 213.223 38.6063 211.417 38.6475C207.825 38.756 204.227 38.6828 200.632 38.6781C198.205 38.6781 197.395 37.933 197.382 35.6739C197.382 27.9486 197.382 20.2226 197.382 12.4958C197.382 10.2036 198.212 9.43018 200.672 9.43018C204.077 9.43018 207.487 9.38773 210.892 9.43018C213.157 9.46791 215.375 9.83106 217.392 10.8616C220.615 12.4958 222.297 15.0732 222.412 18.4996C222.474 19.9404 222.378 21.3834 222.125 22.8055C221.677 25.3099 220.42 27.4039 217.802 28.7905ZM213.5 12.451V13.5522C213.5 15.9402 213.5 18.3282 213.5 20.7162C213.5 22.6923 213.525 24.6661 213.5 26.6422C213.487 27.385 213.727 27.5619 214.5 27.3497C215.845 26.9865 217 26.3404 217.75 25.2273C219.867 22.1122 220.075 18.8014 218.457 15.4646C217.542 13.6347 215.787 12.7693 213.5 12.451ZM213.5 35.8979C214.287 35.7588 214.902 35.6951 215.5 35.5371C216.927 35.148 217.737 34.2637 217.75 33.1577C217.762 32.0518 217 31.1109 215.657 30.6298C213.657 29.9224 213.51 30.0026 213.51 31.9905C213.5 33.2497 213.5 34.4948 213.5 35.8979Z" fill="white"/>
<path d="M270 22.0156V35.7257C270 37.9872 269.268 38.6734 266.853 38.6758C263.663 38.6758 260.473 38.6758 257.285 38.6758C254.873 38.6758 254.063 37.9282 254.058 35.6503C254.044 26.54 254.044 17.429 254.058 8.31714C254.058 6.11464 254.9 5.34117 257.24 5.33174C260.49 5.31445 263.74 5.31445 266.99 5.33174C269.28 5.33174 269.99 6.03918 269.99 8.22046C269.997 12.8173 270 17.4156 270 22.0156Z" fill="white"/>
<path d="M80.3523 22.0273C80.3523 26.6304 80.3523 31.2327 80.3523 35.8342C80.3523 37.9401 79.6023 38.6404 77.3523 38.6475C74.1306 38.6569 70.909 38.6569 67.6873 38.6475C65.3298 38.6475 64.5498 37.8952 64.5498 35.6503C64.5498 26.562 64.5498 17.4746 64.5498 8.38789C64.5498 6.08635 65.2998 5.37891 67.7548 5.37419C70.9148 5.37419 74.0723 5.37419 77.2323 5.37419C77.4198 5.37419 77.6073 5.37419 77.7948 5.37419C79.6123 5.44965 80.3398 6.14059 80.3448 7.85495C80.3448 11.8638 80.3448 15.8726 80.3448 19.8814L80.3523 22.0273Z" fill="#FE201D"/>
<path d="M158.567 29.4767C158.567 32.0722 158.567 34.6662 158.567 37.2585C158.567 38.506 158.422 38.6428 157.13 38.6475C155.43 38.6475 155.38 38.6003 155.38 36.9449C155.38 32.3418 155.38 27.7388 155.38 23.1357C155.391 22.6627 155.362 22.1896 155.295 21.7208C155.045 20.2611 153.867 19.7093 152.462 20.3413C151.85 20.6172 151.617 21.0181 151.62 21.6666C151.642 26.3003 151.62 30.9317 151.62 35.5654C151.62 37.8575 150.79 38.631 148.347 38.6451C145.22 38.6451 142.097 38.6593 138.962 38.6451C138.369 38.6341 137.78 38.5452 137.212 38.381C136.859 38.3011 136.541 38.1174 136.305 37.8564C136.069 37.5953 135.927 37.2704 135.9 36.9284C135.847 36.4568 135.765 35.9852 135.762 35.5135C135.752 30.7611 135.752 26.0102 135.762 21.261C135.762 21.0534 135.762 20.8459 135.762 20.6408C135.827 18.6694 136.58 17.877 138.66 17.844C141.85 17.7898 145.042 17.8181 148.232 17.844C148.732 17.844 149.302 17.903 149.68 18.1506C150.447 18.6552 151.032 18.3487 151.725 18.0468C153.532 17.2592 155.315 17.1177 157.022 18.351C157.227 18.4996 157.737 18.4453 158.002 18.3086C159.187 17.6978 160.427 17.3653 161.775 17.4879C163.507 17.6577 164.662 18.568 165.172 20.1243C165.408 20.8259 165.536 21.5557 165.552 22.2915C165.585 27.3072 165.572 32.323 165.57 37.3411C165.57 38.5201 165.395 38.6498 164.037 38.6475C162.51 38.6475 162.41 38.5744 162.41 37.3741C162.41 32.7121 162.41 28.05 162.41 23.388C162.401 22.741 162.336 22.0959 162.215 21.459C162.189 21.2445 162.116 21.0373 162.002 20.8504C161.887 20.6636 161.732 20.5012 161.548 20.3734C161.363 20.2456 161.153 20.1552 160.929 20.1079C160.706 20.0606 160.475 20.0573 160.25 20.0984C159.075 20.2611 158.542 20.8554 158.552 21.8552C158.575 24.3926 158.552 26.9299 158.552 29.4696L158.567 29.4767Z" fill="#FE201D"/>
<path d="M240.965 30.1535C241.51 31.4811 241.825 32.6673 242.452 33.6907C243.495 35.3838 245.342 35.7045 247.355 34.7636C247.715 34.5962 248.327 34.3274 248.485 34.4594C248.927 34.868 249.274 35.3597 249.502 35.9026C249.565 36.0347 249.202 36.4379 248.95 36.5912C245.095 38.9493 240.837 39.6851 236.32 39.3078C233.625 39.072 231.07 38.4022 228.93 36.8011C225.6 34.3062 224.662 30.868 225 27.0667C225.535 20.9591 229.957 17.9714 235.672 17.2568C238.725 16.8772 241.725 17.0635 244.62 18.0963C248.28 19.4051 250.18 22.0533 250.777 25.5976C250.926 26.6196 250.999 27.6503 250.995 28.682C251.022 29.9625 250.805 30.1464 249.407 30.1511C247.062 30.1511 244.717 30.1511 242.372 30.1511L240.965 30.1535ZM247.842 27.5902C247.865 26.1187 247.787 24.7816 247.117 23.5342C246.906 23.0862 246.562 22.7052 246.126 22.4371C245.691 22.169 245.182 22.0251 244.662 22.0226C243.547 21.992 242.54 22.3787 242.162 23.3927C241.712 24.5718 241.485 25.8145 241.227 27.0431C241.2 27.1846 241.605 27.5619 241.815 27.5666C243.77 27.602 245.75 27.5902 247.842 27.5902Z" fill="white"/>
<path d="M99.8901 30.1205C99.7751 32.5305 101.28 34.7731 103.163 35.2258C104.28 35.497 105.285 35.2093 106.195 34.6599C107.105 34.1104 107.353 34.7613 107.75 35.2919C108.2 35.8908 108.098 36.2351 107.428 36.6242C102.66 39.3455 97.5626 39.9869 92.1776 38.7937C89.3201 38.1594 86.8901 36.8388 85.2851 34.4264C83.9101 32.3583 83.4751 30.0544 83.5851 27.6515C83.7251 24.6826 84.7226 22.0439 87.1676 20.0442C88.8326 18.6835 90.8201 17.9218 92.9676 17.5162C96.3151 16.8654 99.6301 16.9762 102.858 18.035C106.898 19.3579 108.878 22.2325 109.358 26.1258C109.454 26.8858 109.509 27.6501 109.52 28.4155C109.543 29.9601 109.363 30.1158 107.68 30.1205C105.43 30.1205 103.18 30.1205 100.93 30.1205H99.8901ZM103.105 27.668C103.948 27.668 104.793 27.6444 105.635 27.668C106.273 27.6939 106.608 27.4817 106.495 26.8592C106.308 25.8216 106.178 24.7651 105.858 23.7629C105.513 22.6876 104.62 22.0792 103.42 21.9825C102.138 21.8764 101.068 22.3457 100.613 23.4776C100.158 24.6095 99.9726 25.7909 99.7026 26.9606C99.5901 27.4322 99.8701 27.668 100.385 27.668C101.293 27.6609 102.198 27.668 103.105 27.668Z" fill="#FE201D"/>
<path d="M184.055 38.6428C182.055 38.6428 180.055 38.6711 178.055 38.6428C176.205 38.6349 174.379 38.2571 172.695 37.5344C170.318 36.4851 169.113 34.6434 169 32.2098C168.88 29.6158 169.973 27.51 172.473 26.3144C173.723 25.7131 175.153 25.3712 176.54 25.0953C177.35 24.9326 177.725 24.692 177.593 23.9162C177.583 23.7694 177.583 23.6221 177.593 23.4752C177.563 21.5887 176.378 20.7162 174.44 21.2303C173.598 21.4548 172.79 21.7788 172.035 22.1948C171.113 22.7112 170.995 21.959 170.643 21.5439C170.25 21.0723 170.163 20.6007 170.813 20.3012C172.19 19.6857 173.563 18.9948 175.005 18.5845C179.149 17.3847 183.568 17.3185 187.75 18.3935C191.22 19.2778 193.053 21.6524 193.25 24.9043C193.5 28.7551 193.395 32.6272 193.358 36.4898C193.358 37.9306 192.385 38.6121 190.623 38.6451C188.433 38.6734 186.25 38.6428 184.055 38.6428ZM177.583 31.7806C177.583 30.5732 177.583 29.3682 177.583 28.1609C177.583 27.7057 177.465 27.4534 176.905 27.4534C174.135 27.3992 171.948 29.2715 171.958 31.8065C171.958 34.6599 173.89 35.846 176.708 36.1007C177.325 36.1573 177.615 35.9521 177.59 35.3084C177.553 34.134 177.583 32.9573 177.583 31.7806Z" fill="#FE201D"/>
<path d="M126.33 26.4418C127.33 23.9752 128.243 21.7538 129.148 19.5324C129.273 19.2306 129.308 18.8533 129.525 18.6387C129.863 18.3109 130.29 17.9478 130.738 17.8605C131.398 17.7285 132.108 17.8133 132.795 17.8322C133.62 17.8511 133.815 18.1081 133.498 18.8297C132.568 20.952 131.615 23.0743 130.665 25.1754C127.53 32.1414 124.399 39.1081 121.273 46.0756C120.968 46.7595 120.545 47.0377 119.785 46.9953C119.098 46.9599 118.408 46.9953 117.72 46.9953C116.75 46.9741 116.633 46.8184 117.02 46.0072C117.88 44.2103 118.718 42.3993 119.66 40.6377C120.115 39.7888 120.083 39.1215 119.608 38.2796C116.208 32.2145 112.858 26.1211 109.51 20.0347C109.358 19.7774 109.229 19.5084 109.125 19.2306C108.888 18.5231 109.18 18.0727 109.93 17.9147C110.267 17.8549 110.61 17.8304 110.953 17.8416C114.208 17.8416 117.458 17.8416 120.703 17.8416C122.203 17.8416 122.62 18.1364 123.165 19.4169C124.025 21.4378 124.915 23.4517 125.783 25.4679C125.908 25.7178 126.068 25.9654 126.33 26.4418Z" fill="#FE201D"/>
</g>
<defs>
<clipPath id="clip0_1_5">
<rect width="270" height="47" fill="white"/>
</clipPath>
</defs>
</svg>
