<svg width="252" height="45" viewBox="0 0 252 45" fill="none" xmlns="http://www.w3.org/2000/svg">
<g clip-path="url(#clip0_1_207)">
<path d="M26.3109 35.374C26.2079 35.2404 26.0956 35.1137 25.9749 34.9947C25.933 34.95 25.8813 34.9151 25.8235 34.8924C25.7657 34.8697 25.7034 34.8599 25.6412 34.8637H14.7889C14.8032 34.7726 14.8323 34.6842 14.8752 34.6018C15.0806 34.3377 15.2952 34.0848 15.5099 33.8297C15.7246 33.5745 15.9089 33.3781 16.0979 33.1523C16.2547 32.963 16.3381 32.7266 16.3336 32.484C16.3336 30.3165 16.3336 28.1491 16.3336 25.9816V18.9102C16.3336 18.8605 16.3336 18.8086 16.3336 18.7589C16.3336 18.7093 16.3639 18.6483 16.4409 18.6438C16.5435 18.6346 16.6428 18.6044 16.7325 18.5554C16.8222 18.5064 16.9001 18.4395 16.9612 18.3593C17.0379 18.2934 17.1047 18.2174 17.1596 18.1335C17.2786 17.8626 17.3789 17.5826 17.4886 17.3049C17.6286 16.9504 17.7662 16.5915 17.9086 16.237C18.0229 15.9457 18.1419 15.6567 18.2586 15.3632C18.4032 14.9899 18.5463 14.6136 18.6879 14.2343C18.7766 14.0085 18.8606 13.7602 18.9492 13.5254C19.0379 13.2906 19.1266 13.0738 19.2199 12.848C19.2358 12.8022 19.2679 12.7632 19.3106 12.738C19.3533 12.7128 19.4038 12.703 19.4532 12.7103C20.0786 12.7103 20.7039 12.7103 21.3199 12.7103C21.3649 12.7035 21.4093 12.6937 21.4529 12.681C21.6489 12.6561 21.7539 12.5071 21.8636 12.3784C21.9443 12.2836 21.9925 12.1668 22.0012 12.0443C22.0152 11.1592 22.0012 10.2696 22.0176 9.38459C22.0176 8.61243 22.0339 7.84252 22.0409 7.07036C22.0409 6.70459 22.0409 6.34109 22.0409 5.97533C22.0409 5.8805 22.0712 5.86018 22.1576 5.86018C22.4842 5.86018 22.8109 5.83986 23.1352 5.86018C23.2617 5.86566 23.3872 5.83659 23.4973 5.7763C23.6075 5.71601 23.6979 5.62693 23.7582 5.51926C23.827 5.44085 23.8694 5.34394 23.8796 5.24155C23.8796 3.7198 23.8796 2.19805 23.8796 0.678555C23.882 0.633764 23.8715 0.589203 23.8492 0.549861C23.7372 0.407621 23.6159 0.269896 23.5039 0.13217C23.4654 0.0940087 23.4187 0.0645169 23.367 0.0457875C23.3154 0.0270582 23.2602 0.0195502 23.2052 0.0237965C22.4142 0.0237965 21.6232 0.0373433 20.8346 0.0237965C19.7379 0.0237965 18.6412 -0.00555471 17.5446 -0.0078125C16.4106 -0.0078125 15.2742 0.0125076 14.1379 0.0170232C13.8462 0.0283121 13.5522 0.00121866 13.2582 0.00121866C11.8582 0.00121866 10.4582 0.0260543 9.05823 0.0305699C8.25556 0.0305699 7.4669 0.00121866 6.67123 0.00121866C5.78223 0.00121866 4.90023 0.0215388 4.0089 0.0305699C3.71723 0.0305699 3.42556 0.0305699 3.1339 0.0305699C3.05923 0.0305699 2.9589 0.0305699 2.9169 0.0712101C2.68356 0.296989 2.33123 0.470839 2.45023 0.88853C2.45372 0.921558 2.45372 0.954845 2.45023 0.987872C2.45023 2.3877 2.45023 3.78753 2.45023 5.1851C2.47101 5.34333 2.5397 5.49206 2.64765 5.61259C2.7556 5.73312 2.89799 5.82005 3.0569 5.86244C3.28842 5.89832 3.52243 5.91719 3.7569 5.91888C3.87356 5.91888 3.99023 5.91888 4.10923 5.91888C4.22823 5.91888 4.23756 5.91888 4.24456 6.04758C4.2889 6.9665 4.24456 7.88542 4.3099 8.8066C4.3659 9.78863 4.37058 10.7728 4.3239 11.7553C4.30187 11.9067 4.32205 12.061 4.38236 12.2023C4.44266 12.3436 4.5409 12.4668 4.6669 12.559C4.68356 12.5722 4.69916 12.5865 4.71356 12.6019C4.80969 12.677 4.92844 12.7198 5.0519 12.7239C5.63056 12.7239 6.21856 12.7239 6.78323 12.7239C7.0329 12.7239 7.0329 12.7239 7.12623 12.9496C7.13156 12.9606 7.1378 12.9712 7.1449 12.9812C7.22656 13.1641 7.31756 13.3448 7.3899 13.5299C7.51356 13.8415 7.62323 14.1576 7.74223 14.4714C7.77723 14.5707 7.82156 14.6701 7.85656 14.7717C7.89156 14.8733 7.89623 14.9478 7.9289 15.0313C7.99656 15.2119 8.0759 15.3903 8.14823 15.5732C8.23223 15.799 8.31156 16.0247 8.3979 16.2505C8.43523 16.3476 8.49356 16.4379 8.53323 16.5328C8.60556 16.7043 8.66623 16.8804 8.7339 17.0543C8.80156 17.2281 8.89023 17.411 8.9509 17.5939C9.02704 17.924 9.2024 18.2248 9.4549 18.4586C9.5879 18.5648 9.68823 18.6618 9.8819 18.6257C9.9799 18.6077 10.0102 18.6573 10.0079 18.7476C10.0079 18.9463 10.0079 19.1428 10.0079 19.3414C10.0079 21.1823 10.0079 23.0224 10.0079 24.8617C10.0079 27.407 10.0079 29.953 10.0079 32.4998C10.011 32.7808 10.1255 33.0499 10.3276 33.2517C10.3999 33.3307 10.4862 33.3962 10.5609 33.4775C10.7126 33.6649 10.8526 33.8635 11.0066 34.0509C11.1606 34.2383 11.3449 34.4302 11.5012 34.6267C11.5362 34.6975 11.5568 34.7741 11.5619 34.8525C11.506 34.8664 11.449 34.8762 11.3916 34.8818H1.00823C0.436564 34.8818 0.604564 34.8254 0.158897 35.2318C0.063091 35.3305 0.00976562 35.4609 0.00976562 35.5964C0.00976563 35.7319 0.063091 35.8622 0.158897 35.961C0.228897 36.031 0.301231 36.0965 0.368897 36.1665C0.398722 36.1973 0.434916 36.2216 0.47512 36.238C0.515324 36.2543 0.558635 36.2623 0.60223 36.2613H5.21523C6.78479 36.2613 8.35668 36.2613 9.9309 36.2613C10.7522 36.2613 11.5642 36.2613 12.3926 36.2613H21.6139H25.4569C25.9236 36.2613 25.9236 36.2613 26.2246 35.9384L26.2432 35.9204C26.3041 35.8436 26.3425 35.7523 26.3544 35.6562C26.3664 35.56 26.3513 35.4626 26.3109 35.374ZM11.4942 23.5342C11.4895 23.4849 11.5006 23.4355 11.5261 23.3926C11.5516 23.3498 11.5902 23.3156 11.6366 23.2948C11.8699 23.1729 12.0636 23.0216 12.2806 22.8884C12.7169 22.6152 13.1556 22.3511 13.5919 22.0756C13.8252 21.9311 14.0446 21.7731 14.2732 21.6241C14.4014 21.5423 14.5338 21.4669 14.6699 21.3983C14.7294 21.3895 14.79 21.3895 14.8496 21.3983V21.5721C14.8496 22.4278 14.8356 23.2858 14.8496 24.1415C14.8552 24.2405 14.8291 24.3387 14.7748 24.4228C14.7205 24.5069 14.6406 24.5726 14.5462 24.6111C14.3129 24.7353 14.1076 24.8775 13.8906 25.0107L13.2139 25.4217H13.1999C13.0508 25.5626 12.878 25.6779 12.6889 25.7626C12.4696 25.9071 12.2386 26.0358 12.0146 26.1758C11.9236 26.2345 11.8396 26.3067 11.7532 26.3699C11.7338 26.387 11.7127 26.4021 11.6902 26.4151C11.5619 26.4783 11.4942 26.4422 11.4942 26.3022V23.9496C11.4942 23.8119 11.4966 23.6719 11.4942 23.5342ZM14.6209 19.7727C14.4248 19.8787 14.2348 19.9947 14.0516 20.1204C13.8182 20.2604 13.5849 20.3981 13.3632 20.5403C13.1929 20.6487 13.0272 20.7661 12.8569 20.8722C12.6376 21.0122 12.4159 21.1499 12.1942 21.2877C12.0387 21.39 11.873 21.4893 11.6972 21.5857C11.6358 21.6134 11.5717 21.6353 11.5059 21.6512V18.6731H14.8449C14.8449 18.7228 14.8449 18.7612 14.8449 18.8018C14.8344 18.9944 14.8344 19.1873 14.8449 19.3798C14.8615 19.4604 14.8481 19.544 14.8071 19.6159C14.7661 19.6878 14.7002 19.7433 14.6209 19.7727ZM4.1349 4.46261C3.96223 4.46261 3.95056 4.45132 3.95056 4.28199C3.95056 3.41274 3.95056 2.54349 3.95056 1.67424C3.95056 1.49362 3.95056 1.49588 4.1349 1.52297C4.16908 1.52506 4.20337 1.52506 4.23756 1.52297H4.71356C5.62356 1.51168 6.53123 1.49136 7.44123 1.49136C10.0079 1.49136 12.5606 1.51845 15.1202 1.52071C16.4339 1.52071 17.7476 1.49588 19.0612 1.4891C19.9946 1.4891 20.9279 1.4891 21.8612 1.4891C21.9966 1.4891 22.1296 1.4891 22.2649 1.4891C22.3629 1.4891 22.4049 1.51845 22.4026 1.6178C22.4026 2.29513 22.4026 2.94538 22.4026 3.60917C22.4026 3.85752 22.4026 4.10588 22.4026 4.35424C22.4026 4.44455 22.3746 4.48067 22.2766 4.48067C20.9302 4.48067 19.5862 4.48067 18.2376 4.48067C17.3042 4.48067 16.3709 4.48067 15.4376 4.48067H13.1882L4.1349 4.46261ZM6.9349 11.236C6.6059 11.236 6.27923 11.2563 5.95023 11.2653C5.85223 11.2653 5.79156 11.2473 5.7939 11.1276C5.7939 9.43878 5.7939 7.74995 5.7939 6.06112V5.91663C10.7172 5.91663 15.6266 5.91663 20.5522 5.94146C20.5522 6.20788 20.5522 6.46753 20.5522 6.72717C20.5522 7.50159 20.5779 8.27602 20.5849 9.0527C20.5849 9.75713 20.5849 10.4638 20.5849 11.1682C20.5849 11.2563 20.5429 11.2676 20.4752 11.2631C20.3539 11.2631 20.2419 11.2382 20.1159 11.2382C18.8699 11.2382 17.6239 11.2382 16.3826 11.2382C14.2009 11.2382 12.0169 11.2608 9.83523 11.2653C8.8669 11.2744 7.8939 11.2518 6.9279 11.245L6.9349 11.236ZM10.5632 17.2191C10.3579 17.2191 10.3672 17.2191 10.3042 17.0249C10.2412 16.8308 10.1549 16.6479 10.0849 16.4582C10.0149 16.2686 9.93556 16.0067 9.85156 15.7945C9.8189 15.6996 9.7769 15.6071 9.73956 15.5145C9.6579 15.3045 9.57856 15.0923 9.49223 14.8846C9.37323 14.6001 9.2449 14.3179 9.12823 14.0334C9.04423 13.8347 8.9719 13.6337 8.8949 13.4328C8.8179 13.2319 8.76423 13.0964 8.7059 12.9248C8.68845 12.858 8.67597 12.7901 8.66856 12.7216H9.15623C9.79556 12.7216 10.4326 12.7216 11.0719 12.7216L16.6322 12.7374C16.9262 12.7374 17.2226 12.7374 17.5166 12.7374C17.6496 12.7374 17.6846 12.7826 17.6402 12.8977C17.5329 13.1822 17.4209 13.4644 17.3066 13.7444C17.1922 14.0243 17.0546 14.3585 16.9332 14.6678C16.7909 15.0358 16.6556 15.4039 16.5202 15.7741C16.3849 16.1444 16.2636 16.4763 16.1329 16.824C16.0816 16.9572 16.0209 17.0859 15.9556 17.2349L10.5632 17.2191ZM11.7112 31.1948C11.5666 31.2739 11.4989 31.2422 11.4989 31.0842C11.4989 30.1811 11.4989 29.278 11.4989 28.3749C11.4989 28.1491 11.6809 28.1062 11.8116 28.0159C12.0449 27.8533 12.3016 27.702 12.5466 27.5508C12.8372 27.3464 13.1421 27.1616 13.4589 26.9976H13.4822C13.7156 26.8418 13.9489 26.6815 14.1822 26.528C14.3432 26.4219 14.5066 26.3158 14.6746 26.2187C14.7959 26.1464 14.8729 26.1938 14.8729 26.3383V29.0838C14.884 29.1415 14.8714 29.2011 14.8379 29.25C14.8044 29.2989 14.7525 29.3332 14.6932 29.3457C14.5464 29.4068 14.4077 29.4849 14.2802 29.5783C14.0469 29.7363 13.8136 29.8966 13.5802 30.0501C13.4589 30.1292 13.3236 30.1879 13.1999 30.2646C13.0762 30.3414 12.9012 30.4565 12.7496 30.5514L12.1336 30.9329L11.7696 31.1587C11.7439 31.1587 11.7299 31.1835 11.7112 31.1948ZM14.0446 33.43C13.9396 33.5497 13.8299 33.6694 13.7272 33.7913C13.6246 33.9132 13.4682 34.1006 13.3446 34.2586C13.2209 34.4167 13.1112 34.3761 12.9922 34.2316C12.8732 34.0871 12.7729 33.9448 12.6562 33.8071C12.4229 33.5316 12.1896 33.2584 11.9562 32.9853C11.9373 32.9624 11.9236 32.9359 11.9159 32.9076C11.9082 32.8792 11.9068 32.8496 11.9116 32.8207C11.9164 32.7918 11.9275 32.7642 11.944 32.7396C11.9605 32.7151 11.9822 32.6942 12.0076 32.6782C12.3482 32.4524 12.7076 32.2515 13.0366 32.0347C13.2956 31.8722 13.5476 31.7051 13.8019 31.5403C14.0562 31.3755 14.3596 31.1723 14.6419 30.9961C14.6933 30.9671 14.7543 30.9583 14.8122 30.9713C14.8332 30.9713 14.8496 31.0548 14.8496 31.1023C14.8496 31.3122 14.8496 31.5222 14.8496 31.7322C14.8496 31.9444 14.8496 32.1589 14.8496 32.3734C14.8444 32.4423 14.8185 32.5083 14.7749 32.5631C14.5322 32.8543 14.2849 33.141 14.0376 33.43H14.0446Z" fill="#363636"/>
<path d="M18.6381 31.7822C18.5591 31.7973 18.4772 31.7889 18.4031 31.7583C18.329 31.7277 18.2662 31.6763 18.2227 31.6107C18.1995 31.5799 18.1711 31.5532 18.1387 31.5316C18.044 31.468 17.9728 31.3767 17.9354 31.2711C17.8981 31.1655 17.8965 31.0511 17.9311 30.9446C17.9642 30.8343 18.0197 30.7314 18.0944 30.6421C18.3697 30.2477 18.649 29.8563 18.9321 29.468C19.1654 29.161 19.3824 28.8561 19.6157 28.5536C19.7161 28.4204 19.8351 28.3007 19.9494 28.1743C20.0472 28.1018 20.1669 28.0625 20.2901 28.0625C20.4133 28.0625 20.533 28.1018 20.6307 28.1743C20.6937 28.25 20.7649 28.3188 20.8431 28.3798C20.9004 28.4282 20.9473 28.4872 20.9808 28.5533C21.0144 28.6195 21.034 28.6914 21.0386 28.7649C21.0432 28.8385 21.0326 28.9122 21.0074 28.9817C20.9823 29.0512 20.943 29.1152 20.8921 29.17C20.7241 29.3958 20.5631 29.6215 20.3951 29.8473C20.2831 29.9986 20.1617 30.1408 20.0521 30.2989C19.9424 30.4569 19.8187 30.6737 19.6857 30.8633C19.6857 30.8633 19.6857 30.8791 19.6857 30.8859C19.4747 31.2047 19.216 31.4916 18.9181 31.7371C18.8457 31.7845 18.7291 31.7687 18.6381 31.7822Z" fill="#363636"/>
<path d="M7.70066 31.7522C7.51632 31.8041 7.39966 31.7115 7.27832 31.5941C6.94189 31.2383 6.63745 30.8553 6.36832 30.4494L6.15832 30.1536C5.94132 29.8488 5.72666 29.5395 5.50732 29.2347C5.39926 29.1367 5.3322 29.0036 5.31886 28.8608C5.30553 28.7181 5.34685 28.5755 5.43499 28.4603C5.53197 28.3476 5.63893 28.2434 5.75466 28.1487C5.84707 28.0875 5.95647 28.0547 6.06849 28.0547C6.18051 28.0547 6.28991 28.0875 6.38232 28.1487C6.67806 28.4202 6.93329 28.7303 7.14066 29.0699C7.34599 29.3566 7.51399 29.6705 7.74966 29.9414C7.99071 30.222 8.20325 30.5245 8.38432 30.8445C8.43267 30.9315 8.45233 31.0307 8.44065 31.1288C8.42897 31.2269 8.38651 31.3191 8.31899 31.3932C8.234 31.4999 8.1343 31.5949 8.02266 31.6754C7.92254 31.724 7.81564 31.7582 7.70532 31.777L7.70066 31.7522Z" fill="#363636"/>
<path d="M6.86651 34.219C6.75001 34.2346 6.63132 34.2234 6.52019 34.1861C6.40906 34.1488 6.30865 34.0866 6.22717 34.0045C6.03351 33.8622 5.82817 33.7381 5.62751 33.6026C5.49217 33.51 5.34984 33.4242 5.22384 33.3226C4.96717 33.1149 4.71984 32.9004 4.47017 32.6859C4.28351 32.5256 4.31851 32.3089 4.32551 32.1012C4.32551 32.0808 4.35351 32.0605 4.36984 32.0425C4.44317 31.9772 4.51251 31.9078 4.57751 31.8347C4.78984 31.5638 5.07451 31.609 5.35451 31.6767C5.45017 31.6993 5.52484 31.7918 5.61117 31.8505C5.85326 32.0002 6.08693 32.1622 6.31117 32.336C6.64951 32.625 7.06017 32.8191 7.37284 33.142C7.44152 33.2037 7.49563 33.279 7.53147 33.3628C7.56731 33.4465 7.58404 33.5368 7.58051 33.6274C7.58464 33.6935 7.57264 33.7597 7.54549 33.8205C7.51833 33.8812 7.47677 33.935 7.42417 33.9774C7.41008 33.9868 7.3975 33.9983 7.38684 34.0113C7.33529 34.096 7.25659 34.1621 7.16268 34.1996C7.06877 34.2371 6.96478 34.2439 6.86651 34.219Z" fill="#363636"/>
<path d="M19.4872 34.221C19.1185 34.3181 18.9692 34.0381 18.7872 33.8372C18.7335 33.7762 18.7732 33.643 18.7592 33.5459C18.7504 33.4818 18.7592 33.4166 18.7845 33.3568C18.8099 33.297 18.851 33.2447 18.9038 33.205C19.1031 32.9879 19.34 32.8061 19.6038 32.6676C19.7092 32.6019 19.8077 32.5262 19.8978 32.4419C19.9655 32.3899 20.0402 32.3425 20.1102 32.2929C20.3622 32.1145 20.6095 31.9316 20.8615 31.7578C20.9863 31.672 21.1367 31.6283 21.2897 31.6332C21.4427 31.6381 21.5898 31.6914 21.7085 31.7849C21.7458 31.8255 21.7855 31.8616 21.8252 31.9C21.9302 32.0039 22.0422 32.0897 22.0235 32.268C22.027 32.3592 22.0107 32.4501 21.9757 32.5349C21.9408 32.6196 21.8879 32.6964 21.8205 32.7602C21.6105 32.9228 21.3958 33.0808 21.1812 33.2411C21.0178 33.3608 20.8545 33.4804 20.6865 33.5979C20.4182 33.7898 20.1568 33.9907 19.8745 34.1623C19.7489 34.2122 19.6157 34.2419 19.4802 34.2504L19.4872 34.221Z" fill="#363636"/>
<path d="M51.3121 16.2221C52.2454 16.484 52.9618 16.6556 53.6641 16.8995C54.3636 17.1135 54.9904 17.5063 55.4783 18.0364C55.9662 18.5665 56.2971 19.2143 56.4361 19.9113C56.5969 20.5399 56.6876 21.1832 56.7068 21.8305C56.7301 26.3777 56.7208 30.9248 56.7068 35.472C56.7068 36.8606 56.5388 37.0118 55.1014 37.0141H54.5764C53.3841 37.0141 53.2628 36.9012 53.2604 35.7565C53.2604 31.0693 53.2604 26.3822 53.2488 21.6927C53.2459 21.1299 53.1675 20.5698 53.0154 20.0265C52.7308 19.0195 51.0298 18.1096 50.0638 18.446C49.9674 18.5128 49.888 18.5999 49.8318 18.7009C49.7756 18.8019 49.744 18.9139 49.7394 19.0285C49.7021 19.9023 49.7208 20.7783 49.7208 21.6544C49.7208 25.8064 49.7208 29.9562 49.7208 34.1083C49.7208 35.9484 48.6451 37.0051 46.7388 37.0186C43.6728 37.0412 40.6083 37.0412 37.5454 37.0186C35.5924 37.0051 34.7454 36.2103 34.7454 34.3273C34.7268 26.8149 34.7268 19.3032 34.7454 11.7923C34.7454 10.0313 35.3568 9.22071 37.1091 9.1733C40.6908 9.07621 44.2794 9.13266 47.8634 9.23652C49.0581 9.27038 49.6928 10.1261 49.7301 11.3069C49.7534 12.1762 49.7301 13.0454 49.7301 14.163C50.4674 13.506 51.0391 13.0115 51.5968 12.499C52.6888 11.4808 53.7691 10.4512 54.8634 9.42391C55.5984 8.72626 55.8808 8.72174 56.6088 9.40811C58.2724 10.9728 58.2631 11.0247 56.3918 12.42C54.8914 13.5489 53.4074 14.6778 51.9164 15.8067C51.7484 15.906 51.5921 16.0167 51.3121 16.2221Z" fill="#FE201D"/>
<path d="M203.282 27.5653C204.538 28.1681 205.492 28.8251 205.877 30.0308C206.761 32.7988 205.329 35.4901 202.312 36.3052C200.683 36.7292 199.009 36.9634 197.323 37.0028C193.97 37.1067 190.612 37.0367 187.257 37.0322C184.991 37.0322 184.235 36.3187 184.224 34.1557C184.224 26.7592 184.224 19.362 184.224 11.9639C184.224 9.76936 184.998 9.0288 187.294 9.0288C190.472 9.0288 193.655 8.98816 196.833 9.0288C198.947 9.06493 201.017 9.41263 202.9 10.3993C205.907 11.9639 207.478 14.4317 207.585 17.7123C207.643 19.0918 207.553 20.4734 207.317 21.835C206.899 24.2328 205.725 26.2377 203.282 27.5653ZM199.267 11.921V12.9754C199.267 15.2618 199.267 17.5482 199.267 19.8346C199.267 21.7266 199.29 23.6164 199.267 25.5084C199.255 26.2196 199.479 26.3889 200.2 26.1857C201.455 25.838 202.533 25.2194 203.233 24.1537C205.21 21.1712 205.403 18.0013 203.894 14.8065C203.04 13.0544 201.402 12.2258 199.267 11.921ZM199.267 34.3702C200.002 34.237 200.576 34.1761 201.133 34.0248C202.466 33.6523 203.222 32.8056 203.233 31.7467C203.245 30.6878 202.533 29.7869 201.28 29.3263C199.414 28.649 199.276 28.7258 199.276 30.6291C199.267 31.8347 199.267 33.0268 199.267 34.3702Z" fill="#363636"/>
<path d="M252 21.0788V34.2056C252 36.3708 251.316 37.0278 249.062 37.0301C246.085 37.0301 243.109 37.0301 240.133 37.0301C237.881 37.0301 237.125 36.3144 237.12 34.1333C237.108 25.4107 237.108 16.6874 237.12 7.96331C237.12 5.85453 237.907 5.11398 240.091 5.10495C243.124 5.08839 246.157 5.08839 249.191 5.10495C251.328 5.10495 251.991 5.78228 251.991 7.87074C251.997 12.2719 252 16.6746 252 21.0788Z" fill="#363636"/>
<path d="M74.9956 21.09C74.9956 25.4972 74.9956 29.9037 74.9956 34.3094C74.9956 36.3256 74.2956 36.9961 72.1956 37.0029C69.1887 37.0119 66.1818 37.0119 63.1749 37.0029C60.9746 37.0029 60.2466 36.2827 60.2466 34.1333C60.2466 25.4317 60.2466 16.731 60.2466 8.03096C60.2466 5.82736 60.9466 5.15002 63.2379 5.14551C66.1872 5.14551 69.1342 5.14551 72.0836 5.14551C72.2586 5.14551 72.4336 5.14551 72.6086 5.14551C74.3049 5.21776 74.9839 5.87929 74.9886 7.5207C74.9886 11.3589 74.9886 15.1972 74.9886 19.0354L74.9956 21.09Z" fill="#FE201D"/>
<path d="M147.996 28.2224C147.996 30.7075 147.996 33.1911 147.996 35.6731C147.996 36.8675 147.861 36.9984 146.655 37.003C145.068 37.003 145.021 36.9578 145.021 35.3728C145.021 30.9656 145.021 26.5584 145.021 22.1512C145.031 21.6983 145.005 21.2454 144.942 20.7965C144.709 19.399 143.61 18.8706 142.298 19.4757C141.727 19.7399 141.51 20.1237 141.512 20.7446C141.533 25.1812 141.512 29.6155 141.512 34.052C141.512 36.2466 140.737 36.9872 138.458 37.0007C135.539 37.0007 132.624 37.0142 129.698 37.0007C129.144 36.9902 128.595 36.9051 128.065 36.7478C127.735 36.6713 127.438 36.4955 127.218 36.2455C126.998 35.9956 126.866 35.6845 126.84 35.357C126.791 34.9055 126.714 34.4539 126.712 34.0024C126.702 29.4522 126.702 24.9035 126.712 20.3563C126.712 20.1576 126.712 19.9589 126.712 19.7625C126.772 17.875 127.475 17.1163 129.416 17.0847C132.393 17.0328 135.373 17.0599 138.35 17.0847C138.817 17.0847 139.349 17.1412 139.701 17.3782C140.418 17.8614 140.964 17.5679 141.61 17.2789C143.297 16.5248 144.961 16.3893 146.554 17.5702C146.746 17.7124 147.222 17.6605 147.469 17.5295C148.575 16.9448 149.732 16.6264 150.99 16.7438C152.607 16.9064 153.685 17.7779 154.161 19.268C154.381 19.9398 154.5 20.6385 154.516 21.3429C154.546 26.1452 154.534 30.9476 154.532 35.7521C154.532 36.881 154.369 37.0052 153.102 37.003C151.676 37.003 151.583 36.933 151.583 35.7838C151.583 31.3201 151.583 26.8564 151.583 22.3928C151.575 21.7734 151.514 21.1557 151.401 20.5459C151.376 20.3405 151.309 20.1421 151.202 19.9632C151.094 19.7844 150.95 19.6289 150.778 19.5065C150.606 19.3842 150.409 19.2976 150.201 19.2523C149.992 19.207 149.776 19.2039 149.567 19.2432C148.47 19.399 147.973 19.9679 147.982 20.9252C148.003 23.3546 147.982 25.784 147.982 28.2156L147.996 28.2224Z" fill="#FE201D"/>
<path d="M224.9 28.8703C225.409 30.1415 225.703 31.2771 226.289 32.257C227.262 33.8781 228.986 34.1852 230.864 33.2843C231.2 33.124 231.772 32.8666 231.919 32.993C232.332 33.3842 232.656 33.855 232.869 34.3748C232.927 34.5012 232.589 34.8873 232.353 35.0341C228.755 37.2919 224.781 37.9963 220.565 37.6351C218.05 37.4093 215.665 36.7681 213.668 35.235C210.56 32.8463 209.685 29.5544 210 25.9149C210.499 20.0672 214.627 17.2066 219.961 16.5225C222.81 16.159 225.61 16.3373 228.312 17.3262C231.728 18.5793 233.501 21.1148 234.059 24.5083C234.198 25.4869 234.266 26.4737 234.262 27.4615C234.287 28.6874 234.084 28.8635 232.78 28.8681C230.591 28.8681 228.403 28.8681 226.214 28.8681L224.9 28.8703ZM231.319 26.4161C231.34 25.0072 231.268 23.7271 230.643 22.5327C230.445 22.1037 230.124 21.739 229.718 21.4823C229.311 21.2256 228.837 21.0878 228.351 21.0855C227.311 21.0561 226.37 21.4264 226.018 22.3972C225.598 23.5261 225.386 24.716 225.145 25.8923C225.12 26.0278 225.498 26.389 225.694 26.3935C227.518 26.4274 229.366 26.4161 231.319 26.4161Z" fill="#363636"/>
<path d="M93.2307 28.8388C93.1234 31.1463 94.5281 33.2935 96.2851 33.727C97.3281 33.9866 98.2661 33.7111 99.1154 33.1851C99.9647 32.659 100.196 33.2822 100.567 33.7902C100.987 34.3637 100.891 34.6933 100.266 35.0658C95.8161 37.6713 91.0584 38.2854 86.0324 37.143C83.3654 36.5356 81.0974 35.2713 79.5994 32.9616C78.3161 30.9815 77.9101 28.7756 78.0127 26.4749C78.1434 23.6324 79.0744 21.1059 81.3564 19.1913C82.9104 17.8886 84.7654 17.1593 86.7697 16.771C89.8941 16.1478 92.9881 16.2539 96.0004 17.2677C99.7711 18.5343 101.619 21.2865 102.067 25.0141C102.157 25.7418 102.208 26.4736 102.219 27.2065C102.24 28.6853 102.072 28.8343 100.501 28.8388C98.4014 28.8388 96.3014 28.8388 94.2014 28.8388H93.2307ZM96.2314 26.4907C97.0177 26.4907 97.8064 26.4682 98.5927 26.4907C99.1877 26.5156 99.5004 26.3124 99.3954 25.7163C99.2204 24.7229 99.0991 23.7114 98.8004 22.7518C98.4784 21.7223 97.6454 21.1398 96.5254 21.0472C95.3284 20.9456 94.3297 21.3949 93.9051 22.4786C93.4804 23.5624 93.3077 24.6935 93.0557 25.8134C92.9507 26.265 93.2121 26.4907 93.6927 26.4907C94.5397 26.484 95.3844 26.4907 96.2314 26.4907Z" fill="#FE201D"/>
<path d="M171.785 36.9983C169.918 36.9983 168.051 37.0254 166.185 36.9983C164.458 36.9908 162.753 36.6291 161.182 35.9372C158.963 34.9325 157.838 33.1691 157.733 30.8391C157.621 28.3555 158.641 26.3393 160.974 25.1946C162.141 24.6189 163.476 24.2915 164.771 24.0273C165.527 23.8715 165.877 23.6413 165.753 22.8984C165.744 22.7578 165.744 22.6168 165.753 22.4762C165.725 20.67 164.619 19.8346 162.811 20.3268C162.025 20.5417 161.271 20.852 160.566 21.2503C159.705 21.7447 159.595 21.0245 159.266 20.6271C158.9 20.1755 158.818 19.724 159.425 19.4372C160.711 18.848 161.992 18.1864 163.338 17.7936C167.205 16.6449 171.33 16.5815 175.233 17.6107C178.472 18.4574 180.182 20.731 180.367 23.8445C180.6 27.5314 180.502 31.2387 180.467 34.937C180.467 36.3165 179.559 36.969 177.914 37.0006C175.87 37.0277 173.833 36.9983 171.785 36.9983ZM165.744 30.4282C165.744 29.2722 165.744 28.1184 165.744 26.9625C165.744 26.5267 165.634 26.2851 165.111 26.2851C162.526 26.2332 160.484 28.0259 160.494 30.453C160.494 33.1849 162.297 34.3206 164.927 34.5644C165.503 34.6186 165.774 34.4222 165.751 33.8058C165.716 32.6814 165.744 31.5548 165.744 30.4282Z" fill="#FE201D"/>
<path d="M117.908 25.3166C118.842 22.9549 119.693 20.8281 120.538 18.7012C120.655 18.4122 120.687 18.051 120.89 17.8455C121.205 17.5317 121.604 17.184 122.022 17.1005C122.638 16.974 123.301 17.0553 123.942 17.0734C124.712 17.0914 124.894 17.3375 124.598 18.0284C123.73 20.0604 122.841 22.0924 121.954 24.1041C119.028 30.7736 116.106 37.4439 113.188 44.1149C112.903 44.7697 112.509 45.0361 111.8 44.9955C111.158 44.9616 110.514 44.9955 109.872 44.9955C108.967 44.9751 108.857 44.8261 109.219 44.0494C110.022 42.329 110.803 40.595 111.683 38.9085C112.108 38.0956 112.077 37.4567 111.634 36.6507C108.461 30.8436 105.334 25.0095 102.21 19.1821C102.068 18.9358 101.947 18.6782 101.85 18.4122C101.629 17.7349 101.902 17.3037 102.602 17.1524C102.916 17.0951 103.236 17.0717 103.556 17.0824C106.594 17.0824 109.627 17.0824 112.656 17.0824C114.056 17.0824 114.446 17.3646 114.954 18.5906C115.757 20.5255 116.588 22.4537 117.397 24.3841C117.514 24.6234 117.663 24.8605 117.908 25.3166Z" fill="#FE201D"/>
</g>
<defs>
<clipPath id="clip0_1_207">
<rect width="252" height="45" fill="white"/>
</clipPath>
</defs>
</svg>
