<svg width="17" height="17" viewBox="0 0 17 17" fill="none" xmlns="http://www.w3.org/2000/svg">
<path d="M15.6634 7.84395C15.6634 3.52619 12.1373 0 7.81968 0C3.50207 0.000167314 0 3.52637 0 7.84395C0 12.1618 3.52605 15.688 7.84368 15.688C9.73852 15.688 11.4897 15.0163 12.8569 13.8649L15.7832 16.7913C16.0614 17.0696 16.5124 17.0696 16.7906 16.7913C17.0691 16.5129 17.0699 16.0616 16.7924 15.7821L13.8643 12.8333C14.9917 11.4901 15.6634 9.73907 15.6634 7.84395ZM7.84368 14.2247C4.31761 14.2247 1.4392 11.3462 1.4392 7.82001C1.4392 4.2938 4.31757 1.41527 7.84368 1.41527C11.3697 1.41527 14.2481 4.29375 14.2481 7.82001C14.2481 11.3462 11.3697 14.2247 7.84368 14.2247Z" fill="#363636"/>
</svg>
