<svg width="70" height="70" viewBox="0 0 70 70" fill="none" xmlns="http://www.w3.org/2000/svg">
<path d="M68.9948 29.1743L62.6653 28.1191L59.6051 20.0328L62.8156 14.6061C63.086 14.1484 63.0122 13.5654 62.6361 13.1893L56.8111 7.36433C56.4211 6.97426 55.8105 6.91082 55.3487 7.21298L48.8809 11.4501L41.9023 8.53762L40.8304 1.03634H40.8309C40.7498 0.461123 40.2583 0.0330811 39.6773 0.0330811H30.3573C29.7779 0.0330811 29.2865 0.459032 29.2038 1.03269L28.1324 8.53757L21.1595 11.4501L14.6854 7.2092H14.686C14.2241 6.90703 13.6135 6.97048 13.2235 7.36107L7.39851 13.1861C7.00792 13.5767 6.94552 14.1888 7.24976 14.6501L11.5603 21.1976L8.5776 28.0965L1.067 29.1695C0.493335 29.2521 0.0673828 29.7436 0.0673828 30.323V39.643C0.0673828 40.2224 0.493335 40.7139 1.067 40.7966L8.5776 41.8696L11.5635 48.7654L7.25296 55.3129V55.3124C6.94923 55.7742 7.01164 56.3858 7.40223 56.7769L13.2272 62.6019C13.6173 62.992 14.2274 63.0555 14.6891 62.7533L21.1539 58.5161L28.1325 61.4287L29.2044 68.9299H29.2039C29.285 69.5052 29.7765 69.9332 30.3574 69.9332H39.6774C40.2568 69.9332 40.7483 69.5072 40.831 68.9336L41.9029 61.4323L48.881 58.5162L55.355 62.7571C55.8164 63.0592 56.4269 62.9958 56.817 62.6052L62.642 56.7802C63.0326 56.3896 63.095 55.7775 62.7912 55.3162L58.4807 48.7687L61.4629 41.8698L68.9735 40.7968C69.545 40.7115 69.9679 40.2211 69.9673 39.6433V30.3232C69.9673 29.7543 69.5559 29.2685 68.9948 29.1743ZM67.6374 38.6332L60.482 39.6547C60.0815 39.7129 59.7398 39.974 59.5791 40.3459L56.0841 48.4172V48.4166C55.9281 48.7776 55.964 49.1931 56.1808 49.5213L60.3176 55.8009L55.8344 60.2851L49.6345 56.2237C49.3104 56.0141 48.9037 55.9767 48.5464 56.1234L40.3914 59.5378C40.0149 59.6975 39.7496 60.0428 39.6924 60.448L38.6673 67.6033H31.3673L30.3459 60.448C30.2887 60.0428 30.0234 59.6975 29.6469 59.5378L21.4919 56.1255V56.126C21.1346 55.9783 20.7278 56.0158 20.4033 56.2259L14.2054 60.2846L9.72217 55.8003L13.8589 49.5208L13.8594 49.5213C14.0758 49.1926 14.1117 48.7776 13.9551 48.4166L10.4601 40.3454V40.3459C10.2994 39.974 9.95773 39.7129 9.55727 39.6547L2.39723 38.6332V31.3332L9.55261 30.3118C9.95307 30.2535 10.2948 29.9925 10.4555 29.6206L13.9505 21.5493V21.5498C14.1065 21.1889 14.0706 20.7733 13.8537 20.4452L9.71699 14.1656L14.2002 9.68134L20.4001 13.7427C20.7241 13.9523 21.1309 13.9898 21.4882 13.8431L29.6432 10.4287C30.0197 10.269 30.285 9.92365 30.3422 9.51851L31.3673 2.36313H38.6672L39.6887 9.51851C39.7459 9.92366 40.0112 10.269 40.3877 10.4287L48.5427 13.841V13.8405C48.9 13.9882 49.3067 13.9507 49.6313 13.7406L55.8292 9.68187L60.3446 14.1973L57.3156 19.3233C57.1357 19.6276 57.104 19.9968 57.2293 20.3276L60.7243 29.5649C60.871 29.9524 61.2127 30.2327 61.6215 30.3009L67.6374 31.3098L67.6374 38.6332Z" fill="#FE201D"/>
<path d="M35.0167 16.3434C30.0733 16.3434 25.3322 18.3072 21.8361 21.8028C18.3406 25.2989 16.3767 30.04 16.3767 34.9834C16.3767 39.9269 18.3406 44.668 21.8361 48.1641C25.3322 51.6596 30.0733 53.6235 35.0167 53.6235C39.9602 53.6235 44.7013 51.6596 48.1974 48.1641C51.6929 44.668 53.6568 39.9269 53.6568 34.9834C53.6511 30.0415 51.6851 25.304 48.1906 21.8096C44.6961 18.3151 39.9586 16.3491 35.0167 16.3434ZM35.0167 51.2935C30.6912 51.2935 26.5425 49.5751 23.4838 46.5164C20.4251 43.4577 18.7067 39.309 18.7067 34.9834C18.7067 30.6579 20.4251 26.5091 23.4838 23.4504C26.5425 20.3917 30.6912 18.6734 35.0167 18.6734C39.3423 18.6734 43.491 20.3917 46.5497 23.4504C49.6084 26.5091 51.3268 30.6579 51.3268 34.9834C51.3221 39.3075 49.6022 43.4536 46.5445 46.5112C43.4869 49.5689 39.3408 51.2888 35.0167 51.2935Z" fill="#FE201D"/>
<path d="M37.6494 24.0269C37.4054 23.7013 36.9797 23.5682 36.5937 23.697C36.2073 23.8258 35.9468 24.1873 35.9468 24.5944V28.7397L35.0008 29.2126L34.0549 28.7397V24.5944C34.0549 24.2118 33.8243 23.8672 33.4709 23.7207C33.1174 23.5742 32.7107 23.6552 32.44 23.9255L29.6022 26.7633C29.4249 26.9407 29.3252 27.1814 29.3252 27.4322V31.216C29.3252 31.4668 29.4249 31.7075 29.6022 31.8849L32.1631 34.4453V45.4052C32.1631 45.656 32.2627 45.8968 32.4401 46.0741C32.6174 46.2515 32.8582 46.3511 33.109 46.3511H36.8927C37.1436 46.3511 37.3843 46.2515 37.5617 46.0741C37.739 45.8968 37.8387 45.656 37.8387 45.4052V34.4453L40.3995 31.8845V31.8849C40.5769 31.7075 40.6765 31.4668 40.6765 31.216V28.3782C40.6765 28.1733 40.6102 27.9744 40.4874 27.8106L37.6494 24.0269ZM38.7846 30.8245L36.2237 33.3854V33.3849C36.0464 33.5623 35.9467 33.803 35.9467 34.0539V44.4592H34.0548V34.0539C34.0548 33.803 33.9552 33.5623 33.7778 33.3849L31.217 30.8245V27.8237L32.1629 26.8778V29.3241C32.1629 29.6826 32.3652 30.0103 32.6861 30.1708L34.578 31.1167C34.844 31.2498 35.1574 31.2498 35.4234 31.1167L37.3153 30.1708C37.6362 30.0103 37.8385 29.6826 37.8385 29.3241V27.4322L38.7844 28.6932L38.7846 30.8245Z" fill="#FE201D"/>
</svg>
