<svg width="28" height="28" viewBox="0 0 28 28" fill="none" xmlns="http://www.w3.org/2000/svg">
<g clip-path="url(#clip0_1_196)">
<path d="M22.09 18.5399C22.0057 18.5899 21.9074 18.611 21.81 18.5999H20C19.7 18.5999 19.56 18.4499 19 17.8599C18.76 17.5999 18.47 17.2899 18.08 16.8599C16.87 15.7099 16.33 15.5599 15.95 15.5599C15.8362 15.5491 15.7213 15.5621 15.6128 15.5983C15.5043 15.6345 15.4046 15.6929 15.32 15.7699C15.05 16.0299 15.05 16.4399 15.06 17.4299C15.06 17.6699 15.06 17.9299 15.06 18.2399C15.06 18.5499 15.06 18.5599 14.13 18.5599C13.0484 18.4843 12 18.1541 11.0702 17.5962C10.1405 17.0384 9.35577 16.2687 8.78004 15.3499C6.60004 12.3999 5.90004 9.99993 5.90004 9.51993C5.89465 9.49353 5.89465 9.46632 5.90004 9.43993C5.90004 9.43993 5.90004 9.43993 6.13004 9.43993H8.00004C8.22004 9.43993 8.30004 9.43993 8.45004 9.87993C9.33004 12.3499 10.93 14.9999 11.91 14.9999C12.65 14.9999 12.65 14.2599 12.65 13.8999V11.1999C12.6444 10.6156 12.4318 10.0523 12.05 9.60993C11.9974 9.55723 11.9535 9.49646 11.92 9.42993C11.92 9.42993 11.92 9.42993 11.99 9.42993H14.99C15.0046 9.52269 15.0046 9.61717 14.99 9.70993V13.3599C14.99 13.9599 15.34 14.2799 15.69 14.2799C16.04 14.2799 16.38 14.0599 16.86 13.5899C17.8246 12.4154 18.6159 11.1088 19.21 9.70993C19.2411 9.6205 19.3014 9.54418 19.3813 9.49336C19.4612 9.44253 19.5559 9.42018 19.65 9.42993H21.51C21.5764 9.42049 21.6437 9.42049 21.71 9.42993C21.7199 9.48952 21.7199 9.55034 21.71 9.60993C21.0373 11.0629 20.2127 12.4405 19.25 13.7199C19.0919 13.8916 19.0041 14.1165 19.0041 14.3499C19.0041 14.5833 19.0919 14.8082 19.25 14.9799L19.59 15.3299C20.5407 16.2126 21.3652 17.2221 22.04 18.3299C22.0798 18.3923 22.0974 18.4663 22.09 18.5399Z" fill="#363636"/>
<path d="M17.82 27.48H10.18C3.41002 27.48 0.52002 24.59 0.52002 17.82V10.18C0.52002 3.41002 3.41002 0.52002 10.18 0.52002H17.82C24.59 0.52002 27.48 3.41002 27.48 10.18V17.82C27.48 24.59 24.59 27.48 17.82 27.48ZM10.18 2.00002C4.23002 2.00002 2.00002 4.23002 2.00002 10.18V17.82C2.00002 23.77 4.23002 26 10.18 26H17.82C23.77 26 26 23.77 26 17.82V10.18C26 4.23002 23.77 2.00002 17.82 2.00002H10.18Z" fill="#363636"/>
</g>
<defs>
<clipPath id="clip0_1_196">
<rect width="28" height="28" fill="white"/>
</clipPath>
</defs>
</svg>
