<svg width="146" height="146" viewBox="0 0 146 146" fill="none" xmlns="http://www.w3.org/2000/svg">
<circle cx="73" cy="73" r="72" stroke="#FE201D" stroke-width="2"/>
<g clip-path="url(#clip0_1_119)">
<path d="M73.4276 46.0105C70.6187 46.0105 67.8064 47.0553 65.6695 49.1584C61.3957 53.3652 61.3957 60.2206 65.6695 64.4278C68.2269 66.9516 69.0434 71.0077 69.0434 74.1011C69.0434 77.0669 67.9666 82.0624 64.1156 84.2129C63.0995 84.7908 62.465 85.8661 62.465 87.0217L49.3125 87.0236C47.512 87.0239 46.0242 88.4889 46.0242 90.2623V92.4212C46.0242 94.1938 47.5108 95.6587 49.3101 95.6599V96.7416C49.3281 98.4995 50.8113 99.9759 52.6003 99.9759H94.25C96.0482 99.9747 97.5379 98.5097 97.5379 96.7371V95.6577C99.3383 95.6577 100.826 94.1945 100.826 92.4212L100.829 90.2624C100.83 88.4891 99.3384 87.0237 97.5379 87.0237L84.3854 87.0218C84.3854 85.8663 83.7551 84.7909 82.7394 84.213C78.8881 82.0625 77.8135 77.0669 77.8135 74.1012C77.8135 71.0074 78.6212 66.9513 81.1786 64.4279C85.4528 60.2212 85.4528 53.3658 81.1786 49.1585C79.0417 47.0554 76.2362 46.0106 73.4273 46.0106L73.4276 46.0105ZM73.4276 48.1529C75.6715 48.1529 77.9154 48.9981 79.6333 50.689C83.0691 54.0707 83.0691 59.5237 79.6333 62.9058C76.4352 66.0621 75.6218 70.657 75.6218 74.102C75.6218 77.5523 76.7392 83.3486 81.6563 86.0952C81.9912 86.2899 82.1938 86.6389 82.1938 87.0229H64.6571C64.6571 86.6389 64.8639 86.2876 65.1988 86.093C70.1159 83.3471 71.2356 77.5527 71.2356 74.1026C71.2356 70.658 70.4199 66.0631 67.2218 62.9065C63.786 59.5247 63.786 54.0718 67.2218 50.6896C68.9397 48.9987 71.1836 48.1535 73.4279 48.1535L73.4276 48.1529ZM73.4253 50.3182C72.8202 50.3178 72.3294 50.8012 72.3294 51.3976C72.3294 51.9939 72.8202 52.4774 73.4253 52.477C75.8489 52.4842 77.8023 54.4081 77.8096 56.7952C77.8096 57.3916 78.3004 57.875 78.9055 57.8746C79.5106 57.875 80.0015 57.3915 80.0015 56.7952C79.9873 53.2511 77.0235 50.332 73.4253 50.3182ZM49.3124 89.1808L97.5382 89.1831C98.1556 89.1831 98.6388 89.6545 98.6388 90.2625L98.6365 92.4213C98.6361 93.029 98.1556 93.4989 97.5382 93.4989C81.6867 93.5046 65.7422 93.5008 49.3123 93.5008C48.6949 93.5008 48.214 93.0294 48.214 92.4214L48.2159 90.2625C48.2159 89.6534 48.695 89.1808 49.3124 89.1808ZM51.5042 95.6601H95.344V96.7419C95.3371 97.3428 94.8643 97.8179 94.2523 97.8191H52.6007C51.9864 97.8191 51.5097 97.3496 51.5047 96.746L51.5042 95.6601Z" fill="#FE201D"/>
</g>
<defs>
<clipPath id="clip0_1_119">
<rect width="54.9" height="54" fill="white" transform="translate(46 46)"/>
</clipPath>
</defs>
</svg>
