<svg width="37" height="28" viewBox="0 0 37 28" fill="none" xmlns="http://www.w3.org/2000/svg">
<path fill-rule="evenodd" clip-rule="evenodd" d="M11.5708 18.5913H32.645C32.8523 18.5944 33.0546 18.5296 33.2185 18.4076C33.3853 18.3004 33.5031 18.1361 33.5478 17.9482L36.9681 5.27834C37.0042 5.15342 37.0075 5.02186 36.9779 4.89539C36.9482 4.76892 36.8865 4.65146 36.7982 4.55348C36.7093 4.44903 36.5975 4.3647 36.4708 4.30647C36.3441 4.24824 36.2057 4.21754 36.0653 4.21657H8.05488L7.93803 3.78778C7.69776 2.99301 7.24138 2.27418 6.61592 1.70532C5.99047 1.13646 5.21853 0.73815 4.37964 0.551408L2.10652 0.000102785H1.88346C1.67781 -0.00285304 1.47666 0.0580123 1.30987 0.173662C1.13726 0.286012 1.00982 0.451727 0.948717 0.643292C0.921414 0.751937 0.916743 0.8647 0.934973 0.975087C0.953203 1.08547 0.993974 1.1913 1.05494 1.28648C1.11879 1.38465 1.20243 1.46955 1.30094 1.53618C1.39945 1.60281 1.51083 1.64982 1.62853 1.67444L3.90165 2.20532C4.42905 2.32125 4.91393 2.57231 5.30481 2.93182C5.69569 3.29133 5.97796 3.74588 6.12166 4.2472L10.0093 17.6521L8.94713 19.694C8.77656 20.0133 8.69656 20.3701 8.71521 20.7286C8.73386 21.0871 8.85049 21.4345 9.05335 21.7358C9.25682 22.0684 9.54711 22.3441 9.8955 22.5357C10.2439 22.7273 10.6383 22.8281 11.0397 22.8282H11.5495L11.4433 23.1039C11.3124 23.4294 11.2475 23.7759 11.2521 24.1248C11.2521 24.9371 11.5879 25.7162 12.1855 26.2906C12.7831 26.8649 13.5936 27.1876 14.4387 27.1876C15.2839 27.1876 16.0944 26.8649 16.692 26.2906C17.2896 25.7162 17.6254 24.9371 17.6254 24.1248C17.628 23.777 17.5669 23.4314 17.4448 23.1039L17.3386 22.8282H26.3248L26.2186 23.1039C26.0877 23.4294 26.0228 23.7759 26.0274 24.1248C26.0274 24.9371 26.3631 25.7162 26.9607 26.2906C27.5584 26.8649 28.3689 27.1876 29.214 27.1876C30.0592 27.1876 30.8697 26.8649 31.4673 26.2906C32.0649 25.7162 32.4006 24.9371 32.4006 24.1248C32.4033 23.777 32.3422 23.4314 32.2201 23.1039L32.1139 22.8282H33.7603C34.006 22.8286 34.2422 22.7371 34.4188 22.573C34.5024 22.4945 34.5689 22.4009 34.6145 22.2974C34.6601 22.194 34.6839 22.083 34.6844 21.9706C34.6849 21.8597 34.6616 21.7498 34.6159 21.648C34.5702 21.5461 34.5031 21.4543 34.4188 21.3785C34.2416 21.2153 34.0057 21.1239 33.7603 21.1233H10.9866C10.9018 21.1286 10.817 21.1125 10.7406 21.0767C10.6643 21.0409 10.5989 20.9866 10.5511 20.9191C10.512 20.8483 10.4916 20.7695 10.4916 20.6894C10.4916 20.6093 10.512 20.5304 10.5511 20.4597L11.5708 18.5913ZM29.2247 22.818C29.4811 22.826 29.7294 22.9064 29.9386 23.0492C30.1478 23.192 30.3086 23.3908 30.401 23.6208C30.4934 23.8509 30.5133 24.102 30.4582 24.3428C30.4031 24.5837 30.2754 24.8036 30.0911 24.9752C29.9068 25.1467 29.674 25.2623 29.4218 25.3075C29.1696 25.3528 28.9091 25.3256 28.6729 25.2295C28.4366 25.1334 28.235 24.9725 28.0932 24.767C27.9515 24.5615 27.8758 24.3204 27.8756 24.0738C27.877 23.9058 27.9131 23.7397 27.9819 23.5853C28.0508 23.4308 28.1508 23.2911 28.2764 23.1742C28.402 23.0574 28.5505 22.9657 28.7133 22.9045C28.8761 22.8434 29.0499 22.814 29.2247 22.818ZM14.4069 22.818C14.6633 22.826 14.9116 22.9064 15.1208 23.0492C15.33 23.192 15.4908 23.3908 15.5832 23.6208C15.6756 23.8509 15.6955 24.102 15.6404 24.3428C15.5853 24.5837 15.4576 24.8036 15.2733 24.9752C15.089 25.1467 14.8563 25.2623 14.604 25.3075C14.3518 25.3528 14.0913 25.3256 13.8551 25.2295C13.6188 25.1334 13.4172 24.9725 13.2754 24.767C13.1337 24.5615 13.058 24.3204 13.0579 24.0738C13.0592 23.9058 13.0954 23.7397 13.1642 23.5853C13.233 23.4308 13.3331 23.2911 13.4586 23.1742C13.5842 23.0574 13.7327 22.9657 13.8955 22.9045C14.0583 22.8434 14.2321 22.814 14.4069 22.818ZM8.55411 5.92153H34.9393L31.9227 16.8864H11.7407L8.55411 5.92153Z" fill="#363636"/>
</svg>
