<svg width="146" height="146" viewBox="0 0 146 146" fill="none" xmlns="http://www.w3.org/2000/svg">
<circle cx="73" cy="73" r="72" stroke="#FE201D" stroke-width="2"/>
<g clip-path="url(#clip0_1_97)">
<path d="M102.699 73.0353H102.426L98.9823 59.1189C98.8424 58.5529 98.3263 58.161 97.7434 58.1781H81.6372V48.2734C81.6372 47.9451 81.5066 47.63 81.2743 47.3979C81.042 47.1657 80.7268 47.0353 80.3982 47.0353H38.2743C37.5902 47.0353 37.0354 47.5897 37.0354 48.2734V86.6543C37.0354 88.296 37.6881 89.8705 38.8495 91.0319C40.0115 92.1927 41.5873 92.8448 43.2301 92.8448H43.3418C43.7472 95.159 45.2246 97.145 47.3252 98.2002C49.4254 99.2553 51.9021 99.2553 54.0022 98.2002C56.1029 97.145 57.5803 95.1591 57.9856 92.8448H85.466C85.8714 95.159 87.3488 97.145 89.4494 98.2002C91.5495 99.2553 94.0263 99.2553 96.1264 98.2002C98.2271 97.145 99.7044 95.1591 100.11 92.8448H102.699C104.342 92.8448 105.918 92.1926 107.08 91.0319C108.242 89.8707 108.894 88.296 108.894 86.6543V79.2258C108.894 77.5841 108.241 76.0095 107.08 74.8481C105.918 73.6874 104.342 73.0353 102.699 73.0353L102.699 73.0353ZM79.1593 49.5115V79.2258H39.5132V49.5115H79.1593ZM50.6637 96.5591C49.3495 96.5591 48.089 96.0374 47.1593 95.1088C46.2301 94.1797 45.7079 92.92 45.7079 91.6068C45.7079 90.2935 46.2301 89.0338 47.1593 88.1047C48.089 87.1762 49.3496 86.6544 50.6637 86.6544C51.9778 86.6544 53.2384 87.1762 54.1681 88.1047C55.0973 89.0338 55.6194 90.2935 55.6194 91.6068C55.6194 92.92 55.0973 94.1797 54.1681 95.1088C53.2384 96.0374 51.9778 96.5591 50.6637 96.5591ZM50.6637 84.1782C48.9082 84.1799 47.2101 84.8028 45.8701 85.9353C44.5299 87.0684 43.6345 88.6392 43.3419 90.3687H43.2302C42.2446 90.3687 41.2987 89.9773 40.6019 89.2809C39.9052 88.5845 39.5135 87.6393 39.5135 86.6544V81.7021H79.1595V90.3687H57.9857C57.6931 88.6392 56.7976 87.0685 55.4575 85.9354C54.1174 84.8028 52.4194 84.18 50.6639 84.1783L50.6637 84.1782ZM92.7876 96.5591C91.4734 96.5591 90.2129 96.0374 89.2832 95.1088C88.354 94.1797 87.8318 92.92 87.8318 91.6068C87.8318 90.2935 88.354 89.0338 89.2832 88.1047C90.2129 87.1762 91.4735 86.6544 92.7876 86.6544C94.1017 86.6544 95.3623 87.1762 96.292 88.1047C97.2212 89.0338 97.7433 90.2935 97.7433 91.6068C97.7433 92.92 97.2212 94.1797 96.292 95.1088C95.3623 96.0374 94.1017 96.5591 92.7876 96.5591ZM106.416 86.6544C106.416 87.6393 106.024 88.5845 105.327 89.2808C104.63 89.9771 103.685 90.3686 102.699 90.3686H100.11C99.7041 88.0544 98.2268 86.0684 96.1261 85.0132C94.026 83.9581 91.5493 83.9581 89.4492 85.0132C87.3485 86.0684 85.8711 88.0543 85.4657 90.3686H81.6372V60.6543H96.7777L100.222 74.5708C100.556 75.8957 102.13 75.4253 102.7 75.5115C103.685 75.5115 104.631 75.9028 105.328 76.5993C106.025 77.2957 106.416 78.2409 106.416 79.2257L106.416 86.6544Z" fill="#FE201D"/>
<path d="M95.0799 64.0715C94.94 63.5055 94.4239 63.1137 93.841 63.1308H85.3542C84.67 63.1308 84.1152 63.6852 84.1152 64.3689V74.2736C84.1152 74.602 84.2458 74.917 84.4781 75.1492C84.7104 75.3813 85.0256 75.5117 85.3542 75.5117H96.3558C96.743 75.5233 97.1135 75.3526 97.3569 75.0513C97.5997 74.7501 97.6882 74.3521 97.5947 73.9763L95.0799 64.0715ZM86.5931 73.0356V65.607H92.9117L94.7701 73.0356H86.5931Z" fill="#FE201D"/>
</g>
<defs>
<clipPath id="clip0_1_97">
<rect width="72" height="52" fill="white" transform="translate(37 47)"/>
</clipPath>
</defs>
</svg>
