<svg width="28" height="22" viewBox="0 0 28 22" fill="none" xmlns="http://www.w3.org/2000/svg">
<path d="M24.6612 11.0135H24.5633L23.327 5.71458C23.2767 5.49907 23.0915 5.34986 22.8822 5.35638H17.1005V1.58495C17.1005 1.45994 17.0537 1.33998 16.9703 1.25159C16.8869 1.1632 16.7737 1.11353 16.6558 1.11353H1.53438C1.28878 1.11353 1.08963 1.32462 1.08963 1.58495V16.1992C1.08963 16.8243 1.32392 17.4239 1.74084 17.8661C2.15799 18.3081 2.72366 18.5564 3.31336 18.5564H3.35347C3.49901 19.4376 4.02933 20.1938 4.78342 20.5955C5.53731 20.9973 6.42639 20.9973 7.18028 20.5955C7.93437 20.1938 8.46471 19.4376 8.61023 18.5564H18.475C18.6205 19.4376 19.1508 20.1938 19.9049 20.5955C20.6588 20.9973 21.5479 20.9973 22.3018 20.5955C23.0559 20.1938 23.5862 19.4376 23.7317 18.5564H24.6613C25.251 18.5564 25.8167 18.308 26.2338 17.8661C26.6508 17.4239 26.8851 16.8243 26.8851 16.1992V13.3707C26.8851 12.7456 26.6508 12.146 26.2338 11.7038C25.8167 11.2618 25.251 11.0135 24.6613 11.0135L24.6612 11.0135ZM16.211 2.0564V13.3707H1.97911V2.0564H16.211ZM5.98184 19.9707C5.51009 19.9707 5.05758 19.772 4.72384 19.4184C4.39028 19.0647 4.20285 18.585 4.20285 18.085C4.20285 17.5849 4.39028 17.1053 4.72384 16.7515C5.0576 16.3979 5.5101 16.1993 5.98184 16.1993C6.45357 16.1993 6.9061 16.3979 7.23984 16.7515C7.5734 17.1053 7.76082 17.5849 7.76082 18.085C7.76082 18.585 7.5734 19.0647 7.23984 19.4184C6.90608 19.772 6.45357 19.9707 5.98184 19.9707ZM5.98184 15.2564C5.35167 15.257 4.74209 15.4942 4.26105 15.9255C3.77997 16.3569 3.45852 16.955 3.35351 17.6135H3.3134C2.95959 17.6135 2.62005 17.4645 2.36993 17.1994C2.1198 16.9342 1.97919 16.5743 1.97919 16.1993V14.3136H16.2111V17.6136H8.61024C8.50521 16.955 8.18376 16.3569 7.7027 15.9255C7.22162 15.4943 6.61208 15.2571 5.98191 15.2564L5.98184 15.2564ZM21.1032 19.9707C20.6315 19.9707 20.179 19.772 19.8452 19.4184C19.5117 19.0647 19.3242 18.585 19.3242 18.085C19.3242 17.5849 19.5117 17.1053 19.8452 16.7515C20.179 16.3979 20.6315 16.1993 21.1032 16.1993C21.575 16.1993 22.0275 16.3979 22.3612 16.7515C22.6948 17.1053 22.8822 17.5849 22.8822 18.085C22.8822 18.585 22.6948 19.0647 22.3612 19.4184C22.0275 19.772 21.575 19.9707 21.1032 19.9707ZM25.9955 16.1993C25.9955 16.5743 25.8549 16.9342 25.6047 17.1993C25.3545 17.4645 25.015 17.6135 24.6612 17.6135H23.7316C23.5861 16.7324 23.0558 15.9761 22.3017 15.5744C21.5478 15.1726 20.6587 15.1726 19.9048 15.5744C19.1507 15.9761 18.6204 16.7323 18.4749 17.6135H17.1005V6.29923H22.5356L23.7719 11.5982C23.8921 12.1027 24.457 11.9236 24.6614 11.9564C25.0153 11.9564 25.3548 12.1054 25.6049 12.3706C25.855 12.6358 25.9957 12.9957 25.9957 13.3707L25.9955 16.1993Z" fill="#FE201D" stroke="#FE201D" stroke-width="0.3"/>
</svg>
