<svg width="22" height="16" viewBox="0 0 22 16" fill="none" xmlns="http://www.w3.org/2000/svg">
<path d="M2.09528 0C0.943602 0 0 0.960756 0 2.13337V13.8666C0 15.0392 0.943602 16 2.09528 16H19.9047C21.0564 16 22 15.0392 22 13.8666V2.13337C22 0.960756 21.0564 0 19.9047 0H2.09528ZM2.09528 1.06656H19.9047C20.0032 1.06656 20.0933 1.08368 20.183 1.10823L11.7202 9.79961C11.3082 10.2235 10.6747 10.2235 10.2635 9.79961L1.82501 1.09966C1.91179 1.07697 2.00021 1.06636 2.09502 1.06636L2.09528 1.06656ZM1.08868 1.86661L7.32526 8.29181L1.09663 14.1751C1.06831 14.0767 1.04748 13.9761 1.04748 13.8667V2.13343C1.04748 2.0395 1.06721 1.953 1.08841 1.86669L1.08868 1.86661ZM20.9115 1.86661C20.9327 1.95273 20.9524 2.03923 20.9524 2.13335V13.8666C20.9524 13.9758 20.9318 14.0766 20.9033 14.175L14.6747 8.28315L20.9115 1.86661ZM13.9304 9.0418L20.1342 14.8999C20.0597 14.9164 19.9851 14.9332 19.9051 14.9332H2.09568C2.01548 14.9332 1.94094 14.9164 1.86659 14.8999L8.06248 9.0499L9.51923 10.5499C10.328 11.3834 11.6565 11.3823 12.4656 10.5499L13.9306 9.04152L13.9304 9.0418Z" fill="white"/>
</svg>
