<svg width="20" height="30" viewBox="0 0 20 30" fill="none" xmlns="http://www.w3.org/2000/svg">
<path d="M3.93058e-05 7.18823V8.11956C-0.000200179 8.30991 0.0613662 8.49618 0.177179 8.6555C0.292991 8.81482 0.458008 8.94025 0.651967 9.01639C0.784858 9.06923 0.928509 9.09663 1.0738 9.09688C1.35344 9.09821 1.62314 9.00365 1.82799 8.83242L3.93717 7.07325C4.74233 6.33337 5.72042 5.76388 6.80054 5.40607C6.89161 5.83397 6.92168 6.27058 6.89002 6.70532L6.0847 27.5969C6.07512 27.9098 6.13459 28.2213 6.25965 28.5133C6.38471 28.8054 6.5729 29.0723 6.81332 29.2986C7.05352 29.5221 7.34162 29.6995 7.6602 29.8201C7.97878 29.9406 8.32123 30.0018 8.66684 30H11.2234C11.5705 29.9995 11.9141 29.9372 12.2344 29.8169C12.5547 29.6965 12.8454 29.5204 13.0897 29.2986C13.3269 29.0718 13.5103 28.804 13.629 28.5115C13.7476 28.2189 13.799 27.9078 13.78 27.5969L12.9747 6.67083V6.53286C12.9744 6.33799 13.0224 6.14552 13.1153 5.96946C13.2921 5.7214 13.5394 5.52029 13.8315 5.38689C14.1236 5.25349 14.4501 5.19263 14.7771 5.2106C15.2417 5.22052 15.6903 5.36576 16.0554 5.62453C16.2418 5.75552 16.4707 5.82818 16.7073 5.83149H18.9059C19.1953 5.82846 19.4716 5.72295 19.675 5.53784C19.8784 5.35272 19.9925 5.10294 19.9925 4.84267V1.07138C19.9892 0.813105 19.8736 0.566252 19.6706 0.383613C19.4675 0.200974 19.1931 0.0970478 18.9059 0.0940617H16.7329C16.4766 0.0981243 16.2291 0.179057 16.0298 0.324019C15.6258 0.616428 15.1289 0.785566 14.6109 0.806928C14.0907 0.750939 13.5987 0.563576 13.192 0.266529C13.0119 0.117639 12.7833 0.0249049 12.5401 0.00207892C12.4761 0.00207892 11.7603 0.00207892 10.9039 0.00207892C10.1352 -0.00919225 9.36652 0.0253771 8.60293 0.10556C7.18122 0.314243 5.83318 0.818152 4.6658 1.57728L4.53797 1.64627C2.93201 2.59642 1.58248 3.85743 0.588053 5.33708C0.200694 5.89143 -0.00325583 6.53349 3.93058e-05 7.18823ZM1.6746 6.90079C1.71895 6.62289 1.82784 6.3565 1.99417 6.11893C2.86815 4.82417 4.05146 3.72054 5.45834 2.88804L5.58617 2.81905C6.55139 2.18626 7.66758 1.76498 8.8458 1.58878C9.52477 1.51989 10.2079 1.48917 10.8911 1.4968H12.2844L12.3994 1.57728C12.5611 1.68185 12.7321 1.77415 12.9108 1.85323C13.1071 1.94966 13.3124 2.03045 13.5243 2.09469C13.8768 2.21078 14.2484 2.27296 14.6237 2.27865H14.6876C15.4811 2.23453 16.244 1.98718 16.8862 1.56579H18.2668V4.30227H16.8479L16.6178 4.19879C16.4025 4.08098 16.1757 3.98092 15.9403 3.89985C15.5304 3.76599 15.0981 3.696 14.662 3.69289C14.0397 3.68563 13.4268 3.83046 12.8887 4.11192C12.3507 4.39339 11.9077 4.80093 11.6069 5.29109C11.4482 5.57523 11.3486 5.88306 11.3129 6.19942H8.56458C8.56458 5.33708 8.34727 4.11831 7.41412 3.89985C7.3126 3.88419 7.20885 3.88419 7.10733 3.89985C7.01842 3.88696 6.9278 3.88696 6.83889 3.89985C5.30053 4.2225 3.89811 4.93705 2.79949 5.95796L1.6746 6.90079ZM11.9009 28.2868C11.7217 28.4405 11.4839 28.5269 11.2362 28.5282H8.67963C8.43142 28.5293 8.19269 28.4426 8.01492 28.2868C7.92809 28.2064 7.86058 28.1109 7.81659 28.006C7.77261 27.9012 7.75309 27.7893 7.75926 27.6774L8.53901 7.25722H11.3257L12.1054 27.6774C12.1169 27.9014 12.0296 28.1204 11.8626 28.2868H11.9009Z" fill="#363636"/>
</svg>
