<svg width="34" height="34" viewBox="0 0 34 34" fill="none" xmlns="http://www.w3.org/2000/svg">
<g clip-path="url(#clip0_1_23)">
<path d="M12.2165 31.6516H21.2596C28.7954 31.6516 31.8098 28.6372 31.8098 21.1013V12.0583C31.8098 4.52237 28.7954 1.50801 21.2596 1.50801H12.2165C4.68061 1.50801 1.66626 4.52237 1.66626 12.0583V21.1013C1.66626 28.6372 4.68061 31.6516 12.2165 31.6516Z" stroke="white" stroke-width="1.5" stroke-linecap="round" stroke-linejoin="round"/>
<path d="M16.7371 23.6842C17.6702 23.6842 18.5941 23.5004 19.4562 23.1433C20.3182 22.7863 21.1015 22.2629 21.7613 21.6031C22.4211 20.9433 22.9444 20.1601 23.3015 19.298C23.6586 18.436 23.8424 17.512 23.8424 16.5789C23.8424 15.6459 23.6586 14.7219 23.3015 13.8599C22.9444 12.9978 22.4211 12.2145 21.7613 11.5548C21.1015 10.895 20.3182 10.3716 19.4562 10.0145C18.5941 9.65746 17.6702 9.47368 16.7371 9.47368C14.8527 9.47368 13.0454 10.2223 11.7129 11.5548C10.3804 12.8873 9.63184 14.6945 9.63184 16.5789C9.63184 18.4634 10.3804 20.2706 11.7129 21.6031C13.0454 22.9356 14.8527 23.6842 16.7371 23.6842Z" stroke="white" stroke-width="1.5" stroke-linecap="round" stroke-linejoin="round"/>
<circle cx="25.0267" cy="7.10526" r="1.18421" fill="white"/>
</g>
<defs>
<clipPath id="clip0_1_23">
<rect width="33.1579" height="33.1579" fill="white" transform="translate(0.158203)"/>
</clipPath>
</defs>
</svg>
