<svg width="298" height="1035" viewBox="0 0 298 1035" fill="none" xmlns="http://www.w3.org/2000/svg">
<path d="M82.7055 147.466C83.5575 147.67 84.1995 148.036 84.6315 148.564C85.0755 149.08 85.2975 149.746 85.2975 150.562C85.2975 151.654 84.8955 152.5 84.0915 153.1C83.2995 153.7 82.1415 154 80.6175 154H74.8575V141.4H80.2755C81.6555 141.4 82.7295 141.682 83.4975 142.246C84.2775 142.798 84.6675 143.596 84.6675 144.64C84.6675 145.324 84.4935 145.906 84.1455 146.386C83.8095 146.866 83.3295 147.226 82.7055 147.466ZM76.6395 146.944H80.1495C81.0255 146.944 81.6915 146.77 82.1475 146.422C82.6155 146.074 82.8495 145.564 82.8495 144.892C82.8495 144.22 82.6155 143.71 82.1475 143.362C81.6795 143.002 81.0135 142.822 80.1495 142.822H76.6395V146.944ZM80.5815 152.578C82.5135 152.578 83.4795 151.858 83.4795 150.418C83.4795 149.698 83.2335 149.17 82.7415 148.834C82.2615 148.486 81.5415 148.312 80.5815 148.312H76.6395V152.578H80.5815ZM92.3188 147.7C93.5188 147.712 94.4368 147.988 95.0728 148.528C95.7088 149.068 96.0268 149.83 96.0268 150.814C96.0268 151.846 95.6788 152.644 94.9828 153.208C94.2988 153.76 93.3148 154.03 92.0308 154.018L88.0168 154V144.46H89.7448V147.682L92.3188 147.7ZM97.4488 144.46H99.1768V154H97.4488V144.46ZM91.9048 152.704C92.6848 152.716 93.2728 152.56 93.6688 152.236C94.0768 151.912 94.2808 151.432 94.2808 150.796C94.2808 150.172 94.0828 149.716 93.6868 149.428C93.2908 149.14 92.6968 148.99 91.9048 148.978L89.7448 148.942V152.686L91.9048 152.704ZM111.456 154.108C110.508 154.108 109.656 153.898 108.9 153.478C108.144 153.058 107.55 152.482 107.118 151.75C106.698 151.006 106.488 150.166 106.488 149.23C106.488 148.294 106.698 147.46 107.118 146.728C107.55 145.984 108.144 145.408 108.9 145C109.656 144.58 110.508 144.37 111.456 144.37C112.404 144.37 113.25 144.58 113.994 145C114.75 145.408 115.338 145.984 115.758 146.728C116.19 147.46 116.406 148.294 116.406 149.23C116.406 150.166 116.19 151.006 115.758 151.75C115.338 152.482 114.75 153.058 113.994 153.478C113.25 153.898 112.404 154.108 111.456 154.108ZM111.456 152.596C112.068 152.596 112.614 152.458 113.094 152.182C113.586 151.894 113.97 151.498 114.246 150.994C114.522 150.478 114.66 149.89 114.66 149.23C114.66 148.57 114.522 147.988 114.246 147.484C113.97 146.968 113.586 146.572 113.094 146.296C112.614 146.02 112.068 145.882 111.456 145.882C110.844 145.882 110.292 146.02 109.8 146.296C109.32 146.572 108.936 146.968 108.648 147.484C108.372 147.988 108.234 148.57 108.234 149.23C108.234 149.89 108.372 150.478 108.648 150.994C108.936 151.498 109.32 151.894 109.8 152.182C110.292 152.458 110.844 152.596 111.456 152.596ZM125.66 145.972H122.168V154H120.44V145.972H116.948V144.46H125.66V145.972ZM136.265 144.46V154H134.537V145.972H129.155V154H127.427V144.46H136.265ZM144.667 144.37C145.591 144.37 146.419 144.574 147.151 144.982C147.883 145.39 148.453 145.96 148.861 146.692C149.281 147.424 149.491 148.27 149.491 149.23C149.491 150.19 149.281 151.042 148.861 151.786C148.453 152.518 147.883 153.088 147.151 153.496C146.419 153.904 145.591 154.108 144.667 154.108C143.983 154.108 143.353 153.976 142.777 153.712C142.213 153.448 141.733 153.064 141.337 152.56V157.492H139.609V144.46H141.265V145.972C141.649 145.444 142.135 145.048 142.723 144.784C143.311 144.508 143.959 144.37 144.667 144.37ZM144.523 152.596C145.135 152.596 145.681 152.458 146.161 152.182C146.653 151.894 147.037 151.498 147.313 150.994C147.601 150.478 147.745 149.89 147.745 149.23C147.745 148.57 147.601 147.988 147.313 147.484C147.037 146.968 146.653 146.572 146.161 146.296C145.681 146.02 145.135 145.882 144.523 145.882C143.923 145.882 143.377 146.026 142.885 146.314C142.405 146.59 142.021 146.98 141.733 147.484C141.457 147.988 141.319 148.57 141.319 149.23C141.319 149.89 141.457 150.478 141.733 150.994C142.009 151.498 142.393 151.894 142.885 152.182C143.377 152.458 143.923 152.596 144.523 152.596ZM155.315 144.37C156.635 144.37 157.643 144.694 158.339 145.342C159.047 145.99 159.401 146.956 159.401 148.24V154H157.763V152.74C157.475 153.184 157.061 153.526 156.521 153.766C155.993 153.994 155.363 154.108 154.631 154.108C153.563 154.108 152.705 153.85 152.057 153.334C151.421 152.818 151.103 152.14 151.103 151.3C151.103 150.46 151.409 149.788 152.021 149.284C152.633 148.768 153.605 148.51 154.937 148.51H157.673V148.168C157.673 147.424 157.457 146.854 157.025 146.458C156.593 146.062 155.957 145.864 155.117 145.864C154.553 145.864 154.001 145.96 153.461 146.152C152.921 146.332 152.465 146.578 152.093 146.89L151.373 145.594C151.865 145.198 152.453 144.898 153.137 144.694C153.821 144.478 154.547 144.37 155.315 144.37ZM154.919 152.776C155.579 152.776 156.149 152.632 156.629 152.344C157.109 152.044 157.457 151.624 157.673 151.084V149.752H155.009C153.545 149.752 152.813 150.244 152.813 151.228C152.813 151.708 152.999 152.086 153.371 152.362C153.743 152.638 154.259 152.776 154.919 152.776ZM169.011 149.05C170.247 149.362 170.865 150.136 170.865 151.372C170.865 152.212 170.547 152.86 169.911 153.316C169.287 153.772 168.351 154 167.103 154H162.513V144.46H166.941C168.069 144.46 168.951 144.676 169.587 145.108C170.223 145.528 170.541 146.128 170.541 146.908C170.541 147.412 170.403 147.85 170.127 148.222C169.863 148.582 169.491 148.858 169.011 149.05ZM164.205 148.564H166.797C167.457 148.564 167.955 148.444 168.291 148.204C168.639 147.964 168.813 147.616 168.813 147.16C168.813 146.248 168.141 145.792 166.797 145.792H164.205V148.564ZM166.977 152.668C167.697 152.668 168.237 152.554 168.597 152.326C168.957 152.098 169.137 151.744 169.137 151.264C169.137 150.772 168.969 150.406 168.633 150.166C168.309 149.926 167.793 149.806 167.085 149.806H164.205V152.668H166.977ZM181.76 144.46V154H180.032V145.972H175.928L175.82 148.096C175.76 149.38 175.646 150.454 175.478 151.318C175.31 152.17 175.034 152.854 174.65 153.37C174.266 153.886 173.732 154.144 173.048 154.144C172.736 154.144 172.382 154.09 171.986 153.982L172.094 152.524C172.25 152.56 172.394 152.578 172.526 152.578C173.006 152.578 173.366 152.368 173.606 151.948C173.846 151.528 174.002 151.03 174.074 150.454C174.146 149.878 174.212 149.056 174.272 147.988L174.434 144.46H181.76ZM192.751 144.46V154H191.203V150.976H188.431H188.233L186.145 154H184.291L186.613 150.742C185.893 150.526 185.341 150.172 184.957 149.68C184.573 149.176 184.381 148.552 184.381 147.808C184.381 146.716 184.753 145.888 185.497 145.324C186.241 144.748 187.267 144.46 188.575 144.46H192.751ZM186.145 147.862C186.145 148.498 186.343 148.972 186.739 149.284C187.147 149.584 187.753 149.734 188.557 149.734H191.203V145.972H188.629C186.973 145.972 186.145 146.602 186.145 147.862ZM204.744 149.284C204.744 149.416 204.732 149.59 204.708 149.806H196.968C197.076 150.646 197.442 151.324 198.066 151.84C198.702 152.344 199.488 152.596 200.424 152.596C201.564 152.596 202.482 152.212 203.178 151.444L204.132 152.56C203.7 153.064 203.16 153.448 202.512 153.712C201.876 153.976 201.162 154.108 200.37 154.108C199.362 154.108 198.468 153.904 197.688 153.496C196.908 153.076 196.302 152.494 195.87 151.75C195.45 151.006 195.24 150.166 195.24 149.23C195.24 148.306 195.444 147.472 195.852 146.728C196.272 145.984 196.842 145.408 197.562 145C198.294 144.58 199.116 144.37 200.028 144.37C200.94 144.37 201.75 144.58 202.458 145C203.178 145.408 203.736 145.984 204.132 146.728C204.54 147.472 204.744 148.324 204.744 149.284ZM200.028 145.828C199.2 145.828 198.504 146.08 197.94 146.584C197.388 147.088 197.064 147.748 196.968 148.564H203.088C202.992 147.76 202.662 147.106 202.098 146.602C201.546 146.086 200.856 145.828 200.028 145.828ZM214.131 145.972H210.639V154H208.911V145.972H205.419V144.46H214.131V145.972ZM224.098 149.284C224.098 149.416 224.086 149.59 224.062 149.806H216.322C216.43 150.646 216.796 151.324 217.42 151.84C218.056 152.344 218.842 152.596 219.778 152.596C220.918 152.596 221.836 152.212 222.532 151.444L223.486 152.56C223.054 153.064 222.514 153.448 221.866 153.712C221.23 153.976 220.516 154.108 219.724 154.108C218.716 154.108 217.822 153.904 217.042 153.496C216.262 153.076 215.656 152.494 215.224 151.75C214.804 151.006 214.594 150.166 214.594 149.23C214.594 148.306 214.798 147.472 215.206 146.728C215.626 145.984 216.196 145.408 216.916 145C217.648 144.58 218.47 144.37 219.382 144.37C220.294 144.37 221.104 144.58 221.812 145C222.532 145.408 223.09 145.984 223.486 146.728C223.894 147.472 224.098 148.324 224.098 149.284ZM219.382 145.828C218.554 145.828 217.858 146.08 217.294 146.584C216.742 147.088 216.418 147.748 216.322 148.564H222.442C222.346 147.76 222.016 147.106 221.452 146.602C220.9 146.086 220.21 145.828 219.382 145.828ZM56.9152 169.46V179H55.3492V172.034L51.7852 177.92H51.0292L47.5012 172.016V179H45.9172V169.46H47.6992L51.4432 175.904L55.2952 169.46H56.9152ZM63.6805 169.37C65.0005 169.37 66.0085 169.694 66.7045 170.342C67.4125 170.99 67.7665 171.956 67.7665 173.24V179H66.1285V177.74C65.8405 178.184 65.4265 178.526 64.8865 178.766C64.3585 178.994 63.7285 179.108 62.9965 179.108C61.9285 179.108 61.0705 178.85 60.4225 178.334C59.7865 177.818 59.4685 177.14 59.4685 176.3C59.4685 175.46 59.7745 174.788 60.3865 174.284C60.9985 173.768 61.9705 173.51 63.3025 173.51H66.0385V173.168C66.0385 172.424 65.8225 171.854 65.3905 171.458C64.9585 171.062 64.3225 170.864 63.4825 170.864C62.9185 170.864 62.3665 170.96 61.8265 171.152C61.2865 171.332 60.8305 171.578 60.4585 171.89L59.7385 170.594C60.2305 170.198 60.8185 169.898 61.5025 169.694C62.1865 169.478 62.9125 169.37 63.6805 169.37ZM63.2845 177.776C63.9445 177.776 64.5145 177.632 64.9945 177.344C65.4745 177.044 65.8225 176.624 66.0385 176.084V174.752H63.3745C61.9105 174.752 61.1785 175.244 61.1785 176.228C61.1785 176.708 61.3645 177.086 61.7365 177.362C62.1085 177.638 62.6245 177.776 63.2845 177.776ZM74.5861 174.968H72.6061V179H70.8781V169.46H72.6061V173.492H74.6221L77.7181 169.46H79.5721L75.9541 174.05L79.8241 179H77.7901L74.5861 174.968ZM89.9415 174.284C89.9415 174.416 89.9295 174.59 89.9055 174.806H82.1655C82.2735 175.646 82.6395 176.324 83.2635 176.84C83.8995 177.344 84.6855 177.596 85.6215 177.596C86.7615 177.596 87.6795 177.212 88.3755 176.444L89.3295 177.56C88.8975 178.064 88.3575 178.448 87.7095 178.712C87.0735 178.976 86.3595 179.108 85.5675 179.108C84.5595 179.108 83.6655 178.904 82.8855 178.496C82.1055 178.076 81.4995 177.494 81.0675 176.75C80.6475 176.006 80.4375 175.166 80.4375 174.23C80.4375 173.306 80.6415 172.472 81.0495 171.728C81.4695 170.984 82.0395 170.408 82.7595 170C83.4915 169.58 84.3135 169.37 85.2255 169.37C86.1375 169.37 86.9475 169.58 87.6555 170C88.3755 170.408 88.9335 170.984 89.3295 171.728C89.7375 172.472 89.9415 173.324 89.9415 174.284ZM85.2255 170.828C84.3975 170.828 83.7015 171.08 83.1375 171.584C82.5855 172.088 82.2615 172.748 82.1655 173.564H88.2855C88.1895 172.76 87.8595 172.106 87.2955 171.602C86.7435 171.086 86.0535 170.828 85.2255 170.828ZM99.3279 170.972H95.8359V179H94.1079V170.972H90.6159V169.46H99.3279V170.972ZM112.427 174.05C113.663 174.362 114.281 175.136 114.281 176.372C114.281 177.212 113.963 177.86 113.327 178.316C112.703 178.772 111.767 179 110.519 179H105.929V169.46H110.357C111.485 169.46 112.367 169.676 113.003 170.108C113.639 170.528 113.957 171.128 113.957 171.908C113.957 172.412 113.819 172.85 113.543 173.222C113.279 173.582 112.907 173.858 112.427 174.05ZM107.621 173.564H110.213C110.873 173.564 111.371 173.444 111.707 173.204C112.055 172.964 112.229 172.616 112.229 172.16C112.229 171.248 111.557 170.792 110.213 170.792H107.621V173.564ZM110.393 177.668C111.113 177.668 111.653 177.554 112.013 177.326C112.373 177.098 112.553 176.744 112.553 176.264C112.553 175.772 112.385 175.406 112.049 175.166C111.725 174.926 111.209 174.806 110.501 174.806H107.621V177.668H110.393ZM133.862 174.212C133.862 175.688 133.37 176.852 132.386 177.704C131.402 178.556 130.016 179.03 128.228 179.126V182.492H126.536V179.126C124.748 179.03 123.362 178.562 122.378 177.722C121.406 176.87 120.92 175.7 120.92 174.212C120.92 172.736 121.406 171.584 122.378 170.756C123.35 169.928 124.736 169.466 126.536 169.37V165.644H128.228V169.37C130.016 169.466 131.402 169.934 132.386 170.774C133.37 171.602 133.862 172.748 133.862 174.212ZM122.63 174.212C122.63 175.232 122.954 176.03 123.602 176.606C124.262 177.182 125.24 177.512 126.536 177.596V170.9C125.228 170.984 124.25 171.308 123.602 171.872C122.954 172.436 122.63 173.216 122.63 174.212ZM128.228 177.614C130.844 177.41 132.152 176.276 132.152 174.212C132.152 173.204 131.822 172.424 131.162 171.872C130.502 171.308 129.524 170.984 128.228 170.9V177.614ZM140.39 179.108C139.442 179.108 138.59 178.898 137.834 178.478C137.078 178.058 136.484 177.482 136.052 176.75C135.632 176.006 135.422 175.166 135.422 174.23C135.422 173.294 135.632 172.46 136.052 171.728C136.484 170.984 137.078 170.408 137.834 170C138.59 169.58 139.442 169.37 140.39 169.37C141.338 169.37 142.184 169.58 142.928 170C143.684 170.408 144.272 170.984 144.692 171.728C145.124 172.46 145.34 173.294 145.34 174.23C145.34 175.166 145.124 176.006 144.692 176.75C144.272 177.482 143.684 178.058 142.928 178.478C142.184 178.898 141.338 179.108 140.39 179.108ZM140.39 177.596C141.002 177.596 141.548 177.458 142.028 177.182C142.52 176.894 142.904 176.498 143.18 175.994C143.456 175.478 143.594 174.89 143.594 174.23C143.594 173.57 143.456 172.988 143.18 172.484C142.904 171.968 142.52 171.572 142.028 171.296C141.548 171.02 141.002 170.882 140.39 170.882C139.778 170.882 139.226 171.02 138.734 171.296C138.254 171.572 137.87 171.968 137.582 172.484C137.306 172.988 137.168 173.57 137.168 174.23C137.168 174.89 137.306 175.478 137.582 175.994C137.87 176.498 138.254 176.894 138.734 177.182C139.226 177.458 139.778 177.596 140.39 177.596ZM152.893 169.37C153.817 169.37 154.645 169.574 155.377 169.982C156.109 170.39 156.679 170.96 157.087 171.692C157.507 172.424 157.717 173.27 157.717 174.23C157.717 175.19 157.507 176.042 157.087 176.786C156.679 177.518 156.109 178.088 155.377 178.496C154.645 178.904 153.817 179.108 152.893 179.108C152.209 179.108 151.579 178.976 151.003 178.712C150.439 178.448 149.959 178.064 149.563 177.56V182.492H147.835V169.46H149.491V170.972C149.875 170.444 150.361 170.048 150.949 169.784C151.537 169.508 152.185 169.37 152.893 169.37ZM152.749 177.596C153.361 177.596 153.907 177.458 154.387 177.182C154.879 176.894 155.263 176.498 155.539 175.994C155.827 175.478 155.971 174.89 155.971 174.23C155.971 173.57 155.827 172.988 155.539 172.484C155.263 171.968 154.879 171.572 154.387 171.296C153.907 171.02 153.361 170.882 152.749 170.882C152.149 170.882 151.603 171.026 151.111 171.314C150.631 171.59 150.247 171.98 149.959 172.484C149.683 172.988 149.545 173.57 149.545 174.23C149.545 174.89 149.683 175.478 149.959 175.994C150.235 176.498 150.619 176.894 151.111 177.182C151.603 177.458 152.149 177.596 152.749 177.596ZM171.226 169.46V179H169.66V172.034L166.096 177.92H165.34L161.812 172.016V179H160.228V169.46H162.01L165.754 175.904L169.606 169.46H171.226ZM177.991 169.37C179.311 169.37 180.319 169.694 181.015 170.342C181.723 170.99 182.077 171.956 182.077 173.24V179H180.439V177.74C180.151 178.184 179.737 178.526 179.197 178.766C178.669 178.994 178.039 179.108 177.307 179.108C176.239 179.108 175.381 178.85 174.733 178.334C174.097 177.818 173.779 177.14 173.779 176.3C173.779 175.46 174.085 174.788 174.697 174.284C175.309 173.768 176.281 173.51 177.613 173.51H180.349V173.168C180.349 172.424 180.133 171.854 179.701 171.458C179.269 171.062 178.633 170.864 177.793 170.864C177.229 170.864 176.677 170.96 176.137 171.152C175.597 171.332 175.141 171.578 174.769 171.89L174.049 170.594C174.541 170.198 175.129 169.898 175.813 169.694C176.497 169.478 177.223 169.37 177.991 169.37ZM177.595 177.776C178.255 177.776 178.825 177.632 179.305 177.344C179.785 177.044 180.133 176.624 180.349 176.084V174.752H177.685C176.221 174.752 175.489 175.244 175.489 176.228C175.489 176.708 175.675 177.086 176.047 177.362C176.419 177.638 176.935 177.776 177.595 177.776ZM192.299 170.972H188.807V179H187.079V170.972H183.587V169.46H192.299V170.972ZM202.266 174.284C202.266 174.416 202.254 174.59 202.23 174.806H194.49C194.598 175.646 194.964 176.324 195.588 176.84C196.224 177.344 197.01 177.596 197.946 177.596C199.086 177.596 200.004 177.212 200.7 176.444L201.654 177.56C201.222 178.064 200.682 178.448 200.034 178.712C199.398 178.976 198.684 179.108 197.892 179.108C196.884 179.108 195.99 178.904 195.21 178.496C194.43 178.076 193.824 177.494 193.392 176.75C192.972 176.006 192.762 175.166 192.762 174.23C192.762 173.306 192.966 172.472 193.374 171.728C193.794 170.984 194.364 170.408 195.084 170C195.816 169.58 196.638 169.37 197.55 169.37C198.462 169.37 199.272 169.58 199.98 170C200.7 170.408 201.258 170.984 201.654 171.728C202.062 172.472 202.266 173.324 202.266 174.284ZM197.55 170.828C196.722 170.828 196.026 171.08 195.462 171.584C194.91 172.088 194.586 172.748 194.49 173.564H200.61C200.514 172.76 200.184 172.106 199.62 171.602C199.068 171.086 198.378 170.828 197.55 170.828ZM221.822 174.212C221.822 175.688 221.33 176.852 220.346 177.704C219.362 178.556 217.976 179.03 216.188 179.126V182.492H214.496V179.126C212.708 179.03 211.322 178.562 210.338 177.722C209.366 176.87 208.88 175.7 208.88 174.212C208.88 172.736 209.366 171.584 210.338 170.756C211.31 169.928 212.696 169.466 214.496 169.37V165.644H216.188V169.37C217.976 169.466 219.362 169.934 220.346 170.774C221.33 171.602 221.822 172.748 221.822 174.212ZM210.59 174.212C210.59 175.232 210.914 176.03 211.562 176.606C212.222 177.182 213.2 177.512 214.496 177.596V170.9C213.188 170.984 212.21 171.308 211.562 171.872C210.914 172.436 210.59 173.216 210.59 174.212ZM216.188 177.614C218.804 177.41 220.112 176.276 220.112 174.212C220.112 173.204 219.782 172.424 219.122 171.872C218.462 171.308 217.484 170.984 216.188 170.9V177.614ZM228.351 179.108C227.403 179.108 226.551 178.898 225.795 178.478C225.039 178.058 224.445 177.482 224.013 176.75C223.593 176.006 223.383 175.166 223.383 174.23C223.383 173.294 223.593 172.46 224.013 171.728C224.445 170.984 225.039 170.408 225.795 170C226.551 169.58 227.403 169.37 228.351 169.37C229.299 169.37 230.145 169.58 230.889 170C231.645 170.408 232.233 170.984 232.653 171.728C233.085 172.46 233.301 173.294 233.301 174.23C233.301 175.166 233.085 176.006 232.653 176.75C232.233 177.482 231.645 178.058 230.889 178.478C230.145 178.898 229.299 179.108 228.351 179.108ZM228.351 177.596C228.963 177.596 229.509 177.458 229.989 177.182C230.481 176.894 230.865 176.498 231.141 175.994C231.417 175.478 231.555 174.89 231.555 174.23C231.555 173.57 231.417 172.988 231.141 172.484C230.865 171.968 230.481 171.572 229.989 171.296C229.509 171.02 228.963 170.882 228.351 170.882C227.739 170.882 227.187 171.02 226.695 171.296C226.215 171.572 225.831 171.968 225.543 172.484C225.267 172.988 225.129 173.57 225.129 174.23C225.129 174.89 225.267 175.478 225.543 175.994C225.831 176.498 226.215 176.894 226.695 177.182C227.187 177.458 227.739 177.596 228.351 177.596ZM242.555 170.972H239.063V179H237.335V170.972H233.843V169.46H242.555V170.972ZM247.986 179.108C247.038 179.108 246.186 178.898 245.43 178.478C244.674 178.058 244.08 177.482 243.648 176.75C243.228 176.006 243.018 175.166 243.018 174.23C243.018 173.294 243.228 172.46 243.648 171.728C244.08 170.984 244.674 170.408 245.43 170C246.186 169.58 247.038 169.37 247.986 169.37C248.934 169.37 249.78 169.58 250.524 170C251.28 170.408 251.868 170.984 252.288 171.728C252.72 172.46 252.936 173.294 252.936 174.23C252.936 175.166 252.72 176.006 252.288 176.75C251.868 177.482 251.28 178.058 250.524 178.478C249.78 178.898 248.934 179.108 247.986 179.108ZM247.986 177.596C248.598 177.596 249.144 177.458 249.624 177.182C250.116 176.894 250.5 176.498 250.776 175.994C251.052 175.478 251.19 174.89 251.19 174.23C251.19 173.57 251.052 172.988 250.776 172.484C250.5 171.968 250.116 171.572 249.624 171.296C249.144 171.02 248.598 170.882 247.986 170.882C247.374 170.882 246.822 171.02 246.33 171.296C245.85 171.572 245.466 171.968 245.178 172.484C244.902 172.988 244.764 173.57 244.764 174.23C244.764 174.89 244.902 175.478 245.178 175.994C245.466 176.498 245.85 176.894 246.33 177.182C246.822 177.458 247.374 177.596 247.986 177.596Z" fill="#363636"/>
<circle cx="149" cy="60" r="59" stroke="#FE201D" stroke-width="2"/>
<g clip-path="url(#clip0_1_953)">
<path d="M130.398 57.2609V77.0695C130.398 78.9177 131.882 80.419 133.765 80.419H163.667C165.493 80.419 167.034 78.9176 167.034 77.0695L167.034 57.2609C167.034 55.4127 165.551 53.9114 163.667 53.9114H155.679C155.222 53.9114 154.823 54.3158 154.823 54.7775C154.823 55.2395 155.222 55.6436 155.679 55.6436H163.667C164.581 55.6436 165.322 56.3945 165.322 57.2606V77.0691C165.322 77.9932 164.58 78.6861 163.667 78.6861L133.765 78.687C132.852 78.687 132.111 77.9361 132.111 77.0699L132.11 57.2614C132.11 56.3373 132.852 55.6444 133.765 55.6444H140.613C141.069 55.6444 141.469 55.2399 141.469 54.7783C141.469 54.3162 141.069 53.9122 140.613 53.9122H133.765C131.882 53.9118 130.398 55.4136 130.398 57.2614V57.2609Z" fill="#FE201D"/>
<path d="M148.431 69.4463C148.887 69.4463 149.287 69.0419 149.287 68.5802L149.287 42.0726L156.306 47.5013C156.477 47.6169 156.648 47.6745 156.819 47.6745C157.105 47.6745 157.333 47.5589 157.504 47.3281C157.789 46.9236 157.732 46.404 157.333 46.1151L148.944 39.6471C148.887 39.5895 148.83 39.5315 148.716 39.5315H148.659C148.602 39.5315 148.488 39.4739 148.431 39.4739C148.374 39.4739 148.26 39.4739 148.203 39.5315H148.146C148.089 39.5315 147.975 39.5891 147.918 39.6471L139.529 46.1155C139.129 46.4043 139.072 46.924 139.358 47.3285C139.643 47.7329 140.157 47.7905 140.556 47.5017L147.575 42.0726V68.5802C147.575 69.1003 147.974 69.4467 148.431 69.4467L148.431 69.4463Z" fill="#FE201D"/>
</g>
<path d="M18.6352 704L18.6172 694.82L14.0632 702.47H13.2352L8.68121 694.874V704H6.95321V691.4H8.42921L13.6852 700.256L18.8692 691.4H20.3452L20.3632 704H18.6352ZM28.2992 697.7C29.4992 697.712 30.4172 697.988 31.0532 698.528C31.6892 699.068 32.0072 699.83 32.0072 700.814C32.0072 701.846 31.6592 702.644 30.9632 703.208C30.2792 703.76 29.2952 704.03 28.0112 704.018L23.9972 704V694.46H25.7252V697.682L28.2992 697.7ZM33.4292 694.46H35.1572V704H33.4292V694.46ZM27.8852 702.704C28.6652 702.716 29.2532 702.56 29.6492 702.236C30.0572 701.912 30.2612 701.432 30.2612 700.796C30.2612 700.172 30.0632 699.716 29.6672 699.428C29.2712 699.14 28.6772 698.99 27.8852 698.978L25.7252 698.942V702.686L27.8852 702.704ZM48.4088 694.37C49.3328 694.37 50.1608 694.574 50.8928 694.982C51.6248 695.39 52.1948 695.96 52.6028 696.692C53.0228 697.424 53.2328 698.27 53.2328 699.23C53.2328 700.19 53.0228 701.042 52.6028 701.786C52.1948 702.518 51.6248 703.088 50.8928 703.496C50.1608 703.904 49.3328 704.108 48.4088 704.108C47.7248 704.108 47.0948 703.976 46.5188 703.712C45.9548 703.448 45.4748 703.064 45.0788 702.56V707.492H43.3508V694.46H45.0068V695.972C45.3908 695.444 45.8768 695.048 46.4648 694.784C47.0528 694.508 47.7008 694.37 48.4088 694.37ZM48.2648 702.596C48.8768 702.596 49.4228 702.458 49.9028 702.182C50.3948 701.894 50.7788 701.498 51.0548 700.994C51.3428 700.478 51.4868 699.89 51.4868 699.23C51.4868 698.57 51.3428 697.988 51.0548 697.484C50.7788 696.968 50.3948 696.572 49.9028 696.296C49.4228 696.02 48.8768 695.882 48.2648 695.882C47.6648 695.882 47.1188 696.026 46.6268 696.314C46.1468 696.59 45.7628 696.98 45.4748 697.484C45.1988 697.988 45.0608 698.57 45.0608 699.23C45.0608 699.89 45.1988 700.478 45.4748 700.994C45.7508 701.498 46.1348 701.894 46.6268 702.182C47.1188 702.458 47.6648 702.596 48.2648 702.596ZM64.3653 699.284C64.3653 699.416 64.3533 699.59 64.3293 699.806H56.5893C56.6973 700.646 57.0633 701.324 57.6873 701.84C58.3233 702.344 59.1093 702.596 60.0453 702.596C61.1853 702.596 62.1033 702.212 62.7993 701.444L63.7533 702.56C63.3213 703.064 62.7813 703.448 62.1333 703.712C61.4973 703.976 60.7833 704.108 59.9913 704.108C58.9833 704.108 58.0893 703.904 57.3093 703.496C56.5293 703.076 55.9233 702.494 55.4913 701.75C55.0713 701.006 54.8613 700.166 54.8613 699.23C54.8613 698.306 55.0653 697.472 55.4733 696.728C55.8933 695.984 56.4633 695.408 57.1833 695C57.9153 694.58 58.7373 694.37 59.6493 694.37C60.5613 694.37 61.3713 694.58 62.0793 695C62.7993 695.408 63.3573 695.984 63.7533 696.728C64.1613 697.472 64.3653 698.324 64.3653 699.284ZM59.6493 695.828C58.8213 695.828 58.1253 696.08 57.5613 696.584C57.0093 697.088 56.6853 697.748 56.5893 698.564H62.7093C62.6133 697.76 62.2833 697.106 61.7193 696.602C61.1673 696.086 60.4773 695.828 59.6493 695.828ZM76.5899 702.488V706.214H74.9699V704H66.9959V706.214H65.3579V702.488H65.8619C66.4739 702.452 66.8939 702.02 67.1219 701.192C67.3499 700.364 67.5059 699.194 67.5899 697.682L67.7339 694.46H75.1319V702.488H76.5899ZM69.1739 697.808C69.1259 699.008 69.0239 700.004 68.8679 700.796C68.7239 701.576 68.4539 702.14 68.0579 702.488H73.4039V695.972H69.2639L69.1739 697.808ZM82.243 694.37C83.563 694.37 84.571 694.694 85.267 695.342C85.975 695.99 86.329 696.956 86.329 698.24V704H84.691V702.74C84.403 703.184 83.989 703.526 83.449 703.766C82.921 703.994 82.291 704.108 81.559 704.108C80.491 704.108 79.633 703.85 78.985 703.334C78.349 702.818 78.031 702.14 78.031 701.3C78.031 700.46 78.337 699.788 78.949 699.284C79.561 698.768 80.533 698.51 81.865 698.51H84.601V698.168C84.601 697.424 84.385 696.854 83.953 696.458C83.521 696.062 82.885 695.864 82.045 695.864C81.481 695.864 80.929 695.96 80.389 696.152C79.849 696.332 79.393 696.578 79.021 696.89L78.301 695.594C78.793 695.198 79.381 694.898 80.065 694.694C80.749 694.478 81.475 694.37 82.243 694.37ZM81.847 702.776C82.507 702.776 83.077 702.632 83.557 702.344C84.037 702.044 84.385 701.624 84.601 701.084V699.752H81.937C80.473 699.752 79.741 700.244 79.741 701.228C79.741 701.708 79.927 702.086 80.299 702.362C80.671 702.638 81.187 702.776 81.847 702.776ZM93.1486 699.968H91.1686V704H89.4406V694.46H91.1686V698.492H93.1846L96.2806 694.46H98.1346L94.5166 699.05L98.3866 704H96.3526L93.1486 699.968ZM107.15 695.972H103.658V704H101.93V695.972H98.4382V694.46H107.15V695.972ZM108.917 694.46H110.645V701.408L116.495 694.46H118.061V704H116.333V697.052L110.501 704H108.917V694.46ZM126.473 694.37C127.397 694.37 128.225 694.574 128.957 694.982C129.689 695.39 130.259 695.96 130.667 696.692C131.087 697.424 131.297 698.27 131.297 699.23C131.297 700.19 131.087 701.042 130.667 701.786C130.259 702.518 129.689 703.088 128.957 703.496C128.225 703.904 127.397 704.108 126.473 704.108C125.789 704.108 125.159 703.976 124.583 703.712C124.019 703.448 123.539 703.064 123.143 702.56V707.492H121.415V694.46H123.071V695.972C123.455 695.444 123.941 695.048 124.529 694.784C125.117 694.508 125.765 694.37 126.473 694.37ZM126.329 702.596C126.941 702.596 127.487 702.458 127.967 702.182C128.459 701.894 128.843 701.498 129.119 700.994C129.407 700.478 129.551 699.89 129.551 699.23C129.551 698.57 129.407 697.988 129.119 697.484C128.843 696.968 128.459 696.572 127.967 696.296C127.487 696.02 126.941 695.882 126.329 695.882C125.729 695.882 125.183 696.026 124.691 696.314C124.211 696.59 123.827 696.98 123.539 697.484C123.263 697.988 123.125 698.57 123.125 699.23C123.125 699.89 123.263 700.478 123.539 700.994C123.815 701.498 124.199 701.894 124.691 702.182C125.183 702.458 125.729 702.596 126.329 702.596ZM142.058 694.46L137.432 704.954C137.024 705.926 136.544 706.61 135.992 707.006C135.452 707.402 134.798 707.6 134.03 707.6C133.562 707.6 133.106 707.522 132.662 707.366C132.23 707.222 131.87 707.006 131.582 706.718L132.32 705.422C132.812 705.89 133.382 706.124 134.03 706.124C134.45 706.124 134.798 706.01 135.074 705.782C135.362 705.566 135.62 705.188 135.848 704.648L136.154 703.982L131.942 694.46H133.742L137.072 702.092L140.366 694.46H142.058ZM152.186 699.284C152.186 699.416 152.174 699.59 152.15 699.806H144.41C144.518 700.646 144.884 701.324 145.508 701.84C146.144 702.344 146.93 702.596 147.866 702.596C149.006 702.596 149.924 702.212 150.62 701.444L151.574 702.56C151.142 703.064 150.602 703.448 149.954 703.712C149.318 703.976 148.604 704.108 147.812 704.108C146.804 704.108 145.91 703.904 145.13 703.496C144.35 703.076 143.744 702.494 143.312 701.75C142.892 701.006 142.682 700.166 142.682 699.23C142.682 698.306 142.886 697.472 143.294 696.728C143.714 695.984 144.284 695.408 145.004 695C145.736 694.58 146.558 694.37 147.47 694.37C148.382 694.37 149.192 694.58 149.9 695C150.62 695.408 151.178 695.984 151.574 696.728C151.982 697.472 152.186 698.324 152.186 699.284ZM147.47 695.828C146.642 695.828 145.946 696.08 145.382 696.584C144.83 697.088 144.506 697.748 144.41 698.564H150.53C150.434 697.76 150.104 697.106 149.54 696.602C148.988 696.086 148.298 695.828 147.47 695.828ZM165.864 694.46V704H164.298V697.034L160.734 702.92H159.978L156.45 697.016V704H154.866V694.46H156.648L160.392 700.904L164.244 694.46H165.864ZM185.06 694.46V704H183.494V697.034L179.93 702.92H179.174L175.646 697.016V704H174.062V694.46H175.844L179.588 700.904L183.44 694.46H185.06ZM191.825 694.37C193.145 694.37 194.153 694.694 194.849 695.342C195.557 695.99 195.911 696.956 195.911 698.24V704H194.273V702.74C193.985 703.184 193.571 703.526 193.031 703.766C192.503 703.994 191.873 704.108 191.141 704.108C190.073 704.108 189.215 703.85 188.567 703.334C187.931 702.818 187.613 702.14 187.613 701.3C187.613 700.46 187.919 699.788 188.531 699.284C189.143 698.768 190.115 698.51 191.447 698.51H194.183V698.168C194.183 697.424 193.967 696.854 193.535 696.458C193.103 696.062 192.467 695.864 191.627 695.864C191.063 695.864 190.511 695.96 189.971 696.152C189.431 696.332 188.975 696.578 188.603 696.89L187.883 695.594C188.375 695.198 188.963 694.898 189.647 694.694C190.331 694.478 191.057 694.37 191.825 694.37ZM191.429 702.776C192.089 702.776 192.659 702.632 193.139 702.344C193.619 702.044 193.967 701.624 194.183 701.084V699.752H191.519C190.055 699.752 189.323 700.244 189.323 701.228C189.323 701.708 189.509 702.086 189.881 702.362C190.253 702.638 190.769 702.776 191.429 702.776ZM202.731 699.968H200.751V704H199.023V694.46H200.751V698.492H202.767L205.863 694.46H207.717L204.099 699.05L207.969 704H205.935L202.731 699.968ZM218.086 699.284C218.086 699.416 218.074 699.59 218.05 699.806H210.31C210.418 700.646 210.784 701.324 211.408 701.84C212.044 702.344 212.83 702.596 213.766 702.596C214.906 702.596 215.824 702.212 216.52 701.444L217.474 702.56C217.042 703.064 216.502 703.448 215.854 703.712C215.218 703.976 214.504 704.108 213.712 704.108C212.704 704.108 211.81 703.904 211.03 703.496C210.25 703.076 209.644 702.494 209.212 701.75C208.792 701.006 208.582 700.166 208.582 699.23C208.582 698.306 208.786 697.472 209.194 696.728C209.614 695.984 210.184 695.408 210.904 695C211.636 694.58 212.458 694.37 213.37 694.37C214.282 694.37 215.092 694.58 215.8 695C216.52 695.408 217.078 695.984 217.474 696.728C217.882 697.472 218.086 698.324 218.086 699.284ZM213.37 695.828C212.542 695.828 211.846 696.08 211.282 696.584C210.73 697.088 210.406 697.748 210.31 698.564H216.43C216.334 697.76 216.004 697.106 215.44 696.602C214.888 696.086 214.198 695.828 213.37 695.828ZM227.472 695.972H223.98V704H222.252V695.972H218.76V694.46H227.472V695.972ZM228.774 701.642C229.11 701.642 229.386 701.762 229.602 702.002C229.83 702.23 229.944 702.518 229.944 702.866C229.944 703.046 229.92 703.22 229.872 703.388C229.836 703.556 229.758 703.814 229.638 704.162L228.792 706.664H227.658L228.324 703.982C228.096 703.898 227.91 703.76 227.766 703.568C227.634 703.364 227.568 703.13 227.568 702.866C227.568 702.506 227.682 702.212 227.91 701.984C228.138 701.756 228.426 701.642 228.774 701.642ZM244.904 694.46V704H243.176V700.148C242.144 700.628 241.118 700.868 240.098 700.868C238.91 700.868 237.992 700.592 237.344 700.04C236.696 699.488 236.372 698.66 236.372 697.556V694.46H238.1V697.448C238.1 698.108 238.304 698.606 238.712 698.942C239.132 699.278 239.714 699.446 240.458 699.446C241.298 699.446 242.204 699.236 243.176 698.816V694.46H244.904ZM255.369 695.972H251.877V704H250.149V695.972H246.657V694.46H255.369V695.972ZM260.8 704.108C259.852 704.108 259 703.898 258.244 703.478C257.488 703.058 256.894 702.482 256.462 701.75C256.042 701.006 255.832 700.166 255.832 699.23C255.832 698.294 256.042 697.46 256.462 696.728C256.894 695.984 257.488 695.408 258.244 695C259 694.58 259.852 694.37 260.8 694.37C261.748 694.37 262.594 694.58 263.338 695C264.094 695.408 264.682 695.984 265.102 696.728C265.534 697.46 265.75 698.294 265.75 699.23C265.75 700.166 265.534 701.006 265.102 701.75C264.682 702.482 264.094 703.058 263.338 703.478C262.594 703.898 261.748 704.108 260.8 704.108ZM260.8 702.596C261.412 702.596 261.958 702.458 262.438 702.182C262.93 701.894 263.314 701.498 263.59 700.994C263.866 700.478 264.004 699.89 264.004 699.23C264.004 698.57 263.866 697.988 263.59 697.484C263.314 696.968 262.93 696.572 262.438 696.296C261.958 696.02 261.412 695.882 260.8 695.882C260.188 695.882 259.636 696.02 259.144 696.296C258.664 696.572 258.28 696.968 257.992 697.484C257.716 697.988 257.578 698.57 257.578 699.23C257.578 699.89 257.716 700.478 257.992 700.994C258.28 701.498 258.664 701.894 259.144 702.182C259.636 702.458 260.188 702.596 260.8 702.596ZM273.105 694.784C273.993 694.784 274.785 694.982 275.481 695.378C276.177 695.774 276.717 696.326 277.101 697.034C277.497 697.73 277.695 698.528 277.695 699.428C277.695 700.352 277.485 701.174 277.065 701.894C276.657 702.602 276.075 703.154 275.319 703.55C274.575 703.946 273.723 704.144 272.763 704.144C271.143 704.144 269.889 703.592 269.001 702.488C268.125 701.372 267.687 699.806 267.687 697.79C267.687 695.834 268.089 694.304 268.893 693.2C269.697 692.084 270.927 691.346 272.583 690.986L276.939 690.014L277.191 691.598L273.177 692.462C271.929 692.738 270.999 693.206 270.387 693.866C269.775 694.526 269.427 695.474 269.343 696.71C269.751 696.098 270.279 695.624 270.927 695.288C271.575 694.952 272.301 694.784 273.105 694.784ZM272.799 702.704C273.411 702.704 273.951 702.566 274.419 702.29C274.899 702.014 275.271 701.636 275.535 701.156C275.799 700.664 275.931 700.106 275.931 699.482C275.931 698.534 275.643 697.772 275.067 697.196C274.491 696.62 273.735 696.332 272.799 696.332C271.863 696.332 271.101 696.62 270.513 697.196C269.937 697.772 269.649 698.534 269.649 699.482C269.649 700.106 269.781 700.664 270.045 701.156C270.321 701.636 270.699 702.014 271.179 702.29C271.659 702.566 272.199 702.704 272.799 702.704ZM284.465 697.7C285.665 697.712 286.583 697.988 287.219 698.528C287.855 699.068 288.173 699.83 288.173 700.814C288.173 701.846 287.825 702.644 287.129 703.208C286.445 703.76 285.461 704.03 284.177 704.018L280.163 704V694.46H281.891V697.682L284.465 697.7ZM289.595 694.46H291.323V704H289.595V694.46ZM284.051 702.704C284.831 702.716 285.419 702.56 285.815 702.236C286.223 701.912 286.427 701.432 286.427 700.796C286.427 700.172 286.229 699.716 285.833 699.428C285.437 699.14 284.843 698.99 284.051 698.978L281.891 698.942V702.686L284.051 702.704ZM3.36052 719.46H5.08852V723.51H10.5245V719.46H12.2525V729H10.5245V725.004H5.08852V729H3.36052V719.46ZM19.0145 719.37C20.3345 719.37 21.3425 719.694 22.0385 720.342C22.7465 720.99 23.1005 721.956 23.1005 723.24V729H21.4625V727.74C21.1745 728.184 20.7605 728.526 20.2205 728.766C19.6925 728.994 19.0625 729.108 18.3305 729.108C17.2625 729.108 16.4045 728.85 15.7565 728.334C15.1205 727.818 14.8025 727.14 14.8025 726.3C14.8025 725.46 15.1085 724.788 15.7205 724.284C16.3325 723.768 17.3045 723.51 18.6365 723.51H21.3725V723.168C21.3725 722.424 21.1565 721.854 20.7245 721.458C20.2925 721.062 19.6565 720.864 18.8165 720.864C18.2525 720.864 17.7005 720.96 17.1605 721.152C16.6205 721.332 16.1645 721.578 15.7925 721.89L15.0725 720.594C15.5645 720.198 16.1525 719.898 16.8365 719.694C17.5205 719.478 18.2465 719.37 19.0145 719.37ZM18.6185 727.776C19.2785 727.776 19.8485 727.632 20.3285 727.344C20.8085 727.044 21.1565 726.624 21.3725 726.084V724.752H18.7085C17.2445 724.752 16.5125 725.244 16.5125 726.228C16.5125 726.708 16.6985 727.086 17.0705 727.362C17.4425 727.638 17.9585 727.776 18.6185 727.776ZM35.1321 729.108C34.1841 729.108 33.3321 728.898 32.5761 728.478C31.8201 728.058 31.2261 727.482 30.7941 726.75C30.3741 726.006 30.1641 725.166 30.1641 724.23C30.1641 723.294 30.3741 722.46 30.7941 721.728C31.2261 720.984 31.8201 720.408 32.5761 720C33.3321 719.58 34.1841 719.37 35.1321 719.37C36.0801 719.37 36.9261 719.58 37.6701 720C38.4261 720.408 39.0141 720.984 39.4341 721.728C39.8661 722.46 40.0821 723.294 40.0821 724.23C40.0821 725.166 39.8661 726.006 39.4341 726.75C39.0141 727.482 38.4261 728.058 37.6701 728.478C36.9261 728.898 36.0801 729.108 35.1321 729.108ZM35.1321 727.596C35.7441 727.596 36.2901 727.458 36.7701 727.182C37.2621 726.894 37.6461 726.498 37.9221 725.994C38.1981 725.478 38.3361 724.89 38.3361 724.23C38.3361 723.57 38.1981 722.988 37.9221 722.484C37.6461 721.968 37.2621 721.572 36.7701 721.296C36.2901 721.02 35.7441 720.882 35.1321 720.882C34.5201 720.882 33.9681 721.02 33.4761 721.296C32.9961 721.572 32.6121 721.968 32.3241 722.484C32.0481 722.988 31.9101 723.57 31.9101 724.23C31.9101 724.89 32.0481 725.478 32.3241 725.994C32.6121 726.498 32.9961 726.894 33.4761 727.182C33.9681 727.458 34.5201 727.596 35.1321 727.596ZM49.3358 720.972H45.8438V729H44.1158V720.972H40.6238V719.46H49.3358V720.972ZM59.6205 724.968H57.7665V729H56.0385V724.968H54.1845L51.5565 729H49.5045L52.7805 724.068L49.7565 719.46H51.5925L54.1665 723.492H56.0385V719.46H57.7665V723.492H59.6385L62.2125 719.46H64.0665L61.0425 724.086L64.3185 729H62.2665L59.6205 724.968ZM66.2199 719.46H67.9479V726.408L73.7979 719.46H75.3639V729H73.6359V722.052L67.8039 729H66.2199V719.46ZM85.7379 720.972H80.4459V729H78.7179V719.46H85.7379V720.972ZM95.7071 724.284C95.7071 724.416 95.6951 724.59 95.6711 724.806H87.9311C88.0391 725.646 88.4051 726.324 89.0291 726.84C89.6651 727.344 90.4511 727.596 91.3871 727.596C92.5271 727.596 93.4451 727.212 94.1411 726.444L95.0951 727.56C94.6631 728.064 94.1231 728.448 93.4751 728.712C92.8391 728.976 92.1251 729.108 91.3331 729.108C90.3251 729.108 89.4311 728.904 88.6511 728.496C87.8711 728.076 87.2651 727.494 86.8331 726.75C86.4131 726.006 86.2031 725.166 86.2031 724.23C86.2031 723.306 86.4071 722.472 86.8151 721.728C87.2351 720.984 87.8051 720.408 88.5251 720C89.2571 719.58 90.0791 719.37 90.9911 719.37C91.9031 719.37 92.7131 719.58 93.4211 720C94.1411 720.408 94.6991 720.984 95.0951 721.728C95.5031 722.472 95.7071 723.324 95.7071 724.284ZM90.9911 720.828C90.1631 720.828 89.4671 721.08 88.9031 721.584C88.3511 722.088 88.0271 722.748 87.9311 723.564H94.0511C93.9551 722.76 93.6251 722.106 93.0611 721.602C92.5091 721.086 91.8191 720.828 90.9911 720.828ZM111.412 719.46V729H109.684V720.972H105.58L105.472 723.096C105.412 724.38 105.298 725.454 105.13 726.318C104.962 727.17 104.686 727.854 104.302 728.37C103.918 728.886 103.384 729.144 102.7 729.144C102.388 729.144 102.034 729.09 101.638 728.982L101.746 727.524C101.902 727.56 102.046 727.578 102.178 727.578C102.658 727.578 103.018 727.368 103.258 726.948C103.498 726.528 103.654 726.03 103.726 725.454C103.798 724.878 103.864 724.056 103.924 722.988L104.086 719.46H111.412ZM114.753 719.46H116.481V726.408L122.331 719.46H123.897V729H122.169V722.052L116.337 729H114.753V719.46ZM127.251 719.46H128.979V723.51H134.415V719.46H136.143V729H134.415V725.004H128.979V729H127.251V719.46ZM139.503 719.46H141.231V726.408L147.081 719.46H148.647V729H146.919V722.052L141.087 729H139.503V719.46ZM152.001 719.46H153.729V726.408L159.579 719.46H161.145V729H159.417V722.052L153.585 729H152.001V719.46ZM175.291 729L172.537 725.346L169.747 729H167.821L171.583 724.122L168.001 719.46H169.927L172.555 722.898L175.165 719.46H177.055L173.455 724.122L177.253 729H175.291ZM182.841 729.108C181.893 729.108 181.041 728.898 180.285 728.478C179.529 728.058 178.935 727.482 178.503 726.75C178.083 726.006 177.873 725.166 177.873 724.23C177.873 723.294 178.083 722.46 178.503 721.728C178.935 720.984 179.529 720.408 180.285 720C181.041 719.58 181.893 719.37 182.841 719.37C183.789 719.37 184.635 719.58 185.379 720C186.135 720.408 186.723 720.984 187.143 721.728C187.575 722.46 187.791 723.294 187.791 724.23C187.791 725.166 187.575 726.006 187.143 726.75C186.723 727.482 186.135 728.058 185.379 728.478C184.635 728.898 183.789 729.108 182.841 729.108ZM182.841 727.596C183.453 727.596 183.999 727.458 184.479 727.182C184.971 726.894 185.355 726.498 185.631 725.994C185.907 725.478 186.045 724.89 186.045 724.23C186.045 723.57 185.907 722.988 185.631 722.484C185.355 721.968 184.971 721.572 184.479 721.296C183.999 721.02 183.453 720.882 182.841 720.882C182.229 720.882 181.677 721.02 181.185 721.296C180.705 721.572 180.321 721.968 180.033 722.484C179.757 722.988 179.619 723.57 179.619 724.23C179.619 724.89 179.757 725.478 180.033 725.994C180.321 726.498 180.705 726.894 181.185 727.182C181.677 727.458 182.229 727.596 182.841 727.596ZM195.344 719.37C196.268 719.37 197.096 719.574 197.828 719.982C198.56 720.39 199.13 720.96 199.538 721.692C199.958 722.424 200.168 723.27 200.168 724.23C200.168 725.19 199.958 726.042 199.538 726.786C199.13 727.518 198.56 728.088 197.828 728.496C197.096 728.904 196.268 729.108 195.344 729.108C194.66 729.108 194.03 728.976 193.454 728.712C192.89 728.448 192.41 728.064 192.014 727.56V732.492H190.286V719.46H191.942V720.972C192.326 720.444 192.812 720.048 193.4 719.784C193.988 719.508 194.636 719.37 195.344 719.37ZM195.2 727.596C195.812 727.596 196.358 727.458 196.838 727.182C197.33 726.894 197.714 726.498 197.99 725.994C198.278 725.478 198.422 724.89 198.422 724.23C198.422 723.57 198.278 722.988 197.99 722.484C197.714 721.968 197.33 721.572 196.838 721.296C196.358 721.02 195.812 720.882 195.2 720.882C194.6 720.882 194.054 721.026 193.562 721.314C193.082 721.59 192.698 721.98 192.41 722.484C192.134 722.988 191.996 723.57 191.996 724.23C191.996 724.89 192.134 725.478 192.41 725.994C192.686 726.498 193.07 726.894 193.562 727.182C194.054 727.458 194.6 727.596 195.2 727.596ZM206.765 729.108C205.817 729.108 204.965 728.898 204.209 728.478C203.453 728.058 202.859 727.482 202.427 726.75C202.007 726.006 201.797 725.166 201.797 724.23C201.797 723.294 202.007 722.46 202.427 721.728C202.859 720.984 203.453 720.408 204.209 720C204.965 719.58 205.817 719.37 206.765 719.37C207.713 719.37 208.559 719.58 209.303 720C210.059 720.408 210.647 720.984 211.067 721.728C211.499 722.46 211.715 723.294 211.715 724.23C211.715 725.166 211.499 726.006 211.067 726.75C210.647 727.482 210.059 728.058 209.303 728.478C208.559 728.898 207.713 729.108 206.765 729.108ZM206.765 727.596C207.377 727.596 207.923 727.458 208.403 727.182C208.895 726.894 209.279 726.498 209.555 725.994C209.831 725.478 209.969 724.89 209.969 724.23C209.969 723.57 209.831 722.988 209.555 722.484C209.279 721.968 208.895 721.572 208.403 721.296C207.923 721.02 207.377 720.882 206.765 720.882C206.153 720.882 205.601 721.02 205.109 721.296C204.629 721.572 204.245 721.968 203.957 722.484C203.681 722.988 203.543 723.57 203.543 724.23C203.543 724.89 203.681 725.478 203.957 725.994C204.245 726.498 204.629 726.894 205.109 727.182C205.601 727.458 206.153 727.596 206.765 727.596ZM227.8 719.46V729H214.21V719.46H215.938V727.488H220.15V719.46H221.878V727.488H226.072V719.46H227.8ZM235.241 729.108C234.293 729.108 233.441 728.898 232.685 728.478C231.929 728.058 231.335 727.482 230.903 726.75C230.483 726.006 230.273 725.166 230.273 724.23C230.273 723.294 230.483 722.46 230.903 721.728C231.335 720.984 231.929 720.408 232.685 720C233.441 719.58 234.293 719.37 235.241 719.37C236.189 719.37 237.035 719.58 237.779 720C238.535 720.408 239.123 720.984 239.543 721.728C239.975 722.46 240.191 723.294 240.191 724.23C240.191 725.166 239.975 726.006 239.543 726.75C239.123 727.482 238.535 728.058 237.779 728.478C237.035 728.898 236.189 729.108 235.241 729.108ZM235.241 727.596C235.853 727.596 236.399 727.458 236.879 727.182C237.371 726.894 237.755 726.498 238.031 725.994C238.307 725.478 238.445 724.89 238.445 724.23C238.445 723.57 238.307 722.988 238.031 722.484C237.755 721.968 237.371 721.572 236.879 721.296C236.399 721.02 235.853 720.882 235.241 720.882C234.629 720.882 234.077 721.02 233.585 721.296C233.105 721.572 232.721 721.968 232.433 722.484C232.157 722.988 232.019 723.57 232.019 724.23C232.019 724.89 232.157 725.478 232.433 725.994C232.721 726.498 233.105 726.894 233.585 727.182C234.077 727.458 234.629 727.596 235.241 727.596ZM252.381 719.784C253.269 719.784 254.061 719.982 254.757 720.378C255.453 720.774 255.993 721.326 256.377 722.034C256.773 722.73 256.971 723.528 256.971 724.428C256.971 725.352 256.761 726.174 256.341 726.894C255.933 727.602 255.351 728.154 254.595 728.55C253.851 728.946 252.999 729.144 252.039 729.144C250.419 729.144 249.165 728.592 248.277 727.488C247.401 726.372 246.963 724.806 246.963 722.79C246.963 720.834 247.365 719.304 248.169 718.2C248.973 717.084 250.203 716.346 251.859 715.986L256.215 715.014L256.467 716.598L252.453 717.462C251.205 717.738 250.275 718.206 249.663 718.866C249.051 719.526 248.703 720.474 248.619 721.71C249.027 721.098 249.555 720.624 250.203 720.288C250.851 719.952 251.577 719.784 252.381 719.784ZM252.075 727.704C252.687 727.704 253.227 727.566 253.695 727.29C254.175 727.014 254.547 726.636 254.811 726.156C255.075 725.664 255.207 725.106 255.207 724.482C255.207 723.534 254.919 722.772 254.343 722.196C253.767 721.62 253.011 721.332 252.075 721.332C251.139 721.332 250.377 721.62 249.789 722.196C249.213 722.772 248.925 723.534 248.925 724.482C248.925 725.106 249.057 725.664 249.321 726.156C249.597 726.636 249.975 727.014 250.455 727.29C250.935 727.566 251.475 727.704 252.075 727.704ZM263.741 722.7C264.941 722.712 265.859 722.988 266.495 723.528C267.131 724.068 267.449 724.83 267.449 725.814C267.449 726.846 267.101 727.644 266.405 728.208C265.721 728.76 264.737 729.03 263.453 729.018L259.439 729V719.46H261.167V722.682L263.741 722.7ZM268.871 719.46H270.599V729H268.871V719.46ZM263.327 727.704C264.107 727.716 264.695 727.56 265.091 727.236C265.499 726.912 265.703 726.432 265.703 725.796C265.703 725.172 265.505 724.716 265.109 724.428C264.713 724.14 264.119 723.99 263.327 723.978L261.167 723.942V727.686L263.327 727.704ZM282.148 719.46V729H280.42V720.972H276.316L276.208 723.096C276.148 724.38 276.034 725.454 275.866 726.318C275.698 727.17 275.422 727.854 275.038 728.37C274.654 728.886 274.12 729.144 273.436 729.144C273.124 729.144 272.77 729.09 272.374 728.982L272.482 727.524C272.638 727.56 272.782 727.578 272.914 727.578C273.394 727.578 273.754 727.368 273.994 726.948C274.234 726.528 274.39 726.03 274.462 725.454C274.534 724.878 274.6 724.056 274.66 722.988L274.822 719.46H282.148ZM285.489 719.46H287.217V726.408L293.067 719.46H294.633V729H292.905V722.052L287.073 729H285.489V719.46ZM126.032 749.05C127.268 749.362 127.886 750.136 127.886 751.372C127.886 752.212 127.568 752.86 126.932 753.316C126.308 753.772 125.372 754 124.124 754H119.534V744.46H123.962C125.09 744.46 125.972 744.676 126.608 745.108C127.244 745.528 127.562 746.128 127.562 746.908C127.562 747.412 127.424 747.85 127.148 748.222C126.884 748.582 126.512 748.858 126.032 749.05ZM121.226 748.564H123.818C124.478 748.564 124.976 748.444 125.312 748.204C125.66 747.964 125.834 747.616 125.834 747.16C125.834 746.248 125.162 745.792 123.818 745.792H121.226V748.564ZM123.998 752.668C124.718 752.668 125.258 752.554 125.618 752.326C125.978 752.098 126.158 751.744 126.158 751.264C126.158 750.772 125.99 750.406 125.654 750.166C125.33 749.926 124.814 749.806 124.106 749.806H121.226V752.668H123.998ZM130.591 744.46H132.319V751.408L138.169 744.46H139.735V754H138.007V747.052L132.175 754H130.591V744.46ZM152.791 752.488V756.214H151.171V754H143.197V756.214H141.559V752.488H142.063C142.675 752.452 143.095 752.02 143.323 751.192C143.551 750.364 143.707 749.194 143.791 747.682L143.935 744.46H151.333V752.488H152.791ZM145.375 747.808C145.327 749.008 145.225 750.004 145.069 750.796C144.925 751.576 144.655 752.14 144.259 752.488H149.605V745.972H145.465L145.375 747.808ZM155.042 744.46H156.77V748.51H162.206V744.46H163.934V754H162.206V750.004H156.77V754H155.042V744.46ZM171.596 747.7C172.796 747.712 173.714 747.988 174.35 748.528C174.986 749.068 175.304 749.83 175.304 750.814C175.304 751.846 174.956 752.644 174.26 753.208C173.576 753.76 172.592 754.03 171.308 754.018L167.294 754V744.46H169.022V747.682L171.596 747.7ZM176.726 744.46H178.454V754H176.726V744.46ZM171.182 752.704C171.962 752.716 172.55 752.56 172.946 752.236C173.354 751.912 173.558 751.432 173.558 750.796C173.558 750.172 173.36 749.716 172.964 749.428C172.568 749.14 171.974 748.99 171.182 748.978L169.022 748.942V752.686L171.182 752.704Z" fill="#363636"/>
<circle cx="149" cy="610" r="59" stroke="#FE201D" stroke-width="2"/>
<g clip-path="url(#clip1_1_953)">
<path d="M167.464 604.968L168.454 603.565C169.087 602.678 169.345 601.573 169.171 600.494C168.998 599.414 168.408 598.449 167.531 597.809L166.515 597.063C165.639 596.424 164.546 596.162 163.479 596.338C162.412 596.513 161.458 597.11 160.825 597.997L160.792 598.044V592.659C160.79 591.82 160.46 591.016 159.874 590.423C159.288 589.83 158.493 589.496 157.664 589.495H140.804C139.923 589.489 139.075 589.84 138.452 590.471L130.435 598.572C129.812 599.2 129.463 600.054 129.466 600.943V625.805C129.467 626.644 129.797 627.448 130.383 628.041C130.97 628.634 131.764 628.968 132.594 628.969H157.664C158.494 628.968 159.29 628.634 159.876 628.04C160.462 627.446 160.792 626.64 160.792 625.801V614.455C160.794 614.418 160.794 614.381 160.792 614.344L166.233 606.673L165.027 605.891C165.302 606.09 163.74 606.787 163.794 607.124C163.848 607.462 163.171 608.082 162.972 608.357L161.328 610.412C160.988 610.89 161.096 611.556 161.568 611.9C162.041 612.244 161.81 611.712 162.15 611.234L165.027 607.946C165.554 607.211 166.164 606.628 166.233 606.673L167.464 604.968ZM138.807 593.132V598.453C138.807 598.722 138.592 598.939 138.326 598.939H133.049L138.807 593.132ZM158.684 625.805C158.684 626.376 158.228 626.839 157.664 626.841H132.593C132.322 626.841 132.062 626.732 131.871 626.537C131.679 626.343 131.572 626.08 131.573 625.805V601.076H138.318C139.003 601.074 139.661 600.798 140.146 600.308C140.631 599.817 140.904 599.152 140.905 598.458V591.636H157.664C157.935 591.636 158.194 591.744 158.386 591.938C158.577 592.131 158.684 592.394 158.684 592.668V600.999L148.147 615.781C148.045 615.924 147.98 616.092 147.957 616.267L146.958 623.993C146.909 624.381 147.074 624.766 147.388 624.994C147.702 625.223 148.115 625.259 148.463 625.089L155.392 621.677C155.55 621.6 155.687 621.484 155.789 621.34L158.684 617.277L158.684 625.805ZM149.909 617.619C150.686 617.687 151.431 617.967 152.064 618.428C152.697 618.89 153.194 619.516 153.504 620.241L149.289 622.305L149.909 617.619ZM166.769 602.317L155.089 618.689C154.175 617.109 152.644 615.993 150.874 615.615L162.554 599.243C162.858 598.814 163.32 598.525 163.835 598.441C164.35 598.356 164.878 598.482 165.302 598.79L166.326 599.537C166.75 599.845 167.035 600.312 167.118 600.834C167.201 601.355 167.075 601.889 166.769 602.317Z" fill="#FE201D"/>
<path d="M166.233 606.673L160.792 614.344C160.794 614.381 160.794 614.418 160.792 614.455V625.801C160.792 626.64 160.462 627.446 159.876 628.04C159.29 628.634 158.494 628.968 157.664 628.969H132.594C131.764 628.968 130.97 628.634 130.383 628.041C129.797 627.448 129.467 626.644 129.466 625.805V600.943C129.463 600.054 129.812 599.2 130.435 598.572L138.452 590.471C139.075 589.84 139.923 589.489 140.804 589.495H157.664C158.493 589.496 159.288 589.83 159.874 590.423C160.46 591.016 160.79 591.82 160.792 592.659V598.044L160.825 597.997C161.458 597.11 162.412 596.513 163.479 596.338C164.546 596.162 165.639 596.424 166.515 597.063L167.531 597.809C168.408 598.449 168.998 599.414 169.171 600.494C169.345 601.573 169.087 602.678 168.454 603.565L167.464 604.968L166.233 606.673ZM166.233 606.673L165.027 605.891C165.302 606.09 163.74 606.787 163.794 607.124C163.848 607.462 163.171 608.082 162.972 608.357L161.328 610.412C160.988 610.89 161.096 611.556 161.568 611.9C162.041 612.244 161.81 611.712 162.15 611.234L165.027 607.946C165.554 607.211 166.164 606.628 166.233 606.673ZM138.807 593.132V598.453C138.807 598.722 138.592 598.939 138.326 598.939H133.049L138.807 593.132ZM158.684 625.805C158.684 626.376 158.228 626.839 157.664 626.841H132.593C132.322 626.841 132.062 626.732 131.871 626.537C131.679 626.343 131.572 626.08 131.573 625.805V601.076H138.318C139.003 601.074 139.661 600.798 140.146 600.308C140.631 599.817 140.904 599.152 140.905 598.458V591.636H157.664C157.935 591.636 158.194 591.744 158.386 591.938C158.577 592.131 158.684 592.394 158.684 592.668V600.999L148.147 615.781C148.045 615.924 147.98 616.092 147.957 616.267L146.958 623.993C146.909 624.381 147.074 624.766 147.388 624.994C147.702 625.223 148.115 625.259 148.463 625.089L155.392 621.677C155.55 621.6 155.687 621.484 155.789 621.34L158.684 617.277L158.684 625.805ZM149.909 617.619C150.686 617.687 151.431 617.967 152.064 618.428C152.697 618.89 153.194 619.516 153.504 620.241L149.289 622.305L149.909 617.619ZM166.769 602.317L155.089 618.689C154.175 617.109 152.644 615.993 150.874 615.615L162.554 599.243C162.858 598.814 163.32 598.525 163.835 598.441C164.35 598.356 164.878 598.482 165.302 598.79L166.326 599.537C166.75 599.845 167.035 600.312 167.118 600.834C167.201 601.355 167.075 601.889 166.769 602.317Z" stroke="white" stroke-width="0.4"/>
<path d="M163.794 606.713L165.027 605.48L165.849 605.891H166.671L164.616 608.768L163.383 610.412L162.561 611.234L162.15 612.056L161.328 612.467L160.917 612.056V610.823L162.561 608.357L163.383 607.535L163.794 606.713Z" fill="#FE201D"/>
</g>
<path d="M84.8726 416.4V429H83.1086V417.966H75.8006V429H74.0186V416.4H84.8726ZM93.5718 419.37C94.4958 419.37 95.3238 419.574 96.0558 419.982C96.7878 420.39 97.3578 420.96 97.7658 421.692C98.1858 422.424 98.3958 423.27 98.3958 424.23C98.3958 425.19 98.1858 426.042 97.7658 426.786C97.3578 427.518 96.7878 428.088 96.0558 428.496C95.3238 428.904 94.4958 429.108 93.5718 429.108C92.8878 429.108 92.2578 428.976 91.6818 428.712C91.1178 428.448 90.6378 428.064 90.2418 427.56V432.492H88.5138V419.46H90.1698V420.972C90.5538 420.444 91.0398 420.048 91.6278 419.784C92.2158 419.508 92.8638 419.37 93.5718 419.37ZM93.4278 427.596C94.0398 427.596 94.5858 427.458 95.0658 427.182C95.5578 426.894 95.9418 426.498 96.2178 425.994C96.5058 425.478 96.6498 424.89 96.6498 424.23C96.6498 423.57 96.5058 422.988 96.2178 422.484C95.9418 421.968 95.5578 421.572 95.0658 421.296C94.5858 421.02 94.0398 420.882 93.4278 420.882C92.8278 420.882 92.2818 421.026 91.7898 421.314C91.3098 421.59 90.9258 421.98 90.6378 422.484C90.3618 422.988 90.2238 423.57 90.2238 424.23C90.2238 424.89 90.3618 425.478 90.6378 425.994C90.9138 426.498 91.2978 426.894 91.7898 427.182C92.2818 427.458 92.8278 427.596 93.4278 427.596ZM109.528 424.284C109.528 424.416 109.516 424.59 109.492 424.806H101.752C101.86 425.646 102.226 426.324 102.85 426.84C103.486 427.344 104.272 427.596 105.208 427.596C106.348 427.596 107.266 427.212 107.962 426.444L108.916 427.56C108.484 428.064 107.944 428.448 107.296 428.712C106.66 428.976 105.946 429.108 105.154 429.108C104.146 429.108 103.252 428.904 102.472 428.496C101.692 428.076 101.086 427.494 100.654 426.75C100.234 426.006 100.024 425.166 100.024 424.23C100.024 423.306 100.228 422.472 100.636 421.728C101.056 420.984 101.626 420.408 102.346 420C103.078 419.58 103.9 419.37 104.812 419.37C105.724 419.37 106.534 419.58 107.242 420C107.962 420.408 108.52 420.984 108.916 421.728C109.324 422.472 109.528 423.324 109.528 424.284ZM104.812 420.828C103.984 420.828 103.288 421.08 102.724 421.584C102.172 422.088 101.848 422.748 101.752 423.564H107.872C107.776 422.76 107.446 422.106 106.882 421.602C106.33 421.086 105.64 420.828 104.812 420.828ZM121.753 427.488V431.214H120.133V429H112.159V431.214H110.521V427.488H111.025C111.637 427.452 112.057 427.02 112.285 426.192C112.513 425.364 112.669 424.194 112.753 422.682L112.897 419.46H120.295V427.488H121.753ZM114.337 422.808C114.289 424.008 114.187 425.004 114.031 425.796C113.887 426.576 113.617 427.14 113.221 427.488H118.567V420.972H114.427L114.337 422.808ZM128.09 429.108C127.142 429.108 126.29 428.898 125.534 428.478C124.778 428.058 124.184 427.482 123.752 426.75C123.332 426.006 123.122 425.166 123.122 424.23C123.122 423.294 123.332 422.46 123.752 421.728C124.184 420.984 124.778 420.408 125.534 420C126.29 419.58 127.142 419.37 128.09 419.37C129.038 419.37 129.884 419.58 130.628 420C131.384 420.408 131.972 420.984 132.392 421.728C132.824 422.46 133.04 423.294 133.04 424.23C133.04 425.166 132.824 426.006 132.392 426.75C131.972 427.482 131.384 428.058 130.628 428.478C129.884 428.898 129.038 429.108 128.09 429.108ZM128.09 427.596C128.702 427.596 129.248 427.458 129.728 427.182C130.22 426.894 130.604 426.498 130.88 425.994C131.156 425.478 131.294 424.89 131.294 424.23C131.294 423.57 131.156 422.988 130.88 422.484C130.604 421.968 130.22 421.572 129.728 421.296C129.248 421.02 128.702 420.882 128.09 420.882C127.478 420.882 126.926 421.02 126.434 421.296C125.954 421.572 125.57 421.968 125.282 422.484C125.006 422.988 124.868 423.57 124.868 424.23C124.868 424.89 125.006 425.478 125.282 425.994C125.57 426.498 125.954 426.894 126.434 427.182C126.926 427.458 127.478 427.596 128.09 427.596ZM144.373 419.46V429H142.645V420.972H137.263V429H135.535V419.46H144.373ZM155.907 419.46V429H154.179V420.972H150.075L149.967 423.096C149.907 424.38 149.793 425.454 149.625 426.318C149.457 427.17 149.181 427.854 148.797 428.37C148.413 428.886 147.879 429.144 147.195 429.144C146.883 429.144 146.529 429.09 146.133 428.982L146.241 427.524C146.397 427.56 146.541 427.578 146.673 427.578C147.153 427.578 147.513 427.368 147.753 426.948C147.993 426.528 148.149 426.03 148.221 425.454C148.293 424.878 148.359 424.056 148.419 422.988L148.581 419.46H155.907ZM162.65 419.37C163.97 419.37 164.978 419.694 165.674 420.342C166.382 420.99 166.736 421.956 166.736 423.24V429H165.098V427.74C164.81 428.184 164.396 428.526 163.856 428.766C163.328 428.994 162.698 429.108 161.966 429.108C160.898 429.108 160.04 428.85 159.392 428.334C158.756 427.818 158.438 427.14 158.438 426.3C158.438 425.46 158.744 424.788 159.356 424.284C159.968 423.768 160.94 423.51 162.272 423.51H165.008V423.168C165.008 422.424 164.792 421.854 164.36 421.458C163.928 421.062 163.292 420.864 162.452 420.864C161.888 420.864 161.336 420.96 160.796 421.152C160.256 421.332 159.8 421.578 159.428 421.89L158.708 420.594C159.2 420.198 159.788 419.898 160.472 419.694C161.156 419.478 161.882 419.37 162.65 419.37ZM162.254 427.776C162.914 427.776 163.484 427.632 163.964 427.344C164.444 427.044 164.792 426.624 165.008 426.084V424.752H162.344C160.88 424.752 160.148 425.244 160.148 426.228C160.148 426.708 160.334 427.086 160.706 427.362C161.078 427.638 161.594 427.776 162.254 427.776ZM176.958 420.972H173.466V429H171.738V420.972H168.246V419.46H176.958V420.972ZM182.127 419.37C183.447 419.37 184.455 419.694 185.151 420.342C185.859 420.99 186.213 421.956 186.213 423.24V429H184.575V427.74C184.287 428.184 183.873 428.526 183.333 428.766C182.805 428.994 182.175 429.108 181.443 429.108C180.375 429.108 179.517 428.85 178.869 428.334C178.233 427.818 177.915 427.14 177.915 426.3C177.915 425.46 178.221 424.788 178.833 424.284C179.445 423.768 180.417 423.51 181.749 423.51H184.485V423.168C184.485 422.424 184.269 421.854 183.837 421.458C183.405 421.062 182.769 420.864 181.929 420.864C181.365 420.864 180.813 420.96 180.273 421.152C179.733 421.332 179.277 421.578 178.905 421.89L178.185 420.594C178.677 420.198 179.265 419.898 179.949 419.694C180.633 419.478 181.359 419.37 182.127 419.37ZM181.731 427.776C182.391 427.776 182.961 427.632 183.441 427.344C183.921 427.044 184.269 426.624 184.485 426.084V424.752H181.821C180.357 424.752 179.625 425.244 179.625 426.228C179.625 426.708 179.811 427.086 180.183 427.362C180.555 427.638 181.071 427.776 181.731 427.776ZM202.204 427.434V429H193.15V427.776L198.28 422.826C198.904 422.226 199.324 421.71 199.54 421.278C199.756 420.834 199.864 420.39 199.864 419.946C199.864 419.286 199.63 418.776 199.162 418.416C198.706 418.044 198.046 417.858 197.182 417.858C195.79 417.858 194.716 418.314 193.96 419.226L192.736 418.164C193.228 417.564 193.87 417.096 194.662 416.76C195.466 416.424 196.36 416.256 197.344 416.256C198.664 416.256 199.714 416.574 200.494 417.21C201.274 417.834 201.664 418.686 201.664 419.766C201.664 420.438 201.52 421.074 201.232 421.674C200.944 422.274 200.398 422.958 199.594 423.726L195.742 427.434H202.204ZM208.78 429.144C207.784 429.144 206.896 428.892 206.116 428.388C205.348 427.872 204.742 427.128 204.298 426.156C203.854 425.184 203.632 424.032 203.632 422.7C203.632 421.368 203.854 420.216 204.298 419.244C204.742 418.272 205.348 417.534 206.116 417.03C206.896 416.514 207.784 416.256 208.78 416.256C209.764 416.256 210.64 416.514 211.408 417.03C212.188 417.534 212.8 418.272 213.244 419.244C213.688 420.216 213.91 421.368 213.91 422.7C213.91 424.032 213.688 425.184 213.244 426.156C212.8 427.128 212.188 427.872 211.408 428.388C210.64 428.892 209.764 429.144 208.78 429.144ZM208.78 427.542C209.788 427.542 210.592 427.128 211.192 426.3C211.804 425.472 212.11 424.272 212.11 422.7C212.11 421.128 211.804 419.928 211.192 419.1C210.592 418.272 209.788 417.858 208.78 417.858C207.76 417.858 206.944 418.272 206.332 419.1C205.732 419.928 205.432 421.128 205.432 422.7C205.432 424.272 205.732 425.472 206.332 426.3C206.944 427.128 207.76 427.542 208.78 427.542ZM218.373 423.168C217.497 423.168 216.789 422.85 216.249 422.214C215.709 421.578 215.439 420.75 215.439 419.73C215.439 418.71 215.709 417.882 216.249 417.246C216.789 416.61 217.497 416.292 218.373 416.292C219.249 416.292 219.951 416.61 220.479 417.246C221.019 417.87 221.289 418.698 221.289 419.73C221.289 420.762 221.019 421.596 220.479 422.232C219.951 422.856 219.249 423.168 218.373 423.168ZM225.969 416.4H227.355L218.751 429H217.365L225.969 416.4ZM218.373 422.142C218.925 422.142 219.357 421.932 219.669 421.512C219.981 421.08 220.137 420.486 220.137 419.73C220.137 418.974 219.981 418.386 219.669 417.966C219.357 417.534 218.925 417.318 218.373 417.318C217.833 417.318 217.401 417.534 217.077 417.966C216.765 418.398 216.609 418.986 216.609 419.73C216.609 420.474 216.765 421.062 217.077 421.494C217.401 421.926 217.833 422.142 218.373 422.142ZM226.347 429.108C225.471 429.108 224.763 428.796 224.223 428.172C223.695 427.536 223.431 426.702 223.431 425.67C223.431 424.638 223.695 423.81 224.223 423.186C224.763 422.55 225.471 422.232 226.347 422.232C227.223 422.232 227.931 422.55 228.471 423.186C229.011 423.822 229.281 424.65 229.281 425.67C229.281 426.69 229.011 427.518 228.471 428.154C227.931 428.79 227.223 429.108 226.347 429.108ZM226.347 428.082C226.887 428.082 227.313 427.866 227.625 427.434C227.949 427.002 228.111 426.414 228.111 425.67C228.111 424.926 227.949 424.338 227.625 423.906C227.313 423.474 226.887 423.258 226.347 423.258C225.795 423.258 225.363 423.474 225.051 423.906C224.739 424.326 224.583 424.914 224.583 425.67C224.583 426.426 224.739 427.02 225.051 427.452C225.363 427.872 225.795 428.082 226.347 428.082ZM112.613 444.46H114.341V448.51H119.777V444.46H121.505V454H119.777V450.004H114.341V454H112.613V444.46ZM128.267 444.37C129.587 444.37 130.595 444.694 131.291 445.342C131.999 445.99 132.353 446.956 132.353 448.24V454H130.715V452.74C130.427 453.184 130.013 453.526 129.473 453.766C128.945 453.994 128.315 454.108 127.583 454.108C126.515 454.108 125.657 453.85 125.009 453.334C124.373 452.818 124.055 452.14 124.055 451.3C124.055 450.46 124.361 449.788 124.973 449.284C125.585 448.768 126.557 448.51 127.889 448.51H130.625V448.168C130.625 447.424 130.409 446.854 129.977 446.458C129.545 446.062 128.909 445.864 128.069 445.864C127.505 445.864 126.953 445.96 126.413 446.152C125.873 446.332 125.417 446.578 125.045 446.89L124.325 445.594C124.817 445.198 125.405 444.898 126.089 444.694C126.773 444.478 127.499 444.37 128.267 444.37ZM127.871 452.776C128.531 452.776 129.101 452.632 129.581 452.344C130.061 452.044 130.409 451.624 130.625 451.084V449.752H127.961C126.497 449.752 125.765 450.244 125.765 451.228C125.765 451.708 125.951 452.086 126.323 452.362C126.695 452.638 127.211 452.776 127.871 452.776ZM144.007 449.968H142.027V454H140.299V444.46H142.027V448.492H144.043L147.139 444.46H148.993L145.375 449.05L149.245 454H147.211L144.007 449.968ZM154.283 444.37C155.603 444.37 156.611 444.694 157.307 445.342C158.015 445.99 158.369 446.956 158.369 448.24V454H156.731V452.74C156.443 453.184 156.029 453.526 155.489 453.766C154.961 453.994 154.331 454.108 153.599 454.108C152.531 454.108 151.673 453.85 151.025 453.334C150.389 452.818 150.071 452.14 150.071 451.3C150.071 450.46 150.377 449.788 150.989 449.284C151.601 448.768 152.573 448.51 153.905 448.51H156.641V448.168C156.641 447.424 156.425 446.854 155.993 446.458C155.561 446.062 154.925 445.864 154.085 445.864C153.521 445.864 152.969 445.96 152.429 446.152C151.889 446.332 151.433 446.578 151.061 446.89L150.341 445.594C150.833 445.198 151.421 444.898 152.105 444.694C152.789 444.478 153.515 444.37 154.283 444.37ZM153.887 452.776C154.547 452.776 155.117 452.632 155.597 452.344C156.077 452.044 156.425 451.624 156.641 451.084V449.752H153.977C152.513 449.752 151.781 450.244 151.781 451.228C151.781 451.708 151.967 452.086 152.339 452.362C152.711 452.638 153.227 452.776 153.887 452.776ZM166.539 444.37C167.463 444.37 168.291 444.574 169.023 444.982C169.755 445.39 170.325 445.96 170.733 446.692C171.153 447.424 171.363 448.27 171.363 449.23C171.363 450.19 171.153 451.042 170.733 451.786C170.325 452.518 169.755 453.088 169.023 453.496C168.291 453.904 167.463 454.108 166.539 454.108C165.855 454.108 165.225 453.976 164.649 453.712C164.085 453.448 163.605 453.064 163.209 452.56V457.492H161.481V444.46H163.137V445.972C163.521 445.444 164.007 445.048 164.595 444.784C165.183 444.508 165.831 444.37 166.539 444.37ZM166.395 452.596C167.007 452.596 167.553 452.458 168.033 452.182C168.525 451.894 168.909 451.498 169.185 450.994C169.473 450.478 169.617 449.89 169.617 449.23C169.617 448.57 169.473 447.988 169.185 447.484C168.909 446.968 168.525 446.572 168.033 446.296C167.553 446.02 167.007 445.882 166.395 445.882C165.795 445.882 165.249 446.026 164.757 446.314C164.277 446.59 163.893 446.98 163.605 447.484C163.329 447.988 163.191 448.57 163.191 449.23C163.191 449.89 163.329 450.478 163.605 450.994C163.881 451.498 164.265 451.894 164.757 452.182C165.249 452.458 165.795 452.596 166.395 452.596ZM180.632 445.972H177.14V454H175.412V445.972H171.92V444.46H180.632V445.972ZM190.965 444.46L186.339 454.954C185.931 455.926 185.451 456.61 184.899 457.006C184.359 457.402 183.705 457.6 182.937 457.6C182.469 457.6 182.013 457.522 181.569 457.366C181.137 457.222 180.777 457.006 180.489 456.718L181.227 455.422C181.719 455.89 182.289 456.124 182.937 456.124C183.357 456.124 183.705 456.01 183.981 455.782C184.269 455.566 184.527 455.188 184.755 454.648L185.061 453.982L180.849 444.46H182.649L185.979 452.092L189.273 444.46H190.965Z" fill="#363636"/>
<circle cx="149" cy="335" r="59" stroke="#FE201D" stroke-width="2"/>
<g clip-path="url(#clip2_1_953)">
<path d="M129.861 319.434L129.861 319.435C128.86 319.452 127.905 319.865 127.196 320.589L127.196 320.589C126.474 321.329 126.068 322.331 126.068 323.376V325.04V325.14L126.168 325.14L170.984 325.14L171.084 325.14V325.04V323.375C171.084 322.331 170.678 321.329 169.955 320.589L169.955 320.589C169.232 319.85 168.252 319.434 167.228 319.434L129.862 319.434L129.861 319.434ZM171.083 327.665V327.565H170.983H126.168H126.068V327.665V331.571V331.671H126.168H170.983H171.083V331.571V327.665ZM167.228 350.622L167.451 350.622L167.445 350.615C168.389 350.561 169.283 350.153 169.955 349.466L169.955 349.466C170.677 348.727 171.083 347.725 171.083 346.68V334.132V334.032H170.983H126.167H126.067V334.132V346.68C126.067 347.725 126.473 348.727 127.196 349.466L127.196 349.466C127.919 350.205 128.9 350.621 129.923 350.621L167.228 350.622ZM171.582 318.918C172.738 320.1 173.387 321.703 173.387 323.375V346.68C173.387 348.352 172.738 349.955 171.582 351.137C170.427 352.319 168.861 352.982 167.228 352.982H129.923C128.291 352.982 126.724 352.319 125.569 351.137C124.413 349.955 123.764 348.352 123.764 346.68V323.375C123.764 321.703 124.413 320.1 125.569 318.918C126.724 317.737 128.291 317.073 129.923 317.073H167.228C168.861 317.073 170.427 317.737 171.582 318.918Z" fill="#FE201D" stroke="white" stroke-width="0.2"/>
<path d="M164.099 341.174H158.09C157.399 341.174 156.839 341.747 156.839 342.454C156.839 343.161 157.399 343.735 158.09 343.735H164.162C164.853 343.735 165.413 343.161 165.413 342.454C165.413 341.747 164.853 341.174 164.162 341.174H164.099Z" fill="#FE201D"/>
</g>
<path d="M27.4393 991.4V1004H25.6573V999.014C24.3253 999.53 23.0953 999.788 21.9673 999.788C20.4313 999.788 19.2373 999.416 18.3853 998.672C17.5453 997.928 17.1253 996.866 17.1253 995.486V991.4H18.8893V995.288C18.8893 996.224 19.1713 996.944 19.7353 997.448C20.3113 997.952 21.1213 998.204 22.1653 998.204C23.3293 998.204 24.4933 997.94 25.6573 997.412V991.4H27.4393ZM39.7032 999.284C39.7032 999.416 39.6912 999.59 39.6672 999.806H31.9272C32.0352 1000.65 32.4012 1001.32 33.0252 1001.84C33.6612 1002.34 34.4472 1002.6 35.3832 1002.6C36.5232 1002.6 37.4412 1002.21 38.1372 1001.44L39.0912 1002.56C38.6592 1003.06 38.1192 1003.45 37.4712 1003.71C36.8352 1003.98 36.1212 1004.11 35.3292 1004.11C34.3212 1004.11 33.4272 1003.9 32.6472 1003.5C31.8672 1003.08 31.2612 1002.49 30.8292 1001.75C30.4092 1001.01 30.1992 1000.17 30.1992 999.23C30.1992 998.306 30.4032 997.472 30.8112 996.728C31.2312 995.984 31.8012 995.408 32.5212 995C33.2532 994.58 34.0752 994.37 34.9872 994.37C35.8992 994.37 36.7092 994.58 37.4172 995C38.1372 995.408 38.6952 995.984 39.0912 996.728C39.4992 997.472 39.7032 998.324 39.7032 999.284ZM34.9872 995.828C34.1592 995.828 33.4632 996.08 32.8992 996.584C32.3472 997.088 32.0232 997.748 31.9272 998.564H38.0472C37.9512 997.76 37.6212 997.106 37.0572 996.602C36.5052 996.086 35.8152 995.828 34.9872 995.828ZM47.442 994.37C48.366 994.37 49.194 994.574 49.926 994.982C50.658 995.39 51.228 995.96 51.636 996.692C52.056 997.424 52.266 998.27 52.266 999.23C52.266 1000.19 52.056 1001.04 51.636 1001.79C51.228 1002.52 50.658 1003.09 49.926 1003.5C49.194 1003.9 48.366 1004.11 47.442 1004.11C46.758 1004.11 46.128 1003.98 45.552 1003.71C44.988 1003.45 44.508 1003.06 44.112 1002.56V1007.49H42.384V994.46H44.04V995.972C44.424 995.444 44.91 995.048 45.498 994.784C46.086 994.508 46.734 994.37 47.442 994.37ZM47.298 1002.6C47.91 1002.6 48.456 1002.46 48.936 1002.18C49.428 1001.89 49.812 1001.5 50.088 1000.99C50.376 1000.48 50.52 999.89 50.52 999.23C50.52 998.57 50.376 997.988 50.088 997.484C49.812 996.968 49.428 996.572 48.936 996.296C48.456 996.02 47.91 995.882 47.298 995.882C46.698 995.882 46.152 996.026 45.66 996.314C45.18 996.59 44.796 996.98 44.508 997.484C44.232 997.988 44.094 998.57 44.094 999.23C44.094 999.89 44.232 1000.48 44.508 1000.99C44.784 1001.5 45.168 1001.89 45.66 1002.18C46.152 1002.46 46.698 1002.6 47.298 1002.6ZM63.3985 999.284C63.3985 999.416 63.3865 999.59 63.3625 999.806H55.6225C55.7305 1000.65 56.0965 1001.32 56.7205 1001.84C57.3565 1002.34 58.1425 1002.6 59.0785 1002.6C60.2185 1002.6 61.1365 1002.21 61.8325 1001.44L62.7865 1002.56C62.3545 1003.06 61.8145 1003.45 61.1665 1003.71C60.5305 1003.98 59.8165 1004.11 59.0245 1004.11C58.0165 1004.11 57.1225 1003.9 56.3425 1003.5C55.5625 1003.08 54.9565 1002.49 54.5245 1001.75C54.1045 1001.01 53.8945 1000.17 53.8945 999.23C53.8945 998.306 54.0985 997.472 54.5065 996.728C54.9265 995.984 55.4965 995.408 56.2165 995C56.9485 994.58 57.7705 994.37 58.6825 994.37C59.5945 994.37 60.4045 994.58 61.1125 995C61.8325 995.408 62.3905 995.984 62.7865 996.728C63.1945 997.472 63.3985 998.324 63.3985 999.284ZM58.6825 995.828C57.8545 995.828 57.1585 996.08 56.5945 996.584C56.0425 997.088 55.7185 997.748 55.6225 998.564H61.7425C61.6465 997.76 61.3165 997.106 60.7525 996.602C60.2005 996.086 59.5105 995.828 58.6825 995.828ZM71.0343 999.032C71.6703 999.2 72.1623 999.47 72.5103 999.842C72.8583 1000.21 73.0323 1000.68 73.0323 1001.23C73.0323 1001.79 72.8403 1002.3 72.4563 1002.74C72.0723 1003.17 71.5383 1003.51 70.8543 1003.77C70.1823 1004.01 69.4263 1004.13 68.5863 1004.13C67.8783 1004.13 67.1823 1004.04 66.4983 1003.86C65.8263 1003.66 65.2263 1003.39 64.6983 1003.05L65.2203 1001.73C65.6763 1002.02 66.1983 1002.25 66.7863 1002.42C67.3743 1002.57 67.9683 1002.65 68.5683 1002.65C69.3843 1002.65 70.0323 1002.51 70.5123 1002.24C71.0043 1001.95 71.2503 1001.56 71.2503 1001.08C71.2503 1000.64 71.0523 1000.3 70.6563 1000.06C70.2723 999.818 69.7263 999.698 69.0183 999.698H67.2723V998.456H68.8923C69.5403 998.456 70.0503 998.342 70.4223 998.114C70.7943 997.886 70.9803 997.574 70.9803 997.178C70.9803 996.746 70.7583 996.41 70.3143 996.17C69.8823 995.93 69.2943 995.81 68.5503 995.81C67.6023 995.81 66.6003 996.056 65.5443 996.548L65.0763 995.216C66.2403 994.628 67.4583 994.334 68.7303 994.334C69.4983 994.334 70.1883 994.442 70.8003 994.658C71.4123 994.874 71.8923 995.18 72.2403 995.576C72.5883 995.972 72.7623 996.422 72.7623 996.926C72.7623 997.394 72.6063 997.814 72.2943 998.186C71.9823 998.558 71.5623 998.84 71.0343 999.032ZM84.5073 996.692C85.7433 996.812 86.6853 997.196 87.3333 997.844C87.9813 998.48 88.3053 999.296 88.3053 1000.29C88.3053 1001.01 88.1253 1001.67 87.7653 1002.25C87.4053 1002.83 86.8653 1003.29 86.1453 1003.64C85.4373 1003.98 84.5673 1004.14 83.5353 1004.14C82.6353 1004.14 81.7713 1004.01 80.9433 1003.75C80.1153 1003.47 79.4373 1003.09 78.9093 1002.61L79.7373 1001.19C80.1693 1001.6 80.7213 1001.93 81.3933 1002.18C82.0653 1002.42 82.7793 1002.54 83.5353 1002.54C84.4713 1002.54 85.1973 1002.34 85.7133 1001.95C86.2413 1001.55 86.5053 1001.01 86.5053 1000.31C86.5053 999.614 86.2473 999.074 85.7313 998.69C85.2153 998.306 84.4353 998.114 83.3913 998.114H82.3833V996.854L85.5513 992.966H79.4853V991.4H87.8013V992.624L84.5073 996.692ZM90.1461 998.312H94.9881V999.806H90.1461V998.312ZM107.96 1000.9H105.566V1004H103.82V1000.9H96.8178V999.644L103.262 991.4H105.206L99.0318 999.356H103.874V996.62H105.566V999.356H107.96V1000.9ZM124.385 1002.49V1006.21H122.765V1004H114.791V1006.21H113.153V1002.49H113.657C114.269 1002.45 114.689 1002.02 114.917 1001.19C115.145 1000.36 115.301 999.194 115.385 997.682L115.529 994.46H122.927V1002.49H124.385ZM116.969 997.808C116.921 999.008 116.819 1000 116.663 1000.8C116.519 1001.58 116.249 1002.14 115.853 1002.49H121.199V995.972H117.059L116.969 997.808ZM126.636 994.46H128.364V998.51H133.8V994.46H135.528V1004H133.8V1000H128.364V1004H126.636V994.46ZM146.538 994.46V1004H144.99V1000.98H142.218H142.02L139.932 1004H138.078L140.4 1000.74C139.68 1000.53 139.128 1000.17 138.744 999.68C138.36 999.176 138.168 998.552 138.168 997.808C138.168 996.716 138.54 995.888 139.284 995.324C140.028 994.748 141.054 994.46 142.362 994.46H146.538ZM139.932 997.862C139.932 998.498 140.13 998.972 140.526 999.284C140.934 999.584 141.54 999.734 142.344 999.734H144.99V995.972H142.416C140.76 995.972 139.932 996.602 139.932 997.862ZM161.241 999.05C162.477 999.362 163.095 1000.14 163.095 1001.37C163.095 1002.21 162.777 1002.86 162.141 1003.32C161.517 1003.77 160.581 1004 159.333 1004H154.743V994.46H159.171C160.299 994.46 161.181 994.676 161.817 995.108C162.453 995.528 162.771 996.128 162.771 996.908C162.771 997.412 162.633 997.85 162.357 998.222C162.093 998.582 161.721 998.858 161.241 999.05ZM156.435 998.564H159.027C159.687 998.564 160.185 998.444 160.521 998.204C160.869 997.964 161.043 997.616 161.043 997.16C161.043 996.248 160.371 995.792 159.027 995.792H156.435V998.564ZM159.207 1002.67C159.927 1002.67 160.467 1002.55 160.827 1002.33C161.187 1002.1 161.367 1001.74 161.367 1001.26C161.367 1000.77 161.199 1000.41 160.863 1000.17C160.539 999.926 160.023 999.806 159.315 999.806H156.435V1002.67H159.207ZM170.102 997.7C171.302 997.712 172.22 997.988 172.856 998.528C173.492 999.068 173.81 999.83 173.81 1000.81C173.81 1001.85 173.462 1002.64 172.766 1003.21C172.082 1003.76 171.098 1004.03 169.814 1004.02L165.8 1004V994.46H167.528V997.682L170.102 997.7ZM175.232 994.46H176.96V1004H175.232V994.46ZM169.688 1002.7C170.468 1002.72 171.056 1002.56 171.452 1002.24C171.86 1001.91 172.064 1001.43 172.064 1000.8C172.064 1000.17 171.866 999.716 171.47 999.428C171.074 999.14 170.48 998.99 169.688 998.978L167.528 998.942V1002.69L169.688 1002.7ZM190.319 999.032C190.955 999.2 191.447 999.47 191.795 999.842C192.143 1000.21 192.317 1000.68 192.317 1001.23C192.317 1001.79 192.125 1002.3 191.741 1002.74C191.357 1003.17 190.823 1003.51 190.139 1003.77C189.467 1004.01 188.711 1004.13 187.871 1004.13C187.163 1004.13 186.467 1004.04 185.783 1003.86C185.111 1003.66 184.511 1003.39 183.983 1003.05L184.505 1001.73C184.961 1002.02 185.483 1002.25 186.071 1002.42C186.659 1002.57 187.253 1002.65 187.853 1002.65C188.669 1002.65 189.317 1002.51 189.797 1002.24C190.289 1001.95 190.535 1001.56 190.535 1001.08C190.535 1000.64 190.337 1000.3 189.941 1000.06C189.557 999.818 189.011 999.698 188.303 999.698H186.557V998.456H188.177C188.825 998.456 189.335 998.342 189.707 998.114C190.079 997.886 190.265 997.574 190.265 997.178C190.265 996.746 190.043 996.41 189.599 996.17C189.167 995.93 188.579 995.81 187.835 995.81C186.887 995.81 185.885 996.056 184.829 996.548L184.361 995.216C185.525 994.628 186.743 994.334 188.015 994.334C188.783 994.334 189.473 994.442 190.085 994.658C190.697 994.874 191.177 995.18 191.525 995.576C191.873 995.972 192.047 996.422 192.047 996.926C192.047 997.394 191.891 997.814 191.579 998.186C191.267 998.558 190.847 998.84 190.319 999.032ZM198.347 994.37C199.667 994.37 200.675 994.694 201.371 995.342C202.079 995.99 202.433 996.956 202.433 998.24V1004H200.795V1002.74C200.507 1003.18 200.093 1003.53 199.553 1003.77C199.025 1003.99 198.395 1004.11 197.663 1004.11C196.595 1004.11 195.737 1003.85 195.089 1003.33C194.453 1002.82 194.135 1002.14 194.135 1001.3C194.135 1000.46 194.441 999.788 195.053 999.284C195.665 998.768 196.637 998.51 197.969 998.51H200.705V998.168C200.705 997.424 200.489 996.854 200.057 996.458C199.625 996.062 198.989 995.864 198.149 995.864C197.585 995.864 197.033 995.96 196.493 996.152C195.953 996.332 195.497 996.578 195.125 996.89L194.405 995.594C194.897 995.198 195.485 994.898 196.169 994.694C196.853 994.478 197.579 994.37 198.347 994.37ZM197.951 1002.78C198.611 1002.78 199.181 1002.63 199.661 1002.34C200.141 1002.04 200.489 1001.62 200.705 1001.08V999.752H198.041C196.577 999.752 195.845 1000.24 195.845 1001.23C195.845 1001.71 196.031 1002.09 196.403 1002.36C196.775 1002.64 197.291 1002.78 197.951 1002.78ZM210.404 994.784C211.292 994.784 212.084 994.982 212.78 995.378C213.476 995.774 214.016 996.326 214.4 997.034C214.796 997.73 214.994 998.528 214.994 999.428C214.994 1000.35 214.784 1001.17 214.364 1001.89C213.956 1002.6 213.374 1003.15 212.618 1003.55C211.874 1003.95 211.022 1004.14 210.062 1004.14C208.442 1004.14 207.188 1003.59 206.3 1002.49C205.424 1001.37 204.986 999.806 204.986 997.79C204.986 995.834 205.388 994.304 206.192 993.2C206.996 992.084 208.226 991.346 209.882 990.986L214.238 990.014L214.49 991.598L210.476 992.462C209.228 992.738 208.298 993.206 207.686 993.866C207.074 994.526 206.726 995.474 206.642 996.71C207.05 996.098 207.578 995.624 208.226 995.288C208.874 994.952 209.6 994.784 210.404 994.784ZM210.098 1002.7C210.71 1002.7 211.25 1002.57 211.718 1002.29C212.198 1002.01 212.57 1001.64 212.834 1001.16C213.098 1000.66 213.23 1000.11 213.23 999.482C213.23 998.534 212.942 997.772 212.366 997.196C211.79 996.62 211.034 996.332 210.098 996.332C209.162 996.332 208.4 996.62 207.812 997.196C207.236 997.772 206.948 998.534 206.948 999.482C206.948 1000.11 207.08 1000.66 207.344 1001.16C207.62 1001.64 207.998 1002.01 208.478 1002.29C208.958 1002.57 209.498 1002.7 210.098 1002.7ZM217.462 994.46H219.19V1001.41L225.04 994.46H226.606V1004H224.878V997.052L219.046 1004H217.462V994.46ZM235.018 994.37C235.942 994.37 236.77 994.574 237.502 994.982C238.234 995.39 238.804 995.96 239.212 996.692C239.632 997.424 239.842 998.27 239.842 999.23C239.842 1000.19 239.632 1001.04 239.212 1001.79C238.804 1002.52 238.234 1003.09 237.502 1003.5C236.77 1003.9 235.942 1004.11 235.018 1004.11C234.334 1004.11 233.704 1003.98 233.128 1003.71C232.564 1003.45 232.084 1003.06 231.688 1002.56V1007.49H229.96V994.46H231.616V995.972C232 995.444 232.486 995.048 233.074 994.784C233.662 994.508 234.31 994.37 235.018 994.37ZM234.874 1002.6C235.486 1002.6 236.032 1002.46 236.512 1002.18C237.004 1001.89 237.388 1001.5 237.664 1000.99C237.952 1000.48 238.096 999.89 238.096 999.23C238.096 998.57 237.952 997.988 237.664 997.484C237.388 996.968 237.004 996.572 236.512 996.296C236.032 996.02 235.486 995.882 234.874 995.882C234.274 995.882 233.728 996.026 233.236 996.314C232.756 996.59 232.372 996.98 232.084 997.484C231.808 997.988 231.67 998.57 231.67 999.23C231.67 999.89 231.808 1000.48 232.084 1000.99C232.36 1001.5 232.744 1001.89 233.236 1002.18C233.728 1002.46 234.274 1002.6 234.874 1002.6ZM245.667 994.37C246.987 994.37 247.995 994.694 248.691 995.342C249.399 995.99 249.753 996.956 249.753 998.24V1004H248.115V1002.74C247.827 1003.18 247.413 1003.53 246.873 1003.77C246.345 1003.99 245.715 1004.11 244.983 1004.11C243.915 1004.11 243.057 1003.85 242.409 1003.33C241.773 1002.82 241.455 1002.14 241.455 1001.3C241.455 1000.46 241.761 999.788 242.373 999.284C242.985 998.768 243.957 998.51 245.289 998.51H248.025V998.168C248.025 997.424 247.809 996.854 247.377 996.458C246.945 996.062 246.309 995.864 245.469 995.864C244.905 995.864 244.353 995.96 243.813 996.152C243.273 996.332 242.817 996.578 242.445 996.89L241.725 995.594C242.217 995.198 242.805 994.898 243.489 994.694C244.173 994.478 244.899 994.37 245.667 994.37ZM245.271 1002.78C245.931 1002.78 246.501 1002.63 246.981 1002.34C247.461 1002.04 247.809 1001.62 248.025 1001.08V999.752H245.361C243.897 999.752 243.165 1000.24 243.165 1001.23C243.165 1001.71 243.351 1002.09 243.723 1002.36C244.095 1002.64 244.611 1002.78 245.271 1002.78ZM261.486 999.284C261.486 999.416 261.474 999.59 261.45 999.806H253.71C253.818 1000.65 254.184 1001.32 254.808 1001.84C255.444 1002.34 256.23 1002.6 257.166 1002.6C258.306 1002.6 259.224 1002.21 259.92 1001.44L260.874 1002.56C260.442 1003.06 259.902 1003.45 259.254 1003.71C258.618 1003.98 257.904 1004.11 257.112 1004.11C256.104 1004.11 255.21 1003.9 254.43 1003.5C253.65 1003.08 253.044 1002.49 252.612 1001.75C252.192 1001.01 251.982 1000.17 251.982 999.23C251.982 998.306 252.186 997.472 252.594 996.728C253.014 995.984 253.584 995.408 254.304 995C255.036 994.58 255.858 994.37 256.77 994.37C257.682 994.37 258.492 994.58 259.2 995C259.92 995.408 260.478 995.984 260.874 996.728C261.282 997.472 261.486 998.324 261.486 999.284ZM256.77 995.828C255.942 995.828 255.246 996.08 254.682 996.584C254.13 997.088 253.806 997.748 253.71 998.564H259.83C259.734 997.76 259.404 997.106 258.84 996.602C258.288 996.086 257.598 995.828 256.77 995.828ZM270.873 995.972H267.381V1004H265.653V995.972H262.161V994.46H270.873V995.972ZM280.84 999.284C280.84 999.416 280.828 999.59 280.804 999.806H273.064C273.172 1000.65 273.538 1001.32 274.162 1001.84C274.798 1002.34 275.584 1002.6 276.52 1002.6C277.66 1002.6 278.578 1002.21 279.274 1001.44L280.228 1002.56C279.796 1003.06 279.256 1003.45 278.608 1003.71C277.972 1003.98 277.258 1004.11 276.466 1004.11C275.458 1004.11 274.564 1003.9 273.784 1003.5C273.004 1003.08 272.398 1002.49 271.966 1001.75C271.546 1001.01 271.336 1000.17 271.336 999.23C271.336 998.306 271.54 997.472 271.948 996.728C272.368 995.984 272.938 995.408 273.658 995C274.39 994.58 275.212 994.37 276.124 994.37C277.036 994.37 277.846 994.58 278.554 995C279.274 995.408 279.832 995.984 280.228 996.728C280.636 997.472 280.84 998.324 280.84 999.284ZM276.124 995.828C275.296 995.828 274.6 996.08 274.036 996.584C273.484 997.088 273.16 997.748 273.064 998.564H279.184C279.088 997.76 278.758 997.106 278.194 996.602C277.642 996.086 276.952 995.828 276.124 995.828ZM78.2848 1020.97H72.9928V1029H71.2648V1019.46H78.2848V1020.97ZM83.718 1029.11C82.77 1029.11 81.918 1028.9 81.162 1028.48C80.406 1028.06 79.812 1027.48 79.38 1026.75C78.96 1026.01 78.75 1025.17 78.75 1024.23C78.75 1023.29 78.96 1022.46 79.38 1021.73C79.812 1020.98 80.406 1020.41 81.162 1020C81.918 1019.58 82.77 1019.37 83.718 1019.37C84.666 1019.37 85.512 1019.58 86.256 1020C87.012 1020.41 87.6 1020.98 88.02 1021.73C88.452 1022.46 88.668 1023.29 88.668 1024.23C88.668 1025.17 88.452 1026.01 88.02 1026.75C87.6 1027.48 87.012 1028.06 86.256 1028.48C85.512 1028.9 84.666 1029.11 83.718 1029.11ZM83.718 1027.6C84.33 1027.6 84.876 1027.46 85.356 1027.18C85.848 1026.89 86.232 1026.5 86.508 1025.99C86.784 1025.48 86.922 1024.89 86.922 1024.23C86.922 1023.57 86.784 1022.99 86.508 1022.48C86.232 1021.97 85.848 1021.57 85.356 1021.3C84.876 1021.02 84.33 1020.88 83.718 1020.88C83.106 1020.88 82.554 1021.02 82.062 1021.3C81.582 1021.57 81.198 1021.97 80.91 1022.48C80.634 1022.99 80.496 1023.57 80.496 1024.23C80.496 1024.89 80.634 1025.48 80.91 1025.99C81.198 1026.5 81.582 1026.89 82.062 1027.18C82.554 1027.46 83.106 1027.6 83.718 1027.6ZM97.9217 1020.97H94.4297V1029H92.7017V1020.97H89.2097V1019.46H97.9217V1020.97ZM103.353 1029.11C102.405 1029.11 101.553 1028.9 100.797 1028.48C100.041 1028.06 99.4468 1027.48 99.0148 1026.75C98.5948 1026.01 98.3848 1025.17 98.3848 1024.23C98.3848 1023.29 98.5948 1022.46 99.0148 1021.73C99.4468 1020.98 100.041 1020.41 100.797 1020C101.553 1019.58 102.405 1019.37 103.353 1019.37C104.301 1019.37 105.147 1019.58 105.891 1020C106.647 1020.41 107.235 1020.98 107.655 1021.73C108.087 1022.46 108.303 1023.29 108.303 1024.23C108.303 1025.17 108.087 1026.01 107.655 1026.75C107.235 1027.48 106.647 1028.06 105.891 1028.48C105.147 1028.9 104.301 1029.11 103.353 1029.11ZM103.353 1027.6C103.965 1027.6 104.511 1027.46 104.991 1027.18C105.483 1026.89 105.867 1026.5 106.143 1025.99C106.419 1025.48 106.557 1024.89 106.557 1024.23C106.557 1023.57 106.419 1022.99 106.143 1022.48C105.867 1021.97 105.483 1021.57 104.991 1021.3C104.511 1021.02 103.965 1020.88 103.353 1020.88C102.741 1020.88 102.189 1021.02 101.697 1021.3C101.217 1021.57 100.833 1021.97 100.545 1022.48C100.269 1022.99 100.131 1023.57 100.131 1024.23C100.131 1024.89 100.269 1025.48 100.545 1025.99C100.833 1026.5 101.217 1026.89 101.697 1027.18C102.189 1027.46 102.741 1027.6 103.353 1027.6ZM117.296 1024.05C118.532 1024.36 119.15 1025.14 119.15 1026.37C119.15 1027.21 118.832 1027.86 118.196 1028.32C117.572 1028.77 116.636 1029 115.388 1029H110.798V1019.46H115.226C116.354 1019.46 117.236 1019.68 117.872 1020.11C118.508 1020.53 118.826 1021.13 118.826 1021.91C118.826 1022.41 118.688 1022.85 118.412 1023.22C118.148 1023.58 117.776 1023.86 117.296 1024.05ZM112.49 1023.56H115.082C115.742 1023.56 116.24 1023.44 116.576 1023.2C116.924 1022.96 117.098 1022.62 117.098 1022.16C117.098 1021.25 116.426 1020.79 115.082 1020.79H112.49V1023.56ZM115.262 1027.67C115.982 1027.67 116.522 1027.55 116.882 1027.33C117.242 1027.1 117.422 1026.74 117.422 1026.26C117.422 1025.77 117.254 1025.41 116.918 1025.17C116.594 1024.93 116.078 1024.81 115.37 1024.81H112.49V1027.67H115.262ZM125.941 1029.11C124.993 1029.11 124.141 1028.9 123.385 1028.48C122.629 1028.06 122.035 1027.48 121.603 1026.75C121.183 1026.01 120.973 1025.17 120.973 1024.23C120.973 1023.29 121.183 1022.46 121.603 1021.73C122.035 1020.98 122.629 1020.41 123.385 1020C124.141 1019.58 124.993 1019.37 125.941 1019.37C126.889 1019.37 127.735 1019.58 128.479 1020C129.235 1020.41 129.823 1020.98 130.243 1021.73C130.675 1022.46 130.891 1023.29 130.891 1024.23C130.891 1025.17 130.675 1026.01 130.243 1026.75C129.823 1027.48 129.235 1028.06 128.479 1028.48C127.735 1028.9 126.889 1029.11 125.941 1029.11ZM125.941 1027.6C126.553 1027.6 127.099 1027.46 127.579 1027.18C128.071 1026.89 128.455 1026.5 128.731 1025.99C129.007 1025.48 129.145 1024.89 129.145 1024.23C129.145 1023.57 129.007 1022.99 128.731 1022.48C128.455 1021.97 128.071 1021.57 127.579 1021.3C127.099 1021.02 126.553 1020.88 125.941 1020.88C125.329 1020.88 124.777 1021.02 124.285 1021.3C123.805 1021.57 123.421 1021.97 123.133 1022.48C122.857 1022.99 122.719 1023.57 122.719 1024.23C122.719 1024.89 122.857 1025.48 123.133 1025.99C123.421 1026.5 123.805 1026.89 124.285 1027.18C124.777 1027.46 125.329 1027.6 125.941 1027.6ZM142.008 1024.28C142.008 1024.42 141.996 1024.59 141.972 1024.81H134.232C134.34 1025.65 134.706 1026.32 135.33 1026.84C135.966 1027.34 136.752 1027.6 137.688 1027.6C138.828 1027.6 139.746 1027.21 140.442 1026.44L141.396 1027.56C140.964 1028.06 140.424 1028.45 139.776 1028.71C139.14 1028.98 138.426 1029.11 137.634 1029.11C136.626 1029.11 135.732 1028.9 134.952 1028.5C134.172 1028.08 133.566 1027.49 133.134 1026.75C132.714 1026.01 132.504 1025.17 132.504 1024.23C132.504 1023.31 132.708 1022.47 133.116 1021.73C133.536 1020.98 134.106 1020.41 134.826 1020C135.558 1019.58 136.38 1019.37 137.292 1019.37C138.204 1019.37 139.014 1019.58 139.722 1020C140.442 1020.41 141 1020.98 141.396 1021.73C141.804 1022.47 142.008 1023.32 142.008 1024.28ZM137.292 1020.83C136.464 1020.83 135.768 1021.08 135.204 1021.58C134.652 1022.09 134.328 1022.75 134.232 1023.56H140.352C140.256 1022.76 139.926 1022.11 139.362 1021.6C138.81 1021.09 138.12 1020.83 137.292 1020.83ZM149.523 1019.46H151.251V1026.41L157.101 1019.46H158.667V1029H156.939V1022.05L151.107 1029H149.523V1019.46ZM167.028 1024.03C167.664 1024.2 168.156 1024.47 168.504 1024.84C168.852 1025.21 169.026 1025.68 169.026 1026.23C169.026 1026.79 168.834 1027.3 168.45 1027.74C168.066 1028.17 167.532 1028.51 166.848 1028.77C166.176 1029.01 165.42 1029.13 164.58 1029.13C163.872 1029.13 163.176 1029.04 162.492 1028.86C161.82 1028.66 161.22 1028.39 160.692 1028.05L161.214 1026.73C161.67 1027.02 162.192 1027.25 162.78 1027.42C163.368 1027.57 163.962 1027.65 164.562 1027.65C165.378 1027.65 166.026 1027.51 166.506 1027.24C166.998 1026.95 167.244 1026.56 167.244 1026.08C167.244 1025.64 167.046 1025.3 166.65 1025.06C166.266 1024.82 165.72 1024.7 165.012 1024.7H163.266V1023.46H164.886C165.534 1023.46 166.044 1023.34 166.416 1023.11C166.788 1022.89 166.974 1022.57 166.974 1022.18C166.974 1021.75 166.752 1021.41 166.308 1021.17C165.876 1020.93 165.288 1020.81 164.544 1020.81C163.596 1020.81 162.594 1021.06 161.538 1021.55L161.07 1020.22C162.234 1019.63 163.452 1019.33 164.724 1019.33C165.492 1019.33 166.182 1019.44 166.794 1019.66C167.406 1019.87 167.886 1020.18 168.234 1020.58C168.582 1020.97 168.756 1021.42 168.756 1021.93C168.756 1022.39 168.6 1022.81 168.288 1023.19C167.976 1023.56 167.556 1023.84 167.028 1024.03ZM181.355 1027.49V1031.21H179.735V1029H171.761V1031.21H170.123V1027.49H170.627C171.239 1027.45 171.659 1027.02 171.887 1026.19C172.115 1025.36 172.271 1024.19 172.355 1022.68L172.499 1019.46H179.897V1027.49H181.355ZM173.939 1022.81C173.891 1024.01 173.789 1025 173.633 1025.8C173.489 1026.58 173.219 1027.14 172.823 1027.49H178.169V1020.97H174.029L173.939 1022.81ZM192.229 1024.28C192.229 1024.42 192.217 1024.59 192.193 1024.81H184.453C184.561 1025.65 184.927 1026.32 185.551 1026.84C186.187 1027.34 186.973 1027.6 187.909 1027.6C189.049 1027.6 189.967 1027.21 190.663 1026.44L191.617 1027.56C191.185 1028.06 190.645 1028.45 189.997 1028.71C189.361 1028.98 188.647 1029.11 187.855 1029.11C186.847 1029.11 185.953 1028.9 185.173 1028.5C184.393 1028.08 183.787 1027.49 183.355 1026.75C182.935 1026.01 182.725 1025.17 182.725 1024.23C182.725 1023.31 182.929 1022.47 183.337 1021.73C183.757 1020.98 184.327 1020.41 185.047 1020C185.779 1019.58 186.601 1019.37 187.513 1019.37C188.425 1019.37 189.235 1019.58 189.943 1020C190.663 1020.41 191.221 1020.98 191.617 1021.73C192.025 1022.47 192.229 1023.32 192.229 1024.28ZM187.513 1020.83C186.685 1020.83 185.989 1021.08 185.425 1021.58C184.873 1022.09 184.549 1022.75 184.453 1023.56H190.573C190.477 1022.76 190.147 1022.11 189.583 1021.6C189.031 1021.09 188.341 1020.83 187.513 1020.83ZM202.941 1019.46V1029H201.213V1020.97H197.109L197.001 1023.1C196.941 1024.38 196.827 1025.45 196.659 1026.32C196.491 1027.17 196.215 1027.85 195.831 1028.37C195.447 1028.89 194.913 1029.14 194.229 1029.14C193.917 1029.14 193.563 1029.09 193.167 1028.98L193.275 1027.52C193.431 1027.56 193.575 1027.58 193.707 1027.58C194.187 1027.58 194.547 1027.37 194.787 1026.95C195.027 1026.53 195.183 1026.03 195.255 1025.45C195.327 1024.88 195.393 1024.06 195.453 1022.99L195.615 1019.46H202.941ZM206.282 1019.46H208.01V1026.41L213.86 1019.46H215.426V1029H213.698V1022.05L207.866 1029H206.282V1019.46ZM227.402 1024.28C227.402 1024.42 227.39 1024.59 227.366 1024.81H219.626C219.734 1025.65 220.1 1026.32 220.724 1026.84C221.36 1027.34 222.146 1027.6 223.082 1027.6C224.222 1027.6 225.14 1027.21 225.836 1026.44L226.79 1027.56C226.358 1028.06 225.818 1028.45 225.17 1028.71C224.534 1028.98 223.82 1029.11 223.028 1029.11C222.02 1029.11 221.126 1028.9 220.346 1028.5C219.566 1028.08 218.96 1027.49 218.528 1026.75C218.108 1026.01 217.898 1025.17 217.898 1024.23C217.898 1023.31 218.102 1022.47 218.51 1021.73C218.93 1020.98 219.5 1020.41 220.22 1020C220.952 1019.58 221.774 1019.37 222.686 1019.37C223.598 1019.37 224.408 1019.58 225.116 1020C225.836 1020.41 226.394 1020.98 226.79 1021.73C227.198 1022.47 227.402 1023.32 227.402 1024.28ZM222.686 1020.83C221.858 1020.83 221.162 1021.08 220.598 1021.58C220.046 1022.09 219.722 1022.75 219.626 1023.56H225.746C225.65 1022.76 225.32 1022.11 224.756 1021.6C224.204 1021.09 223.514 1020.83 222.686 1020.83Z" fill="#363636"/>
<circle cx="149" cy="910" r="59" stroke="#FE201D" stroke-width="2"/>
<g clip-path="url(#clip3_1_953)">
<path d="M156.41 917.118C161.395 909.295 160.769 910.271 160.912 910.067C162.727 907.507 163.687 904.494 163.687 901.353C163.687 893.025 156.928 886.164 148.589 886.164C140.276 886.164 133.491 893.011 133.491 901.353C133.491 904.492 134.47 907.584 136.345 910.179L140.767 917.118C136.039 917.845 128.001 920.01 128.001 924.778C128.001 926.516 129.135 928.993 134.54 930.923C138.313 932.271 143.303 933.013 148.589 933.013C158.473 933.013 169.177 930.225 169.177 924.778C169.177 920.009 161.148 917.846 156.41 917.118ZM138.638 908.669C138.623 908.645 138.607 908.622 138.59 908.599C137.031 906.453 136.236 903.91 136.236 901.353C136.236 894.489 141.763 888.909 148.589 888.909C155.4 888.909 160.942 894.492 160.942 901.353C160.942 903.914 160.162 906.371 158.686 908.461C158.554 908.635 159.244 907.563 148.589 924.283L138.638 908.669ZM148.589 930.268C137.792 930.268 130.746 927.095 130.746 924.778C130.746 923.221 134.366 920.661 142.389 919.663L147.431 927.575C147.683 927.97 148.12 928.209 148.589 928.209C149.058 928.209 149.494 927.97 149.746 927.575L154.788 919.663C162.811 920.661 166.432 923.221 166.432 924.778C166.432 927.075 159.449 930.268 148.589 930.268Z" fill="#FE201D" stroke="white"/>
<path d="M148.589 894.491C144.805 894.491 141.726 897.569 141.726 901.353C141.726 905.138 144.805 908.216 148.589 908.216C152.373 908.216 155.451 905.138 155.451 901.353C155.451 897.569 152.373 894.491 148.589 894.491ZM148.589 905.471C146.318 905.471 144.471 903.624 144.471 901.353C144.471 899.083 146.318 897.236 148.589 897.236C150.859 897.236 152.706 899.083 152.706 901.353C152.706 903.624 150.859 905.471 148.589 905.471Z" fill="#FE201D" stroke="white"/>
</g>
<defs>
<clipPath id="clip0_1_953">
<rect width="36.9863" height="41.0959" fill="white" transform="translate(130.098 39.4531)"/>
</clipPath>
<clipPath id="clip1_1_953">
<rect width="40.274" height="40.274" fill="white" transform="translate(129.273 589.453)"/>
</clipPath>
<clipPath id="clip2_1_953">
<rect width="50.137" height="36.1644" fill="white" transform="translate(123.52 316.918)"/>
</clipPath>
<clipPath id="clip3_1_953">
<rect width="46.8493" height="46.8493" fill="white" transform="translate(125.164 886.164)"/>
</clipPath>
</defs>
</svg>
