<svg width="1267" height="261" viewBox="0 0 1267 261" fill="none" xmlns="http://www.w3.org/2000/svg">
<path d="M42.8395 183.74C43.7861 183.967 44.4995 184.373 44.9795 184.96C45.4728 185.533 45.7195 186.273 45.7195 187.18C45.7195 188.393 45.2728 189.333 44.3795 190C43.4995 190.667 42.2128 191 40.5195 191H34.1195V177H40.1395C41.6728 177 42.8661 177.313 43.7195 177.94C44.5861 178.553 45.0195 179.44 45.0195 180.6C45.0195 181.36 44.8261 182.007 44.4395 182.54C44.0661 183.073 43.5328 183.473 42.8395 183.74ZM36.0995 183.16H39.9995C40.9728 183.16 41.7128 182.967 42.2195 182.58C42.7395 182.193 42.9995 181.627 42.9995 180.88C42.9995 180.133 42.7395 179.567 42.2195 179.18C41.6995 178.78 40.9595 178.58 39.9995 178.58H36.0995V183.16ZM40.4795 189.42C42.6261 189.42 43.6995 188.62 43.6995 187.02C43.6995 186.22 43.4261 185.633 42.8795 185.26C42.3461 184.873 41.5461 184.68 40.4795 184.68H36.0995V189.42H40.4795ZM53.5209 184C54.8542 184.013 55.8742 184.32 56.5809 184.92C57.2875 185.52 57.6409 186.367 57.6409 187.46C57.6409 188.607 57.2542 189.493 56.4809 190.12C55.7209 190.733 54.6275 191.033 53.2009 191.02L48.7409 191V180.4H50.6609V183.98L53.5209 184ZM59.2209 180.4H61.1409V191H59.2209V180.4ZM53.0609 189.56C53.9275 189.573 54.5809 189.4 55.0209 189.04C55.4742 188.68 55.7009 188.147 55.7009 187.44C55.7009 186.747 55.4809 186.24 55.0409 185.92C54.6009 185.6 53.9409 185.433 53.0609 185.42L50.6609 185.38V189.54L53.0609 189.56ZM74.7848 191.12C73.7314 191.12 72.7848 190.887 71.9448 190.42C71.1048 189.953 70.4448 189.313 69.9648 188.5C69.4981 187.673 69.2648 186.74 69.2648 185.7C69.2648 184.66 69.4981 183.733 69.9648 182.92C70.4448 182.093 71.1048 181.453 71.9448 181C72.7848 180.533 73.7314 180.3 74.7848 180.3C75.8381 180.3 76.7781 180.533 77.6048 181C78.4448 181.453 79.0981 182.093 79.5648 182.92C80.0448 183.733 80.2848 184.66 80.2848 185.7C80.2848 186.74 80.0448 187.673 79.5648 188.5C79.0981 189.313 78.4448 189.953 77.6048 190.42C76.7781 190.887 75.8381 191.12 74.7848 191.12ZM74.7848 189.44C75.4648 189.44 76.0714 189.287 76.6048 188.98C77.1514 188.66 77.5781 188.22 77.8848 187.66C78.1914 187.087 78.3448 186.433 78.3448 185.7C78.3448 184.967 78.1914 184.32 77.8848 183.76C77.5781 183.187 77.1514 182.747 76.6048 182.44C76.0714 182.133 75.4648 181.98 74.7848 181.98C74.1048 181.98 73.4914 182.133 72.9448 182.44C72.4114 182.747 71.9848 183.187 71.6648 183.76C71.3581 184.32 71.2048 184.967 71.2048 185.7C71.2048 186.433 71.3581 187.087 71.6648 187.66C71.9848 188.22 72.4114 188.66 72.9448 188.98C73.4914 189.287 74.1048 189.44 74.7848 189.44ZM90.5666 182.08H86.6866V191H84.7666V182.08H80.8866V180.4H90.5666V182.08ZM102.35 180.4V191H100.43V182.08H94.4499V191H92.5299V180.4H102.35ZM111.685 180.3C112.712 180.3 113.632 180.527 114.445 180.98C115.258 181.433 115.892 182.067 116.345 182.88C116.812 183.693 117.045 184.633 117.045 185.7C117.045 186.767 116.812 187.713 116.345 188.54C115.892 189.353 115.258 189.987 114.445 190.44C113.632 190.893 112.712 191.12 111.685 191.12C110.925 191.12 110.225 190.973 109.585 190.68C108.958 190.387 108.425 189.96 107.985 189.4V194.88H106.065V180.4H107.905V182.08C108.332 181.493 108.872 181.053 109.525 180.76C110.178 180.453 110.898 180.3 111.685 180.3ZM111.525 189.44C112.205 189.44 112.812 189.287 113.345 188.98C113.892 188.66 114.318 188.22 114.625 187.66C114.945 187.087 115.105 186.433 115.105 185.7C115.105 184.967 114.945 184.32 114.625 183.76C114.318 183.187 113.892 182.747 113.345 182.44C112.812 182.133 112.205 181.98 111.525 181.98C110.858 181.98 110.252 182.14 109.705 182.46C109.172 182.767 108.745 183.2 108.425 183.76C108.118 184.32 107.965 184.967 107.965 185.7C107.965 186.433 108.118 187.087 108.425 187.66C108.732 188.22 109.158 188.66 109.705 188.98C110.252 189.287 110.858 189.44 111.525 189.44ZM123.517 180.3C124.984 180.3 126.104 180.66 126.877 181.38C127.664 182.1 128.057 183.173 128.057 184.6V191H126.237V189.6C125.917 190.093 125.457 190.473 124.857 190.74C124.27 190.993 123.57 191.12 122.757 191.12C121.57 191.12 120.617 190.833 119.897 190.26C119.19 189.687 118.837 188.933 118.837 188C118.837 187.067 119.177 186.32 119.857 185.76C120.537 185.187 121.617 184.9 123.097 184.9H126.137V184.52C126.137 183.693 125.897 183.06 125.417 182.62C124.937 182.18 124.23 181.96 123.297 181.96C122.67 181.96 122.057 182.067 121.457 182.28C120.857 182.48 120.35 182.753 119.937 183.1L119.137 181.66C119.684 181.22 120.337 180.887 121.097 180.66C121.857 180.42 122.664 180.3 123.517 180.3ZM123.077 189.64C123.81 189.64 124.444 189.48 124.977 189.16C125.51 188.827 125.897 188.36 126.137 187.76V186.28H123.177C121.55 186.28 120.737 186.827 120.737 187.92C120.737 188.453 120.944 188.873 121.357 189.18C121.77 189.487 122.344 189.64 123.077 189.64ZM138.734 185.5C140.108 185.847 140.794 186.707 140.794 188.08C140.794 189.013 140.441 189.733 139.734 190.24C139.041 190.747 138.001 191 136.614 191H131.514V180.4H136.434C137.688 180.4 138.668 180.64 139.374 181.12C140.081 181.587 140.434 182.253 140.434 183.12C140.434 183.68 140.281 184.167 139.974 184.58C139.681 184.98 139.268 185.287 138.734 185.5ZM133.394 184.96H136.274C137.008 184.96 137.561 184.827 137.934 184.56C138.321 184.293 138.514 183.907 138.514 183.4C138.514 182.387 137.768 181.88 136.274 181.88H133.394V184.96ZM136.474 189.52C137.274 189.52 137.874 189.393 138.274 189.14C138.674 188.887 138.874 188.493 138.874 187.96C138.874 187.413 138.688 187.007 138.314 186.74C137.954 186.473 137.381 186.34 136.594 186.34H133.394V189.52H136.474ZM152.899 180.4V191H150.979V182.08H146.419L146.299 184.44C146.233 185.867 146.106 187.06 145.919 188.02C145.733 188.967 145.426 189.727 144.999 190.3C144.573 190.873 143.979 191.16 143.219 191.16C142.873 191.16 142.479 191.1 142.039 190.98L142.159 189.36C142.333 189.4 142.493 189.42 142.639 189.42C143.173 189.42 143.573 189.187 143.839 188.72C144.106 188.253 144.279 187.7 144.359 187.06C144.439 186.42 144.513 185.507 144.579 184.32L144.759 180.4H152.899ZM165.112 180.4V191H163.392V187.64H160.312H160.092L157.772 191H155.712L158.292 187.38C157.492 187.14 156.879 186.747 156.452 186.2C156.025 185.64 155.812 184.947 155.812 184.12C155.812 182.907 156.225 181.987 157.052 181.36C157.879 180.72 159.019 180.4 160.472 180.4H165.112ZM157.772 184.18C157.772 184.887 157.992 185.413 158.432 185.76C158.885 186.093 159.559 186.26 160.452 186.26H163.392V182.08H160.532C158.692 182.08 157.772 182.78 157.772 184.18ZM178.438 185.76C178.438 185.907 178.425 186.1 178.398 186.34H169.798C169.918 187.273 170.325 188.027 171.018 188.6C171.725 189.16 172.598 189.44 173.638 189.44C174.905 189.44 175.925 189.013 176.698 188.16L177.758 189.4C177.278 189.96 176.678 190.387 175.958 190.68C175.251 190.973 174.458 191.12 173.578 191.12C172.458 191.12 171.465 190.893 170.598 190.44C169.731 189.973 169.058 189.327 168.578 188.5C168.111 187.673 167.878 186.74 167.878 185.7C167.878 184.673 168.105 183.747 168.558 182.92C169.025 182.093 169.658 181.453 170.458 181C171.271 180.533 172.185 180.3 173.198 180.3C174.211 180.3 175.111 180.533 175.898 181C176.698 181.453 177.318 182.093 177.758 182.92C178.211 183.747 178.438 184.693 178.438 185.76ZM173.198 181.92C172.278 181.92 171.505 182.2 170.878 182.76C170.265 183.32 169.905 184.053 169.798 184.96H176.598C176.491 184.067 176.125 183.34 175.498 182.78C174.885 182.207 174.118 181.92 173.198 181.92ZM188.867 182.08H184.987V191H183.067V182.08H179.187V180.4H188.867V182.08ZM199.942 185.76C199.942 185.907 199.929 186.1 199.902 186.34H191.302C191.422 187.273 191.829 188.027 192.522 188.6C193.229 189.16 194.102 189.44 195.142 189.44C196.409 189.44 197.429 189.013 198.202 188.16L199.262 189.4C198.782 189.96 198.182 190.387 197.462 190.68C196.755 190.973 195.962 191.12 195.082 191.12C193.962 191.12 192.969 190.893 192.102 190.44C191.235 189.973 190.562 189.327 190.082 188.5C189.615 187.673 189.382 186.74 189.382 185.7C189.382 184.673 189.609 183.747 190.062 182.92C190.529 182.093 191.162 181.453 191.962 181C192.775 180.533 193.689 180.3 194.702 180.3C195.715 180.3 196.615 180.533 197.402 181C198.202 181.453 198.822 182.093 199.262 182.92C199.715 183.747 199.942 184.693 199.942 185.76ZM194.702 181.92C193.782 181.92 193.009 182.2 192.382 182.76C191.769 183.32 191.409 184.053 191.302 184.96H198.102C197.995 184.067 197.629 183.34 197.002 182.78C196.389 182.207 195.622 181.92 194.702 181.92ZM14.1835 211.4V222H12.4435V214.26L8.48352 220.8H7.64352L3.72352 214.24V222H1.96352V211.4H3.94352L8.10352 218.56L12.3835 211.4H14.1835ZM21.7005 211.3C23.1672 211.3 24.2872 211.66 25.0605 212.38C25.8472 213.1 26.2405 214.173 26.2405 215.6V222H24.4205V220.6C24.1005 221.093 23.6405 221.473 23.0405 221.74C22.4539 221.993 21.7539 222.12 20.9405 222.12C19.7539 222.12 18.8005 221.833 18.0805 221.26C17.3739 220.687 17.0205 219.933 17.0205 219C17.0205 218.067 17.3605 217.32 18.0405 216.76C18.7205 216.187 19.8005 215.9 21.2805 215.9H24.3205V215.52C24.3205 214.693 24.0805 214.06 23.6005 213.62C23.1205 213.18 22.4139 212.96 21.4805 212.96C20.8539 212.96 20.2405 213.067 19.6405 213.28C19.0405 213.48 18.5339 213.753 18.1205 214.1L17.3205 212.66C17.8672 212.22 18.5205 211.887 19.2805 211.66C20.0405 211.42 20.8472 211.3 21.7005 211.3ZM21.2605 220.64C21.9939 220.64 22.6272 220.48 23.1605 220.16C23.6939 219.827 24.0805 219.36 24.3205 218.76V217.28H21.3605C19.7339 217.28 18.9205 217.827 18.9205 218.92C18.9205 219.453 19.1272 219.873 19.5405 220.18C19.9539 220.487 20.5272 220.64 21.2605 220.64ZM33.8179 217.52H31.6179V222H29.6979V211.4H31.6179V215.88H33.8579L37.2979 211.4H39.3579L35.3379 216.5L39.6379 222H37.3779L33.8179 217.52ZM50.8795 216.76C50.8795 216.907 50.8661 217.1 50.8395 217.34H42.2395C42.3595 218.273 42.7661 219.027 43.4595 219.6C44.1661 220.16 45.0395 220.44 46.0795 220.44C47.3461 220.44 48.3661 220.013 49.1395 219.16L50.1995 220.4C49.7195 220.96 49.1195 221.387 48.3995 221.68C47.6928 221.973 46.8995 222.12 46.0195 222.12C44.8995 222.12 43.9061 221.893 43.0395 221.44C42.1728 220.973 41.4995 220.327 41.0195 219.5C40.5528 218.673 40.3195 217.74 40.3195 216.7C40.3195 215.673 40.5461 214.747 40.9995 213.92C41.4661 213.093 42.0995 212.453 42.8995 212C43.7128 211.533 44.6261 211.3 45.6395 211.3C46.6528 211.3 47.5528 211.533 48.3395 212C49.1395 212.453 49.7595 213.093 50.1995 213.92C50.6528 214.747 50.8795 215.693 50.8795 216.76ZM45.6395 212.92C44.7195 212.92 43.9461 213.2 43.3195 213.76C42.7061 214.32 42.3461 215.053 42.2395 215.96H49.0395C48.9328 215.067 48.5661 214.34 47.9395 213.78C47.3261 213.207 46.5595 212.92 45.6395 212.92ZM61.3088 213.08H57.4288V222H55.5088V213.08H51.6288V211.4H61.3088V213.08ZM75.8632 216.5C77.2365 216.847 77.9232 217.707 77.9232 219.08C77.9232 220.013 77.5699 220.733 76.8632 221.24C76.1699 221.747 75.1299 222 73.7432 222H68.6432V211.4H73.5632C74.8165 211.4 75.7965 211.64 76.5032 212.12C77.2099 212.587 77.5632 213.253 77.5632 214.12C77.5632 214.68 77.4099 215.167 77.1032 215.58C76.8099 215.98 76.3965 216.287 75.8632 216.5ZM70.5232 215.96H73.4032C74.1365 215.96 74.6899 215.827 75.0632 215.56C75.4499 215.293 75.6432 214.907 75.6432 214.4C75.6432 213.387 74.8965 212.88 73.4032 212.88H70.5232V215.96ZM73.6032 220.52C74.4032 220.52 75.0032 220.393 75.4032 220.14C75.8032 219.887 76.0032 219.493 76.0032 218.96C76.0032 218.413 75.8165 218.007 75.4432 217.74C75.0832 217.473 74.5099 217.34 73.7232 217.34H70.5232V220.52H73.6032ZM99.6795 216.68C99.6795 218.32 99.1328 219.613 98.0395 220.56C96.9461 221.507 95.4061 222.033 93.4195 222.14V225.88H91.5395V222.14C89.5528 222.033 88.0128 221.513 86.9195 220.58C85.8395 219.633 85.2995 218.333 85.2995 216.68C85.2995 215.04 85.8395 213.76 86.9195 212.84C87.9995 211.92 89.5395 211.407 91.5395 211.3V207.16H93.4195V211.3C95.4061 211.407 96.9461 211.927 98.0395 212.86C99.1328 213.78 99.6795 215.053 99.6795 216.68ZM87.1995 216.68C87.1995 217.813 87.5595 218.7 88.2795 219.34C89.0128 219.98 90.0995 220.347 91.5395 220.44V213C90.0861 213.093 88.9995 213.453 88.2795 214.08C87.5595 214.707 87.1995 215.573 87.1995 216.68ZM93.4195 220.46C96.3261 220.233 97.7795 218.973 97.7795 216.68C97.7795 215.56 97.4128 214.693 96.6795 214.08C95.9461 213.453 94.8595 213.093 93.4195 213V220.46ZM106.933 222.12C105.88 222.12 104.933 221.887 104.093 221.42C103.253 220.953 102.593 220.313 102.113 219.5C101.647 218.673 101.413 217.74 101.413 216.7C101.413 215.66 101.647 214.733 102.113 213.92C102.593 213.093 103.253 212.453 104.093 212C104.933 211.533 105.88 211.3 106.933 211.3C107.987 211.3 108.927 211.533 109.753 212C110.593 212.453 111.247 213.093 111.713 213.92C112.193 214.733 112.433 215.66 112.433 216.7C112.433 217.74 112.193 218.673 111.713 219.5C111.247 220.313 110.593 220.953 109.753 221.42C108.927 221.887 107.987 222.12 106.933 222.12ZM106.933 220.44C107.613 220.44 108.22 220.287 108.753 219.98C109.3 219.66 109.727 219.22 110.033 218.66C110.34 218.087 110.493 217.433 110.493 216.7C110.493 215.967 110.34 215.32 110.033 214.76C109.727 214.187 109.3 213.747 108.753 213.44C108.22 213.133 107.613 212.98 106.933 212.98C106.253 212.98 105.64 213.133 105.093 213.44C104.56 213.747 104.133 214.187 103.813 214.76C103.507 215.32 103.353 215.967 103.353 216.7C103.353 217.433 103.507 218.087 103.813 218.66C104.133 219.22 104.56 219.66 105.093 219.98C105.64 220.287 106.253 220.44 106.933 220.44ZM120.826 211.3C121.852 211.3 122.772 211.527 123.586 211.98C124.399 212.433 125.032 213.067 125.486 213.88C125.952 214.693 126.186 215.633 126.186 216.7C126.186 217.767 125.952 218.713 125.486 219.54C125.032 220.353 124.399 220.987 123.586 221.44C122.772 221.893 121.852 222.12 120.826 222.12C120.066 222.12 119.366 221.973 118.726 221.68C118.099 221.387 117.566 220.96 117.126 220.4V225.88H115.206V211.4H117.046V213.08C117.472 212.493 118.012 212.053 118.666 211.76C119.319 211.453 120.039 211.3 120.826 211.3ZM120.666 220.44C121.346 220.44 121.952 220.287 122.486 219.98C123.032 219.66 123.459 219.22 123.766 218.66C124.086 218.087 124.246 217.433 124.246 216.7C124.246 215.967 124.086 215.32 123.766 214.76C123.459 214.187 123.032 213.747 122.486 213.44C121.952 213.133 121.346 212.98 120.666 212.98C119.999 212.98 119.392 213.14 118.846 213.46C118.312 213.767 117.886 214.2 117.566 214.76C117.259 215.32 117.106 215.967 117.106 216.7C117.106 217.433 117.259 218.087 117.566 218.66C117.872 219.22 118.299 219.66 118.846 219.98C119.392 220.287 119.999 220.44 120.666 220.44ZM141.195 211.4V222H139.455V214.26L135.495 220.8H134.655L130.735 214.24V222H128.975V211.4H130.955L135.115 218.56L139.395 211.4H141.195ZM148.712 211.3C150.179 211.3 151.299 211.66 152.072 212.38C152.859 213.1 153.252 214.173 153.252 215.6V222H151.432V220.6C151.112 221.093 150.652 221.473 150.052 221.74C149.466 221.993 148.766 222.12 147.952 222.12C146.766 222.12 145.812 221.833 145.092 221.26C144.386 220.687 144.032 219.933 144.032 219C144.032 218.067 144.372 217.32 145.052 216.76C145.732 216.187 146.812 215.9 148.292 215.9H151.332V215.52C151.332 214.693 151.092 214.06 150.612 213.62C150.132 213.18 149.426 212.96 148.492 212.96C147.866 212.96 147.252 213.067 146.652 213.28C146.052 213.48 145.546 213.753 145.132 214.1L144.332 212.66C144.879 212.22 145.532 211.887 146.292 211.66C147.052 211.42 147.859 211.3 148.712 211.3ZM148.272 220.64C149.006 220.64 149.639 220.48 150.172 220.16C150.706 219.827 151.092 219.36 151.332 218.76V217.28H148.372C146.746 217.28 145.932 217.827 145.932 218.92C145.932 219.453 146.139 219.873 146.552 220.18C146.966 220.487 147.539 220.64 148.272 220.64ZM164.61 213.08H160.73V222H158.81V213.08H154.93V211.4H164.61V213.08ZM175.684 216.76C175.684 216.907 175.671 217.1 175.644 217.34H167.044C167.164 218.273 167.571 219.027 168.264 219.6C168.971 220.16 169.844 220.44 170.884 220.44C172.151 220.44 173.171 220.013 173.944 219.16L175.004 220.4C174.524 220.96 173.924 221.387 173.204 221.68C172.497 221.973 171.704 222.12 170.824 222.12C169.704 222.12 168.711 221.893 167.844 221.44C166.977 220.973 166.304 220.327 165.824 219.5C165.357 218.673 165.124 217.74 165.124 216.7C165.124 215.673 165.351 214.747 165.804 213.92C166.271 213.093 166.904 212.453 167.704 212C168.517 211.533 169.431 211.3 170.444 211.3C171.457 211.3 172.357 211.533 173.144 212C173.944 212.453 174.564 213.093 175.004 213.92C175.457 214.747 175.684 215.693 175.684 216.76ZM170.444 212.92C169.524 212.92 168.751 213.2 168.124 213.76C167.511 214.32 167.151 215.053 167.044 215.96H173.844C173.737 215.067 173.371 214.34 172.744 213.78C172.131 213.207 171.364 212.92 170.444 212.92ZM197.414 216.68C197.414 218.32 196.867 219.613 195.774 220.56C194.68 221.507 193.14 222.033 191.154 222.14V225.88H189.274V222.14C187.287 222.033 185.747 221.513 184.654 220.58C183.574 219.633 183.034 218.333 183.034 216.68C183.034 215.04 183.574 213.76 184.654 212.84C185.734 211.92 187.274 211.407 189.274 211.3V207.16H191.154V211.3C193.14 211.407 194.68 211.927 195.774 212.86C196.867 213.78 197.414 215.053 197.414 216.68ZM184.934 216.68C184.934 217.813 185.294 218.7 186.014 219.34C186.747 219.98 187.834 220.347 189.274 220.44V213C187.82 213.093 186.734 213.453 186.014 214.08C185.294 214.707 184.934 215.573 184.934 216.68ZM191.154 220.46C194.06 220.233 195.514 218.973 195.514 216.68C195.514 215.56 195.147 214.693 194.414 214.08C193.68 213.453 192.594 213.093 191.154 213V220.46ZM204.668 222.12C203.614 222.12 202.668 221.887 201.828 221.42C200.988 220.953 200.328 220.313 199.848 219.5C199.381 218.673 199.148 217.74 199.148 216.7C199.148 215.66 199.381 214.733 199.848 213.92C200.328 213.093 200.988 212.453 201.828 212C202.668 211.533 203.614 211.3 204.668 211.3C205.721 211.3 206.661 211.533 207.488 212C208.328 212.453 208.981 213.093 209.448 213.92C209.928 214.733 210.168 215.66 210.168 216.7C210.168 217.74 209.928 218.673 209.448 219.5C208.981 220.313 208.328 220.953 207.488 221.42C206.661 221.887 205.721 222.12 204.668 222.12ZM204.668 220.44C205.348 220.44 205.954 220.287 206.488 219.98C207.034 219.66 207.461 219.22 207.768 218.66C208.074 218.087 208.228 217.433 208.228 216.7C208.228 215.967 208.074 215.32 207.768 214.76C207.461 214.187 207.034 213.747 206.488 213.44C205.954 213.133 205.348 212.98 204.668 212.98C203.988 212.98 203.374 213.133 202.828 213.44C202.294 213.747 201.868 214.187 201.548 214.76C201.241 215.32 201.088 215.967 201.088 216.7C201.088 217.433 201.241 218.087 201.548 218.66C201.868 219.22 202.294 219.66 202.828 219.98C203.374 220.287 203.988 220.44 204.668 220.44ZM220.449 213.08H216.569V222H214.649V213.08H210.769V211.4H220.449V213.08ZM226.484 222.12C225.431 222.12 224.484 221.887 223.644 221.42C222.804 220.953 222.144 220.313 221.664 219.5C221.197 218.673 220.964 217.74 220.964 216.7C220.964 215.66 221.197 214.733 221.664 213.92C222.144 213.093 222.804 212.453 223.644 212C224.484 211.533 225.431 211.3 226.484 211.3C227.537 211.3 228.477 211.533 229.304 212C230.144 212.453 230.797 213.093 231.264 213.92C231.744 214.733 231.984 215.66 231.984 216.7C231.984 217.74 231.744 218.673 231.264 219.5C230.797 220.313 230.144 220.953 229.304 221.42C228.477 221.887 227.537 222.12 226.484 222.12ZM226.484 220.44C227.164 220.44 227.771 220.287 228.304 219.98C228.851 219.66 229.277 219.22 229.584 218.66C229.891 218.087 230.044 217.433 230.044 216.7C230.044 215.967 229.891 215.32 229.584 214.76C229.277 214.187 228.851 213.747 228.304 213.44C227.771 213.133 227.164 212.98 226.484 212.98C225.804 212.98 225.191 213.133 224.644 213.44C224.111 213.747 223.684 214.187 223.364 214.76C223.057 215.32 222.904 215.967 222.904 216.7C222.904 217.433 223.057 218.087 223.364 218.66C223.684 219.22 224.111 219.66 224.644 219.98C225.191 220.287 225.804 220.44 226.484 220.44Z" fill="#363636"/>
<circle cx="113" cy="73" r="72" stroke="#FE201D" stroke-width="2"/>
<g clip-path="url(#clip0_1_506)">
<path d="M90.3658 69.6663V93.7667C90.3658 96.0153 92.1708 97.8419 94.462 97.8419H130.843C133.065 97.8419 134.939 96.0152 134.939 93.7667L134.939 69.6663C134.939 67.4176 133.134 65.591 130.843 65.591H121.123C120.568 65.591 120.082 66.0831 120.082 66.6448C120.082 67.2069 120.568 67.6985 121.123 67.6985H130.843C131.954 67.6985 132.857 68.6121 132.857 69.6659V93.7663C132.857 94.8906 131.954 95.7336 130.843 95.7336L94.4625 95.7346C93.3515 95.7346 92.4493 94.821 92.4493 93.7672L92.4488 69.6669C92.4488 68.5425 93.3515 67.6995 94.462 67.6995H102.793C103.349 67.6995 103.835 67.2074 103.835 66.6457C103.835 66.0836 103.348 65.592 102.793 65.592H94.462C92.1712 65.5915 90.3658 67.4187 90.3658 69.6669V69.6663Z" fill="#FE201D"/>
<path d="M112.305 84.4919C112.861 84.4919 113.347 83.9998 113.347 83.4381L113.347 51.1872L121.887 57.7921C122.095 57.9327 122.303 58.0028 122.512 58.0028C122.859 58.0028 123.136 57.8622 123.345 57.5813C123.692 57.0892 123.622 56.457 123.136 56.1055L112.93 48.2361C112.861 48.1661 112.791 48.0955 112.653 48.0955H112.583C112.514 48.0955 112.375 48.0254 112.306 48.0254C112.237 48.0254 112.098 48.0254 112.028 48.0955H111.959C111.89 48.0955 111.751 48.1656 111.682 48.2361L101.475 56.106C100.988 56.4574 100.919 57.0897 101.266 57.5818C101.614 58.0739 102.238 58.144 102.725 57.7926L111.264 51.1872V83.4381C111.264 84.0709 111.75 84.4924 112.305 84.4924L112.305 84.4919Z" fill="#FE201D"/>
</g>
<path d="M388.221 191L388.201 180.8L383.141 189.3H382.221L377.161 180.86V191H375.241V177H376.881L382.721 186.84L388.481 177H390.121L390.141 191H388.221ZM398.958 184C400.292 184.013 401.312 184.32 402.018 184.92C402.725 185.52 403.078 186.367 403.078 187.46C403.078 188.607 402.692 189.493 401.918 190.12C401.158 190.733 400.065 191.033 398.638 191.02L394.178 191V180.4H396.098V183.98L398.958 184ZM404.658 180.4H406.578V191H404.658V180.4ZM398.498 189.56C399.365 189.573 400.018 189.4 400.458 189.04C400.912 188.68 401.138 188.147 401.138 187.44C401.138 186.747 400.918 186.24 400.478 185.92C400.038 185.6 399.378 185.433 398.498 185.42L396.098 185.38V189.54L398.498 189.56ZM421.302 180.3C422.329 180.3 423.249 180.527 424.062 180.98C424.876 181.433 425.509 182.067 425.962 182.88C426.429 183.693 426.662 184.633 426.662 185.7C426.662 186.767 426.429 187.713 425.962 188.54C425.509 189.353 424.876 189.987 424.062 190.44C423.249 190.893 422.329 191.12 421.302 191.12C420.542 191.12 419.842 190.973 419.202 190.68C418.576 190.387 418.042 189.96 417.602 189.4V194.88H415.682V180.4H417.522V182.08C417.949 181.493 418.489 181.053 419.142 180.76C419.796 180.453 420.516 180.3 421.302 180.3ZM421.142 189.44C421.822 189.44 422.429 189.287 422.962 188.98C423.509 188.66 423.936 188.22 424.242 187.66C424.562 187.087 424.722 186.433 424.722 185.7C424.722 184.967 424.562 184.32 424.242 183.76C423.936 183.187 423.509 182.747 422.962 182.44C422.429 182.133 421.822 181.98 421.142 181.98C420.476 181.98 419.869 182.14 419.322 182.46C418.789 182.767 418.362 183.2 418.042 183.76C417.736 184.32 417.582 184.967 417.582 185.7C417.582 186.433 417.736 187.087 418.042 187.66C418.349 188.22 418.776 188.66 419.322 188.98C419.869 189.287 420.476 189.44 421.142 189.44ZM439.032 185.76C439.032 185.907 439.018 186.1 438.992 186.34H430.392C430.512 187.273 430.918 188.027 431.612 188.6C432.318 189.16 433.192 189.44 434.232 189.44C435.498 189.44 436.518 189.013 437.292 188.16L438.352 189.4C437.872 189.96 437.272 190.387 436.552 190.68C435.845 190.973 435.052 191.12 434.172 191.12C433.052 191.12 432.058 190.893 431.192 190.44C430.325 189.973 429.652 189.327 429.172 188.5C428.705 187.673 428.472 186.74 428.472 185.7C428.472 184.673 428.698 183.747 429.152 182.92C429.618 182.093 430.252 181.453 431.052 181C431.865 180.533 432.778 180.3 433.792 180.3C434.805 180.3 435.705 180.533 436.492 181C437.292 181.453 437.912 182.093 438.352 182.92C438.805 183.747 439.032 184.693 439.032 185.76ZM433.792 181.92C432.872 181.92 432.098 182.2 431.472 182.76C430.858 183.32 430.498 184.053 430.392 184.96H437.192C437.085 184.067 436.718 183.34 436.092 182.78C435.478 182.207 434.712 181.92 433.792 181.92ZM452.615 189.32V193.46H450.815V191H441.955V193.46H440.135V189.32H440.695C441.375 189.28 441.841 188.8 442.095 187.88C442.348 186.96 442.521 185.66 442.615 183.98L442.775 180.4H450.995V189.32H452.615ZM444.375 184.12C444.321 185.453 444.208 186.56 444.035 187.44C443.875 188.307 443.575 188.933 443.135 189.32H449.075V182.08H444.475L444.375 184.12ZM458.896 180.3C460.363 180.3 461.483 180.66 462.256 181.38C463.043 182.1 463.436 183.173 463.436 184.6V191H461.616V189.6C461.296 190.093 460.836 190.473 460.236 190.74C459.649 190.993 458.949 191.12 458.136 191.12C456.949 191.12 455.996 190.833 455.276 190.26C454.569 189.687 454.216 188.933 454.216 188C454.216 187.067 454.556 186.32 455.236 185.76C455.916 185.187 456.996 184.9 458.476 184.9H461.516V184.52C461.516 183.693 461.276 183.06 460.796 182.62C460.316 182.18 459.609 181.96 458.676 181.96C458.049 181.96 457.436 182.067 456.836 182.28C456.236 182.48 455.729 182.753 455.316 183.1L454.516 181.66C455.063 181.22 455.716 180.887 456.476 180.66C457.236 180.42 458.043 180.3 458.896 180.3ZM458.456 189.64C459.189 189.64 459.823 189.48 460.356 189.16C460.889 188.827 461.276 188.36 461.516 187.76V186.28H458.556C456.929 186.28 456.116 186.827 456.116 187.92C456.116 188.453 456.323 188.873 456.736 189.18C457.149 189.487 457.723 189.64 458.456 189.64ZM471.013 186.52H468.813V191H466.893V180.4H468.813V184.88H471.053L474.493 180.4H476.553L472.533 185.5L476.833 191H474.573L471.013 186.52ZM486.571 182.08H482.691V191H480.771V182.08H476.891V180.4H486.571V182.08ZM488.534 180.4H490.454V188.12L496.954 180.4H498.694V191H496.774V183.28L490.294 191H488.534V180.4ZM508.041 180.3C509.067 180.3 509.987 180.527 510.801 180.98C511.614 181.433 512.247 182.067 512.701 182.88C513.167 183.693 513.401 184.633 513.401 185.7C513.401 186.767 513.167 187.713 512.701 188.54C512.247 189.353 511.614 189.987 510.801 190.44C509.987 190.893 509.067 191.12 508.041 191.12C507.281 191.12 506.581 190.973 505.941 190.68C505.314 190.387 504.781 189.96 504.341 189.4V194.88H502.421V180.4H504.261V182.08C504.687 181.493 505.227 181.053 505.881 180.76C506.534 180.453 507.254 180.3 508.041 180.3ZM507.881 189.44C508.561 189.44 509.167 189.287 509.701 188.98C510.247 188.66 510.674 188.22 510.981 187.66C511.301 187.087 511.461 186.433 511.461 185.7C511.461 184.967 511.301 184.32 510.981 183.76C510.674 183.187 510.247 182.747 509.701 182.44C509.167 182.133 508.561 181.98 507.881 181.98C507.214 181.98 506.607 182.14 506.061 182.46C505.527 182.767 505.101 183.2 504.781 183.76C504.474 184.32 504.321 184.967 504.321 185.7C504.321 186.433 504.474 187.087 504.781 187.66C505.087 188.22 505.514 188.66 506.061 188.98C506.607 189.287 507.214 189.44 507.881 189.44ZM525.357 180.4L520.217 192.06C519.764 193.14 519.23 193.9 518.617 194.34C518.017 194.78 517.29 195 516.437 195C515.917 195 515.41 194.913 514.917 194.74C514.437 194.58 514.037 194.34 513.717 194.02L514.537 192.58C515.084 193.1 515.717 193.36 516.437 193.36C516.904 193.36 517.29 193.233 517.597 192.98C517.917 192.74 518.204 192.32 518.457 191.72L518.797 190.98L514.117 180.4H516.117L519.817 188.88L523.477 180.4H525.357ZM536.61 185.76C536.61 185.907 536.597 186.1 536.57 186.34H527.97C528.09 187.273 528.497 188.027 529.19 188.6C529.897 189.16 530.77 189.44 531.81 189.44C533.077 189.44 534.097 189.013 534.87 188.16L535.93 189.4C535.45 189.96 534.85 190.387 534.13 190.68C533.423 190.973 532.63 191.12 531.75 191.12C530.63 191.12 529.637 190.893 528.77 190.44C527.903 189.973 527.23 189.327 526.75 188.5C526.283 187.673 526.05 186.74 526.05 185.7C526.05 184.673 526.277 183.747 526.73 182.92C527.197 182.093 527.83 181.453 528.63 181C529.443 180.533 530.357 180.3 531.37 180.3C532.383 180.3 533.283 180.533 534.07 181C534.87 181.453 535.49 182.093 535.93 182.92C536.383 183.747 536.61 184.693 536.61 185.76ZM531.37 181.92C530.45 181.92 529.677 182.2 529.05 182.76C528.437 183.32 528.077 184.053 527.97 184.96H534.77C534.663 184.067 534.297 183.34 533.67 182.78C533.057 182.207 532.29 181.92 531.37 181.92ZM551.809 180.4V191H550.069V183.26L546.109 189.8H545.269L541.349 183.24V191H539.589V180.4H541.569L545.729 187.56L550.009 180.4H551.809ZM573.137 180.4V191H571.397V183.26L567.437 189.8H566.597L562.677 183.24V191H560.917V180.4H562.897L567.057 187.56L571.337 180.4H573.137ZM580.654 180.3C582.12 180.3 583.24 180.66 584.014 181.38C584.8 182.1 585.194 183.173 585.194 184.6V191H583.374V189.6C583.054 190.093 582.594 190.473 581.994 190.74C581.407 190.993 580.707 191.12 579.894 191.12C578.707 191.12 577.754 190.833 577.034 190.26C576.327 189.687 575.974 188.933 575.974 188C575.974 187.067 576.314 186.32 576.994 185.76C577.674 185.187 578.754 184.9 580.234 184.9H583.274V184.52C583.274 183.693 583.034 183.06 582.554 182.62C582.074 182.18 581.367 181.96 580.434 181.96C579.807 181.96 579.194 182.067 578.594 182.28C577.994 182.48 577.487 182.753 577.074 183.1L576.274 181.66C576.82 181.22 577.474 180.887 578.234 180.66C578.994 180.42 579.8 180.3 580.654 180.3ZM580.214 189.64C580.947 189.64 581.58 189.48 582.114 189.16C582.647 188.827 583.034 188.36 583.274 187.76V186.28H580.314C578.687 186.28 577.874 186.827 577.874 187.92C577.874 188.453 578.08 188.873 578.494 189.18C578.907 189.487 579.48 189.64 580.214 189.64ZM592.771 186.52H590.571V191H588.651V180.4H590.571V184.88H592.811L596.251 180.4H598.311L594.291 185.5L598.591 191H596.331L592.771 186.52ZM609.833 185.76C609.833 185.907 609.819 186.1 609.793 186.34H601.193C601.313 187.273 601.719 188.027 602.413 188.6C603.119 189.16 603.993 189.44 605.033 189.44C606.299 189.44 607.319 189.013 608.093 188.16L609.153 189.4C608.673 189.96 608.073 190.387 607.353 190.68C606.646 190.973 605.853 191.12 604.973 191.12C603.853 191.12 602.859 190.893 601.993 190.44C601.126 189.973 600.453 189.327 599.973 188.5C599.506 187.673 599.273 186.74 599.273 185.7C599.273 184.673 599.499 183.747 599.953 182.92C600.419 182.093 601.053 181.453 601.853 181C602.666 180.533 603.579 180.3 604.593 180.3C605.606 180.3 606.506 180.533 607.293 181C608.093 181.453 608.713 182.093 609.153 182.92C609.606 183.747 609.833 184.693 609.833 185.76ZM604.593 181.92C603.673 181.92 602.899 182.2 602.273 182.76C601.659 183.32 601.299 184.053 601.193 184.96H607.993C607.886 184.067 607.519 183.34 606.893 182.78C606.279 182.207 605.513 181.92 604.593 181.92ZM620.262 182.08H616.382V191H614.462V182.08H610.582V180.4H620.262V182.08ZM621.708 188.38C622.082 188.38 622.388 188.513 622.628 188.78C622.882 189.033 623.008 189.353 623.008 189.74C623.008 189.94 622.982 190.133 622.928 190.32C622.888 190.507 622.802 190.793 622.668 191.18L621.728 193.96H620.468L621.208 190.98C620.955 190.887 620.748 190.733 620.588 190.52C620.442 190.293 620.368 190.033 620.368 189.74C620.368 189.34 620.495 189.013 620.748 188.76C621.002 188.507 621.322 188.38 621.708 188.38ZM384.728 211.4V222H382.808V217.72C381.662 218.253 380.522 218.52 379.388 218.52C378.068 218.52 377.048 218.213 376.328 217.6C375.608 216.987 375.248 216.067 375.248 214.84V211.4H377.168V214.72C377.168 215.453 377.395 216.007 377.848 216.38C378.315 216.753 378.962 216.94 379.788 216.94C380.722 216.94 381.728 216.707 382.808 216.24V211.4H384.728ZM396.356 213.08H392.476V222H390.556V213.08H386.676V211.4H396.356V213.08ZM402.39 222.12C401.337 222.12 400.39 221.887 399.55 221.42C398.71 220.953 398.05 220.313 397.57 219.5C397.104 218.673 396.87 217.74 396.87 216.7C396.87 215.66 397.104 214.733 397.57 213.92C398.05 213.093 398.71 212.453 399.55 212C400.39 211.533 401.337 211.3 402.39 211.3C403.444 211.3 404.384 211.533 405.21 212C406.05 212.453 406.704 213.093 407.17 213.92C407.65 214.733 407.89 215.66 407.89 216.7C407.89 217.74 407.65 218.673 407.17 219.5C406.704 220.313 406.05 220.953 405.21 221.42C404.384 221.887 403.444 222.12 402.39 222.12ZM402.39 220.44C403.07 220.44 403.677 220.287 404.21 219.98C404.757 219.66 405.184 219.22 405.49 218.66C405.797 218.087 405.95 217.433 405.95 216.7C405.95 215.967 405.797 215.32 405.49 214.76C405.184 214.187 404.757 213.747 404.21 213.44C403.677 213.133 403.07 212.98 402.39 212.98C401.71 212.98 401.097 213.133 400.55 213.44C400.017 213.747 399.59 214.187 399.27 214.76C398.964 215.32 398.81 215.967 398.81 216.7C398.81 217.433 398.964 218.087 399.27 218.66C399.59 219.22 400.017 219.66 400.55 219.98C401.097 220.287 401.71 220.44 402.39 220.44ZM416.063 211.76C417.049 211.76 417.929 211.98 418.703 212.42C419.476 212.86 420.076 213.473 420.503 214.26C420.943 215.033 421.163 215.92 421.163 216.92C421.163 217.947 420.929 218.86 420.463 219.66C420.009 220.447 419.363 221.06 418.523 221.5C417.696 221.94 416.749 222.16 415.683 222.16C413.883 222.16 412.489 221.547 411.503 220.32C410.529 219.08 410.043 217.34 410.043 215.1C410.043 212.927 410.489 211.227 411.383 210C412.276 208.76 413.643 207.94 415.483 207.54L420.323 206.46L420.603 208.22L416.143 209.18C414.756 209.487 413.723 210.007 413.043 210.74C412.363 211.473 411.976 212.527 411.883 213.9C412.336 213.22 412.923 212.693 413.643 212.32C414.363 211.947 415.169 211.76 416.063 211.76ZM415.723 220.56C416.403 220.56 417.003 220.407 417.523 220.1C418.056 219.793 418.469 219.373 418.763 218.84C419.056 218.293 419.203 217.673 419.203 216.98C419.203 215.927 418.883 215.08 418.243 214.44C417.603 213.8 416.763 213.48 415.723 213.48C414.683 213.48 413.836 213.8 413.183 214.44C412.543 215.08 412.223 215.927 412.223 216.98C412.223 217.673 412.369 218.293 412.663 218.84C412.969 219.373 413.389 219.793 413.923 220.1C414.456 220.407 415.056 220.56 415.723 220.56ZM428.685 215C430.018 215.013 431.038 215.32 431.745 215.92C432.452 216.52 432.805 217.367 432.805 218.46C432.805 219.607 432.418 220.493 431.645 221.12C430.885 221.733 429.792 222.033 428.365 222.02L423.905 222V211.4H425.825V214.98L428.685 215ZM434.385 211.4H436.305V222H434.385V211.4ZM428.225 220.56C429.092 220.573 429.745 220.4 430.185 220.04C430.638 219.68 430.865 219.147 430.865 218.44C430.865 217.747 430.645 217.24 430.205 216.92C429.765 216.6 429.105 216.433 428.225 216.42L425.825 216.38V220.54L428.225 220.56ZM445.409 211.4H447.329V215.9H453.369V211.4H455.289V222H453.369V217.56H447.329V222H445.409V211.4ZM462.802 211.3C464.269 211.3 465.389 211.66 466.162 212.38C466.949 213.1 467.342 214.173 467.342 215.6V222H465.522V220.6C465.202 221.093 464.742 221.473 464.142 221.74C463.555 221.993 462.855 222.12 462.042 222.12C460.855 222.12 459.902 221.833 459.182 221.26C458.475 220.687 458.122 219.933 458.122 219C458.122 218.067 458.462 217.32 459.142 216.76C459.822 216.187 460.902 215.9 462.382 215.9H465.422V215.52C465.422 214.693 465.182 214.06 464.702 213.62C464.222 213.18 463.515 212.96 462.582 212.96C461.955 212.96 461.342 213.067 460.742 213.28C460.142 213.48 459.635 213.753 459.222 214.1L458.422 212.66C458.969 212.22 459.622 211.887 460.382 211.66C461.142 211.42 461.949 211.3 462.802 211.3ZM462.362 220.64C463.095 220.64 463.729 220.48 464.262 220.16C464.795 219.827 465.182 219.36 465.422 218.76V217.28H462.462C460.835 217.28 460.022 217.827 460.022 218.92C460.022 219.453 460.229 219.873 460.642 220.18C461.055 220.487 461.629 220.64 462.362 220.64ZM480.711 222.12C479.657 222.12 478.711 221.887 477.871 221.42C477.031 220.953 476.371 220.313 475.891 219.5C475.424 218.673 475.191 217.74 475.191 216.7C475.191 215.66 475.424 214.733 475.891 213.92C476.371 213.093 477.031 212.453 477.871 212C478.711 211.533 479.657 211.3 480.711 211.3C481.764 211.3 482.704 211.533 483.531 212C484.371 212.453 485.024 213.093 485.491 213.92C485.971 214.733 486.211 215.66 486.211 216.7C486.211 217.74 485.971 218.673 485.491 219.5C485.024 220.313 484.371 220.953 483.531 221.42C482.704 221.887 481.764 222.12 480.711 222.12ZM480.711 220.44C481.391 220.44 481.997 220.287 482.531 219.98C483.077 219.66 483.504 219.22 483.811 218.66C484.117 218.087 484.271 217.433 484.271 216.7C484.271 215.967 484.117 215.32 483.811 214.76C483.504 214.187 483.077 213.747 482.531 213.44C481.997 213.133 481.391 212.98 480.711 212.98C480.031 212.98 479.417 213.133 478.871 213.44C478.337 213.747 477.911 214.187 477.591 214.76C477.284 215.32 477.131 215.967 477.131 216.7C477.131 217.433 477.284 218.087 477.591 218.66C477.911 219.22 478.337 219.66 478.871 219.98C479.417 220.287 480.031 220.44 480.711 220.44ZM496.492 213.08H492.612V222H490.692V213.08H486.812V211.4H496.492V213.08ZM507.92 217.52H505.86V222H503.94V217.52H501.88L498.96 222H496.68L500.32 216.52L496.96 211.4H499L501.86 215.88H503.94V211.4H505.86V215.88H507.94L510.8 211.4H512.86L509.5 216.54L513.14 222H510.86L507.92 217.52ZM515.253 211.4H517.173V219.12L523.673 211.4H525.413V222H523.493V214.28L517.013 222H515.253V211.4ZM536.939 213.08H531.059V222H529.139V211.4H536.939V213.08ZM548.016 216.76C548.016 216.907 548.003 217.1 547.976 217.34H539.376C539.496 218.273 539.903 219.027 540.596 219.6C541.303 220.16 542.176 220.44 543.216 220.44C544.483 220.44 545.503 220.013 546.276 219.16L547.336 220.4C546.856 220.96 546.256 221.387 545.536 221.68C544.83 221.973 544.036 222.12 543.156 222.12C542.036 222.12 541.043 221.893 540.176 221.44C539.31 220.973 538.636 220.327 538.156 219.5C537.69 218.673 537.456 217.74 537.456 216.7C537.456 215.673 537.683 214.747 538.136 213.92C538.603 213.093 539.236 212.453 540.036 212C540.85 211.533 541.763 211.3 542.776 211.3C543.79 211.3 544.69 211.533 545.476 212C546.276 212.453 546.896 213.093 547.336 213.92C547.79 214.747 548.016 215.693 548.016 216.76ZM542.776 212.92C541.856 212.92 541.083 213.2 540.456 213.76C539.843 214.32 539.483 215.053 539.376 215.96H546.176C546.07 215.067 545.703 214.34 545.076 213.78C544.463 213.207 543.696 212.92 542.776 212.92ZM565.466 211.4V222H563.546V213.08H558.986L558.866 215.44C558.799 216.867 558.673 218.06 558.486 219.02C558.299 219.967 557.993 220.727 557.566 221.3C557.139 221.873 556.546 222.16 555.786 222.16C555.439 222.16 555.046 222.1 554.606 221.98L554.726 220.36C554.899 220.4 555.059 220.42 555.206 220.42C555.739 220.42 556.139 220.187 556.406 219.72C556.673 219.253 556.846 218.7 556.926 218.06C557.006 217.42 557.079 216.507 557.146 215.32L557.326 211.4H565.466ZM569.178 211.4H571.098V219.12L577.598 211.4H579.338V222H577.418V214.28L570.938 222H569.178V211.4ZM583.065 211.4H584.985V215.9H591.025V211.4H592.945V222H591.025V217.56H584.985V222H583.065V211.4ZM596.678 211.4H598.598V219.12L605.098 211.4H606.838V222H604.918V214.28L598.438 222H596.678V211.4ZM610.565 211.4H612.485V219.12L618.985 211.4H620.725V222H618.805V214.28L612.325 222H610.565V211.4ZM398.22 252L395.16 247.94L392.06 252H389.92L394.1 246.58L390.12 241.4H392.26L395.18 245.22L398.08 241.4H400.18L396.18 246.58L400.4 252H398.22ZM406.609 252.12C405.556 252.12 404.609 251.887 403.769 251.42C402.929 250.953 402.269 250.313 401.789 249.5C401.322 248.673 401.089 247.74 401.089 246.7C401.089 245.66 401.322 244.733 401.789 243.92C402.269 243.093 402.929 242.453 403.769 242C404.609 241.533 405.556 241.3 406.609 241.3C407.662 241.3 408.602 241.533 409.429 242C410.269 242.453 410.922 243.093 411.389 243.92C411.869 244.733 412.109 245.66 412.109 246.7C412.109 247.74 411.869 248.673 411.389 249.5C410.922 250.313 410.269 250.953 409.429 251.42C408.602 251.887 407.662 252.12 406.609 252.12ZM406.609 250.44C407.289 250.44 407.896 250.287 408.429 249.98C408.976 249.66 409.402 249.22 409.709 248.66C410.016 248.087 410.169 247.433 410.169 246.7C410.169 245.967 410.016 245.32 409.709 244.76C409.402 244.187 408.976 243.747 408.429 243.44C407.896 243.133 407.289 242.98 406.609 242.98C405.929 242.98 405.316 243.133 404.769 243.44C404.236 243.747 403.809 244.187 403.489 244.76C403.182 245.32 403.029 245.967 403.029 246.7C403.029 247.433 403.182 248.087 403.489 248.66C403.809 249.22 404.236 249.66 404.769 249.98C405.316 250.287 405.929 250.44 406.609 250.44ZM420.501 241.3C421.528 241.3 422.448 241.527 423.261 241.98C424.075 242.433 424.708 243.067 425.161 243.88C425.628 244.693 425.861 245.633 425.861 246.7C425.861 247.767 425.628 248.713 425.161 249.54C424.708 250.353 424.075 250.987 423.261 251.44C422.448 251.893 421.528 252.12 420.501 252.12C419.741 252.12 419.041 251.973 418.401 251.68C417.775 251.387 417.241 250.96 416.801 250.4V255.88H414.881V241.4H416.721V243.08C417.148 242.493 417.688 242.053 418.341 241.76C418.995 241.453 419.715 241.3 420.501 241.3ZM420.341 250.44C421.021 250.44 421.628 250.287 422.161 249.98C422.708 249.66 423.135 249.22 423.441 248.66C423.761 248.087 423.921 247.433 423.921 246.7C423.921 245.967 423.761 245.32 423.441 244.76C423.135 244.187 422.708 243.747 422.161 243.44C421.628 243.133 421.021 242.98 420.341 242.98C419.675 242.98 419.068 243.14 418.521 243.46C417.988 243.767 417.561 244.2 417.241 244.76C416.935 245.32 416.781 245.967 416.781 246.7C416.781 247.433 416.935 248.087 417.241 248.66C417.548 249.22 417.975 249.66 418.521 249.98C419.068 250.287 419.675 250.44 420.341 250.44ZM433.191 252.12C432.138 252.12 431.191 251.887 430.351 251.42C429.511 250.953 428.851 250.313 428.371 249.5C427.904 248.673 427.671 247.74 427.671 246.7C427.671 245.66 427.904 244.733 428.371 243.92C428.851 243.093 429.511 242.453 430.351 242C431.191 241.533 432.138 241.3 433.191 241.3C434.244 241.3 435.184 241.533 436.011 242C436.851 242.453 437.504 243.093 437.971 243.92C438.451 244.733 438.691 245.66 438.691 246.7C438.691 247.74 438.451 248.673 437.971 249.5C437.504 250.313 436.851 250.953 436.011 251.42C435.184 251.887 434.244 252.12 433.191 252.12ZM433.191 250.44C433.871 250.44 434.478 250.287 435.011 249.98C435.558 249.66 435.984 249.22 436.291 248.66C436.598 248.087 436.751 247.433 436.751 246.7C436.751 245.967 436.598 245.32 436.291 244.76C435.984 244.187 435.558 243.747 435.011 243.44C434.478 243.133 433.871 242.98 433.191 242.98C432.511 242.98 431.898 243.133 431.351 243.44C430.818 243.747 430.391 244.187 430.071 244.76C429.764 245.32 429.611 245.967 429.611 246.7C429.611 247.433 429.764 248.087 430.071 248.66C430.391 249.22 430.818 249.66 431.351 249.98C431.898 250.287 432.511 250.44 433.191 250.44ZM456.564 241.4V252H441.464V241.4H443.384V250.32H448.064V241.4H449.984V250.32H454.644V241.4H456.564ZM464.832 252.12C463.778 252.12 462.832 251.887 461.992 251.42C461.152 250.953 460.492 250.313 460.012 249.5C459.545 248.673 459.312 247.74 459.312 246.7C459.312 245.66 459.545 244.733 460.012 243.92C460.492 243.093 461.152 242.453 461.992 242C462.832 241.533 463.778 241.3 464.832 241.3C465.885 241.3 466.825 241.533 467.652 242C468.492 242.453 469.145 243.093 469.612 243.92C470.092 244.733 470.332 245.66 470.332 246.7C470.332 247.74 470.092 248.673 469.612 249.5C469.145 250.313 468.492 250.953 467.652 251.42C466.825 251.887 465.885 252.12 464.832 252.12ZM464.832 250.44C465.512 250.44 466.118 250.287 466.652 249.98C467.198 249.66 467.625 249.22 467.932 248.66C468.238 248.087 468.392 247.433 468.392 246.7C468.392 245.967 468.238 245.32 467.932 244.76C467.625 244.187 467.198 243.747 466.652 243.44C466.118 243.133 465.512 242.98 464.832 242.98C464.152 242.98 463.538 243.133 462.992 243.44C462.458 243.747 462.032 244.187 461.712 244.76C461.405 245.32 461.252 245.967 461.252 246.7C461.252 247.433 461.405 248.087 461.712 248.66C462.032 249.22 462.458 249.66 462.992 249.98C463.538 250.287 464.152 250.44 464.832 250.44ZM483.875 241.76C484.862 241.76 485.742 241.98 486.515 242.42C487.289 242.86 487.889 243.473 488.315 244.26C488.755 245.033 488.975 245.92 488.975 246.92C488.975 247.947 488.742 248.86 488.275 249.66C487.822 250.447 487.175 251.06 486.335 251.5C485.509 251.94 484.562 252.16 483.495 252.16C481.695 252.16 480.302 251.547 479.315 250.32C478.342 249.08 477.855 247.34 477.855 245.1C477.855 242.927 478.302 241.227 479.195 240C480.089 238.76 481.455 237.94 483.295 237.54L488.135 236.46L488.415 238.22L483.955 239.18C482.569 239.487 481.535 240.007 480.855 240.74C480.175 241.473 479.789 242.527 479.695 243.9C480.149 243.22 480.735 242.693 481.455 242.32C482.175 241.947 482.982 241.76 483.875 241.76ZM483.535 250.56C484.215 250.56 484.815 250.407 485.335 250.1C485.869 249.793 486.282 249.373 486.575 248.84C486.869 248.293 487.015 247.673 487.015 246.98C487.015 245.927 486.695 245.08 486.055 244.44C485.415 243.8 484.575 243.48 483.535 243.48C482.495 243.48 481.649 243.8 480.995 244.44C480.355 245.08 480.035 245.927 480.035 246.98C480.035 247.673 480.182 248.293 480.475 248.84C480.782 249.373 481.202 249.793 481.735 250.1C482.269 250.407 482.869 250.56 483.535 250.56ZM496.497 245C497.831 245.013 498.851 245.32 499.557 245.92C500.264 246.52 500.617 247.367 500.617 248.46C500.617 249.607 500.231 250.493 499.457 251.12C498.697 251.733 497.604 252.033 496.177 252.02L491.717 252V241.4H493.637V244.98L496.497 245ZM502.197 241.4H504.117V252H502.197V241.4ZM496.037 250.56C496.904 250.573 497.557 250.4 497.997 250.04C498.451 249.68 498.677 249.147 498.677 248.44C498.677 247.747 498.457 247.24 498.017 246.92C497.577 246.6 496.917 246.433 496.037 246.42L493.637 246.38V250.54L496.037 250.56ZM516.95 241.4V252H515.03V243.08H510.47L510.35 245.44C510.284 246.867 510.157 248.06 509.97 249.02C509.784 249.967 509.477 250.727 509.05 251.3C508.624 251.873 508.03 252.16 507.27 252.16C506.924 252.16 506.53 252.1 506.09 251.98L506.21 250.36C506.384 250.4 506.544 250.42 506.69 250.42C507.224 250.42 507.624 250.187 507.89 249.72C508.157 249.253 508.33 248.7 508.41 248.06C508.49 247.42 508.564 246.507 508.63 245.32L508.81 241.4H516.95ZM520.663 241.4H522.583V249.12L529.083 241.4H530.823V252H528.903V244.28L522.423 252H520.663V241.4ZM547.141 246.5C548.514 246.847 549.201 247.707 549.201 249.08C549.201 250.013 548.847 250.733 548.141 251.24C547.447 251.747 546.407 252 545.021 252H539.921V241.4H544.841C546.094 241.4 547.074 241.64 547.781 242.12C548.487 242.587 548.841 243.253 548.841 244.12C548.841 244.68 548.687 245.167 548.381 245.58C548.087 245.98 547.674 246.287 547.141 246.5ZM541.801 245.96H544.681C545.414 245.96 545.967 245.827 546.341 245.56C546.727 245.293 546.921 244.907 546.921 244.4C546.921 243.387 546.174 242.88 544.681 242.88H541.801V245.96ZM544.881 250.52C545.681 250.52 546.281 250.393 546.681 250.14C547.081 249.887 547.281 249.493 547.281 248.96C547.281 248.413 547.094 248.007 546.721 247.74C546.361 247.473 545.787 247.34 545.001 247.34H541.801V250.52H544.881ZM552.206 241.4H554.126V249.12L560.626 241.4H562.366V252H560.446V244.28L553.966 252H552.206V241.4ZM576.872 250.32V254.46H575.072V252H566.212V254.46H564.392V250.32H564.952C565.632 250.28 566.099 249.8 566.352 248.88C566.606 247.96 566.779 246.66 566.872 244.98L567.032 241.4H575.252V250.32H576.872ZM568.632 245.12C568.579 246.453 568.466 247.56 568.292 248.44C568.132 249.307 567.832 249.933 567.392 250.32H573.332V243.08H568.732L568.632 245.12ZM579.374 241.4H581.294V245.9H587.334V241.4H589.254V252H587.334V247.56H581.294V252H579.374V241.4ZM597.767 245C599.1 245.013 600.12 245.32 600.827 245.92C601.534 246.52 601.887 247.367 601.887 248.46C601.887 249.607 601.5 250.493 600.727 251.12C599.967 251.733 598.874 252.033 597.447 252.02L592.987 252V241.4H594.907V244.98L597.767 245ZM603.467 241.4H605.387V252H603.467V241.4ZM597.307 250.56C598.174 250.573 598.827 250.4 599.267 250.04C599.72 249.68 599.947 249.147 599.947 248.44C599.947 247.747 599.727 247.24 599.287 246.92C598.847 246.6 598.187 246.433 597.307 246.42L594.907 246.38V250.54L597.307 250.56Z" fill="#363636"/>
<circle cx="498" cy="73" r="72" stroke="#FE201D" stroke-width="2"/>
<g clip-path="url(#clip1_1_506)">
<path d="M520.465 66.8764L521.67 65.1695C522.439 64.0905 522.753 62.7462 522.543 61.4326C522.332 60.1194 521.614 58.9445 520.547 58.1665L519.311 57.2586C518.244 56.4806 516.915 56.1629 515.617 56.376C514.319 56.5892 513.157 57.3155 512.388 58.3948L512.347 58.452V51.8999C512.346 50.8795 511.944 49.9014 511.231 49.1795C510.518 48.458 509.551 48.052 508.542 48.0509H488.029C486.956 48.0433 485.926 48.471 485.167 49.2388L475.414 59.0952C474.656 59.8587 474.231 60.8972 474.234 61.9795V92.2285C474.236 93.249 474.637 94.227 475.351 94.9489C476.064 95.6705 477.031 96.0765 478.039 96.0776H508.542C509.552 96.0765 510.52 95.6698 511.233 94.9468C511.947 94.2242 512.347 93.2446 512.347 92.2235V78.4191C512.35 78.3738 512.35 78.329 512.347 78.2841L518.968 68.9511L517.5 68C517.834 68.2414 515.934 69.09 516 69.5C516.065 69.9103 515.242 70.6646 515 71L513 73.5C512.586 74.0819 512.717 74.8924 513.292 75.3107C513.867 75.7291 513.586 75.0819 514 74.5L517.5 70.5C518.141 69.6059 518.883 68.8962 518.968 68.9511L520.465 66.8764ZM485.599 52.476V58.9504C485.599 59.2768 485.337 59.5416 485.014 59.5416H478.594L485.599 52.476ZM509.783 92.2284C509.783 92.9224 509.228 93.4862 508.542 93.4891H478.039C477.709 93.4891 477.393 93.3559 477.16 93.1192C476.927 92.8829 476.797 92.5624 476.798 92.2284V62.1406H485.004C485.838 62.1391 486.639 61.8033 487.229 61.2063C487.819 60.6092 488.151 59.7997 488.152 58.9555V50.6553H508.542C508.872 50.6553 509.187 50.7877 509.42 51.0229C509.653 51.2585 509.783 51.578 509.783 51.9109V62.047L496.963 80.032C496.839 80.2068 496.759 80.4102 496.732 80.6233L495.517 90.023C495.457 90.4955 495.657 90.9634 496.039 91.2417C496.421 91.5203 496.924 91.5641 497.347 91.3564L505.778 87.2062C505.97 87.1125 506.136 86.9714 506.26 86.7963L509.783 81.8526L509.783 92.2284ZM499.106 82.2683C500.052 82.3515 500.958 82.6917 501.728 83.2533C502.498 83.8152 503.104 84.5769 503.48 85.4588L498.352 87.9697L499.106 82.2683ZM519.619 63.6506L505.408 83.5707C504.297 81.6482 502.434 80.2898 500.28 79.8306L514.491 59.9104C514.862 59.3886 515.423 59.038 516.05 58.9349C516.677 58.8318 517.319 58.9848 517.834 59.3604L519.081 60.2683C519.597 60.6436 519.943 61.2117 520.044 61.8464C520.145 62.4811 519.992 63.1301 519.619 63.6506Z" fill="#FE201D"/>
<path d="M518.968 68.9511L512.347 78.2841C512.35 78.329 512.35 78.3738 512.347 78.4191V92.2235C512.347 93.2446 511.947 94.2242 511.233 94.9468C510.52 95.6698 509.552 96.0765 508.542 96.0776H478.039C477.031 96.0765 476.064 95.6705 475.351 94.9489C474.637 94.227 474.236 93.249 474.234 92.2285V61.9795C474.231 60.8972 474.656 59.8587 475.414 59.0952L485.167 49.2388C485.926 48.471 486.956 48.0433 488.029 48.0509H508.542C509.551 48.052 510.518 48.458 511.231 49.1795C511.944 49.9014 512.346 50.8795 512.347 51.8999V58.452L512.388 58.3948C513.157 57.3155 514.319 56.5892 515.617 56.376C516.915 56.1629 518.244 56.4806 519.311 57.2586L520.547 58.1665C521.614 58.9445 522.332 60.1194 522.543 61.4326C522.753 62.7462 522.439 64.0905 521.67 65.1695L520.465 66.8764L518.968 68.9511ZM518.968 68.9511L517.5 68C517.834 68.2414 515.934 69.09 516 69.5C516.065 69.9103 515.242 70.6646 515 71L513 73.5C512.586 74.0819 512.717 74.8924 513.292 75.3107C513.867 75.7291 513.586 75.0819 514 74.5L517.5 70.5C518.141 69.6059 518.883 68.8962 518.968 68.9511ZM485.599 52.476V58.9504C485.599 59.2768 485.337 59.5416 485.014 59.5416H478.594L485.599 52.476ZM509.783 92.2284C509.783 92.9224 509.228 93.4862 508.542 93.4891H478.039C477.709 93.4891 477.393 93.3559 477.16 93.1192C476.927 92.883 476.797 92.5624 476.798 92.2284V62.1406H485.004C485.838 62.1391 486.639 61.8033 487.229 61.2063C487.819 60.6092 488.151 59.7997 488.152 58.9555V50.6553H508.542C508.872 50.6553 509.187 50.7877 509.42 51.0229C509.653 51.2585 509.783 51.578 509.783 51.9109V62.047L496.963 80.032C496.839 80.2068 496.759 80.4102 496.732 80.6233L495.517 90.023C495.457 90.4955 495.657 90.9634 496.039 91.2417C496.421 91.5203 496.924 91.5641 497.347 91.3564L505.778 87.2062C505.97 87.1125 506.136 86.9714 506.26 86.7963L509.783 81.8526L509.783 92.2284ZM499.106 82.2683C500.052 82.3515 500.958 82.6917 501.728 83.2533C502.498 83.8152 503.104 84.5769 503.48 85.4588L498.352 87.9697L499.106 82.2683ZM519.619 63.6506L505.408 83.5707C504.297 81.6482 502.434 80.2898 500.28 79.8306L514.491 59.9104C514.862 59.3886 515.423 59.038 516.05 58.9349C516.677 58.8318 517.319 58.9848 517.834 59.3604L519.081 60.2683C519.597 60.6436 519.943 61.2117 520.044 61.8464C520.145 62.4811 519.992 63.1301 519.619 63.6506Z" stroke="white" stroke-width="0.4"/>
<path d="M516 69L517.5 67.5L518.5 68H519.5L517 71.5L515.5 73.5L514.5 74.5L514 75.5L513 76L512.5 75.5V74L514.5 71L515.5 70L516 69Z" fill="#FE201D"/>
</g>
<path d="M778.525 177V191H776.565V178.74H768.445V191H766.465V177H778.525ZM788.191 180.3C789.218 180.3 790.138 180.527 790.951 180.98C791.764 181.433 792.398 182.067 792.851 182.88C793.318 183.693 793.551 184.633 793.551 185.7C793.551 186.767 793.318 187.713 792.851 188.54C792.398 189.353 791.764 189.987 790.951 190.44C790.138 190.893 789.218 191.12 788.191 191.12C787.431 191.12 786.731 190.973 786.091 190.68C785.464 190.387 784.931 189.96 784.491 189.4V194.88H782.571V180.4H784.411V182.08C784.838 181.493 785.378 181.053 786.031 180.76C786.684 180.453 787.404 180.3 788.191 180.3ZM788.031 189.44C788.711 189.44 789.318 189.287 789.851 188.98C790.398 188.66 790.824 188.22 791.131 187.66C791.451 187.087 791.611 186.433 791.611 185.7C791.611 184.967 791.451 184.32 791.131 183.76C790.824 183.187 790.398 182.747 789.851 182.44C789.318 182.133 788.711 181.98 788.031 181.98C787.364 181.98 786.758 182.14 786.211 182.46C785.678 182.767 785.251 183.2 784.931 183.76C784.624 184.32 784.471 184.967 784.471 185.7C784.471 186.433 784.624 187.087 784.931 187.66C785.238 188.22 785.664 188.66 786.211 188.98C786.758 189.287 787.364 189.44 788.031 189.44ZM805.92 185.76C805.92 185.907 805.907 186.1 805.88 186.34H797.28C797.4 187.273 797.807 188.027 798.5 188.6C799.207 189.16 800.08 189.44 801.12 189.44C802.387 189.44 803.407 189.013 804.18 188.16L805.24 189.4C804.76 189.96 804.16 190.387 803.44 190.68C802.734 190.973 801.94 191.12 801.06 191.12C799.94 191.12 798.947 190.893 798.08 190.44C797.214 189.973 796.54 189.327 796.06 188.5C795.594 187.673 795.36 186.74 795.36 185.7C795.36 184.673 795.587 183.747 796.04 182.92C796.507 182.093 797.14 181.453 797.94 181C798.754 180.533 799.667 180.3 800.68 180.3C801.694 180.3 802.594 180.533 803.38 181C804.18 181.453 804.8 182.093 805.24 182.92C805.694 183.747 805.92 184.693 805.92 185.76ZM800.68 181.92C799.76 181.92 798.987 182.2 798.36 182.76C797.747 183.32 797.387 184.053 797.28 184.96H804.08C803.974 184.067 803.607 183.34 802.98 182.78C802.367 182.207 801.6 181.92 800.68 181.92ZM819.503 189.32V193.46H817.703V191H808.843V193.46H807.023V189.32H807.583C808.263 189.28 808.73 188.8 808.983 187.88C809.237 186.96 809.41 185.66 809.503 183.98L809.663 180.4H817.883V189.32H819.503ZM811.263 184.12C811.21 185.453 811.097 186.56 810.923 187.44C810.763 188.307 810.463 188.933 810.023 189.32H815.963V182.08H811.363L811.263 184.12ZM826.545 191.12C825.491 191.12 824.545 190.887 823.705 190.42C822.865 189.953 822.205 189.313 821.725 188.5C821.258 187.673 821.025 186.74 821.025 185.7C821.025 184.66 821.258 183.733 821.725 182.92C822.205 182.093 822.865 181.453 823.705 181C824.545 180.533 825.491 180.3 826.545 180.3C827.598 180.3 828.538 180.533 829.365 181C830.205 181.453 830.858 182.093 831.325 182.92C831.805 183.733 832.045 184.66 832.045 185.7C832.045 186.74 831.805 187.673 831.325 188.5C830.858 189.313 830.205 189.953 829.365 190.42C828.538 190.887 827.598 191.12 826.545 191.12ZM826.545 189.44C827.225 189.44 827.831 189.287 828.365 188.98C828.911 188.66 829.338 188.22 829.645 187.66C829.951 187.087 830.105 186.433 830.105 185.7C830.105 184.967 829.951 184.32 829.645 183.76C829.338 183.187 828.911 182.747 828.365 182.44C827.831 182.133 827.225 181.98 826.545 181.98C825.865 181.98 825.251 182.133 824.705 182.44C824.171 182.747 823.745 183.187 823.425 183.76C823.118 184.32 822.965 184.967 822.965 185.7C822.965 186.433 823.118 187.087 823.425 187.66C823.745 188.22 824.171 188.66 824.705 188.98C825.251 189.287 825.865 189.44 826.545 189.44ZM844.637 180.4V191H842.717V182.08H836.737V191H834.817V180.4H844.637ZM857.452 180.4V191H855.532V182.08H850.972L850.852 184.44C850.786 185.867 850.659 187.06 850.472 188.02C850.286 188.967 849.979 189.727 849.552 190.3C849.126 190.873 848.532 191.16 847.772 191.16C847.426 191.16 847.032 191.1 846.592 190.98L846.712 189.36C846.886 189.4 847.046 189.42 847.192 189.42C847.726 189.42 848.126 189.187 848.392 188.72C848.659 188.253 848.832 187.7 848.912 187.06C848.992 186.42 849.066 185.507 849.132 184.32L849.312 180.4H857.452ZM864.945 180.3C866.411 180.3 867.531 180.66 868.305 181.38C869.091 182.1 869.485 183.173 869.485 184.6V191H867.665V189.6C867.345 190.093 866.885 190.473 866.285 190.74C865.698 190.993 864.998 191.12 864.185 191.12C862.998 191.12 862.045 190.833 861.325 190.26C860.618 189.687 860.265 188.933 860.265 188C860.265 187.067 860.605 186.32 861.285 185.76C861.965 185.187 863.045 184.9 864.525 184.9H867.565V184.52C867.565 183.693 867.325 183.06 866.845 182.62C866.365 182.18 865.658 181.96 864.725 181.96C864.098 181.96 863.485 182.067 862.885 182.28C862.285 182.48 861.778 182.753 861.365 183.1L860.565 181.66C861.111 181.22 861.765 180.887 862.525 180.66C863.285 180.42 864.091 180.3 864.945 180.3ZM864.505 189.64C865.238 189.64 865.871 189.48 866.405 189.16C866.938 188.827 867.325 188.36 867.565 187.76V186.28H864.605C862.978 186.28 862.165 186.827 862.165 187.92C862.165 188.453 862.371 188.873 862.785 189.18C863.198 189.487 863.771 189.64 864.505 189.64ZM880.842 182.08H876.962V191H875.042V182.08H871.162V180.4H880.842V182.08ZM886.585 180.3C888.052 180.3 889.172 180.66 889.945 181.38C890.732 182.1 891.125 183.173 891.125 184.6V191H889.305V189.6C888.985 190.093 888.525 190.473 887.925 190.74C887.339 190.993 886.639 191.12 885.825 191.12C884.639 191.12 883.685 190.833 882.965 190.26C882.259 189.687 881.905 188.933 881.905 188C881.905 187.067 882.245 186.32 882.925 185.76C883.605 185.187 884.685 184.9 886.165 184.9H889.205V184.52C889.205 183.693 888.965 183.06 888.485 182.62C888.005 182.18 887.299 181.96 886.365 181.96C885.739 181.96 885.125 182.067 884.525 182.28C883.925 182.48 883.419 182.753 883.005 183.1L882.205 181.66C882.752 181.22 883.405 180.887 884.165 180.66C884.925 180.42 885.732 180.3 886.585 180.3ZM886.145 189.64C886.879 189.64 887.512 189.48 888.045 189.16C888.579 188.827 888.965 188.36 889.205 187.76V186.28H886.245C884.619 186.28 883.805 186.827 883.805 187.92C883.805 188.453 884.012 188.873 884.425 189.18C884.839 189.487 885.412 189.64 886.145 189.64ZM908.894 189.26V191H898.834V189.64L904.534 184.14C905.227 183.473 905.694 182.9 905.934 182.42C906.174 181.927 906.294 181.433 906.294 180.94C906.294 180.207 906.034 179.64 905.514 179.24C905.007 178.827 904.274 178.62 903.314 178.62C901.767 178.62 900.574 179.127 899.734 180.14L898.374 178.96C898.92 178.293 899.634 177.773 900.514 177.4C901.407 177.027 902.4 176.84 903.494 176.84C904.96 176.84 906.127 177.193 906.994 177.9C907.86 178.593 908.294 179.54 908.294 180.74C908.294 181.487 908.134 182.193 907.814 182.86C907.494 183.527 906.887 184.287 905.994 185.14L901.714 189.26H908.894ZM916.2 191.16C915.093 191.16 914.106 190.88 913.24 190.32C912.386 189.747 911.713 188.92 911.22 187.84C910.726 186.76 910.48 185.48 910.48 184C910.48 182.52 910.726 181.24 911.22 180.16C911.713 179.08 912.386 178.26 913.24 177.7C914.106 177.127 915.093 176.84 916.2 176.84C917.293 176.84 918.266 177.127 919.12 177.7C919.986 178.26 920.666 179.08 921.16 180.16C921.653 181.24 921.9 182.52 921.9 184C921.9 185.48 921.653 186.76 921.16 187.84C920.666 188.92 919.986 189.747 919.12 190.32C918.266 190.88 917.293 191.16 916.2 191.16ZM916.2 189.38C917.32 189.38 918.213 188.92 918.88 188C919.56 187.08 919.9 185.747 919.9 184C919.9 182.253 919.56 180.92 918.88 180C918.213 179.08 917.32 178.62 916.2 178.62C915.066 178.62 914.16 179.08 913.48 180C912.813 180.92 912.48 182.253 912.48 184C912.48 185.747 912.813 187.08 913.48 188C914.16 188.92 915.066 189.38 916.2 189.38ZM926.859 184.52C925.886 184.52 925.099 184.167 924.499 183.46C923.899 182.753 923.599 181.833 923.599 180.7C923.599 179.567 923.899 178.647 924.499 177.94C925.099 177.233 925.886 176.88 926.859 176.88C927.833 176.88 928.613 177.233 929.199 177.94C929.799 178.633 930.099 179.553 930.099 180.7C930.099 181.847 929.799 182.773 929.199 183.48C928.613 184.173 927.833 184.52 926.859 184.52ZM935.299 177H936.839L927.279 191H925.739L935.299 177ZM926.859 183.38C927.473 183.38 927.953 183.147 928.299 182.68C928.646 182.2 928.819 181.54 928.819 180.7C928.819 179.86 928.646 179.207 928.299 178.74C927.953 178.26 927.473 178.02 926.859 178.02C926.259 178.02 925.779 178.26 925.419 178.74C925.073 179.22 924.899 179.873 924.899 180.7C924.899 181.527 925.073 182.18 925.419 182.66C925.779 183.14 926.259 183.38 926.859 183.38ZM935.719 191.12C934.746 191.12 933.959 190.773 933.359 190.08C932.773 189.373 932.479 188.447 932.479 187.3C932.479 186.153 932.773 185.233 933.359 184.54C933.959 183.833 934.746 183.48 935.719 183.48C936.693 183.48 937.479 183.833 938.079 184.54C938.679 185.247 938.979 186.167 938.979 187.3C938.979 188.433 938.679 189.353 938.079 190.06C937.479 190.767 936.693 191.12 935.719 191.12ZM935.719 189.98C936.319 189.98 936.793 189.74 937.139 189.26C937.499 188.78 937.679 188.127 937.679 187.3C937.679 186.473 937.499 185.82 937.139 185.34C936.793 184.86 936.319 184.62 935.719 184.62C935.106 184.62 934.626 184.86 934.279 185.34C933.933 185.807 933.759 186.46 933.759 187.3C933.759 188.14 933.933 188.8 934.279 189.28C934.626 189.747 935.106 189.98 935.719 189.98ZM809.348 211.4H811.268V215.9H817.308V211.4H819.228V222H817.308V217.56H811.268V222H809.348V211.4ZM826.742 211.3C828.208 211.3 829.328 211.66 830.102 212.38C830.888 213.1 831.282 214.173 831.282 215.6V222H829.462V220.6C829.142 221.093 828.682 221.473 828.082 221.74C827.495 221.993 826.795 222.12 825.982 222.12C824.795 222.12 823.842 221.833 823.122 221.26C822.415 220.687 822.062 219.933 822.062 219C822.062 218.067 822.402 217.32 823.082 216.76C823.762 216.187 824.842 215.9 826.322 215.9H829.362V215.52C829.362 214.693 829.122 214.06 828.642 213.62C828.162 213.18 827.455 212.96 826.522 212.96C825.895 212.96 825.282 213.067 824.682 213.28C824.082 213.48 823.575 213.753 823.162 214.1L822.362 212.66C822.908 212.22 823.562 211.887 824.322 211.66C825.082 211.42 825.888 211.3 826.742 211.3ZM826.302 220.64C827.035 220.64 827.668 220.48 828.202 220.16C828.735 219.827 829.122 219.36 829.362 218.76V217.28H826.402C824.775 217.28 823.962 217.827 823.962 218.92C823.962 219.453 824.168 219.873 824.582 220.18C824.995 220.487 825.568 220.64 826.302 220.64ZM844.23 217.52H842.03V222H840.11V211.4H842.03V215.88H844.27L847.71 211.4H849.77L845.75 216.5L850.05 222H847.79L844.23 217.52ZM855.648 211.3C857.114 211.3 858.234 211.66 859.008 212.38C859.794 213.1 860.188 214.173 860.188 215.6V222H858.368V220.6C858.048 221.093 857.588 221.473 856.988 221.74C856.401 221.993 855.701 222.12 854.888 222.12C853.701 222.12 852.748 221.833 852.028 221.26C851.321 220.687 850.968 219.933 850.968 219C850.968 218.067 851.308 217.32 851.988 216.76C852.668 216.187 853.748 215.9 855.228 215.9H858.268V215.52C858.268 214.693 858.028 214.06 857.548 213.62C857.068 213.18 856.361 212.96 855.428 212.96C854.801 212.96 854.188 213.067 853.588 213.28C852.988 213.48 852.481 213.753 852.068 214.1L851.268 212.66C851.814 212.22 852.468 211.887 853.228 211.66C853.988 211.42 854.794 211.3 855.648 211.3ZM855.208 220.64C855.941 220.64 856.574 220.48 857.108 220.16C857.641 219.827 858.028 219.36 858.268 218.76V217.28H855.308C853.681 217.28 852.868 217.827 852.868 218.92C852.868 219.453 853.074 219.873 853.488 220.18C853.901 220.487 854.474 220.64 855.208 220.64ZM869.265 211.3C870.292 211.3 871.212 211.527 872.025 211.98C872.838 212.433 873.472 213.067 873.925 213.88C874.392 214.693 874.625 215.633 874.625 216.7C874.625 217.767 874.392 218.713 873.925 219.54C873.472 220.353 872.838 220.987 872.025 221.44C871.212 221.893 870.292 222.12 869.265 222.12C868.505 222.12 867.805 221.973 867.165 221.68C866.538 221.387 866.005 220.96 865.565 220.4V225.88H863.645V211.4H865.485V213.08C865.912 212.493 866.452 212.053 867.105 211.76C867.758 211.453 868.478 211.3 869.265 211.3ZM869.105 220.44C869.785 220.44 870.392 220.287 870.925 219.98C871.472 219.66 871.898 219.22 872.205 218.66C872.525 218.087 872.685 217.433 872.685 216.7C872.685 215.967 872.525 215.32 872.205 214.76C871.898 214.187 871.472 213.747 870.925 213.44C870.392 213.133 869.785 212.98 869.105 212.98C868.438 212.98 867.832 213.14 867.285 213.46C866.752 213.767 866.325 214.2 866.005 214.76C865.698 215.32 865.545 215.967 865.545 216.7C865.545 217.433 865.698 218.087 866.005 218.66C866.312 219.22 866.738 219.66 867.285 219.98C867.832 220.287 868.438 220.44 869.105 220.44ZM884.924 213.08H881.044V222H879.124V213.08H875.244V211.4H884.924V213.08ZM896.406 211.4L891.266 223.06C890.813 224.14 890.279 224.9 889.666 225.34C889.066 225.78 888.339 226 887.486 226C886.966 226 886.459 225.913 885.966 225.74C885.486 225.58 885.086 225.34 884.766 225.02L885.586 223.58C886.133 224.1 886.766 224.36 887.486 224.36C887.953 224.36 888.339 224.233 888.646 223.98C888.966 223.74 889.253 223.32 889.506 222.72L889.846 221.98L885.166 211.4H887.166L890.866 219.88L894.526 211.4H896.406Z" fill="#363636"/>
<circle cx="852" cy="73" r="72" stroke="#FE201D" stroke-width="2"/>
<g clip-path="url(#clip2_1_506)">
<path d="M828.715 54.0828L828.715 54.0841C827.503 54.1044 826.347 54.6053 825.489 55.4822L825.489 55.4822C824.614 56.3776 824.122 57.5917 824.122 58.8568V60.8824V60.9824L824.222 60.9824L878.748 60.9818L878.848 60.9818V60.8818V58.8567C878.848 57.5916 878.357 56.3775 877.481 55.4821L877.481 55.4821C876.605 54.5867 875.418 54.0833 874.178 54.0833L828.716 54.0828L828.715 54.0828ZM878.848 64.0761V63.9761H878.748H824.222H824.122V64.0761V68.8277V68.9277H824.222H878.748H878.848V68.8277V64.0761ZM874.178 91.9846L874.403 91.9846L874.398 91.9788C875.557 91.923 876.657 91.4276 877.481 90.5853L877.481 90.5853C878.356 89.6899 878.847 88.4759 878.847 87.2107V71.9433V71.8433H878.747H824.222H824.122V71.9433V87.2107C824.122 88.4758 824.613 89.6899 825.488 90.5853L825.488 90.5853C826.364 91.4807 827.552 91.9841 828.791 91.9841L874.178 91.9846ZM879.492 53.4187C880.902 54.8608 881.694 56.8167 881.694 58.8568V87.2105C881.694 89.2506 880.902 91.2064 879.492 92.6486C878.083 94.0901 876.171 94.9 874.178 94.9H828.791C826.799 94.9 824.887 94.0901 823.478 92.6486C822.068 91.2064 821.276 89.2506 821.276 87.2105V58.8568C821.276 56.8167 822.068 54.8608 823.478 53.4187C824.887 51.9772 826.799 51.1673 828.791 51.1673H874.178C876.171 51.1673 878.083 51.9771 879.492 53.4187Z" fill="#FE201D" stroke="white" stroke-width="0.2"/>
<path d="M870.372 80.5118H863.061C862.22 80.5118 861.538 81.2089 861.538 82.0695C861.538 82.9297 862.22 83.6273 863.061 83.6273H870.448C871.289 83.6273 871.971 82.9296 871.971 82.0695C871.971 81.2089 871.289 80.5118 870.448 80.5118H870.372Z" fill="#FE201D"/>
</g>
<path d="M1090.77 177V191H1088.79V185.46C1087.31 186.033 1085.94 186.32 1084.69 186.32C1082.98 186.32 1081.65 185.907 1080.71 185.08C1079.77 184.253 1079.31 183.073 1079.31 181.54V177H1081.27V181.32C1081.27 182.36 1081.58 183.16 1082.21 183.72C1082.85 184.28 1083.75 184.56 1084.91 184.56C1086.2 184.56 1087.49 184.267 1088.79 183.68V177H1090.77ZM1104.39 185.76C1104.39 185.907 1104.38 186.1 1104.35 186.34H1095.75C1095.87 187.273 1096.28 188.027 1096.97 188.6C1097.68 189.16 1098.55 189.44 1099.59 189.44C1100.86 189.44 1101.88 189.013 1102.65 188.16L1103.71 189.4C1103.23 189.96 1102.63 190.387 1101.91 190.68C1101.21 190.973 1100.41 191.12 1099.53 191.12C1098.41 191.12 1097.42 190.893 1096.55 190.44C1095.69 189.973 1095.01 189.327 1094.53 188.5C1094.07 187.673 1093.83 186.74 1093.83 185.7C1093.83 184.673 1094.06 183.747 1094.51 182.92C1094.98 182.093 1095.61 181.453 1096.41 181C1097.23 180.533 1098.14 180.3 1099.15 180.3C1100.17 180.3 1101.07 180.533 1101.85 181C1102.65 181.453 1103.27 182.093 1103.71 182.92C1104.17 183.747 1104.39 184.693 1104.39 185.76ZM1099.15 181.92C1098.23 181.92 1097.46 182.2 1096.83 182.76C1096.22 183.32 1095.86 184.053 1095.75 184.96H1102.55C1102.45 184.067 1102.08 183.34 1101.45 182.78C1100.84 182.207 1100.07 181.92 1099.15 181.92ZM1112.99 180.3C1114.02 180.3 1114.94 180.527 1115.75 180.98C1116.57 181.433 1117.2 182.067 1117.65 182.88C1118.12 183.693 1118.35 184.633 1118.35 185.7C1118.35 186.767 1118.12 187.713 1117.65 188.54C1117.2 189.353 1116.57 189.987 1115.75 190.44C1114.94 190.893 1114.02 191.12 1112.99 191.12C1112.23 191.12 1111.53 190.973 1110.89 190.68C1110.27 190.387 1109.73 189.96 1109.29 189.4V194.88H1107.37V180.4H1109.21V182.08C1109.64 181.493 1110.18 181.053 1110.83 180.76C1111.49 180.453 1112.21 180.3 1112.99 180.3ZM1112.83 189.44C1113.51 189.44 1114.12 189.287 1114.65 188.98C1115.2 188.66 1115.63 188.22 1115.93 187.66C1116.25 187.087 1116.41 186.433 1116.41 185.7C1116.41 184.967 1116.25 184.32 1115.93 183.76C1115.63 183.187 1115.2 182.747 1114.65 182.44C1114.12 182.133 1113.51 181.98 1112.83 181.98C1112.17 181.98 1111.56 182.14 1111.01 182.46C1110.48 182.767 1110.05 183.2 1109.73 183.76C1109.43 184.32 1109.27 184.967 1109.27 185.7C1109.27 186.433 1109.43 187.087 1109.73 187.66C1110.04 188.22 1110.47 188.66 1111.01 188.98C1111.56 189.287 1112.17 189.44 1112.83 189.44ZM1130.72 185.76C1130.72 185.907 1130.71 186.1 1130.68 186.34H1122.08C1122.2 187.273 1122.61 188.027 1123.3 188.6C1124.01 189.16 1124.88 189.44 1125.92 189.44C1127.19 189.44 1128.21 189.013 1128.98 188.16L1130.04 189.4C1129.56 189.96 1128.96 190.387 1128.24 190.68C1127.53 190.973 1126.74 191.12 1125.86 191.12C1124.74 191.12 1123.75 190.893 1122.88 190.44C1122.01 189.973 1121.34 189.327 1120.86 188.5C1120.39 187.673 1120.16 186.74 1120.16 185.7C1120.16 184.673 1120.39 183.747 1120.84 182.92C1121.31 182.093 1121.94 181.453 1122.74 181C1123.55 180.533 1124.47 180.3 1125.48 180.3C1126.49 180.3 1127.39 180.533 1128.18 181C1128.98 181.453 1129.6 182.093 1130.04 182.92C1130.49 183.747 1130.72 184.693 1130.72 185.76ZM1125.48 181.92C1124.56 181.92 1123.79 182.2 1123.16 182.76C1122.55 183.32 1122.19 184.053 1122.08 184.96H1128.88C1128.77 184.067 1128.41 183.34 1127.78 182.78C1127.17 182.207 1126.4 181.92 1125.48 181.92ZM1139.21 185.48C1139.91 185.667 1140.46 185.967 1140.85 186.38C1141.23 186.793 1141.43 187.307 1141.43 187.92C1141.43 188.547 1141.21 189.107 1140.79 189.6C1140.36 190.08 1139.77 190.46 1139.01 190.74C1138.26 191.007 1137.42 191.14 1136.49 191.14C1135.7 191.14 1134.93 191.04 1134.17 190.84C1133.42 190.627 1132.75 190.327 1132.17 189.94L1132.75 188.48C1133.25 188.8 1133.83 189.053 1134.49 189.24C1135.14 189.413 1135.8 189.5 1136.47 189.5C1137.37 189.5 1138.09 189.347 1138.63 189.04C1139.17 188.72 1139.45 188.293 1139.45 187.76C1139.45 187.267 1139.23 186.887 1138.79 186.62C1138.36 186.353 1137.75 186.22 1136.97 186.22H1135.03V184.84H1136.83C1137.55 184.84 1138.11 184.713 1138.53 184.46C1138.94 184.207 1139.15 183.86 1139.15 183.42C1139.15 182.94 1138.9 182.567 1138.41 182.3C1137.93 182.033 1137.27 181.9 1136.45 181.9C1135.39 181.9 1134.28 182.173 1133.11 182.72L1132.59 181.24C1133.88 180.587 1135.23 180.26 1136.65 180.26C1137.5 180.26 1138.27 180.38 1138.95 180.62C1139.63 180.86 1140.16 181.2 1140.55 181.64C1140.93 182.08 1141.13 182.58 1141.13 183.14C1141.13 183.66 1140.95 184.127 1140.61 184.54C1140.26 184.953 1139.79 185.267 1139.21 185.48ZM1154.18 182.88C1155.55 183.013 1156.6 183.44 1157.32 184.16C1158.04 184.867 1158.4 185.773 1158.4 186.88C1158.4 187.68 1158.2 188.407 1157.8 189.06C1157.4 189.7 1156.8 190.213 1156 190.6C1155.21 190.973 1154.24 191.16 1153.1 191.16C1152.1 191.16 1151.14 191.013 1150.22 190.72C1149.3 190.413 1148.54 189.993 1147.96 189.46L1148.88 187.88C1149.36 188.333 1149.97 188.7 1150.72 188.98C1151.46 189.247 1152.26 189.38 1153.1 189.38C1154.14 189.38 1154.94 189.16 1155.52 188.72C1156.1 188.28 1156.4 187.673 1156.4 186.9C1156.4 186.127 1156.11 185.527 1155.54 185.1C1154.96 184.673 1154.1 184.46 1152.94 184.46H1151.82V183.06L1155.34 178.74H1148.6V177H1157.84V178.36L1154.18 182.88ZM1160.44 184.68H1165.82V186.34H1160.44V184.68ZM1180.23 187.56H1177.57V191H1175.63V187.56H1167.85V186.16L1175.01 177H1177.17L1170.31 185.84H1175.69V182.8H1177.57V185.84H1180.23V187.56ZM1198.48 189.32V193.46H1196.68V191H1187.82V193.46H1186V189.32H1186.56C1187.24 189.28 1187.71 188.8 1187.96 187.88C1188.22 186.96 1188.39 185.66 1188.48 183.98L1188.64 180.4H1196.86V189.32H1198.48ZM1190.24 184.12C1190.19 185.453 1190.08 186.56 1189.9 187.44C1189.74 188.307 1189.44 188.933 1189 189.32H1194.94V182.08H1190.34L1190.24 184.12ZM1200.99 180.4H1202.91V184.9H1208.95V180.4H1210.87V191H1208.95V186.56H1202.91V191H1200.99V180.4ZM1223.1 180.4V191H1221.38V187.64H1218.3H1218.08L1215.76 191H1213.7L1216.28 187.38C1215.48 187.14 1214.86 186.747 1214.44 186.2C1214.01 185.64 1213.8 184.947 1213.8 184.12C1213.8 182.907 1214.21 181.987 1215.04 181.36C1215.86 180.72 1217 180.4 1218.46 180.4H1223.1ZM1215.76 184.18C1215.76 184.887 1215.98 185.413 1216.42 185.76C1216.87 186.093 1217.54 186.26 1218.44 186.26H1221.38V182.08H1218.52C1216.68 182.08 1215.76 182.78 1215.76 184.18ZM1239.44 185.5C1240.81 185.847 1241.5 186.707 1241.5 188.08C1241.5 189.013 1241.14 189.733 1240.44 190.24C1239.74 190.747 1238.7 191 1237.32 191H1232.22V180.4H1237.14C1238.39 180.4 1239.37 180.64 1240.08 181.12C1240.78 181.587 1241.14 182.253 1241.14 183.12C1241.14 183.68 1240.98 184.167 1240.68 184.58C1240.38 184.98 1239.97 185.287 1239.44 185.5ZM1234.1 184.96H1236.98C1237.71 184.96 1238.26 184.827 1238.64 184.56C1239.02 184.293 1239.22 183.907 1239.22 183.4C1239.22 182.387 1238.47 181.88 1236.98 181.88H1234.1V184.96ZM1237.18 189.52C1237.98 189.52 1238.58 189.393 1238.98 189.14C1239.38 188.887 1239.58 188.493 1239.58 187.96C1239.58 187.413 1239.39 187.007 1239.02 186.74C1238.66 186.473 1238.08 186.34 1237.3 186.34H1234.1V189.52H1237.18ZM1249.28 184C1250.61 184.013 1251.63 184.32 1252.34 184.92C1253.05 185.52 1253.4 186.367 1253.4 187.46C1253.4 188.607 1253.01 189.493 1252.24 190.12C1251.48 190.733 1250.39 191.033 1248.96 191.02L1244.5 191V180.4H1246.42V183.98L1249.28 184ZM1254.98 180.4H1256.9V191H1254.98V180.4ZM1248.82 189.56C1249.69 189.573 1250.34 189.4 1250.78 189.04C1251.23 188.68 1251.46 188.147 1251.46 187.44C1251.46 186.747 1251.24 186.24 1250.8 185.92C1250.36 185.6 1249.7 185.433 1248.82 185.42L1246.42 185.38V189.54L1248.82 189.56ZM1077.98 216.48C1078.68 216.667 1079.23 216.967 1079.62 217.38C1080 217.793 1080.2 218.307 1080.2 218.92C1080.2 219.547 1079.98 220.107 1079.56 220.6C1079.13 221.08 1078.54 221.46 1077.78 221.74C1077.03 222.007 1076.19 222.14 1075.26 222.14C1074.47 222.14 1073.7 222.04 1072.94 221.84C1072.19 221.627 1071.52 221.327 1070.94 220.94L1071.52 219.48C1072.02 219.8 1072.6 220.053 1073.26 220.24C1073.91 220.413 1074.57 220.5 1075.24 220.5C1076.14 220.5 1076.86 220.347 1077.4 220.04C1077.94 219.72 1078.22 219.293 1078.22 218.76C1078.22 218.267 1078 217.887 1077.56 217.62C1077.13 217.353 1076.52 217.22 1075.74 217.22H1073.8V215.84H1075.6C1076.32 215.84 1076.88 215.713 1077.3 215.46C1077.71 215.207 1077.92 214.86 1077.92 214.42C1077.92 213.94 1077.67 213.567 1077.18 213.3C1076.7 213.033 1076.04 212.9 1075.22 212.9C1074.16 212.9 1073.05 213.173 1071.88 213.72L1071.36 212.24C1072.65 211.587 1074 211.26 1075.42 211.26C1076.27 211.26 1077.04 211.38 1077.72 211.62C1078.4 211.86 1078.93 212.2 1079.32 212.64C1079.7 213.08 1079.9 213.58 1079.9 214.14C1079.9 214.66 1079.72 215.127 1079.38 215.54C1079.03 215.953 1078.56 216.267 1077.98 216.48ZM1086.89 211.3C1088.36 211.3 1089.48 211.66 1090.25 212.38C1091.04 213.1 1091.43 214.173 1091.43 215.6V222H1089.61V220.6C1089.29 221.093 1088.83 221.473 1088.23 221.74C1087.65 221.993 1086.95 222.12 1086.13 222.12C1084.95 222.12 1083.99 221.833 1083.27 221.26C1082.57 220.687 1082.21 219.933 1082.21 219C1082.21 218.067 1082.55 217.32 1083.23 216.76C1083.91 216.187 1084.99 215.9 1086.47 215.9H1089.51V215.52C1089.51 214.693 1089.27 214.06 1088.79 213.62C1088.31 213.18 1087.61 212.96 1086.67 212.96C1086.05 212.96 1085.43 213.067 1084.83 213.28C1084.23 213.48 1083.73 213.753 1083.31 214.1L1082.51 212.66C1083.06 212.22 1083.71 211.887 1084.47 211.66C1085.23 211.42 1086.04 211.3 1086.89 211.3ZM1086.45 220.64C1087.19 220.64 1087.82 220.48 1088.35 220.16C1088.89 219.827 1089.27 219.36 1089.51 218.76V217.28H1086.55C1084.93 217.28 1084.11 217.827 1084.11 218.92C1084.11 219.453 1084.32 219.873 1084.73 220.18C1085.15 220.487 1085.72 220.64 1086.45 220.64ZM1100.29 211.76C1101.28 211.76 1102.16 211.98 1102.93 212.42C1103.7 212.86 1104.3 213.473 1104.73 214.26C1105.17 215.033 1105.39 215.92 1105.39 216.92C1105.39 217.947 1105.16 218.86 1104.69 219.66C1104.24 220.447 1103.59 221.06 1102.75 221.5C1101.92 221.94 1100.98 222.16 1099.91 222.16C1098.11 222.16 1096.72 221.547 1095.73 220.32C1094.76 219.08 1094.27 217.34 1094.27 215.1C1094.27 212.927 1094.72 211.227 1095.61 210C1096.5 208.76 1097.87 207.94 1099.71 207.54L1104.55 206.46L1104.83 208.22L1100.37 209.18C1098.98 209.487 1097.95 210.007 1097.27 210.74C1096.59 211.473 1096.2 212.527 1096.11 213.9C1096.56 213.22 1097.15 212.693 1097.87 212.32C1098.59 211.947 1099.4 211.76 1100.29 211.76ZM1099.95 220.56C1100.63 220.56 1101.23 220.407 1101.75 220.1C1102.28 219.793 1102.7 219.373 1102.99 218.84C1103.28 218.293 1103.43 217.673 1103.43 216.98C1103.43 215.927 1103.11 215.08 1102.47 214.44C1101.83 213.8 1100.99 213.48 1099.95 213.48C1098.91 213.48 1098.06 213.8 1097.41 214.44C1096.77 215.08 1096.45 215.927 1096.45 216.98C1096.45 217.673 1096.6 218.293 1096.89 218.84C1097.2 219.373 1097.62 219.793 1098.15 220.1C1098.68 220.407 1099.28 220.56 1099.95 220.56ZM1108.13 211.4H1110.05V219.12L1116.55 211.4H1118.29V222H1116.37V214.28L1109.89 222H1108.13V211.4ZM1127.64 211.3C1128.67 211.3 1129.59 211.527 1130.4 211.98C1131.21 212.433 1131.85 213.067 1132.3 213.88C1132.77 214.693 1133 215.633 1133 216.7C1133 217.767 1132.77 218.713 1132.3 219.54C1131.85 220.353 1131.21 220.987 1130.4 221.44C1129.59 221.893 1128.67 222.12 1127.64 222.12C1126.88 222.12 1126.18 221.973 1125.54 221.68C1124.91 221.387 1124.38 220.96 1123.94 220.4V225.88H1122.02V211.4H1123.86V213.08C1124.29 212.493 1124.83 212.053 1125.48 211.76C1126.13 211.453 1126.85 211.3 1127.64 211.3ZM1127.48 220.44C1128.16 220.44 1128.77 220.287 1129.3 219.98C1129.85 219.66 1130.27 219.22 1130.58 218.66C1130.9 218.087 1131.06 217.433 1131.06 216.7C1131.06 215.967 1130.9 215.32 1130.58 214.76C1130.27 214.187 1129.85 213.747 1129.3 213.44C1128.77 213.133 1128.16 212.98 1127.48 212.98C1126.81 212.98 1126.21 213.14 1125.66 213.46C1125.13 213.767 1124.7 214.2 1124.38 214.76C1124.07 215.32 1123.92 215.967 1123.92 216.7C1123.92 217.433 1124.07 218.087 1124.38 218.66C1124.69 219.22 1125.11 219.66 1125.66 219.98C1126.21 220.287 1126.81 220.44 1127.48 220.44ZM1139.47 211.3C1140.94 211.3 1142.06 211.66 1142.83 212.38C1143.62 213.1 1144.01 214.173 1144.01 215.6V222H1142.19V220.6C1141.87 221.093 1141.41 221.473 1140.81 221.74C1140.23 221.993 1139.53 222.12 1138.71 222.12C1137.53 222.12 1136.57 221.833 1135.85 221.26C1135.15 220.687 1134.79 219.933 1134.79 219C1134.79 218.067 1135.13 217.32 1135.81 216.76C1136.49 216.187 1137.57 215.9 1139.05 215.9H1142.09V215.52C1142.09 214.693 1141.85 214.06 1141.37 213.62C1140.89 213.18 1140.19 212.96 1139.25 212.96C1138.63 212.96 1138.01 213.067 1137.41 213.28C1136.81 213.48 1136.31 213.753 1135.89 214.1L1135.09 212.66C1135.64 212.22 1136.29 211.887 1137.05 211.66C1137.81 211.42 1138.62 211.3 1139.47 211.3ZM1139.03 220.64C1139.77 220.64 1140.4 220.48 1140.93 220.16C1141.47 219.827 1141.85 219.36 1142.09 218.76V217.28H1139.13C1137.51 217.28 1136.69 217.827 1136.69 218.92C1136.69 219.453 1136.9 219.873 1137.31 220.18C1137.73 220.487 1138.3 220.64 1139.03 220.64ZM1157.05 216.76C1157.05 216.907 1157.04 217.1 1157.01 217.34H1148.41C1148.53 218.273 1148.94 219.027 1149.63 219.6C1150.34 220.16 1151.21 220.44 1152.25 220.44C1153.52 220.44 1154.54 220.013 1155.31 219.16L1156.37 220.4C1155.89 220.96 1155.29 221.387 1154.57 221.68C1153.86 221.973 1153.07 222.12 1152.19 222.12C1151.07 222.12 1150.08 221.893 1149.21 221.44C1148.34 220.973 1147.67 220.327 1147.19 219.5C1146.72 218.673 1146.49 217.74 1146.49 216.7C1146.49 215.673 1146.72 214.747 1147.17 213.92C1147.64 213.093 1148.27 212.453 1149.07 212C1149.88 211.533 1150.8 211.3 1151.81 211.3C1152.82 211.3 1153.72 211.533 1154.51 212C1155.31 212.453 1155.93 213.093 1156.37 213.92C1156.82 214.747 1157.05 215.693 1157.05 216.76ZM1151.81 212.92C1150.89 212.92 1150.12 213.2 1149.49 213.76C1148.88 214.32 1148.52 215.053 1148.41 215.96H1155.21C1155.1 215.067 1154.74 214.34 1154.11 213.78C1153.5 213.207 1152.73 212.92 1151.81 212.92ZM1167.48 213.08H1163.6V222H1161.68V213.08H1157.8V211.4H1167.48V213.08ZM1178.55 216.76C1178.55 216.907 1178.54 217.1 1178.51 217.34H1169.91C1170.03 218.273 1170.44 219.027 1171.13 219.6C1171.84 220.16 1172.71 220.44 1173.75 220.44C1175.02 220.44 1176.04 220.013 1176.81 219.16L1177.87 220.4C1177.39 220.96 1176.79 221.387 1176.07 221.68C1175.37 221.973 1174.57 222.12 1173.69 222.12C1172.57 222.12 1171.58 221.893 1170.71 221.44C1169.85 220.973 1169.17 220.327 1168.69 219.5C1168.23 218.673 1167.99 217.74 1167.99 216.7C1167.99 215.673 1168.22 214.747 1168.67 213.92C1169.14 213.093 1169.77 212.453 1170.57 212C1171.39 211.533 1172.3 211.3 1173.31 211.3C1174.33 211.3 1175.23 211.533 1176.01 212C1176.81 212.453 1177.43 213.093 1177.87 213.92C1178.33 214.747 1178.55 215.693 1178.55 216.76ZM1173.31 212.92C1172.39 212.92 1171.62 213.2 1170.99 213.76C1170.38 214.32 1170.02 215.053 1169.91 215.96H1176.71C1176.61 215.067 1176.24 214.34 1175.61 213.78C1175 213.207 1174.23 212.92 1173.31 212.92ZM1194.7 213.08H1188.82V222H1186.9V211.4H1194.7V213.08ZM1200.74 222.12C1199.69 222.12 1198.74 221.887 1197.9 221.42C1197.06 220.953 1196.4 220.313 1195.92 219.5C1195.45 218.673 1195.22 217.74 1195.22 216.7C1195.22 215.66 1195.45 214.733 1195.92 213.92C1196.4 213.093 1197.06 212.453 1197.9 212C1198.74 211.533 1199.69 211.3 1200.74 211.3C1201.79 211.3 1202.73 211.533 1203.56 212C1204.4 212.453 1205.05 213.093 1205.52 213.92C1206 214.733 1206.24 215.66 1206.24 216.7C1206.24 217.74 1206 218.673 1205.52 219.5C1205.05 220.313 1204.4 220.953 1203.56 221.42C1202.73 221.887 1201.79 222.12 1200.74 222.12ZM1200.74 220.44C1201.42 220.44 1202.03 220.287 1202.56 219.98C1203.11 219.66 1203.53 219.22 1203.84 218.66C1204.15 218.087 1204.3 217.433 1204.3 216.7C1204.3 215.967 1204.15 215.32 1203.84 214.76C1203.53 214.187 1203.11 213.747 1202.56 213.44C1202.03 213.133 1201.42 212.98 1200.74 212.98C1200.06 212.98 1199.45 213.133 1198.9 213.44C1198.37 213.747 1197.94 214.187 1197.62 214.76C1197.31 215.32 1197.16 215.967 1197.16 216.7C1197.16 217.433 1197.31 218.087 1197.62 218.66C1197.94 219.22 1198.37 219.66 1198.9 219.98C1199.45 220.287 1200.06 220.44 1200.74 220.44ZM1216.52 213.08H1212.64V222H1210.72V213.08H1206.84V211.4H1216.52V213.08ZM1222.56 222.12C1221.5 222.12 1220.56 221.887 1219.72 221.42C1218.88 220.953 1218.22 220.313 1217.74 219.5C1217.27 218.673 1217.04 217.74 1217.04 216.7C1217.04 215.66 1217.27 214.733 1217.74 213.92C1218.22 213.093 1218.88 212.453 1219.72 212C1220.56 211.533 1221.5 211.3 1222.56 211.3C1223.61 211.3 1224.55 211.533 1225.38 212C1226.22 212.453 1226.87 213.093 1227.34 213.92C1227.82 214.733 1228.06 215.66 1228.06 216.7C1228.06 217.74 1227.82 218.673 1227.34 219.5C1226.87 220.313 1226.22 220.953 1225.38 221.42C1224.55 221.887 1223.61 222.12 1222.56 222.12ZM1222.56 220.44C1223.24 220.44 1223.84 220.287 1224.38 219.98C1224.92 219.66 1225.35 219.22 1225.66 218.66C1225.96 218.087 1226.12 217.433 1226.12 216.7C1226.12 215.967 1225.96 215.32 1225.66 214.76C1225.35 214.187 1224.92 213.747 1224.38 213.44C1223.84 213.133 1223.24 212.98 1222.56 212.98C1221.88 212.98 1221.26 213.133 1220.72 213.44C1220.18 213.747 1219.76 214.187 1219.44 214.76C1219.13 215.32 1218.98 215.967 1218.98 216.7C1218.98 217.433 1219.13 218.087 1219.44 218.66C1219.76 219.22 1220.18 219.66 1220.72 219.98C1221.26 220.287 1221.88 220.44 1222.56 220.44ZM1238.05 216.5C1239.42 216.847 1240.11 217.707 1240.11 219.08C1240.11 220.013 1239.76 220.733 1239.05 221.24C1238.36 221.747 1237.32 222 1235.93 222H1230.83V211.4H1235.75C1237 211.4 1237.98 211.64 1238.69 212.12C1239.4 212.587 1239.75 213.253 1239.75 214.12C1239.75 214.68 1239.6 215.167 1239.29 215.58C1239 215.98 1238.58 216.287 1238.05 216.5ZM1232.71 215.96H1235.59C1236.32 215.96 1236.88 215.827 1237.25 215.56C1237.64 215.293 1237.83 214.907 1237.83 214.4C1237.83 213.387 1237.08 212.88 1235.59 212.88H1232.71V215.96ZM1235.79 220.52C1236.59 220.52 1237.19 220.393 1237.59 220.14C1237.99 219.887 1238.19 219.493 1238.19 218.96C1238.19 218.413 1238 218.007 1237.63 217.74C1237.27 217.473 1236.7 217.34 1235.91 217.34H1232.71V220.52H1235.79ZM1247.65 222.12C1246.6 222.12 1245.65 221.887 1244.81 221.42C1243.97 220.953 1243.31 220.313 1242.83 219.5C1242.37 218.673 1242.13 217.74 1242.13 216.7C1242.13 215.66 1242.37 214.733 1242.83 213.92C1243.31 213.093 1243.97 212.453 1244.81 212C1245.65 211.533 1246.6 211.3 1247.65 211.3C1248.71 211.3 1249.65 211.533 1250.47 212C1251.31 212.453 1251.97 213.093 1252.43 213.92C1252.91 214.733 1253.15 215.66 1253.15 216.7C1253.15 217.74 1252.91 218.673 1252.43 219.5C1251.97 220.313 1251.31 220.953 1250.47 221.42C1249.65 221.887 1248.71 222.12 1247.65 222.12ZM1247.65 220.44C1248.33 220.44 1248.94 220.287 1249.47 219.98C1250.02 219.66 1250.45 219.22 1250.75 218.66C1251.06 218.087 1251.21 217.433 1251.21 216.7C1251.21 215.967 1251.06 215.32 1250.75 214.76C1250.45 214.187 1250.02 213.747 1249.47 213.44C1248.94 213.133 1248.33 212.98 1247.65 212.98C1246.97 212.98 1246.36 213.133 1245.81 213.44C1245.28 213.747 1244.85 214.187 1244.53 214.76C1244.23 215.32 1244.07 215.967 1244.07 216.7C1244.07 217.433 1244.23 218.087 1244.53 218.66C1244.85 219.22 1245.28 219.66 1245.81 219.98C1246.36 220.287 1246.97 220.44 1247.65 220.44ZM1265.51 216.76C1265.51 216.907 1265.49 217.1 1265.47 217.34H1256.87C1256.99 218.273 1257.39 219.027 1258.09 219.6C1258.79 220.16 1259.67 220.44 1260.71 220.44C1261.97 220.44 1262.99 220.013 1263.77 219.16L1264.83 220.4C1264.35 220.96 1263.75 221.387 1263.03 221.68C1262.32 221.973 1261.53 222.12 1260.65 222.12C1259.53 222.12 1258.53 221.893 1257.67 221.44C1256.8 220.973 1256.13 220.327 1255.65 219.5C1255.18 218.673 1254.95 217.74 1254.95 216.7C1254.95 215.673 1255.17 214.747 1255.63 213.92C1256.09 213.093 1256.73 212.453 1257.53 212C1258.34 211.533 1259.25 211.3 1260.27 211.3C1261.28 211.3 1262.18 211.533 1262.97 212C1263.77 212.453 1264.39 213.093 1264.83 213.92C1265.28 214.747 1265.51 215.693 1265.51 216.76ZM1260.27 212.92C1259.35 212.92 1258.57 213.2 1257.95 213.76C1257.33 214.32 1256.97 215.053 1256.87 215.96H1263.67C1263.56 215.067 1263.19 214.34 1262.57 213.78C1261.95 213.207 1261.19 212.92 1260.27 212.92ZM1125.6 241.4H1127.52V249.12L1134.02 241.4H1135.76V252H1133.84V244.28L1127.36 252H1125.6V241.4ZM1145.06 246.48C1145.76 246.667 1146.31 246.967 1146.7 247.38C1147.08 247.793 1147.28 248.307 1147.28 248.92C1147.28 249.547 1147.06 250.107 1146.64 250.6C1146.21 251.08 1145.62 251.46 1144.86 251.74C1144.11 252.007 1143.27 252.14 1142.34 252.14C1141.55 252.14 1140.78 252.04 1140.02 251.84C1139.27 251.627 1138.6 251.327 1138.02 250.94L1138.6 249.48C1139.1 249.8 1139.68 250.053 1140.34 250.24C1140.99 250.413 1141.65 250.5 1142.32 250.5C1143.22 250.5 1143.94 250.347 1144.48 250.04C1145.02 249.72 1145.3 249.293 1145.3 248.76C1145.3 248.267 1145.08 247.887 1144.64 247.62C1144.21 247.353 1143.6 247.22 1142.82 247.22H1140.88V245.84H1142.68C1143.4 245.84 1143.96 245.713 1144.38 245.46C1144.79 245.207 1145 244.86 1145 244.42C1145 243.94 1144.75 243.567 1144.26 243.3C1143.78 243.033 1143.12 242.9 1142.3 242.9C1141.24 242.9 1140.13 243.173 1138.96 243.72L1138.44 242.24C1139.73 241.587 1141.08 241.26 1142.5 241.26C1143.35 241.26 1144.12 241.38 1144.8 241.62C1145.48 241.86 1146.01 242.2 1146.4 242.64C1146.78 243.08 1146.98 243.58 1146.98 244.14C1146.98 244.66 1146.8 245.127 1146.46 245.54C1146.11 245.953 1145.64 246.267 1145.06 246.48ZM1160.97 250.32V254.46H1159.17V252H1150.31V254.46H1148.49V250.32H1149.05C1149.73 250.28 1150.2 249.8 1150.45 248.88C1150.71 247.96 1150.88 246.66 1150.97 244.98L1151.13 241.4H1159.35V250.32H1160.97ZM1152.73 245.12C1152.68 246.453 1152.57 247.56 1152.39 248.44C1152.23 249.307 1151.93 249.933 1151.49 250.32H1157.43V243.08H1152.83L1152.73 245.12ZM1173.06 246.76C1173.06 246.907 1173.04 247.1 1173.02 247.34H1164.42C1164.54 248.273 1164.94 249.027 1165.64 249.6C1166.34 250.16 1167.22 250.44 1168.26 250.44C1169.52 250.44 1170.54 250.013 1171.32 249.16L1172.38 250.4C1171.9 250.96 1171.3 251.387 1170.58 251.68C1169.87 251.973 1169.08 252.12 1168.2 252.12C1167.08 252.12 1166.08 251.893 1165.22 251.44C1164.35 250.973 1163.68 250.327 1163.2 249.5C1162.73 248.673 1162.5 247.74 1162.5 246.7C1162.5 245.673 1162.72 244.747 1163.18 243.92C1163.64 243.093 1164.28 242.453 1165.08 242C1165.89 241.533 1166.8 241.3 1167.82 241.3C1168.83 241.3 1169.73 241.533 1170.52 242C1171.32 242.453 1171.94 243.093 1172.38 243.92C1172.83 244.747 1173.06 245.693 1173.06 246.76ZM1167.82 242.92C1166.9 242.92 1166.12 243.2 1165.5 243.76C1164.88 244.32 1164.52 245.053 1164.42 245.96H1171.22C1171.11 245.067 1170.74 244.34 1170.12 243.78C1169.5 243.207 1168.74 242.92 1167.82 242.92ZM1184.96 241.4V252H1183.04V243.08H1178.48L1178.36 245.44C1178.29 246.867 1178.16 248.06 1177.98 249.02C1177.79 249.967 1177.48 250.727 1177.06 251.3C1176.63 251.873 1176.04 252.16 1175.28 252.16C1174.93 252.16 1174.54 252.1 1174.1 251.98L1174.22 250.36C1174.39 250.4 1174.55 250.42 1174.7 250.42C1175.23 250.42 1175.63 250.187 1175.9 249.72C1176.16 249.253 1176.34 248.7 1176.42 248.06C1176.5 247.42 1176.57 246.507 1176.64 245.32L1176.82 241.4H1184.96ZM1188.67 241.4H1190.59V249.12L1197.09 241.4H1198.83V252H1196.91V244.28L1190.43 252H1188.67V241.4ZM1212.14 246.76C1212.14 246.907 1212.12 247.1 1212.1 247.34H1203.5C1203.62 248.273 1204.02 249.027 1204.72 249.6C1205.42 250.16 1206.3 250.44 1207.34 250.44C1208.6 250.44 1209.62 250.013 1210.4 249.16L1211.46 250.4C1210.98 250.96 1210.38 251.387 1209.66 251.68C1208.95 251.973 1208.16 252.12 1207.28 252.12C1206.16 252.12 1205.16 251.893 1204.3 251.44C1203.43 250.973 1202.76 250.327 1202.28 249.5C1201.81 248.673 1201.58 247.74 1201.58 246.7C1201.58 245.673 1201.8 244.747 1202.26 243.92C1202.72 243.093 1203.36 242.453 1204.16 242C1204.97 241.533 1205.88 241.3 1206.9 241.3C1207.91 241.3 1208.81 241.533 1209.6 242C1210.4 242.453 1211.02 243.093 1211.46 243.92C1211.91 244.747 1212.14 245.693 1212.14 246.76ZM1206.9 242.92C1205.98 242.92 1205.2 243.2 1204.58 243.76C1203.96 244.32 1203.6 245.053 1203.5 245.96H1210.3C1210.19 245.067 1209.82 244.34 1209.2 243.78C1208.58 243.207 1207.82 242.92 1206.9 242.92Z" fill="#363636"/>
<circle cx="1168" cy="73" r="72" stroke="#FE201D" stroke-width="2"/>
<g clip-path="url(#clip3_1_506)">
<path d="M1177.02 81.6606C1183.08 72.1429 1182.32 73.3303 1182.49 73.0821C1184.7 69.9674 1185.87 66.3015 1185.87 62.4805C1185.87 52.3474 1177.65 44 1167.5 44C1157.39 44 1149.13 52.3309 1149.13 62.4805C1149.13 66.299 1150.32 70.0609 1152.6 73.2176L1157.98 81.6607C1152.23 82.5448 1142.45 85.1794 1142.45 90.9805C1142.45 93.0951 1143.83 96.1088 1150.41 98.4572C1155 100.097 1161.07 101 1167.5 101C1179.53 101 1192.55 97.6076 1192.55 90.9805C1192.55 85.1784 1182.78 82.5466 1177.02 81.6606ZM1155.39 71.3806C1155.37 71.3519 1155.36 71.3238 1155.34 71.2962C1153.44 68.6853 1152.47 65.5911 1152.47 62.4805C1152.47 54.1289 1159.2 47.3398 1167.5 47.3398C1175.79 47.3398 1182.53 54.1319 1182.53 62.4805C1182.53 65.5961 1181.58 68.5854 1179.79 71.1274C1179.62 71.3396 1180.46 70.0358 1167.5 90.3781L1155.39 71.3806ZM1167.5 97.6602C1154.36 97.6602 1145.79 93.799 1145.79 90.9805C1145.79 89.0861 1150.2 85.9713 1159.96 84.7571L1166.09 94.3829C1166.4 94.864 1166.93 95.1553 1167.5 95.1553C1168.07 95.1553 1168.6 94.8639 1168.91 94.3829L1175.04 84.7571C1184.8 85.9713 1189.21 89.0861 1189.21 90.9805C1189.21 93.775 1180.71 97.6602 1167.5 97.6602Z" fill="#FE201D" stroke="white"/>
<path d="M1167.5 54.1309C1162.9 54.1309 1159.15 57.8765 1159.15 62.4805C1159.15 67.0844 1162.9 70.8301 1167.5 70.8301C1172.1 70.8301 1175.85 67.0844 1175.85 62.4805C1175.85 57.8765 1172.1 54.1309 1167.5 54.1309ZM1167.5 67.4902C1164.74 67.4902 1162.49 65.2429 1162.49 62.4805C1162.49 59.7181 1164.74 57.4707 1167.5 57.4707C1170.26 57.4707 1172.51 59.7181 1172.51 62.4805C1172.51 65.2429 1170.26 67.4902 1167.5 67.4902Z" fill="#FE201D" stroke="white"/>
</g>
<line x1="186" y1="73" x2="425" y2="73" stroke="#FE201D" stroke-width="2"/>
<line x1="571" y1="73" x2="779" y2="73" stroke="#FE201D" stroke-width="2"/>
<line x1="925" y1="73" x2="1095" y2="73" stroke="#FE201D" stroke-width="2"/>
<defs>
<clipPath id="clip0_1_506">
<rect width="45" height="50" fill="white" transform="translate(90 48)"/>
</clipPath>
<clipPath id="clip1_1_506">
<rect width="49" height="49" fill="white" transform="translate(474 48)"/>
</clipPath>
<clipPath id="clip2_1_506">
<rect width="61" height="44" fill="white" transform="translate(821 51)"/>
</clipPath>
<clipPath id="clip3_1_506">
<rect width="57" height="57" fill="white" transform="translate(1139 44)"/>
</clipPath>
</defs>
</svg>
