<svg width="21" height="22" viewBox="0 0 21 22" fill="none" xmlns="http://www.w3.org/2000/svg">
<path d="M0.730313 3.78512H0.730305C0.197787 4.31766 -0.0191319 5.13569 0.00131477 6.10299C0.0217908 7.07169 0.28028 8.20239 0.713296 9.3768C1.57929 11.7256 3.14941 14.2655 4.94399 16.0601C6.73842 17.8545 9.27833 19.4246 11.6271 20.2906C12.8015 20.7237 13.9322 20.9823 14.9009 21.0027C15.8681 21.0233 16.686 20.8065 17.2185 20.274L19.508 17.9843C20.2259 17.2666 20.1654 16.1304 19.3798 15.4878L15.6681 12.4507C14.9288 11.8459 13.809 11.8992 13.1337 12.5747L11.6872 14.0212C11.6131 14.0951 11.492 14.1472 11.3547 14.1618C11.218 14.1764 11.0749 14.1528 10.9606 14.0872L10.9607 14.087L10.956 14.0847C10.9344 14.0741 10.8799 14.0454 10.7957 13.9974C10.6496 13.914 10.4826 13.8105 10.2984 13.6865C9.76635 13.3274 9.2129 12.8785 8.66922 12.3349C8.12545 11.7911 7.67706 11.2384 7.31886 10.7072C7.19497 10.5236 7.09183 10.3571 7.00858 10.2113C6.96116 10.1282 6.93212 10.0732 6.89295 9.9987L6.89305 9.99862L6.89078 9.99481C6.83862 9.90778 6.81922 9.77931 6.83691 9.64686C6.85458 9.51465 6.90738 9.39245 6.98301 9.31685L8.42949 7.87029V7.87029C9.10499 7.19462 9.15874 6.07559 8.55321 5.33558L5.5165 1.62379C4.87441 0.838871 3.73711 0.77835 3.02002 1.49547C3.02002 1.49547 3.02002 1.49547 3.02002 1.49547L0.730313 3.78512ZM14.7548 13.5664L14.7045 13.6279L18.4163 16.665C18.4665 16.706 18.4861 16.7488 18.4882 16.7853C18.4903 16.8215 18.4758 16.8647 18.4321 16.9086L16.1425 19.1982C15.9977 19.3431 15.7831 19.4406 15.5041 19.4897C15.2253 19.5388 14.8874 19.5384 14.5031 19.4922C13.7345 19.3998 12.7921 19.1255 11.7897 18.7134C9.78485 17.8892 7.55565 16.5207 6.01939 14.9844C4.48305 13.448 3.11462 11.2188 2.29048 9.21395C1.87843 8.21153 1.60407 7.26911 1.51169 6.50047C1.46549 6.11614 1.46518 5.77821 1.51423 5.49934C1.56331 5.22024 1.66084 5.00566 1.80571 4.86076L4.09543 2.57112L4.03928 2.51497L4.09543 2.57111C4.13867 2.52787 4.18195 2.51339 4.21868 2.51552C4.25559 2.51766 4.29847 2.53733 4.33904 2.58691L7.37588 6.29885C7.43003 6.36497 7.45671 6.45755 7.45234 6.55224C7.4479 6.64699 7.41272 6.73563 7.35372 6.7947L5.90728 8.24124C5.26889 8.87965 5.11835 9.96352 5.56851 10.7474C5.65819 10.9257 5.81935 11.2049 6.05744 11.5577C6.46835 12.1669 6.97802 12.7949 7.59321 13.4103C8.20843 14.0255 8.83724 14.5358 9.44754 14.9474C9.80383 15.1876 10.085 15.3499 10.2636 15.4393C11.047 15.8789 12.1263 15.7326 12.7624 15.0966L12.7062 15.0405L12.7624 15.0966L14.2088 13.65H14.2089C14.2676 13.5912 14.3562 13.5561 14.4511 13.5517C14.546 13.5473 14.6386 13.574 14.7044 13.6279L14.7548 13.5664Z" fill="#363636"/>
</svg>
