<svg width="233" height="230" viewBox="0 0 233 230" fill="none" xmlns="http://www.w3.org/2000/svg">
<path d="M42.8395 183.74C43.7861 183.967 44.4995 184.373 44.9795 184.96C45.4728 185.533 45.7195 186.273 45.7195 187.18C45.7195 188.393 45.2728 189.333 44.3795 190C43.4995 190.667 42.2128 191 40.5195 191H34.1195V177H40.1395C41.6728 177 42.8661 177.313 43.7195 177.94C44.5861 178.553 45.0195 179.44 45.0195 180.6C45.0195 181.36 44.8261 182.007 44.4395 182.54C44.0661 183.073 43.5328 183.473 42.8395 183.74ZM36.0995 183.16H39.9995C40.9728 183.16 41.7128 182.967 42.2195 182.58C42.7395 182.193 42.9995 181.627 42.9995 180.88C42.9995 180.133 42.7395 179.567 42.2195 179.18C41.6995 178.78 40.9595 178.58 39.9995 178.58H36.0995V183.16ZM40.4795 189.42C42.6261 189.42 43.6995 188.62 43.6995 187.02C43.6995 186.22 43.4261 185.633 42.8795 185.26C42.3461 184.873 41.5461 184.68 40.4795 184.68H36.0995V189.42H40.4795ZM53.5209 184C54.8542 184.013 55.8742 184.32 56.5809 184.92C57.2875 185.52 57.6409 186.367 57.6409 187.46C57.6409 188.607 57.2542 189.493 56.4809 190.12C55.7209 190.733 54.6275 191.033 53.2009 191.02L48.7409 191V180.4H50.6609V183.98L53.5209 184ZM59.2209 180.4H61.1409V191H59.2209V180.4ZM53.0609 189.56C53.9275 189.573 54.5809 189.4 55.0209 189.04C55.4742 188.68 55.7009 188.147 55.7009 187.44C55.7009 186.747 55.4809 186.24 55.0409 185.92C54.6009 185.6 53.9409 185.433 53.0609 185.42L50.6609 185.38V189.54L53.0609 189.56ZM74.7848 191.12C73.7314 191.12 72.7848 190.887 71.9448 190.42C71.1048 189.953 70.4448 189.313 69.9648 188.5C69.4981 187.673 69.2648 186.74 69.2648 185.7C69.2648 184.66 69.4981 183.733 69.9648 182.92C70.4448 182.093 71.1048 181.453 71.9448 181C72.7848 180.533 73.7314 180.3 74.7848 180.3C75.8381 180.3 76.7781 180.533 77.6048 181C78.4448 181.453 79.0981 182.093 79.5648 182.92C80.0448 183.733 80.2848 184.66 80.2848 185.7C80.2848 186.74 80.0448 187.673 79.5648 188.5C79.0981 189.313 78.4448 189.953 77.6048 190.42C76.7781 190.887 75.8381 191.12 74.7848 191.12ZM74.7848 189.44C75.4648 189.44 76.0714 189.287 76.6048 188.98C77.1514 188.66 77.5781 188.22 77.8848 187.66C78.1914 187.087 78.3448 186.433 78.3448 185.7C78.3448 184.967 78.1914 184.32 77.8848 183.76C77.5781 183.187 77.1514 182.747 76.6048 182.44C76.0714 182.133 75.4648 181.98 74.7848 181.98C74.1048 181.98 73.4914 182.133 72.9448 182.44C72.4114 182.747 71.9848 183.187 71.6648 183.76C71.3581 184.32 71.2048 184.967 71.2048 185.7C71.2048 186.433 71.3581 187.087 71.6648 187.66C71.9848 188.22 72.4114 188.66 72.9448 188.98C73.4914 189.287 74.1048 189.44 74.7848 189.44ZM90.5666 182.08H86.6866V191H84.7666V182.08H80.8866V180.4H90.5666V182.08ZM102.35 180.4V191H100.43V182.08H94.4499V191H92.5299V180.4H102.35ZM111.685 180.3C112.712 180.3 113.632 180.527 114.445 180.98C115.258 181.433 115.892 182.067 116.345 182.88C116.812 183.693 117.045 184.633 117.045 185.7C117.045 186.767 116.812 187.713 116.345 188.54C115.892 189.353 115.258 189.987 114.445 190.44C113.632 190.893 112.712 191.12 111.685 191.12C110.925 191.12 110.225 190.973 109.585 190.68C108.958 190.387 108.425 189.96 107.985 189.4V194.88H106.065V180.4H107.905V182.08C108.332 181.493 108.872 181.053 109.525 180.76C110.178 180.453 110.898 180.3 111.685 180.3ZM111.525 189.44C112.205 189.44 112.812 189.287 113.345 188.98C113.892 188.66 114.318 188.22 114.625 187.66C114.945 187.087 115.105 186.433 115.105 185.7C115.105 184.967 114.945 184.32 114.625 183.76C114.318 183.187 113.892 182.747 113.345 182.44C112.812 182.133 112.205 181.98 111.525 181.98C110.858 181.98 110.252 182.14 109.705 182.46C109.172 182.767 108.745 183.2 108.425 183.76C108.118 184.32 107.965 184.967 107.965 185.7C107.965 186.433 108.118 187.087 108.425 187.66C108.732 188.22 109.158 188.66 109.705 188.98C110.252 189.287 110.858 189.44 111.525 189.44ZM123.517 180.3C124.984 180.3 126.104 180.66 126.877 181.38C127.664 182.1 128.057 183.173 128.057 184.6V191H126.237V189.6C125.917 190.093 125.457 190.473 124.857 190.74C124.27 190.993 123.57 191.12 122.757 191.12C121.57 191.12 120.617 190.833 119.897 190.26C119.19 189.687 118.837 188.933 118.837 188C118.837 187.067 119.177 186.32 119.857 185.76C120.537 185.187 121.617 184.9 123.097 184.9H126.137V184.52C126.137 183.693 125.897 183.06 125.417 182.62C124.937 182.18 124.23 181.96 123.297 181.96C122.67 181.96 122.057 182.067 121.457 182.28C120.857 182.48 120.35 182.753 119.937 183.1L119.137 181.66C119.684 181.22 120.337 180.887 121.097 180.66C121.857 180.42 122.664 180.3 123.517 180.3ZM123.077 189.64C123.81 189.64 124.444 189.48 124.977 189.16C125.51 188.827 125.897 188.36 126.137 187.76V186.28H123.177C121.55 186.28 120.737 186.827 120.737 187.92C120.737 188.453 120.944 188.873 121.357 189.18C121.77 189.487 122.344 189.64 123.077 189.64ZM138.734 185.5C140.108 185.847 140.794 186.707 140.794 188.08C140.794 189.013 140.441 189.733 139.734 190.24C139.041 190.747 138.001 191 136.614 191H131.514V180.4H136.434C137.688 180.4 138.668 180.64 139.374 181.12C140.081 181.587 140.434 182.253 140.434 183.12C140.434 183.68 140.281 184.167 139.974 184.58C139.681 184.98 139.268 185.287 138.734 185.5ZM133.394 184.96H136.274C137.008 184.96 137.561 184.827 137.934 184.56C138.321 184.293 138.514 183.907 138.514 183.4C138.514 182.387 137.768 181.88 136.274 181.88H133.394V184.96ZM136.474 189.52C137.274 189.52 137.874 189.393 138.274 189.14C138.674 188.887 138.874 188.493 138.874 187.96C138.874 187.413 138.688 187.007 138.314 186.74C137.954 186.473 137.381 186.34 136.594 186.34H133.394V189.52H136.474ZM152.899 180.4V191H150.979V182.08H146.419L146.299 184.44C146.233 185.867 146.106 187.06 145.919 188.02C145.733 188.967 145.426 189.727 144.999 190.3C144.573 190.873 143.979 191.16 143.219 191.16C142.873 191.16 142.479 191.1 142.039 190.98L142.159 189.36C142.333 189.4 142.493 189.42 142.639 189.42C143.173 189.42 143.573 189.187 143.839 188.72C144.106 188.253 144.279 187.7 144.359 187.06C144.439 186.42 144.513 185.507 144.579 184.32L144.759 180.4H152.899ZM165.112 180.4V191H163.392V187.64H160.312H160.092L157.772 191H155.712L158.292 187.38C157.492 187.14 156.879 186.747 156.452 186.2C156.025 185.64 155.812 184.947 155.812 184.12C155.812 182.907 156.225 181.987 157.052 181.36C157.879 180.72 159.019 180.4 160.472 180.4H165.112ZM157.772 184.18C157.772 184.887 157.992 185.413 158.432 185.76C158.885 186.093 159.559 186.26 160.452 186.26H163.392V182.08H160.532C158.692 182.08 157.772 182.78 157.772 184.18ZM178.438 185.76C178.438 185.907 178.425 186.1 178.398 186.34H169.798C169.918 187.273 170.325 188.027 171.018 188.6C171.725 189.16 172.598 189.44 173.638 189.44C174.905 189.44 175.925 189.013 176.698 188.16L177.758 189.4C177.278 189.96 176.678 190.387 175.958 190.68C175.251 190.973 174.458 191.12 173.578 191.12C172.458 191.12 171.465 190.893 170.598 190.44C169.731 189.973 169.058 189.327 168.578 188.5C168.111 187.673 167.878 186.74 167.878 185.7C167.878 184.673 168.105 183.747 168.558 182.92C169.025 182.093 169.658 181.453 170.458 181C171.271 180.533 172.185 180.3 173.198 180.3C174.211 180.3 175.111 180.533 175.898 181C176.698 181.453 177.318 182.093 177.758 182.92C178.211 183.747 178.438 184.693 178.438 185.76ZM173.198 181.92C172.278 181.92 171.505 182.2 170.878 182.76C170.265 183.32 169.905 184.053 169.798 184.96H176.598C176.491 184.067 176.125 183.34 175.498 182.78C174.885 182.207 174.118 181.92 173.198 181.92ZM188.867 182.08H184.987V191H183.067V182.08H179.187V180.4H188.867V182.08ZM199.942 185.76C199.942 185.907 199.929 186.1 199.902 186.34H191.302C191.422 187.273 191.829 188.027 192.522 188.6C193.229 189.16 194.102 189.44 195.142 189.44C196.409 189.44 197.429 189.013 198.202 188.16L199.262 189.4C198.782 189.96 198.182 190.387 197.462 190.68C196.755 190.973 195.962 191.12 195.082 191.12C193.962 191.12 192.969 190.893 192.102 190.44C191.235 189.973 190.562 189.327 190.082 188.5C189.615 187.673 189.382 186.74 189.382 185.7C189.382 184.673 189.609 183.747 190.062 182.92C190.529 182.093 191.162 181.453 191.962 181C192.775 180.533 193.689 180.3 194.702 180.3C195.715 180.3 196.615 180.533 197.402 181C198.202 181.453 198.822 182.093 199.262 182.92C199.715 183.747 199.942 184.693 199.942 185.76ZM194.702 181.92C193.782 181.92 193.009 182.2 192.382 182.76C191.769 183.32 191.409 184.053 191.302 184.96H198.102C197.995 184.067 197.629 183.34 197.002 182.78C196.389 182.207 195.622 181.92 194.702 181.92ZM14.1835 211.4V222H12.4435V214.26L8.48352 220.8H7.64352L3.72352 214.24V222H1.96352V211.4H3.94352L8.10352 218.56L12.3835 211.4H14.1835ZM21.7005 211.3C23.1672 211.3 24.2872 211.66 25.0605 212.38C25.8472 213.1 26.2405 214.173 26.2405 215.6V222H24.4205V220.6C24.1005 221.093 23.6405 221.473 23.0405 221.74C22.4539 221.993 21.7539 222.12 20.9405 222.12C19.7539 222.12 18.8005 221.833 18.0805 221.26C17.3739 220.687 17.0205 219.933 17.0205 219C17.0205 218.067 17.3605 217.32 18.0405 216.76C18.7205 216.187 19.8005 215.9 21.2805 215.9H24.3205V215.52C24.3205 214.693 24.0805 214.06 23.6005 213.62C23.1205 213.18 22.4139 212.96 21.4805 212.96C20.8539 212.96 20.2405 213.067 19.6405 213.28C19.0405 213.48 18.5339 213.753 18.1205 214.1L17.3205 212.66C17.8672 212.22 18.5205 211.887 19.2805 211.66C20.0405 211.42 20.8472 211.3 21.7005 211.3ZM21.2605 220.64C21.9939 220.64 22.6272 220.48 23.1605 220.16C23.6939 219.827 24.0805 219.36 24.3205 218.76V217.28H21.3605C19.7339 217.28 18.9205 217.827 18.9205 218.92C18.9205 219.453 19.1272 219.873 19.5405 220.18C19.9539 220.487 20.5272 220.64 21.2605 220.64ZM33.8179 217.52H31.6179V222H29.6979V211.4H31.6179V215.88H33.8579L37.2979 211.4H39.3579L35.3379 216.5L39.6379 222H37.3779L33.8179 217.52ZM50.8795 216.76C50.8795 216.907 50.8661 217.1 50.8395 217.34H42.2395C42.3595 218.273 42.7661 219.027 43.4595 219.6C44.1661 220.16 45.0395 220.44 46.0795 220.44C47.3461 220.44 48.3661 220.013 49.1395 219.16L50.1995 220.4C49.7195 220.96 49.1195 221.387 48.3995 221.68C47.6928 221.973 46.8995 222.12 46.0195 222.12C44.8995 222.12 43.9061 221.893 43.0395 221.44C42.1728 220.973 41.4995 220.327 41.0195 219.5C40.5528 218.673 40.3195 217.74 40.3195 216.7C40.3195 215.673 40.5461 214.747 40.9995 213.92C41.4661 213.093 42.0995 212.453 42.8995 212C43.7128 211.533 44.6261 211.3 45.6395 211.3C46.6528 211.3 47.5528 211.533 48.3395 212C49.1395 212.453 49.7595 213.093 50.1995 213.92C50.6528 214.747 50.8795 215.693 50.8795 216.76ZM45.6395 212.92C44.7195 212.92 43.9461 213.2 43.3195 213.76C42.7061 214.32 42.3461 215.053 42.2395 215.96H49.0395C48.9328 215.067 48.5661 214.34 47.9395 213.78C47.3261 213.207 46.5595 212.92 45.6395 212.92ZM61.3088 213.08H57.4288V222H55.5088V213.08H51.6288V211.4H61.3088V213.08ZM75.8632 216.5C77.2365 216.847 77.9232 217.707 77.9232 219.08C77.9232 220.013 77.5699 220.733 76.8632 221.24C76.1699 221.747 75.1299 222 73.7432 222H68.6432V211.4H73.5632C74.8165 211.4 75.7965 211.64 76.5032 212.12C77.2099 212.587 77.5632 213.253 77.5632 214.12C77.5632 214.68 77.4099 215.167 77.1032 215.58C76.8099 215.98 76.3965 216.287 75.8632 216.5ZM70.5232 215.96H73.4032C74.1365 215.96 74.6899 215.827 75.0632 215.56C75.4499 215.293 75.6432 214.907 75.6432 214.4C75.6432 213.387 74.8965 212.88 73.4032 212.88H70.5232V215.96ZM73.6032 220.52C74.4032 220.52 75.0032 220.393 75.4032 220.14C75.8032 219.887 76.0032 219.493 76.0032 218.96C76.0032 218.413 75.8165 218.007 75.4432 217.74C75.0832 217.473 74.5099 217.34 73.7232 217.34H70.5232V220.52H73.6032ZM99.6795 216.68C99.6795 218.32 99.1328 219.613 98.0395 220.56C96.9461 221.507 95.4061 222.033 93.4195 222.14V225.88H91.5395V222.14C89.5528 222.033 88.0128 221.513 86.9195 220.58C85.8395 219.633 85.2995 218.333 85.2995 216.68C85.2995 215.04 85.8395 213.76 86.9195 212.84C87.9995 211.92 89.5395 211.407 91.5395 211.3V207.16H93.4195V211.3C95.4061 211.407 96.9461 211.927 98.0395 212.86C99.1328 213.78 99.6795 215.053 99.6795 216.68ZM87.1995 216.68C87.1995 217.813 87.5595 218.7 88.2795 219.34C89.0128 219.98 90.0995 220.347 91.5395 220.44V213C90.0861 213.093 88.9995 213.453 88.2795 214.08C87.5595 214.707 87.1995 215.573 87.1995 216.68ZM93.4195 220.46C96.3261 220.233 97.7795 218.973 97.7795 216.68C97.7795 215.56 97.4128 214.693 96.6795 214.08C95.9461 213.453 94.8595 213.093 93.4195 213V220.46ZM106.933 222.12C105.88 222.12 104.933 221.887 104.093 221.42C103.253 220.953 102.593 220.313 102.113 219.5C101.647 218.673 101.413 217.74 101.413 216.7C101.413 215.66 101.647 214.733 102.113 213.92C102.593 213.093 103.253 212.453 104.093 212C104.933 211.533 105.88 211.3 106.933 211.3C107.987 211.3 108.927 211.533 109.753 212C110.593 212.453 111.247 213.093 111.713 213.92C112.193 214.733 112.433 215.66 112.433 216.7C112.433 217.74 112.193 218.673 111.713 219.5C111.247 220.313 110.593 220.953 109.753 221.42C108.927 221.887 107.987 222.12 106.933 222.12ZM106.933 220.44C107.613 220.44 108.22 220.287 108.753 219.98C109.3 219.66 109.727 219.22 110.033 218.66C110.34 218.087 110.493 217.433 110.493 216.7C110.493 215.967 110.34 215.32 110.033 214.76C109.727 214.187 109.3 213.747 108.753 213.44C108.22 213.133 107.613 212.98 106.933 212.98C106.253 212.98 105.64 213.133 105.093 213.44C104.56 213.747 104.133 214.187 103.813 214.76C103.507 215.32 103.353 215.967 103.353 216.7C103.353 217.433 103.507 218.087 103.813 218.66C104.133 219.22 104.56 219.66 105.093 219.98C105.64 220.287 106.253 220.44 106.933 220.44ZM120.826 211.3C121.852 211.3 122.772 211.527 123.586 211.98C124.399 212.433 125.032 213.067 125.486 213.88C125.952 214.693 126.186 215.633 126.186 216.7C126.186 217.767 125.952 218.713 125.486 219.54C125.032 220.353 124.399 220.987 123.586 221.44C122.772 221.893 121.852 222.12 120.826 222.12C120.066 222.12 119.366 221.973 118.726 221.68C118.099 221.387 117.566 220.96 117.126 220.4V225.88H115.206V211.4H117.046V213.08C117.472 212.493 118.012 212.053 118.666 211.76C119.319 211.453 120.039 211.3 120.826 211.3ZM120.666 220.44C121.346 220.44 121.952 220.287 122.486 219.98C123.032 219.66 123.459 219.22 123.766 218.66C124.086 218.087 124.246 217.433 124.246 216.7C124.246 215.967 124.086 215.32 123.766 214.76C123.459 214.187 123.032 213.747 122.486 213.44C121.952 213.133 121.346 212.98 120.666 212.98C119.999 212.98 119.392 213.14 118.846 213.46C118.312 213.767 117.886 214.2 117.566 214.76C117.259 215.32 117.106 215.967 117.106 216.7C117.106 217.433 117.259 218.087 117.566 218.66C117.872 219.22 118.299 219.66 118.846 219.98C119.392 220.287 119.999 220.44 120.666 220.44ZM141.195 211.4V222H139.455V214.26L135.495 220.8H134.655L130.735 214.24V222H128.975V211.4H130.955L135.115 218.56L139.395 211.4H141.195ZM148.712 211.3C150.179 211.3 151.299 211.66 152.072 212.38C152.859 213.1 153.252 214.173 153.252 215.6V222H151.432V220.6C151.112 221.093 150.652 221.473 150.052 221.74C149.466 221.993 148.766 222.12 147.952 222.12C146.766 222.12 145.812 221.833 145.092 221.26C144.386 220.687 144.032 219.933 144.032 219C144.032 218.067 144.372 217.32 145.052 216.76C145.732 216.187 146.812 215.9 148.292 215.9H151.332V215.52C151.332 214.693 151.092 214.06 150.612 213.62C150.132 213.18 149.426 212.96 148.492 212.96C147.866 212.96 147.252 213.067 146.652 213.28C146.052 213.48 145.546 213.753 145.132 214.1L144.332 212.66C144.879 212.22 145.532 211.887 146.292 211.66C147.052 211.42 147.859 211.3 148.712 211.3ZM148.272 220.64C149.006 220.64 149.639 220.48 150.172 220.16C150.706 219.827 151.092 219.36 151.332 218.76V217.28H148.372C146.746 217.28 145.932 217.827 145.932 218.92C145.932 219.453 146.139 219.873 146.552 220.18C146.966 220.487 147.539 220.64 148.272 220.64ZM164.61 213.08H160.73V222H158.81V213.08H154.93V211.4H164.61V213.08ZM175.684 216.76C175.684 216.907 175.671 217.1 175.644 217.34H167.044C167.164 218.273 167.571 219.027 168.264 219.6C168.971 220.16 169.844 220.44 170.884 220.44C172.151 220.44 173.171 220.013 173.944 219.16L175.004 220.4C174.524 220.96 173.924 221.387 173.204 221.68C172.497 221.973 171.704 222.12 170.824 222.12C169.704 222.12 168.711 221.893 167.844 221.44C166.977 220.973 166.304 220.327 165.824 219.5C165.357 218.673 165.124 217.74 165.124 216.7C165.124 215.673 165.351 214.747 165.804 213.92C166.271 213.093 166.904 212.453 167.704 212C168.517 211.533 169.431 211.3 170.444 211.3C171.457 211.3 172.357 211.533 173.144 212C173.944 212.453 174.564 213.093 175.004 213.92C175.457 214.747 175.684 215.693 175.684 216.76ZM170.444 212.92C169.524 212.92 168.751 213.2 168.124 213.76C167.511 214.32 167.151 215.053 167.044 215.96H173.844C173.737 215.067 173.371 214.34 172.744 213.78C172.131 213.207 171.364 212.92 170.444 212.92ZM197.414 216.68C197.414 218.32 196.867 219.613 195.774 220.56C194.68 221.507 193.14 222.033 191.154 222.14V225.88H189.274V222.14C187.287 222.033 185.747 221.513 184.654 220.58C183.574 219.633 183.034 218.333 183.034 216.68C183.034 215.04 183.574 213.76 184.654 212.84C185.734 211.92 187.274 211.407 189.274 211.3V207.16H191.154V211.3C193.14 211.407 194.68 211.927 195.774 212.86C196.867 213.78 197.414 215.053 197.414 216.68ZM184.934 216.68C184.934 217.813 185.294 218.7 186.014 219.34C186.747 219.98 187.834 220.347 189.274 220.44V213C187.82 213.093 186.734 213.453 186.014 214.08C185.294 214.707 184.934 215.573 184.934 216.68ZM191.154 220.46C194.06 220.233 195.514 218.973 195.514 216.68C195.514 215.56 195.147 214.693 194.414 214.08C193.68 213.453 192.594 213.093 191.154 213V220.46ZM204.668 222.12C203.614 222.12 202.668 221.887 201.828 221.42C200.988 220.953 200.328 220.313 199.848 219.5C199.381 218.673 199.148 217.74 199.148 216.7C199.148 215.66 199.381 214.733 199.848 213.92C200.328 213.093 200.988 212.453 201.828 212C202.668 211.533 203.614 211.3 204.668 211.3C205.721 211.3 206.661 211.533 207.488 212C208.328 212.453 208.981 213.093 209.448 213.92C209.928 214.733 210.168 215.66 210.168 216.7C210.168 217.74 209.928 218.673 209.448 219.5C208.981 220.313 208.328 220.953 207.488 221.42C206.661 221.887 205.721 222.12 204.668 222.12ZM204.668 220.44C205.348 220.44 205.954 220.287 206.488 219.98C207.034 219.66 207.461 219.22 207.768 218.66C208.074 218.087 208.228 217.433 208.228 216.7C208.228 215.967 208.074 215.32 207.768 214.76C207.461 214.187 207.034 213.747 206.488 213.44C205.954 213.133 205.348 212.98 204.668 212.98C203.988 212.98 203.374 213.133 202.828 213.44C202.294 213.747 201.868 214.187 201.548 214.76C201.241 215.32 201.088 215.967 201.088 216.7C201.088 217.433 201.241 218.087 201.548 218.66C201.868 219.22 202.294 219.66 202.828 219.98C203.374 220.287 203.988 220.44 204.668 220.44ZM220.449 213.08H216.569V222H214.649V213.08H210.769V211.4H220.449V213.08ZM226.484 222.12C225.431 222.12 224.484 221.887 223.644 221.42C222.804 220.953 222.144 220.313 221.664 219.5C221.197 218.673 220.964 217.74 220.964 216.7C220.964 215.66 221.197 214.733 221.664 213.92C222.144 213.093 222.804 212.453 223.644 212C224.484 211.533 225.431 211.3 226.484 211.3C227.537 211.3 228.477 211.533 229.304 212C230.144 212.453 230.797 213.093 231.264 213.92C231.744 214.733 231.984 215.66 231.984 216.7C231.984 217.74 231.744 218.673 231.264 219.5C230.797 220.313 230.144 220.953 229.304 221.42C228.477 221.887 227.537 222.12 226.484 222.12ZM226.484 220.44C227.164 220.44 227.771 220.287 228.304 219.98C228.851 219.66 229.277 219.22 229.584 218.66C229.891 218.087 230.044 217.433 230.044 216.7C230.044 215.967 229.891 215.32 229.584 214.76C229.277 214.187 228.851 213.747 228.304 213.44C227.771 213.133 227.164 212.98 226.484 212.98C225.804 212.98 225.191 213.133 224.644 213.44C224.111 213.747 223.684 214.187 223.364 214.76C223.057 215.32 222.904 215.967 222.904 216.7C222.904 217.433 223.057 218.087 223.364 218.66C223.684 219.22 224.111 219.66 224.644 219.98C225.191 220.287 225.804 220.44 226.484 220.44Z" fill="#363636"/>
<circle cx="113" cy="73" r="72" stroke="#FE201D" stroke-width="2"/>
<g clip-path="url(#clip0_1_507)">
<path d="M90.3658 69.6663V93.7667C90.3658 96.0153 92.1708 97.8419 94.462 97.8419H130.843C133.065 97.8419 134.939 96.0152 134.939 93.7667L134.939 69.6663C134.939 67.4176 133.134 65.591 130.843 65.591H121.123C120.568 65.591 120.082 66.0831 120.082 66.6448C120.082 67.2069 120.568 67.6985 121.123 67.6985H130.843C131.954 67.6985 132.857 68.6121 132.857 69.6659V93.7663C132.857 94.8906 131.954 95.7336 130.843 95.7336L94.4625 95.7346C93.3515 95.7346 92.4493 94.821 92.4493 93.7672L92.4488 69.6669C92.4488 68.5425 93.3515 67.6995 94.462 67.6995H102.793C103.349 67.6995 103.835 67.2074 103.835 66.6457C103.835 66.0836 103.348 65.592 102.793 65.592H94.462C92.1712 65.5915 90.3658 67.4187 90.3658 69.6669V69.6663Z" fill="#FE201D"/>
<path d="M112.305 84.4919C112.861 84.4919 113.347 83.9998 113.347 83.4381L113.347 51.1872L121.887 57.7921C122.095 57.9327 122.303 58.0028 122.512 58.0028C122.859 58.0028 123.136 57.8622 123.345 57.5813C123.692 57.0892 123.622 56.457 123.136 56.1055L112.93 48.2361C112.861 48.1661 112.791 48.0955 112.653 48.0955H112.583C112.514 48.0955 112.375 48.0254 112.306 48.0254C112.237 48.0254 112.098 48.0254 112.028 48.0955H111.959C111.89 48.0955 111.751 48.1656 111.682 48.2361L101.475 56.106C100.988 56.4574 100.919 57.0897 101.266 57.5818C101.614 58.0739 102.238 58.144 102.725 57.7926L111.264 51.1872V83.4381C111.264 84.0709 111.75 84.4924 112.305 84.4924L112.305 84.4919Z" fill="#FE201D"/>
</g>
<defs>
<clipPath id="clip0_1_507">
<rect width="45" height="50" fill="white" transform="translate(90 48)"/>
</clipPath>
</defs>
</svg>
