<svg width="146" height="146" viewBox="0 0 146 146" fill="none" xmlns="http://www.w3.org/2000/svg">
<circle cx="73" cy="73" r="72" stroke="#FE201D" stroke-width="2"/>
<path d="M82.002 73.8747L89.7661 65.9795C90.5737 66.2122 91.4114 66.3184 92.2503 66.2952C94.4978 66.2127 96.6311 65.2656 98.218 63.6448C99.4063 62.463 100.234 60.957 100.6 59.3079C100.966 57.6589 100.855 55.9375 100.281 54.3513C100.174 53.9712 99.8792 53.6761 99.5044 53.5729C99.1355 53.4913 98.7508 53.6061 98.4839 53.8775L93.6145 58.8175L91.0188 58.3553L90.5974 55.5245L95.3341 50.7079C95.604 50.4365 95.7183 50.0433 95.6376 49.6661C95.5564 49.2885 95.2915 48.9798 94.9345 48.8469C93.9536 48.4748 92.9089 48.3061 91.8621 48.3509C89.6997 48.4204 87.6369 49.2905 86.0612 50.7985C84.9714 51.8846 84.1827 53.2436 83.7736 54.7384C83.3646 56.2334 83.3502 57.8114 83.732 59.3139L75.7684 67.4795L65.786 57.3286L63.8341 52.738C65.8574 51.4405 68.1232 50.584 70.4891 50.2229C70.9293 50.165 71.2937 49.8458 71.4145 49.4113C71.5349 48.9762 71.3893 48.5105 71.0437 48.2265C65.7197 43.8841 59.0093 47.0196 56.2038 49.2869L56.1038 49.366L50.7021 54.7008C50.4352 54.9722 50.3223 55.3634 50.4026 55.7385L50.7576 57.4192L49.5375 56.889C49.1216 56.7073 48.6383 56.8009 48.3174 57.1257L44.3908 61.1186C44.1808 61.3301 44.063 61.6186 44.063 61.9192C44.063 62.2198 44.1808 62.5083 44.3908 62.7198L52.2326 70.6939C52.441 70.9074 52.7243 71.0278 53.0204 71.0278C53.316 71.0278 53.5992 70.9074 53.8077 70.6939L57.8229 66.6109C58.1928 66.2539 58.275 65.6859 58.0225 65.2353L57.2352 63.8929L58.5994 64.3778L68.7036 74.6526L51.4236 92.192C51.2211 92.408 51.1062 92.694 51.1017 92.9926C51.1002 93.2922 51.2161 93.5807 51.4236 93.7932L56.1376 98.5757C56.346 98.7891 56.6292 98.9095 56.9248 98.9095C57.221 98.9095 57.5042 98.7891 57.7126 98.5757L74.9483 81.0375L93.0167 99.4109C93.2252 99.6244 93.5084 99.7443 93.804 99.7443C94.1001 99.7443 94.3834 99.6244 94.5918 99.4109L100.138 93.7715C100.348 93.5596 100.465 93.271 100.465 92.9705C100.465 92.6699 100.348 92.3813 100.138 92.1699L82.002 73.8747ZM85.7508 60.4755C86.0375 60.1784 86.1395 59.7444 86.0172 59.3476C85.6067 58.1649 85.5359 56.8874 85.8127 55.6655C86.09 54.4429 86.703 53.3262 87.5809 52.445C88.7574 51.3076 90.3062 50.653 91.9289 50.6066H92.2948L88.6237 54.3286C88.3741 54.5829 88.2588 54.9434 88.3128 55.2984L88.9451 59.4942C89.0193 59.9726 89.3853 60.3492 89.8547 60.4303L93.803 61.1407C94.1581 61.2067 94.522 61.0934 94.7795 60.8366L98.6169 56.9564C98.7016 58.8396 97.991 60.6699 96.665 61.9865C95.4856 63.196 93.9015 63.9089 92.2284 63.9829C91.4411 64.0111 90.6563 63.8767 89.921 63.5882C89.509 63.4195 89.0376 63.5172 88.7232 63.8364L80.4599 72.2501L77.3211 69.0583L85.7508 60.4755ZM53.7184 62.3702L55.6372 65.63L53.0198 68.3031L46.7418 61.9191L49.3596 59.2121L51.8661 60.34C52.2473 60.5052 52.687 60.4407 53.0069 60.1729C53.3268 59.9045 53.4729 59.4775 53.3857 59.0656L52.6979 55.8286L57.5005 50.956C57.9996 50.5723 62.6581 47.1323 67.1502 48.6101C65.1394 49.1711 63.2681 50.159 61.6599 51.5089C61.2841 51.8276 61.1578 52.3593 61.3494 52.8169L63.4236 57.6779L58.987 62.1894L54.9717 60.7569V60.7574C54.533 60.6029 54.0463 60.7423 53.7517 61.1069C53.4877 61.4815 53.4748 61.982 53.7184 62.3702ZM56.9241 96.2065L53.7738 93.0485L70.2223 76.2541L73.3502 79.4348L56.9241 96.2065ZM93.8038 97.0414L75.7683 78.6576L71.0321 73.8751L60.8725 63.5551L64.7992 59.5622L97.7303 93.0492L93.8038 97.0414Z" fill="#FE201D"/>
</svg>
