<svg width="28" height="27" viewBox="0 0 28 27" fill="none" xmlns="http://www.w3.org/2000/svg">
<path d="M18.3823 13.9542L21.9395 10.2779C22.3095 10.3862 22.6934 10.4357 23.0777 10.4249C24.1074 10.3864 25.0848 9.94542 25.8119 9.19073C26.3563 8.64046 26.7354 7.93918 26.9031 7.17133C27.0707 6.40349 27.0201 5.60191 26.757 4.86335C26.708 4.68634 26.573 4.54894 26.4013 4.50088C26.2322 4.4629 26.056 4.51635 25.9337 4.64273L23.7027 6.94296L22.5135 6.72774L22.3204 5.40962L24.4906 3.16682C24.6142 3.04045 24.6666 2.85734 24.6296 2.68173C24.5924 2.50589 24.4711 2.36217 24.3075 2.30027C23.8581 2.12701 23.3794 2.04846 22.8998 2.06933C21.9091 2.10168 20.964 2.50683 20.2421 3.209C19.7428 3.71473 19.3814 4.34754 19.194 5.0436C19.0066 5.73972 19 6.4745 19.1749 7.1741L15.5263 10.9763L10.9527 6.24966L10.0584 4.11214C10.9854 3.50797 12.0235 3.10913 13.1075 2.94101C13.3092 2.91405 13.4761 2.7654 13.5315 2.56306C13.5866 2.36049 13.5199 2.14362 13.3616 2.01139C10.9223 -0.0105919 7.84785 1.4494 6.56248 2.50516L6.51666 2.54197L4.04181 5.02605C3.91953 5.15242 3.86781 5.33459 3.90456 5.50926L4.06722 6.29188L3.50823 6.04499C3.31767 5.96035 3.09624 6.00396 2.94924 6.15518L1.15018 8.01445C1.05399 8.11292 1 8.24726 1 8.38723C1 8.5272 1.05399 8.66154 1.15018 8.76002L4.74301 12.4731C4.83852 12.5725 4.96828 12.6285 5.10395 12.6285C5.23938 12.6285 5.36915 12.5725 5.46466 12.4731L7.30431 10.5719C7.47378 10.4056 7.51144 10.1412 7.39574 9.93132L7.03502 9.30626L7.66005 9.53204L12.2894 14.3164L4.37236 22.4834C4.27957 22.584 4.22694 22.7171 4.2249 22.8562C4.22422 22.9957 4.2773 23.13 4.37236 23.229L6.53213 25.4559C6.62764 25.5553 6.75741 25.6113 6.89284 25.6113C7.02851 25.6113 7.15828 25.5553 7.25378 25.4559L15.1505 17.2894L23.4289 25.8448C23.5244 25.9442 23.6541 26 23.7896 26C23.9252 26 24.055 25.9442 24.1505 25.8448L26.6914 23.2189C26.7876 23.1202 26.8416 22.9858 26.8416 22.8459C26.8416 22.7059 26.7876 22.5716 26.6914 22.4731L18.3823 13.9542ZM20.0999 7.71499C20.2312 7.57666 20.278 7.37456 20.2219 7.18981C20.0339 6.63907 20.0014 6.04425 20.1282 5.47525C20.2553 4.90599 20.5361 4.38599 20.9383 3.97569C21.4774 3.44606 22.187 3.14128 22.9305 3.11967H23.0981L21.4161 4.85278C21.3018 4.97118 21.2489 5.13904 21.2737 5.30434L21.5634 7.25807C21.5974 7.4808 21.7651 7.65618 21.9801 7.69393L23.7891 8.02474C23.9518 8.05546 24.1185 8.0027 24.2365 7.88313L25.9946 6.07638C26.0334 6.95323 25.7079 7.80552 25.1004 8.41858C24.56 8.98174 23.8342 9.31373 23.0677 9.34818C22.707 9.36131 22.3474 9.29871 22.0105 9.16436C21.8217 9.08582 21.6058 9.13131 21.4617 9.27995L17.6758 13.1977L16.2377 11.7115L20.0999 7.71499ZM5.42377 8.59723L6.30288 10.1151L5.10371 11.3598L2.22732 8.38716L3.42673 7.12672L4.57509 7.65191C4.74977 7.7288 4.95123 7.6988 5.09778 7.57407C5.24434 7.4491 5.31126 7.25028 5.27134 7.0585L4.95622 5.5512L7.15659 3.28235C7.38527 3.10369 9.51963 1.50189 11.5777 2.19003C10.6564 2.45122 9.7991 2.91124 9.06228 3.53978C8.89009 3.68819 8.83224 3.93578 8.92003 4.14887L9.87035 6.41231L7.83765 8.51304L5.998 7.84603V7.84627C5.797 7.77429 5.57399 7.83923 5.439 8.00898C5.31809 8.18341 5.31215 8.41647 5.42377 8.59723ZM6.89248 24.3527L5.44915 22.8822L12.9852 15.0621L14.4184 16.5432L6.89248 24.3527ZM23.7895 24.7414L15.5262 16.1813L13.3563 13.9544L8.70153 9.14898L10.5006 7.28972L25.5884 22.8825L23.7895 24.7414Z" fill="#FE201D" stroke="#FE201D" stroke-width="0.3"/>
</svg>
