<svg width="24" height="18" viewBox="0 0 24 18" fill="none" xmlns="http://www.w3.org/2000/svg">
<path d="M3.09528 1C1.9436 1 1 1.96076 1 3.13337V14.8666C1 16.0392 1.9436 17 3.09528 17H20.9047C22.0564 17 23 16.0392 23 14.8666V3.13337C23 1.96076 22.0564 1 20.9047 1H3.09528ZM3.09528 2.06656H20.9047C21.0032 2.06656 21.0933 2.08368 21.183 2.10823L12.7202 10.7996C12.3082 11.2235 11.6747 11.2235 11.2635 10.7996L2.82501 2.09966C2.91179 2.07697 3.00021 2.06636 3.09502 2.06636L3.09528 2.06656ZM2.08868 2.86661L8.32526 9.29181L2.09663 15.1751C2.06831 15.0767 2.04748 14.9761 2.04748 14.8667V3.13343C2.04748 3.0395 2.06721 2.953 2.08841 2.86669L2.08868 2.86661ZM21.9115 2.86661C21.9327 2.95273 21.9524 3.03923 21.9524 3.13335V14.8666C21.9524 14.9758 21.9318 15.0766 21.9033 15.175L15.6747 9.28315L21.9115 2.86661ZM14.9304 10.0418L21.1342 15.8999C21.0597 15.9164 20.9851 15.9332 20.9051 15.9332H3.09568C3.01548 15.9332 2.94094 15.9164 2.86659 15.8999L9.06248 10.0499L10.5192 11.5499C11.328 12.3834 12.6565 12.3823 13.4656 11.5499L14.9306 10.0415L14.9304 10.0418Z" fill="#363636" stroke="#363636" stroke-width="0.3"/>
</svg>
