<svg width="20" height="20" viewBox="0 0 20 20" fill="none" xmlns="http://www.w3.org/2000/svg">
<path d="M1.65696 3.51063H1.65695C1.17792 3.98968 0.98279 4.72554 1.00118 5.59569C1.0196 6.46708 1.25213 7.48421 1.64165 8.54065C2.42065 10.6535 3.83306 12.9383 5.44738 14.5527C7.06157 16.1668 9.34635 17.5792 11.4592 18.3582C12.5156 18.7478 13.5328 18.9804 14.4041 18.9988C15.2742 19.0173 16.01 18.8222 16.4889 18.3432L18.5485 16.2836C19.1943 15.6379 19.1398 14.6159 18.4332 14.0378L15.0943 11.3058C14.4292 10.7617 13.4219 10.8097 12.8144 11.4173L11.5133 12.7185C11.4466 12.785 11.3377 12.8319 11.2141 12.845C11.0912 12.8582 10.9625 12.8369 10.8596 12.7779L10.8597 12.7777L10.8555 12.7757C10.8361 12.7662 10.7871 12.7403 10.7113 12.6971C10.5798 12.6221 10.4296 12.529 10.264 12.4174C9.78535 12.0944 9.28749 11.6906 8.79842 11.2016C8.30928 10.7124 7.90592 10.2152 7.58371 9.73744C7.47226 9.57222 7.37948 9.42244 7.30459 9.2913C7.26193 9.21658 7.23581 9.16708 7.20057 9.10008L7.20067 9.10001L7.19862 9.09658C7.1517 9.0183 7.13425 8.90272 7.15017 8.78358C7.16606 8.66465 7.21355 8.55472 7.28159 8.48672L8.58278 7.18547V7.18546C9.19042 6.57766 9.23878 5.57104 8.69406 4.90536L5.96239 1.5664C5.38479 0.860327 4.36173 0.805885 3.71667 1.45097C3.71667 1.45097 3.71667 1.45097 3.71667 1.45098L1.65696 3.51063ZM14.2727 12.3094L14.2275 12.3647L17.5664 15.0967C17.6116 15.1337 17.6292 15.1722 17.6311 15.2049C17.633 15.2376 17.62 15.2764 17.5806 15.3159L15.5211 17.3755C15.3908 17.5059 15.1978 17.5936 14.9468 17.6377C14.696 17.6819 14.392 17.6816 14.0463 17.64C13.3549 17.5569 12.5072 17.3101 11.6055 16.9394C9.80199 16.198 7.79671 14.9669 6.41476 13.5849C5.03275 12.2029 3.80177 10.1977 3.0604 8.39415C2.68975 7.49243 2.44295 6.64467 2.35985 5.95324C2.31829 5.60751 2.318 5.30353 2.36213 5.05266C2.40628 4.8016 2.49401 4.60858 2.62433 4.47823L4.68405 2.41858L4.63355 2.36807L4.68405 2.41857C4.72295 2.37967 4.76188 2.36665 4.79492 2.36856C4.82813 2.37049 4.8667 2.38818 4.9032 2.43278L7.63499 5.77187C7.68371 5.83135 7.70771 5.91463 7.70378 5.99981C7.69978 6.08504 7.66814 6.16477 7.61507 6.21792L6.31391 7.51915C5.73965 8.09344 5.60423 9.06844 6.00917 9.77358C6.08984 9.93401 6.23482 10.1851 6.44899 10.5025C6.81862 11.0505 7.2771 11.6154 7.83049 12.169C8.38392 12.7224 8.94956 13.1814 9.49856 13.5517C9.81906 13.7678 10.072 13.9137 10.2326 13.9942C10.9373 14.3897 11.9082 14.258 12.4804 13.6859L12.4299 13.6354L12.4804 13.6859L13.7816 12.3847H13.7816C13.8345 12.3317 13.9142 12.3002 13.9996 12.2962C14.0849 12.2922 14.1682 12.3163 14.2274 12.3647L14.2727 12.3094Z" fill="#363636" stroke="#363636" stroke-width="0.2"/>
</svg>
