<svg width="13" height="32" viewBox="0 0 13 32" fill="none" xmlns="http://www.w3.org/2000/svg">
<g clip-path="url(#clip0_1_152)">
<path d="M10.3598 20.3268V3.86649C10.3041 2.87709 9.87178 1.94655 9.15164 1.26582C8.43149 0.585093 7.47811 0.205811 6.48715 0.205811C5.49619 0.205811 4.54281 0.585093 3.82266 1.26582C3.10252 1.94655 2.67022 2.87709 2.6145 3.86649V20.3391C1.8305 20.9624 1.19083 21.7483 0.739496 22.6424C0.288165 23.5366 0.0358814 24.518 0 25.519C0.0314817 27.228 0.724407 28.8582 1.93308 30.0669C3.14174 31.2756 4.77199 31.9685 6.48101 32C8.19212 31.9684 9.82415 31.2738 11.0331 30.0625C12.2421 28.8512 12.9337 27.2179 12.962 25.5067C12.9334 24.5055 12.6855 23.5228 12.2359 22.6279C11.7863 21.7329 11.1459 20.9474 10.3598 20.3268ZM8.87457 21.5542C9.50905 22.006 10.0338 22.5947 10.4099 23.2768C10.7859 23.9588 11.0038 24.7167 11.0472 25.4944C11.0252 26.7062 10.5349 27.8625 9.67902 28.7206C8.82314 29.5788 7.66822 30.0722 6.45646 30.0974C5.24686 30.0691 4.09502 29.5743 3.24175 28.7165C2.38849 27.8586 1.89986 26.7042 1.87802 25.4944C1.92702 24.7187 2.14995 23.964 2.5303 23.2862C2.91064 22.6083 3.43865 22.0248 4.07518 21.5788C4.19697 21.5014 4.29915 21.3969 4.3737 21.2733C4.44824 21.1498 4.49312 21.0107 4.5048 20.8669V3.86649C4.5048 3.60697 4.55591 3.34999 4.65523 3.11022C4.75454 2.87045 4.90011 2.6526 5.08362 2.46909C5.26712 2.28558 5.48498 2.14001 5.72475 2.0407C5.96451 1.94138 6.22149 1.89027 6.48101 1.89027C6.74053 1.89027 6.99751 1.94138 7.23728 2.0407C7.47704 2.14001 7.6949 2.28558 7.87841 2.46909C8.06192 2.6526 8.20749 2.87045 8.3068 3.11022C8.40611 3.34999 8.45723 3.60697 8.45723 3.86649V20.7932C8.45698 20.9484 8.49492 21.1012 8.5677 21.2382C8.64049 21.3752 8.74588 21.4922 8.87457 21.5788V21.5542Z" fill="white"/>
<path d="M8 25.2958C7.9939 25.7373 7.83491 26.1595 7.55552 26.4763C7.27614 26.7931 6.89744 26.9804 6.49682 27C6.09784 26.977 5.72159 26.7884 5.44385 26.4722C5.16611 26.156 5.00751 25.7356 5 25.2958C5.02682 25.0059 5.10805 24.7252 5.23852 24.4717C5.369 24.2182 5.54588 23.9973 5.75796 23.823L6.2293 23.4583L6.29299 23.4162V5.23981C6.29214 5.20941 6.29674 5.17913 6.30653 5.15069C6.31632 5.12225 6.3311 5.09622 6.35002 5.07407C6.36895 5.05192 6.39166 5.0341 6.41685 5.02163C6.44204 5.00915 6.46921 5.00226 6.49682 5.00135C6.52407 4.99768 6.55173 5.00152 6.5773 5.01254C6.60288 5.02356 6.62556 5.0414 6.64331 5.06447C6.66459 5.08597 6.68175 5.11193 6.69379 5.14084C6.70582 5.16975 6.71248 5.20101 6.71338 5.23279V23.4092L6.7707 23.4583L7.23567 23.823C7.45244 23.9927 7.63307 24.2124 7.76505 24.4667C7.89704 24.721 7.9772 25.0039 8 25.2958Z" fill="white"/>
</g>
<defs>
<clipPath id="clip0_1_152">
<rect width="12.9743" height="32" fill="white"/>
</clipPath>
</defs>
</svg>
