<svg width="25" height="25" viewBox="0 0 25 25" fill="none" xmlns="http://www.w3.org/2000/svg">
<path d="M24.9886 17.2572C25.0038 17.0651 25.0038 16.872 24.9886 16.6799L23.0525 1.75159C22.9888 1.30374 22.9252 0.855892 22.8706 0.417994L22.7707 0H2.24525L2.15435 0.656847L1.90892 2.42834L1.68167 4.18989C1.29988 7.09594 0.921128 10.0119 0.545405 12.9379C0.545405 13.3161 0.445414 13.6943 0.390874 14.0824C0.217366 15.1521 0.102022 16.2322 0.0454504 17.3169C0 19.0486 0 20.8101 0 22.5119C0 23.2385 0 23.9749 0 24.7014V25H5.89037V23.0096C5.89037 22.9436 5.91432 22.8803 5.95693 22.8336C5.99955 22.787 6.05735 22.7607 6.11763 22.7607H18.9165C18.9767 22.7607 19.0345 22.787 19.0772 22.8336C19.1198 22.8803 19.1437 22.9436 19.1437 23.0096V25H24.9977V23.2086C24.9977 21.2281 24.9886 19.2476 24.9886 17.2572ZM18.7528 1.83121C18.773 1.8055 18.7982 1.78502 18.8265 1.77125C18.8548 1.75748 18.8855 1.75077 18.9165 1.75159H19.4437C19.9618 1.75159 20.4527 1.75159 20.9526 1.75159C21.2163 1.75159 21.4071 2.16959 21.4435 2.37858C21.5799 3.37381 21.7071 4.36903 21.8253 5.28463L23.1433 15.3563C23.1433 15.4857 23.1434 15.615 23.1888 15.7544V15.9534C23.1903 15.988 23.1854 16.0225 23.1745 16.055C23.1636 16.0875 23.1468 16.1173 23.1252 16.1425C23.105 16.1682 23.0798 16.1887 23.0515 16.2025C23.0232 16.2162 22.9925 16.223 22.9615 16.2221H19.8527C19.7955 16.2223 19.7403 16.1989 19.6982 16.1564C19.656 16.114 19.6301 16.0557 19.6255 15.9932L18.6892 1.99045C18.6905 1.93027 18.7133 1.87307 18.7528 1.83121ZM13.3715 1.99045C13.3736 1.95584 13.3823 1.92209 13.3971 1.89138C13.4118 1.86067 13.4322 1.83367 13.457 1.81212C13.4819 1.79056 13.5105 1.77493 13.5412 1.76622C13.5719 1.75751 13.6039 1.75592 13.6351 1.76154H15.744C17.0166 1.76154 17.1166 1.87102 17.2075 3.25438L18.0256 15.635C18.0302 15.7145 18.0302 15.7943 18.0256 15.8738V16.0131C18.0256 16.0791 18.0017 16.1424 17.9591 16.1891C17.9165 16.2357 17.8587 16.2619 17.7984 16.2619H13.6351C13.5749 16.2619 13.5171 16.2357 13.4744 16.1891C13.4318 16.1424 13.4079 16.0791 13.4079 16.0131L13.3715 1.99045ZM7.20844 12.8384C7.39024 10.1413 7.56295 7.44427 7.74475 4.74721V4.61783C7.7902 3.86146 7.84474 3.09514 7.91746 2.33877C7.91746 2.14968 8.11744 1.78145 8.36288 1.7715C9.1628 1.7715 9.97182 1.7715 10.7899 1.7715H11.4262C11.4865 1.7715 11.5443 1.79771 11.5869 1.84437C11.6295 1.89103 11.6535 1.95432 11.6535 2.0203V15.9932C11.6535 16.0592 11.6295 16.1225 11.5869 16.1692C11.5443 16.2158 11.4865 16.242 11.4262 16.242H7.27207C7.24129 16.2416 7.21092 16.2343 7.18279 16.2206C7.15466 16.2069 7.12937 16.1871 7.10844 16.1624C7.08683 16.1372 7.07006 16.1074 7.05913 16.0749C7.0482 16.0425 7.04333 16.0079 7.04481 15.9733L7.20844 12.8384ZM2.55431 10.1413C2.88156 7.65326 3.19971 5.16521 3.52695 2.67715C3.62694 1.84116 3.72693 1.75159 4.43596 1.75159H6.09945C6.1304 1.75077 6.16114 1.75748 6.18944 1.77125C6.21773 1.78502 6.24288 1.8055 6.26307 1.83121C6.31393 1.86816 6.34976 1.92522 6.36306 1.99045L5.45405 15.9932C5.44947 16.0557 5.42352 16.114 5.38139 16.1564C5.33926 16.1989 5.28405 16.2223 5.2268 16.2221H2.02709C1.99107 16.2317 1.95355 16.2321 1.91734 16.2235C1.88113 16.2149 1.84717 16.1974 1.81802 16.1724C1.79636 16.1455 1.78027 16.1137 1.77086 16.0794C1.76144 16.045 1.75893 16.0088 1.76348 15.9733L2.55431 10.1413ZM23.3524 22.9697C23.3524 23.0357 23.3285 23.099 23.2859 23.1457C23.2432 23.1923 23.1854 23.2186 23.1252 23.2186H21.0163C20.956 23.2186 20.8982 23.1923 20.8556 23.1457C20.813 23.099 20.789 23.0357 20.789 22.9697V20.9793H4.24507V22.9697C4.24507 23.0357 4.22113 23.099 4.17851 23.1457C4.13589 23.1923 4.07809 23.2186 4.01782 23.2186H1.89983C1.83956 23.2186 1.78175 23.1923 1.73914 23.1457C1.69652 23.099 1.67258 23.0357 1.67258 22.9697V18.342C1.67258 18.276 1.69652 18.2127 1.73914 18.166C1.78175 18.1194 1.83956 18.0932 1.89983 18.0932H23.1252C23.1854 18.0932 23.2432 18.1194 23.2859 18.166C23.3285 18.2127 23.3524 18.276 23.3524 18.342V22.9697Z" fill="white"/>
</svg>
