<svg width="17" height="32" viewBox="0 0 17 32" fill="none" xmlns="http://www.w3.org/2000/svg">
<path d="M16.9367 22.5853C16.9367 20.9405 14.7468 20.3391 12.6582 20.0322C12.3824 16.8099 13.0725 13.579 14.6456 10.728C15.236 9.62444 15.5442 8.39939 15.5443 7.15612C15.5579 5.29371 14.8432 3.49548 13.5443 2.12351C12.9162 1.45625 12.1518 0.922916 11.2998 0.557354C10.4477 0.191793 9.52665 0.00199203 8.59495 0C6.69563 0.0577378 4.89744 0.843509 3.5947 2.185C2.29197 3.5265 1.59102 5.31421 1.64558 7.15612C1.64179 8.39446 1.94573 9.61546 2.53166 10.7158C4.13419 13.5523 4.83452 16.7856 4.54431 20.0077C2.53166 20.29 0.0633017 20.8669 1.05315e-05 22.5853V27.1147C-0.00141361 27.5211 0.141638 27.9156 0.405074 28.2317L0.518998 29.005C0.594947 30.9935 4.58229 32.0491 8.49368 32.0491C12.4051 32.0491 16.4557 30.9444 16.4557 29.005L16.5823 28.2317C16.8457 27.9291 16.9933 27.5475 17 27.1515L16.9367 22.5853ZM4.44305 9.81972C4.0121 8.9944 3.79076 8.08118 3.79748 7.15612C3.74576 5.8659 4.22024 4.60786 5.11817 3.65444C6.0161 2.70101 7.26519 2.12895 8.59495 2.06214C9.23288 2.0667 9.86284 2.20002 10.4447 2.45362C11.0266 2.70721 11.5477 3.07552 11.9747 3.5351C12.9278 4.53598 13.4448 5.85544 13.4177 7.21749C13.4066 8.12379 13.1769 9.01498 12.7468 9.81972C10.9613 13.0798 10.1917 16.773 10.5317 20.4496C10.5317 20.9528 10.5317 21.5666 10.5317 22.1066C9.96689 22.501 9.27605 22.6881 8.58229 22.6344C7.88408 22.675 7.19234 22.4846 6.62026 22.0944C6.62026 21.5052 6.62026 20.8669 6.62026 20.3514C6.97938 16.7095 6.222 13.0459 4.44305 9.81972ZM14.9747 28.8822V28.9436C14.9747 29.361 12.7468 30.5884 8.49368 30.5884C4.24052 30.5884 2.01267 29.361 2.01267 28.9436V28.6367C4.06571 29.5071 6.29189 29.9263 8.53165 29.8642C10.7717 29.9292 12.9985 29.5099 15.0506 28.6367L14.9747 28.8822ZM2.13925 27.0042V24.7825C4.15872 25.5279 6.30812 25.8864 8.46836 25.8381C10.6287 25.8873 12.7783 25.5288 14.7975 24.7825V27.0042C14.4177 27.3602 12.3544 28.3667 8.46836 28.3667C4.58229 28.3667 2.53166 27.3479 2.13925 27.0042ZM15.6709 22.8677L15.0886 23.2482C13.0452 24.233 10.7715 24.6816 8.49368 24.5493C6.21366 24.674 3.93978 24.2169 1.89874 23.2236L1.26583 22.8431V22.5976C1.26583 22.3644 1.55697 21.5788 5.17723 21.1492H5.32912C5.32912 21.4929 5.32912 21.8489 5.32912 22.1803V22.3153C5.54431 23.3096 7.12659 23.8251 8.56963 23.8251C10.0127 23.8251 11.5949 23.3218 11.8228 22.303V22.168C11.8228 21.8489 11.8228 21.5052 11.8228 21.1615H11.962C15.1899 21.5788 15.6709 22.2294 15.6709 22.5853V22.8677Z" fill="#363636"/>
</svg>
