<svg width="18" height="18" viewBox="0 0 18 18" fill="none" xmlns="http://www.w3.org/2000/svg">
<path d="M0.656955 2.51063H0.656948C0.17792 2.98968 -0.0172101 3.72554 0.00118271 4.59569C0.019602 5.46708 0.252127 6.48421 0.641648 7.54065C1.42065 9.65351 2.83306 11.9383 4.44738 13.5527C6.06157 15.1668 8.34635 16.5792 10.4592 17.3582C11.5156 17.7478 12.5328 17.9804 13.4041 17.9988C14.2742 18.0173 15.01 17.8222 15.4889 17.3432L17.5485 15.2836C18.1943 14.6379 18.1398 13.6159 17.4332 13.0378L14.0943 10.3058C13.4292 9.76173 12.4219 9.80972 11.8144 10.4173L10.5133 11.7185C10.4466 11.785 10.3377 11.8319 10.2141 11.845C10.0912 11.8582 9.96249 11.8369 9.85963 11.7779L9.85971 11.7777L9.85549 11.7757C9.83606 11.7662 9.78706 11.7403 9.71135 11.6971C9.57985 11.6221 9.42964 11.529 9.26399 11.4174C8.78535 11.0944 8.28749 10.6906 7.79842 10.2016C7.30928 9.71244 6.90592 9.21523 6.58371 8.73744C6.47226 8.57222 6.37948 8.42244 6.30459 8.2913C6.26193 8.21658 6.23581 8.16708 6.20057 8.10008L6.20067 8.10001L6.19862 8.09658C6.1517 8.0183 6.13425 7.90272 6.15017 7.78358C6.16606 7.66465 6.21355 7.55472 6.28159 7.48672L7.58278 6.18547V6.18546C8.19042 5.57766 8.23878 4.57104 7.69406 3.90536L4.96239 0.566404C4.38479 -0.139673 3.36173 -0.194115 2.71667 0.450969C2.71667 0.450969 2.71667 0.450969 2.71667 0.450976L0.656955 2.51063ZM13.2727 11.3094L13.2275 11.3647L16.5664 14.0967C16.6116 14.1337 16.6292 14.1722 16.6311 14.2049C16.633 14.2376 16.62 14.2764 16.5806 14.3159L14.5211 16.3755C14.3908 16.5059 14.1978 16.5936 13.9468 16.6377C13.696 16.6819 13.392 16.6816 13.0463 16.64C12.3549 16.5569 11.5072 16.3101 10.6055 15.9394C8.80199 15.198 6.79671 13.9669 5.41476 12.5849C4.03275 11.2029 2.80177 9.19765 2.0604 7.39415C1.68975 6.49243 1.44295 5.64467 1.35985 4.95324C1.31829 4.60751 1.318 4.30353 1.36213 4.05266C1.40628 3.8016 1.49401 3.60858 1.62433 3.47823L3.68405 1.41858L3.63355 1.36807L3.68405 1.41857C3.72295 1.37967 3.76188 1.36665 3.79492 1.36856C3.82813 1.37049 3.8667 1.38818 3.9032 1.43278L6.63499 4.77187C6.68371 4.83135 6.70771 4.91463 6.70378 4.99981C6.69978 5.08504 6.66814 5.16477 6.61507 5.21792L5.31391 6.51915C4.73965 7.09344 4.60423 8.06844 5.00917 8.77358C5.08984 8.93401 5.23482 9.18508 5.44899 9.50251C5.81862 10.0505 6.2771 10.6154 6.83049 11.169C7.38392 11.7224 7.94956 12.1814 8.49856 12.5517C8.81906 12.7678 9.07199 12.9137 9.23264 12.9942C9.93735 13.3897 10.9082 13.258 11.4804 12.6859L11.4299 12.6354L11.4804 12.6859L12.7816 11.3847H12.7816C12.8345 11.3317 12.9142 11.3002 12.9996 11.2962C13.0849 11.2922 13.1682 11.3163 13.2274 11.3647L13.2727 11.3094Z" fill="white"/>
</svg>
