<svg width="176" height="230" viewBox="0 0 176 230" fill="none" xmlns="http://www.w3.org/2000/svg">
<path d="M14.5252 177V191H12.5652V178.74H4.44516V191H2.46516V177H14.5252ZM24.1909 180.3C25.2176 180.3 26.1376 180.527 26.9509 180.98C27.7643 181.433 28.3976 182.067 28.8509 182.88C29.3176 183.693 29.5509 184.633 29.5509 185.7C29.5509 186.767 29.3176 187.713 28.8509 188.54C28.3976 189.353 27.7643 189.987 26.9509 190.44C26.1376 190.893 25.2176 191.12 24.1909 191.12C23.4309 191.12 22.7309 190.973 22.0909 190.68C21.4643 190.387 20.9309 189.96 20.4909 189.4V194.88H18.5709V180.4H20.4109V182.08C20.8376 181.493 21.3776 181.053 22.0309 180.76C22.6843 180.453 23.4043 180.3 24.1909 180.3ZM24.0309 189.44C24.7109 189.44 25.3176 189.287 25.8509 188.98C26.3976 188.66 26.8243 188.22 27.1309 187.66C27.4509 187.087 27.6109 186.433 27.6109 185.7C27.6109 184.967 27.4509 184.32 27.1309 183.76C26.8243 183.187 26.3976 182.747 25.8509 182.44C25.3176 182.133 24.7109 181.98 24.0309 181.98C23.3643 181.98 22.7576 182.14 22.2109 182.46C21.6776 182.767 21.2509 183.2 20.9309 183.76C20.6243 184.32 20.4709 184.967 20.4709 185.7C20.4709 186.433 20.6243 187.087 20.9309 187.66C21.2376 188.22 21.6643 188.66 22.2109 188.98C22.7576 189.287 23.3643 189.44 24.0309 189.44ZM41.9205 185.76C41.9205 185.907 41.9071 186.1 41.8805 186.34H33.2805C33.4005 187.273 33.8071 188.027 34.5005 188.6C35.2071 189.16 36.0805 189.44 37.1205 189.44C38.3871 189.44 39.4071 189.013 40.1805 188.16L41.2405 189.4C40.7605 189.96 40.1605 190.387 39.4405 190.68C38.7338 190.973 37.9405 191.12 37.0605 191.12C35.9405 191.12 34.9471 190.893 34.0805 190.44C33.2138 189.973 32.5405 189.327 32.0605 188.5C31.5938 187.673 31.3605 186.74 31.3605 185.7C31.3605 184.673 31.5871 183.747 32.0405 182.92C32.5071 182.093 33.1405 181.453 33.9405 181C34.7538 180.533 35.6671 180.3 36.6805 180.3C37.6938 180.3 38.5938 180.533 39.3805 181C40.1805 181.453 40.8005 182.093 41.2405 182.92C41.6938 183.747 41.9205 184.693 41.9205 185.76ZM36.6805 181.92C35.7605 181.92 34.9871 182.2 34.3605 182.76C33.7471 183.32 33.3871 184.053 33.2805 184.96H40.0805C39.9738 184.067 39.6071 183.34 38.9805 182.78C38.3671 182.207 37.6005 181.92 36.6805 181.92ZM55.5033 189.32V193.46H53.7033V191H44.8433V193.46H43.0233V189.32H43.5833C44.2633 189.28 44.7299 188.8 44.9833 187.88C45.2366 186.96 45.4099 185.66 45.5033 183.98L45.6633 180.4H53.8833V189.32H55.5033ZM47.2633 184.12C47.2099 185.453 47.0966 186.56 46.9233 187.44C46.7633 188.307 46.4633 188.933 46.0233 189.32H51.9633V182.08H47.3633L47.2633 184.12ZM62.5445 191.12C61.4912 191.12 60.5445 190.887 59.7045 190.42C58.8645 189.953 58.2045 189.313 57.7245 188.5C57.2579 187.673 57.0245 186.74 57.0245 185.7C57.0245 184.66 57.2579 183.733 57.7245 182.92C58.2045 182.093 58.8645 181.453 59.7045 181C60.5445 180.533 61.4912 180.3 62.5445 180.3C63.5979 180.3 64.5379 180.533 65.3645 181C66.2045 181.453 66.8579 182.093 67.3245 182.92C67.8045 183.733 68.0445 184.66 68.0445 185.7C68.0445 186.74 67.8045 187.673 67.3245 188.5C66.8579 189.313 66.2045 189.953 65.3645 190.42C64.5379 190.887 63.5979 191.12 62.5445 191.12ZM62.5445 189.44C63.2245 189.44 63.8312 189.287 64.3645 188.98C64.9112 188.66 65.3379 188.22 65.6445 187.66C65.9512 187.087 66.1045 186.433 66.1045 185.7C66.1045 184.967 65.9512 184.32 65.6445 183.76C65.3379 183.187 64.9112 182.747 64.3645 182.44C63.8312 182.133 63.2245 181.98 62.5445 181.98C61.8645 181.98 61.2512 182.133 60.7045 182.44C60.1712 182.747 59.7445 183.187 59.4245 183.76C59.1179 184.32 58.9645 184.967 58.9645 185.7C58.9645 186.433 59.1179 187.087 59.4245 187.66C59.7445 188.22 60.1712 188.66 60.7045 188.98C61.2512 189.287 61.8645 189.44 62.5445 189.44ZM80.637 180.4V191H78.717V182.08H72.737V191H70.817V180.4H80.637ZM93.4522 180.4V191H91.5322V182.08H86.9722L86.8522 184.44C86.7855 185.867 86.6589 187.06 86.4722 188.02C86.2855 188.967 85.9789 189.727 85.5522 190.3C85.1255 190.873 84.5322 191.16 83.7722 191.16C83.4255 191.16 83.0322 191.1 82.5922 190.98L82.7122 189.36C82.8855 189.4 83.0455 189.42 83.1922 189.42C83.7255 189.42 84.1255 189.187 84.3922 188.72C84.6589 188.253 84.8322 187.7 84.9122 187.06C84.9922 186.42 85.0655 185.507 85.1322 184.32L85.3122 180.4H93.4522ZM100.945 180.3C102.411 180.3 103.531 180.66 104.305 181.38C105.091 182.1 105.485 183.173 105.485 184.6V191H103.665V189.6C103.345 190.093 102.885 190.473 102.285 190.74C101.698 190.993 100.998 191.12 100.185 191.12C98.998 191.12 98.0447 190.833 97.3247 190.26C96.618 189.687 96.2647 188.933 96.2647 188C96.2647 187.067 96.6047 186.32 97.2847 185.76C97.9647 185.187 99.0447 184.9 100.525 184.9H103.565V184.52C103.565 183.693 103.325 183.06 102.845 182.62C102.365 182.18 101.658 181.96 100.725 181.96C100.098 181.96 99.4847 182.067 98.8847 182.28C98.2847 182.48 97.778 182.753 97.3647 183.1L96.5647 181.66C97.1114 181.22 97.7647 180.887 98.5247 180.66C99.2847 180.42 100.091 180.3 100.945 180.3ZM100.505 189.64C101.238 189.64 101.871 189.48 102.405 189.16C102.938 188.827 103.325 188.36 103.565 187.76V186.28H100.605C98.978 186.28 98.1647 186.827 98.1647 187.92C98.1647 188.453 98.3714 188.873 98.7847 189.18C99.198 189.487 99.7714 189.64 100.505 189.64ZM116.842 182.08H112.962V191H111.042V182.08H107.162V180.4H116.842V182.08ZM122.585 180.3C124.052 180.3 125.172 180.66 125.945 181.38C126.732 182.1 127.125 183.173 127.125 184.6V191H125.305V189.6C124.985 190.093 124.525 190.473 123.925 190.74C123.339 190.993 122.639 191.12 121.825 191.12C120.639 191.12 119.685 190.833 118.965 190.26C118.259 189.687 117.905 188.933 117.905 188C117.905 187.067 118.245 186.32 118.925 185.76C119.605 185.187 120.685 184.9 122.165 184.9H125.205V184.52C125.205 183.693 124.965 183.06 124.485 182.62C124.005 182.18 123.299 181.96 122.365 181.96C121.739 181.96 121.125 182.067 120.525 182.28C119.925 182.48 119.419 182.753 119.005 183.1L118.205 181.66C118.752 181.22 119.405 180.887 120.165 180.66C120.925 180.42 121.732 180.3 122.585 180.3ZM122.145 189.64C122.879 189.64 123.512 189.48 124.045 189.16C124.579 188.827 124.965 188.36 125.205 187.76V186.28H122.245C120.619 186.28 119.805 186.827 119.805 187.92C119.805 188.453 120.012 188.873 120.425 189.18C120.839 189.487 121.412 189.64 122.145 189.64ZM144.894 189.26V191H134.834V189.64L140.534 184.14C141.227 183.473 141.694 182.9 141.934 182.42C142.174 181.927 142.294 181.433 142.294 180.94C142.294 180.207 142.034 179.64 141.514 179.24C141.007 178.827 140.274 178.62 139.314 178.62C137.767 178.62 136.574 179.127 135.734 180.14L134.374 178.96C134.92 178.293 135.634 177.773 136.514 177.4C137.407 177.027 138.4 176.84 139.494 176.84C140.96 176.84 142.127 177.193 142.994 177.9C143.86 178.593 144.294 179.54 144.294 180.74C144.294 181.487 144.134 182.193 143.814 182.86C143.494 183.527 142.887 184.287 141.994 185.14L137.714 189.26H144.894ZM152.2 191.16C151.093 191.16 150.106 190.88 149.24 190.32C148.386 189.747 147.713 188.92 147.22 187.84C146.726 186.76 146.48 185.48 146.48 184C146.48 182.52 146.726 181.24 147.22 180.16C147.713 179.08 148.386 178.26 149.24 177.7C150.106 177.127 151.093 176.84 152.2 176.84C153.293 176.84 154.266 177.127 155.12 177.7C155.986 178.26 156.666 179.08 157.16 180.16C157.653 181.24 157.9 182.52 157.9 184C157.9 185.48 157.653 186.76 157.16 187.84C156.666 188.92 155.986 189.747 155.12 190.32C154.266 190.88 153.293 191.16 152.2 191.16ZM152.2 189.38C153.32 189.38 154.213 188.92 154.88 188C155.56 187.08 155.9 185.747 155.9 184C155.9 182.253 155.56 180.92 154.88 180C154.213 179.08 153.32 178.62 152.2 178.62C151.066 178.62 150.16 179.08 149.48 180C148.813 180.92 148.48 182.253 148.48 184C148.48 185.747 148.813 187.08 149.48 188C150.16 188.92 151.066 189.38 152.2 189.38ZM162.859 184.52C161.886 184.52 161.099 184.167 160.499 183.46C159.899 182.753 159.599 181.833 159.599 180.7C159.599 179.567 159.899 178.647 160.499 177.94C161.099 177.233 161.886 176.88 162.859 176.88C163.833 176.88 164.613 177.233 165.199 177.94C165.799 178.633 166.099 179.553 166.099 180.7C166.099 181.847 165.799 182.773 165.199 183.48C164.613 184.173 163.833 184.52 162.859 184.52ZM171.299 177H172.839L163.279 191H161.739L171.299 177ZM162.859 183.38C163.473 183.38 163.953 183.147 164.299 182.68C164.646 182.2 164.819 181.54 164.819 180.7C164.819 179.86 164.646 179.207 164.299 178.74C163.953 178.26 163.473 178.02 162.859 178.02C162.259 178.02 161.779 178.26 161.419 178.74C161.073 179.22 160.899 179.873 160.899 180.7C160.899 181.527 161.073 182.18 161.419 182.66C161.779 183.14 162.259 183.38 162.859 183.38ZM171.719 191.12C170.746 191.12 169.959 190.773 169.359 190.08C168.773 189.373 168.479 188.447 168.479 187.3C168.479 186.153 168.773 185.233 169.359 184.54C169.959 183.833 170.746 183.48 171.719 183.48C172.693 183.48 173.479 183.833 174.079 184.54C174.679 185.247 174.979 186.167 174.979 187.3C174.979 188.433 174.679 189.353 174.079 190.06C173.479 190.767 172.693 191.12 171.719 191.12ZM171.719 189.98C172.319 189.98 172.793 189.74 173.139 189.26C173.499 188.78 173.679 188.127 173.679 187.3C173.679 186.473 173.499 185.82 173.139 185.34C172.793 184.86 172.319 184.62 171.719 184.62C171.106 184.62 170.626 184.86 170.279 185.34C169.933 185.807 169.759 186.46 169.759 187.3C169.759 188.14 169.933 188.8 170.279 189.28C170.626 189.747 171.106 189.98 171.719 189.98ZM45.3483 211.4H47.2683V215.9H53.3083V211.4H55.2283V222H53.3083V217.56H47.2683V222H45.3483V211.4ZM62.7416 211.3C64.2082 211.3 65.3282 211.66 66.1016 212.38C66.8882 213.1 67.2816 214.173 67.2816 215.6V222H65.4616V220.6C65.1416 221.093 64.6816 221.473 64.0816 221.74C63.4949 221.993 62.7949 222.12 61.9816 222.12C60.7949 222.12 59.8416 221.833 59.1216 221.26C58.4149 220.687 58.0616 219.933 58.0616 219C58.0616 218.067 58.4016 217.32 59.0816 216.76C59.7616 216.187 60.8416 215.9 62.3216 215.9H65.3616V215.52C65.3616 214.693 65.1216 214.06 64.6416 213.62C64.1616 213.18 63.4549 212.96 62.5216 212.96C61.8949 212.96 61.2816 213.067 60.6816 213.28C60.0816 213.48 59.5749 213.753 59.1616 214.1L58.3616 212.66C58.9082 212.22 59.5616 211.887 60.3216 211.66C61.0816 211.42 61.8882 211.3 62.7416 211.3ZM62.3016 220.64C63.0349 220.64 63.6682 220.48 64.2016 220.16C64.7349 219.827 65.1216 219.36 65.3616 218.76V217.28H62.4016C60.7749 217.28 59.9616 217.827 59.9616 218.92C59.9616 219.453 60.1682 219.873 60.5816 220.18C60.9949 220.487 61.5682 220.64 62.3016 220.64ZM80.23 217.52H78.03V222H76.11V211.4H78.03V215.88H80.27L83.71 211.4H85.77L81.75 216.5L86.05 222H83.79L80.23 217.52ZM91.6478 211.3C93.1145 211.3 94.2345 211.66 95.0078 212.38C95.7945 213.1 96.1878 214.173 96.1878 215.6V222H94.3678V220.6C94.0478 221.093 93.5878 221.473 92.9878 221.74C92.4011 221.993 91.7011 222.12 90.8878 222.12C89.7011 222.12 88.7478 221.833 88.0278 221.26C87.3211 220.687 86.9678 219.933 86.9678 219C86.9678 218.067 87.3078 217.32 87.9878 216.76C88.6678 216.187 89.7478 215.9 91.2278 215.9H94.2678V215.52C94.2678 214.693 94.0278 214.06 93.5478 213.62C93.0678 213.18 92.3611 212.96 91.4278 212.96C90.8011 212.96 90.1878 213.067 89.5878 213.28C88.9878 213.48 88.4811 213.753 88.0678 214.1L87.2678 212.66C87.8145 212.22 88.4678 211.887 89.2278 211.66C89.9878 211.42 90.7945 211.3 91.6478 211.3ZM91.2078 220.64C91.9411 220.64 92.5745 220.48 93.1078 220.16C93.6411 219.827 94.0278 219.36 94.2678 218.76V217.28H91.3078C89.6811 217.28 88.8678 217.827 88.8678 218.92C88.8678 219.453 89.0745 219.873 89.4878 220.18C89.9011 220.487 90.4745 220.64 91.2078 220.64ZM105.265 211.3C106.292 211.3 107.212 211.527 108.025 211.98C108.838 212.433 109.472 213.067 109.925 213.88C110.392 214.693 110.625 215.633 110.625 216.7C110.625 217.767 110.392 218.713 109.925 219.54C109.472 220.353 108.838 220.987 108.025 221.44C107.212 221.893 106.292 222.12 105.265 222.12C104.505 222.12 103.805 221.973 103.165 221.68C102.538 221.387 102.005 220.96 101.565 220.4V225.88H99.6452V211.4H101.485V213.08C101.912 212.493 102.452 212.053 103.105 211.76C103.758 211.453 104.478 211.3 105.265 211.3ZM105.105 220.44C105.785 220.44 106.392 220.287 106.925 219.98C107.472 219.66 107.898 219.22 108.205 218.66C108.525 218.087 108.685 217.433 108.685 216.7C108.685 215.967 108.525 215.32 108.205 214.76C107.898 214.187 107.472 213.747 106.925 213.44C106.392 213.133 105.785 212.98 105.105 212.98C104.438 212.98 103.832 213.14 103.285 213.46C102.752 213.767 102.325 214.2 102.005 214.76C101.698 215.32 101.545 215.967 101.545 216.7C101.545 217.433 101.698 218.087 102.005 218.66C102.312 219.22 102.738 219.66 103.285 219.98C103.832 220.287 104.438 220.44 105.105 220.44ZM120.924 213.08H117.044V222H115.124V213.08H111.244V211.4H120.924V213.08ZM132.406 211.4L127.266 223.06C126.813 224.14 126.279 224.9 125.666 225.34C125.066 225.78 124.339 226 123.486 226C122.966 226 122.459 225.913 121.966 225.74C121.486 225.58 121.086 225.34 120.766 225.02L121.586 223.58C122.133 224.1 122.766 224.36 123.486 224.36C123.953 224.36 124.339 224.233 124.646 223.98C124.966 223.74 125.253 223.32 125.506 222.72L125.846 221.98L121.166 211.4H123.166L126.866 219.88L130.526 211.4H132.406Z" fill="#363636"/>
<circle cx="88" cy="73" r="72" stroke="#FE201D" stroke-width="2"/>
<g clip-path="url(#clip0_1_529)">
<path d="M64.7151 54.0828L64.7151 54.0841C63.5034 54.1044 62.3468 54.6053 61.4889 55.4822L61.4889 55.4822C60.6136 56.3776 60.1223 57.5917 60.1223 58.8568V60.8824V60.9824L60.2223 60.9824L114.748 60.9818L114.848 60.9818V60.8818V58.8567C114.848 57.5916 114.357 56.3775 113.481 55.4821L113.481 55.4821C112.605 54.5867 111.418 54.0833 110.178 54.0833L64.716 54.0828L64.7151 54.0828ZM114.848 64.0761V63.9761H114.748H60.2221H60.1221V64.0761V68.8277V68.9277H60.2221H114.748H114.848V68.8277V64.0761ZM110.178 91.9846L110.403 91.9846L110.398 91.9788C111.557 91.923 112.657 91.4276 113.481 90.5853L113.481 90.5853C114.356 89.6899 114.847 88.4759 114.847 87.2107V71.9433V71.8433H114.747H60.2216H60.1216V71.9433V87.2107C60.1216 88.4758 60.6128 89.6899 61.4882 90.5853L61.4882 90.5853C62.3641 91.4807 63.5515 91.9841 64.791 91.9841L110.178 91.9846ZM115.492 53.4187C116.902 54.8608 117.694 56.8167 117.694 58.8568V87.2105C117.694 89.2506 116.902 91.2064 115.492 92.6486C114.083 94.0901 112.171 94.9 110.178 94.9H64.7913C62.7988 94.9 60.8872 94.0901 59.4779 92.6486C58.0681 91.2064 57.276 89.2506 57.276 87.2105V58.8568C57.276 56.8167 58.068 54.8608 59.4779 53.4187C60.8872 51.9772 62.7988 51.1673 64.7913 51.1673H110.178C112.171 51.1673 114.083 51.9771 115.492 53.4187Z" fill="#FE201D" stroke="white" stroke-width="0.2"/>
<path d="M106.372 80.5118H99.0611C98.2197 80.5118 97.5382 81.2089 97.5382 82.0695C97.5382 82.9297 98.2197 83.6273 99.0611 83.6273H106.448C107.289 83.6273 107.971 82.9296 107.971 82.0695C107.971 81.2089 107.289 80.5118 106.448 80.5118H106.372Z" fill="#FE201D"/>
</g>
<defs>
<clipPath id="clip0_1_529">
<rect width="61" height="44" fill="white" transform="translate(57 51)"/>
</clipPath>
</defs>
</svg>
