<svg width="251" height="261" viewBox="0 0 251 261" fill="none" xmlns="http://www.w3.org/2000/svg">
<path d="M15.2205 191L15.2005 180.8L10.1405 189.3H9.22055L4.16055 180.86V191H2.24055V177H3.88055L9.72055 186.84L15.4805 177H17.1205L17.1405 191H15.2205ZM25.9584 184C27.2917 184.013 28.3117 184.32 29.0184 184.92C29.725 185.52 30.0784 186.367 30.0784 187.46C30.0784 188.607 29.6917 189.493 28.9184 190.12C28.1584 190.733 27.065 191.033 25.6384 191.02L21.1784 191V180.4H23.0984V183.98L25.9584 184ZM31.6584 180.4H33.5784V191H31.6584V180.4ZM25.4984 189.56C26.365 189.573 27.0184 189.4 27.4584 189.04C27.9117 188.68 28.1384 188.147 28.1384 187.44C28.1384 186.747 27.9184 186.24 27.4784 185.92C27.0384 185.6 26.3784 185.433 25.4984 185.42L23.0984 185.38V189.54L25.4984 189.56ZM48.3023 180.3C49.3289 180.3 50.2489 180.527 51.0623 180.98C51.8756 181.433 52.5089 182.067 52.9623 182.88C53.4289 183.693 53.6623 184.633 53.6623 185.7C53.6623 186.767 53.4289 187.713 52.9623 188.54C52.5089 189.353 51.8756 189.987 51.0623 190.44C50.2489 190.893 49.3289 191.12 48.3023 191.12C47.5423 191.12 46.8423 190.973 46.2023 190.68C45.5756 190.387 45.0423 189.96 44.6023 189.4V194.88H42.6823V180.4H44.5223V182.08C44.9489 181.493 45.4889 181.053 46.1423 180.76C46.7956 180.453 47.5156 180.3 48.3023 180.3ZM48.1423 189.44C48.8223 189.44 49.4289 189.287 49.9623 188.98C50.5089 188.66 50.9356 188.22 51.2423 187.66C51.5623 187.087 51.7223 186.433 51.7223 185.7C51.7223 184.967 51.5623 184.32 51.2423 183.76C50.9356 183.187 50.5089 182.747 49.9623 182.44C49.4289 182.133 48.8223 181.98 48.1423 181.98C47.4756 181.98 46.8689 182.14 46.3223 182.46C45.7889 182.767 45.3623 183.2 45.0423 183.76C44.7356 184.32 44.5823 184.967 44.5823 185.7C44.5823 186.433 44.7356 187.087 45.0423 187.66C45.3489 188.22 45.7756 188.66 46.3223 188.98C46.8689 189.287 47.4756 189.44 48.1423 189.44ZM66.0318 185.76C66.0318 185.907 66.0185 186.1 65.9918 186.34H57.3918C57.5118 187.273 57.9185 188.027 58.6118 188.6C59.3185 189.16 60.1918 189.44 61.2318 189.44C62.4985 189.44 63.5185 189.013 64.2918 188.16L65.3518 189.4C64.8718 189.96 64.2718 190.387 63.5518 190.68C62.8451 190.973 62.0518 191.12 61.1718 191.12C60.0518 191.12 59.0585 190.893 58.1918 190.44C57.3251 189.973 56.6518 189.327 56.1718 188.5C55.7051 187.673 55.4718 186.74 55.4718 185.7C55.4718 184.673 55.6985 183.747 56.1518 182.92C56.6185 182.093 57.2518 181.453 58.0518 181C58.8651 180.533 59.7785 180.3 60.7918 180.3C61.8051 180.3 62.7051 180.533 63.4918 181C64.2918 181.453 64.9118 182.093 65.3518 182.92C65.8051 183.747 66.0318 184.693 66.0318 185.76ZM60.7918 181.92C59.8718 181.92 59.0985 182.2 58.4718 182.76C57.8585 183.32 57.4985 184.053 57.3918 184.96H64.1918C64.0851 184.067 63.7185 183.34 63.0918 182.78C62.4785 182.207 61.7118 181.92 60.7918 181.92ZM79.6146 189.32V193.46H77.8146V191H68.9546V193.46H67.1346V189.32H67.6946C68.3746 189.28 68.8413 188.8 69.0946 187.88C69.3479 186.96 69.5213 185.66 69.6146 183.98L69.7746 180.4H77.9946V189.32H79.6146ZM71.3746 184.12C71.3213 185.453 71.2079 186.56 71.0346 187.44C70.8746 188.307 70.5746 188.933 70.1346 189.32H76.0746V182.08H71.4746L71.3746 184.12ZM85.8959 180.3C87.3625 180.3 88.4825 180.66 89.2559 181.38C90.0425 182.1 90.4359 183.173 90.4359 184.6V191H88.6159V189.6C88.2959 190.093 87.8359 190.473 87.2359 190.74C86.6492 190.993 85.9492 191.12 85.1359 191.12C83.9492 191.12 82.9959 190.833 82.2759 190.26C81.5692 189.687 81.2159 188.933 81.2159 188C81.2159 187.067 81.5559 186.32 82.2359 185.76C82.9159 185.187 83.9959 184.9 85.4759 184.9H88.5159V184.52C88.5159 183.693 88.2759 183.06 87.7959 182.62C87.3159 182.18 86.6092 181.96 85.6759 181.96C85.0492 181.96 84.4359 182.067 83.8359 182.28C83.2359 182.48 82.7292 182.753 82.3159 183.1L81.5159 181.66C82.0625 181.22 82.7159 180.887 83.4759 180.66C84.2359 180.42 85.0425 180.3 85.8959 180.3ZM85.4559 189.64C86.1892 189.64 86.8225 189.48 87.3559 189.16C87.8892 188.827 88.2759 188.36 88.5159 187.76V186.28H85.5559C83.9292 186.28 83.1159 186.827 83.1159 187.92C83.1159 188.453 83.3225 188.873 83.7359 189.18C84.1492 189.487 84.7225 189.64 85.4559 189.64ZM98.0132 186.52H95.8132V191H93.8932V180.4H95.8132V184.88H98.0532L101.493 180.4H103.553L99.5332 185.5L103.833 191H101.573L98.0132 186.52ZM113.571 182.08H109.691V191H107.771V182.08H103.891V180.4H113.571V182.08ZM115.534 180.4H117.454V188.12L123.954 180.4H125.694V191H123.774V183.28L117.294 191H115.534V180.4ZM135.041 180.3C136.067 180.3 136.987 180.527 137.801 180.98C138.614 181.433 139.247 182.067 139.701 182.88C140.167 183.693 140.401 184.633 140.401 185.7C140.401 186.767 140.167 187.713 139.701 188.54C139.247 189.353 138.614 189.987 137.801 190.44C136.987 190.893 136.067 191.12 135.041 191.12C134.281 191.12 133.581 190.973 132.941 190.68C132.314 190.387 131.781 189.96 131.341 189.4V194.88H129.421V180.4H131.261V182.08C131.687 181.493 132.227 181.053 132.881 180.76C133.534 180.453 134.254 180.3 135.041 180.3ZM134.881 189.44C135.561 189.44 136.167 189.287 136.701 188.98C137.247 188.66 137.674 188.22 137.981 187.66C138.301 187.087 138.461 186.433 138.461 185.7C138.461 184.967 138.301 184.32 137.981 183.76C137.674 183.187 137.247 182.747 136.701 182.44C136.167 182.133 135.561 181.98 134.881 181.98C134.214 181.98 133.607 182.14 133.061 182.46C132.527 182.767 132.101 183.2 131.781 183.76C131.474 184.32 131.321 184.967 131.321 185.7C131.321 186.433 131.474 187.087 131.781 187.66C132.087 188.22 132.514 188.66 133.061 188.98C133.607 189.287 134.214 189.44 134.881 189.44ZM152.357 180.4L147.217 192.06C146.764 193.14 146.23 193.9 145.617 194.34C145.017 194.78 144.29 195 143.437 195C142.917 195 142.41 194.913 141.917 194.74C141.437 194.58 141.037 194.34 140.717 194.02L141.537 192.58C142.084 193.1 142.717 193.36 143.437 193.36C143.904 193.36 144.29 193.233 144.597 192.98C144.917 192.74 145.204 192.32 145.457 191.72L145.797 190.98L141.117 180.4H143.117L146.817 188.88L150.477 180.4H152.357ZM163.61 185.76C163.61 185.907 163.597 186.1 163.57 186.34H154.97C155.09 187.273 155.497 188.027 156.19 188.6C156.897 189.16 157.77 189.44 158.81 189.44C160.077 189.44 161.097 189.013 161.87 188.16L162.93 189.4C162.45 189.96 161.85 190.387 161.13 190.68C160.423 190.973 159.63 191.12 158.75 191.12C157.63 191.12 156.637 190.893 155.77 190.44C154.903 189.973 154.23 189.327 153.75 188.5C153.283 187.673 153.05 186.74 153.05 185.7C153.05 184.673 153.277 183.747 153.73 182.92C154.197 182.093 154.83 181.453 155.63 181C156.443 180.533 157.357 180.3 158.37 180.3C159.383 180.3 160.283 180.533 161.07 181C161.87 181.453 162.49 182.093 162.93 182.92C163.383 183.747 163.61 184.693 163.61 185.76ZM158.37 181.92C157.45 181.92 156.677 182.2 156.05 182.76C155.437 183.32 155.077 184.053 154.97 184.96H161.77C161.663 184.067 161.297 183.34 160.67 182.78C160.057 182.207 159.29 181.92 158.37 181.92ZM178.809 180.4V191H177.069V183.26L173.109 189.8H172.269L168.349 183.24V191H166.589V180.4H168.569L172.729 187.56L177.009 180.4H178.809ZM200.137 180.4V191H198.397V183.26L194.437 189.8H193.597L189.677 183.24V191H187.917V180.4H189.897L194.057 187.56L198.337 180.4H200.137ZM207.654 180.3C209.12 180.3 210.24 180.66 211.014 181.38C211.8 182.1 212.194 183.173 212.194 184.6V191H210.374V189.6C210.054 190.093 209.594 190.473 208.994 190.74C208.407 190.993 207.707 191.12 206.894 191.12C205.707 191.12 204.754 190.833 204.034 190.26C203.327 189.687 202.974 188.933 202.974 188C202.974 187.067 203.314 186.32 203.994 185.76C204.674 185.187 205.754 184.9 207.234 184.9H210.274V184.52C210.274 183.693 210.034 183.06 209.554 182.62C209.074 182.18 208.367 181.96 207.434 181.96C206.807 181.96 206.194 182.067 205.594 182.28C204.994 182.48 204.487 182.753 204.074 183.1L203.274 181.66C203.82 181.22 204.474 180.887 205.234 180.66C205.994 180.42 206.8 180.3 207.654 180.3ZM207.214 189.64C207.947 189.64 208.58 189.48 209.114 189.16C209.647 188.827 210.034 188.36 210.274 187.76V186.28H207.314C205.687 186.28 204.874 186.827 204.874 187.92C204.874 188.453 205.08 188.873 205.494 189.18C205.907 189.487 206.48 189.64 207.214 189.64ZM219.771 186.52H217.571V191H215.651V180.4H217.571V184.88H219.811L223.251 180.4H225.311L221.291 185.5L225.591 191H223.331L219.771 186.52ZM236.833 185.76C236.833 185.907 236.819 186.1 236.793 186.34H228.193C228.313 187.273 228.719 188.027 229.413 188.6C230.119 189.16 230.993 189.44 232.033 189.44C233.299 189.44 234.319 189.013 235.093 188.16L236.153 189.4C235.673 189.96 235.073 190.387 234.353 190.68C233.646 190.973 232.853 191.12 231.973 191.12C230.853 191.12 229.859 190.893 228.993 190.44C228.126 189.973 227.453 189.327 226.973 188.5C226.506 187.673 226.273 186.74 226.273 185.7C226.273 184.673 226.499 183.747 226.953 182.92C227.419 182.093 228.053 181.453 228.853 181C229.666 180.533 230.579 180.3 231.593 180.3C232.606 180.3 233.506 180.533 234.293 181C235.093 181.453 235.713 182.093 236.153 182.92C236.606 183.747 236.833 184.693 236.833 185.76ZM231.593 181.92C230.673 181.92 229.899 182.2 229.273 182.76C228.659 183.32 228.299 184.053 228.193 184.96H234.993C234.886 184.067 234.519 183.34 233.893 182.78C233.279 182.207 232.513 181.92 231.593 181.92ZM247.262 182.08H243.382V191H241.462V182.08H237.582V180.4H247.262V182.08ZM248.708 188.38C249.082 188.38 249.388 188.513 249.628 188.78C249.882 189.033 250.008 189.353 250.008 189.74C250.008 189.94 249.982 190.133 249.928 190.32C249.888 190.507 249.802 190.793 249.668 191.18L248.728 193.96H247.468L248.208 190.98C247.955 190.887 247.748 190.733 247.588 190.52C247.442 190.293 247.368 190.033 247.368 189.74C247.368 189.34 247.495 189.013 247.748 188.76C248.002 188.507 248.322 188.38 248.708 188.38ZM11.7282 211.4V222H9.8082V217.72C8.66154 218.253 7.52154 218.52 6.3882 218.52C5.0682 218.52 4.0482 218.213 3.3282 217.6C2.6082 216.987 2.2482 216.067 2.2482 214.84V211.4H4.1682V214.72C4.1682 215.453 4.39487 216.007 4.8482 216.38C5.31487 216.753 5.96154 216.94 6.7882 216.94C7.72154 216.94 8.7282 216.707 9.8082 216.24V211.4H11.7282ZM23.3557 213.08H19.4757V222H17.5557V213.08H13.6757V211.4H23.3557V213.08ZM29.3902 222.12C28.3369 222.12 27.3902 221.887 26.5502 221.42C25.7102 220.953 25.0502 220.313 24.5702 219.5C24.1036 218.673 23.8702 217.74 23.8702 216.7C23.8702 215.66 24.1036 214.733 24.5702 213.92C25.0502 213.093 25.7102 212.453 26.5502 212C27.3902 211.533 28.3369 211.3 29.3902 211.3C30.4436 211.3 31.3836 211.533 32.2102 212C33.0502 212.453 33.7036 213.093 34.1702 213.92C34.6502 214.733 34.8902 215.66 34.8902 216.7C34.8902 217.74 34.6502 218.673 34.1702 219.5C33.7036 220.313 33.0502 220.953 32.2102 221.42C31.3836 221.887 30.4436 222.12 29.3902 222.12ZM29.3902 220.44C30.0702 220.44 30.6769 220.287 31.2102 219.98C31.7569 219.66 32.1836 219.22 32.4902 218.66C32.7969 218.087 32.9502 217.433 32.9502 216.7C32.9502 215.967 32.7969 215.32 32.4902 214.76C32.1836 214.187 31.7569 213.747 31.2102 213.44C30.6769 213.133 30.0702 212.98 29.3902 212.98C28.7102 212.98 28.0969 213.133 27.5502 213.44C27.0169 213.747 26.5902 214.187 26.2702 214.76C25.9636 215.32 25.8102 215.967 25.8102 216.7C25.8102 217.433 25.9636 218.087 26.2702 218.66C26.5902 219.22 27.0169 219.66 27.5502 219.98C28.0969 220.287 28.7102 220.44 29.3902 220.44ZM43.0627 211.76C44.0494 211.76 44.9294 211.98 45.7027 212.42C46.4761 212.86 47.0761 213.473 47.5027 214.26C47.9427 215.033 48.1627 215.92 48.1627 216.92C48.1627 217.947 47.9294 218.86 47.4627 219.66C47.0094 220.447 46.3627 221.06 45.5227 221.5C44.6961 221.94 43.7494 222.16 42.6827 222.16C40.8827 222.16 39.4894 221.547 38.5027 220.32C37.5294 219.08 37.0427 217.34 37.0427 215.1C37.0427 212.927 37.4894 211.227 38.3827 210C39.2761 208.76 40.6427 207.94 42.4827 207.54L47.3227 206.46L47.6027 208.22L43.1427 209.18C41.7561 209.487 40.7227 210.007 40.0427 210.74C39.3627 211.473 38.9761 212.527 38.8827 213.9C39.3361 213.22 39.9227 212.693 40.6427 212.32C41.3627 211.947 42.1694 211.76 43.0627 211.76ZM42.7227 220.56C43.4027 220.56 44.0027 220.407 44.5227 220.1C45.0561 219.793 45.4694 219.373 45.7627 218.84C46.0561 218.293 46.2027 217.673 46.2027 216.98C46.2027 215.927 45.8827 215.08 45.2427 214.44C44.6027 213.8 43.7627 213.48 42.7227 213.48C41.6827 213.48 40.8361 213.8 40.1827 214.44C39.5427 215.08 39.2227 215.927 39.2227 216.98C39.2227 217.673 39.3694 218.293 39.6627 218.84C39.9694 219.373 40.3894 219.793 40.9227 220.1C41.4561 220.407 42.0561 220.56 42.7227 220.56ZM55.6849 215C57.0183 215.013 58.0383 215.32 58.7449 215.92C59.4516 216.52 59.8049 217.367 59.8049 218.46C59.8049 219.607 59.4183 220.493 58.6449 221.12C57.8849 221.733 56.7916 222.033 55.3649 222.02L50.9049 222V211.4H52.8249V214.98L55.6849 215ZM61.3849 211.4H63.3049V222H61.3849V211.4ZM55.2249 220.56C56.0916 220.573 56.7449 220.4 57.1849 220.04C57.6383 219.68 57.8649 219.147 57.8649 218.44C57.8649 217.747 57.6449 217.24 57.2049 216.92C56.7649 216.6 56.1049 216.433 55.2249 216.42L52.8249 216.38V220.54L55.2249 220.56ZM72.4088 211.4H74.3288V215.9H80.3688V211.4H82.2888V222H80.3688V217.56H74.3288V222H72.4088V211.4ZM89.8021 211.3C91.2688 211.3 92.3888 211.66 93.1621 212.38C93.9488 213.1 94.3421 214.173 94.3421 215.6V222H92.5221V220.6C92.2021 221.093 91.7421 221.473 91.1421 221.74C90.5554 221.993 89.8554 222.12 89.0421 222.12C87.8554 222.12 86.9021 221.833 86.1821 221.26C85.4754 220.687 85.1221 219.933 85.1221 219C85.1221 218.067 85.4621 217.32 86.1421 216.76C86.8221 216.187 87.9021 215.9 89.3821 215.9H92.4221V215.52C92.4221 214.693 92.1821 214.06 91.7021 213.62C91.2221 213.18 90.5154 212.96 89.5821 212.96C88.9554 212.96 88.3421 213.067 87.7421 213.28C87.1421 213.48 86.6354 213.753 86.2221 214.1L85.4221 212.66C85.9688 212.22 86.6221 211.887 87.3821 211.66C88.1421 211.42 88.9488 211.3 89.8021 211.3ZM89.3621 220.64C90.0954 220.64 90.7288 220.48 91.2621 220.16C91.7954 219.827 92.1821 219.36 92.4221 218.76V217.28H89.4621C87.8354 217.28 87.0221 217.827 87.0221 218.92C87.0221 219.453 87.2288 219.873 87.6421 220.18C88.0554 220.487 88.6288 220.64 89.3621 220.64ZM107.711 222.12C106.657 222.12 105.711 221.887 104.871 221.42C104.031 220.953 103.371 220.313 102.891 219.5C102.424 218.673 102.191 217.74 102.191 216.7C102.191 215.66 102.424 214.733 102.891 213.92C103.371 213.093 104.031 212.453 104.871 212C105.711 211.533 106.657 211.3 107.711 211.3C108.764 211.3 109.704 211.533 110.531 212C111.371 212.453 112.024 213.093 112.491 213.92C112.971 214.733 113.211 215.66 113.211 216.7C113.211 217.74 112.971 218.673 112.491 219.5C112.024 220.313 111.371 220.953 110.531 221.42C109.704 221.887 108.764 222.12 107.711 222.12ZM107.711 220.44C108.391 220.44 108.997 220.287 109.531 219.98C110.077 219.66 110.504 219.22 110.811 218.66C111.117 218.087 111.271 217.433 111.271 216.7C111.271 215.967 111.117 215.32 110.811 214.76C110.504 214.187 110.077 213.747 109.531 213.44C108.997 213.133 108.391 212.98 107.711 212.98C107.031 212.98 106.417 213.133 105.871 213.44C105.337 213.747 104.911 214.187 104.591 214.76C104.284 215.32 104.131 215.967 104.131 216.7C104.131 217.433 104.284 218.087 104.591 218.66C104.911 219.22 105.337 219.66 105.871 219.98C106.417 220.287 107.031 220.44 107.711 220.44ZM123.492 213.08H119.612V222H117.692V213.08H113.812V211.4H123.492V213.08ZM134.92 217.52H132.86V222H130.94V217.52H128.88L125.96 222H123.68L127.32 216.52L123.96 211.4H126L128.86 215.88H130.94V211.4H132.86V215.88H134.94L137.8 211.4H139.86L136.5 216.54L140.14 222H137.86L134.92 217.52ZM142.253 211.4H144.173V219.12L150.673 211.4H152.413V222H150.493V214.28L144.013 222H142.253V211.4ZM163.939 213.08H158.059V222H156.139V211.4H163.939V213.08ZM175.016 216.76C175.016 216.907 175.003 217.1 174.976 217.34H166.376C166.496 218.273 166.903 219.027 167.596 219.6C168.303 220.16 169.176 220.44 170.216 220.44C171.483 220.44 172.503 220.013 173.276 219.16L174.336 220.4C173.856 220.96 173.256 221.387 172.536 221.68C171.83 221.973 171.036 222.12 170.156 222.12C169.036 222.12 168.043 221.893 167.176 221.44C166.31 220.973 165.636 220.327 165.156 219.5C164.69 218.673 164.456 217.74 164.456 216.7C164.456 215.673 164.683 214.747 165.136 213.92C165.603 213.093 166.236 212.453 167.036 212C167.85 211.533 168.763 211.3 169.776 211.3C170.79 211.3 171.69 211.533 172.476 212C173.276 212.453 173.896 213.093 174.336 213.92C174.79 214.747 175.016 215.693 175.016 216.76ZM169.776 212.92C168.856 212.92 168.083 213.2 167.456 213.76C166.843 214.32 166.483 215.053 166.376 215.96H173.176C173.07 215.067 172.703 214.34 172.076 213.78C171.463 213.207 170.696 212.92 169.776 212.92ZM192.466 211.4V222H190.546V213.08H185.986L185.866 215.44C185.799 216.867 185.673 218.06 185.486 219.02C185.299 219.967 184.993 220.727 184.566 221.3C184.139 221.873 183.546 222.16 182.786 222.16C182.439 222.16 182.046 222.1 181.606 221.98L181.726 220.36C181.899 220.4 182.059 220.42 182.206 220.42C182.739 220.42 183.139 220.187 183.406 219.72C183.673 219.253 183.846 218.7 183.926 218.06C184.006 217.42 184.079 216.507 184.146 215.32L184.326 211.4H192.466ZM196.178 211.4H198.098V219.12L204.598 211.4H206.338V222H204.418V214.28L197.938 222H196.178V211.4ZM210.065 211.4H211.985V215.9H218.025V211.4H219.945V222H218.025V217.56H211.985V222H210.065V211.4ZM223.678 211.4H225.598V219.12L232.098 211.4H233.838V222H231.918V214.28L225.438 222H223.678V211.4ZM237.565 211.4H239.485V219.12L245.985 211.4H247.725V222H245.805V214.28L239.325 222H237.565V211.4ZM25.2202 252L22.1602 247.94L19.0602 252H16.9202L21.1002 246.58L17.1202 241.4H19.2602L22.1802 245.22L25.0802 241.4H27.1802L23.1802 246.58L27.4002 252H25.2202ZM33.609 252.12C32.5557 252.12 31.609 251.887 30.769 251.42C29.929 250.953 29.269 250.313 28.789 249.5C28.3223 248.673 28.089 247.74 28.089 246.7C28.089 245.66 28.3223 244.733 28.789 243.92C29.269 243.093 29.929 242.453 30.769 242C31.609 241.533 32.5557 241.3 33.609 241.3C34.6623 241.3 35.6023 241.533 36.429 242C37.269 242.453 37.9223 243.093 38.389 243.92C38.869 244.733 39.109 245.66 39.109 246.7C39.109 247.74 38.869 248.673 38.389 249.5C37.9223 250.313 37.269 250.953 36.429 251.42C35.6023 251.887 34.6623 252.12 33.609 252.12ZM33.609 250.44C34.289 250.44 34.8957 250.287 35.429 249.98C35.9757 249.66 36.4023 249.22 36.709 248.66C37.0157 248.087 37.169 247.433 37.169 246.7C37.169 245.967 37.0157 245.32 36.709 244.76C36.4023 244.187 35.9757 243.747 35.429 243.44C34.8957 243.133 34.289 242.98 33.609 242.98C32.929 242.98 32.3157 243.133 31.769 243.44C31.2357 243.747 30.809 244.187 30.489 244.76C30.1823 245.32 30.029 245.967 30.029 246.7C30.029 247.433 30.1823 248.087 30.489 248.66C30.809 249.22 31.2357 249.66 31.769 249.98C32.3157 250.287 32.929 250.44 33.609 250.44ZM47.5015 241.3C48.5282 241.3 49.4482 241.527 50.2615 241.98C51.0748 242.433 51.7082 243.067 52.1615 243.88C52.6282 244.693 52.8615 245.633 52.8615 246.7C52.8615 247.767 52.6282 248.713 52.1615 249.54C51.7082 250.353 51.0748 250.987 50.2615 251.44C49.4482 251.893 48.5282 252.12 47.5015 252.12C46.7415 252.12 46.0415 251.973 45.4015 251.68C44.7748 251.387 44.2415 250.96 43.8015 250.4V255.88H41.8815V241.4H43.7215V243.08C44.1482 242.493 44.6882 242.053 45.3415 241.76C45.9948 241.453 46.7148 241.3 47.5015 241.3ZM47.3415 250.44C48.0215 250.44 48.6282 250.287 49.1615 249.98C49.7082 249.66 50.1348 249.22 50.4415 248.66C50.7615 248.087 50.9215 247.433 50.9215 246.7C50.9215 245.967 50.7615 245.32 50.4415 244.76C50.1348 244.187 49.7082 243.747 49.1615 243.44C48.6282 243.133 48.0215 242.98 47.3415 242.98C46.6748 242.98 46.0682 243.14 45.5215 243.46C44.9882 243.767 44.5615 244.2 44.2415 244.76C43.9348 245.32 43.7815 245.967 43.7815 246.7C43.7815 247.433 43.9348 248.087 44.2415 248.66C44.5482 249.22 44.9748 249.66 45.5215 249.98C46.0682 250.287 46.6748 250.44 47.3415 250.44ZM60.191 252.12C59.1377 252.12 58.191 251.887 57.351 251.42C56.511 250.953 55.851 250.313 55.371 249.5C54.9043 248.673 54.671 247.74 54.671 246.7C54.671 245.66 54.9043 244.733 55.371 243.92C55.851 243.093 56.511 242.453 57.351 242C58.191 241.533 59.1377 241.3 60.191 241.3C61.2443 241.3 62.1843 241.533 63.011 242C63.851 242.453 64.5043 243.093 64.971 243.92C65.451 244.733 65.691 245.66 65.691 246.7C65.691 247.74 65.451 248.673 64.971 249.5C64.5043 250.313 63.851 250.953 63.011 251.42C62.1843 251.887 61.2443 252.12 60.191 252.12ZM60.191 250.44C60.871 250.44 61.4777 250.287 62.011 249.98C62.5577 249.66 62.9843 249.22 63.291 248.66C63.5977 248.087 63.751 247.433 63.751 246.7C63.751 245.967 63.5977 245.32 63.291 244.76C62.9843 244.187 62.5577 243.747 62.011 243.44C61.4777 243.133 60.871 242.98 60.191 242.98C59.511 242.98 58.8977 243.133 58.351 243.44C57.8177 243.747 57.391 244.187 57.071 244.76C56.7643 245.32 56.611 245.967 56.611 246.7C56.611 247.433 56.7643 248.087 57.071 248.66C57.391 249.22 57.8177 249.66 58.351 249.98C58.8977 250.287 59.511 250.44 60.191 250.44ZM83.5635 241.4V252H68.4635V241.4H70.3835V250.32H75.0635V241.4H76.9835V250.32H81.6435V241.4H83.5635ZM91.8316 252.12C90.7783 252.12 89.8316 251.887 88.9916 251.42C88.1516 250.953 87.4916 250.313 87.0116 249.5C86.545 248.673 86.3116 247.74 86.3116 246.7C86.3116 245.66 86.545 244.733 87.0116 243.92C87.4916 243.093 88.1516 242.453 88.9916 242C89.8316 241.533 90.7783 241.3 91.8316 241.3C92.885 241.3 93.825 241.533 94.6516 242C95.4916 242.453 96.145 243.093 96.6116 243.92C97.0916 244.733 97.3316 245.66 97.3316 246.7C97.3316 247.74 97.0916 248.673 96.6116 249.5C96.145 250.313 95.4916 250.953 94.6516 251.42C93.825 251.887 92.885 252.12 91.8316 252.12ZM91.8316 250.44C92.5116 250.44 93.1183 250.287 93.6516 249.98C94.1983 249.66 94.625 249.22 94.9316 248.66C95.2383 248.087 95.3916 247.433 95.3916 246.7C95.3916 245.967 95.2383 245.32 94.9316 244.76C94.625 244.187 94.1983 243.747 93.6516 243.44C93.1183 243.133 92.5116 242.98 91.8316 242.98C91.1516 242.98 90.5383 243.133 89.9916 243.44C89.4583 243.747 89.0316 244.187 88.7116 244.76C88.405 245.32 88.2516 245.967 88.2516 246.7C88.2516 247.433 88.405 248.087 88.7116 248.66C89.0316 249.22 89.4583 249.66 89.9916 249.98C90.5383 250.287 91.1516 250.44 91.8316 250.44ZM110.875 241.76C111.862 241.76 112.742 241.98 113.515 242.42C114.289 242.86 114.889 243.473 115.315 244.26C115.755 245.033 115.975 245.92 115.975 246.92C115.975 247.947 115.742 248.86 115.275 249.66C114.822 250.447 114.175 251.06 113.335 251.5C112.509 251.94 111.562 252.16 110.495 252.16C108.695 252.16 107.302 251.547 106.315 250.32C105.342 249.08 104.855 247.34 104.855 245.1C104.855 242.927 105.302 241.227 106.195 240C107.089 238.76 108.455 237.94 110.295 237.54L115.135 236.46L115.415 238.22L110.955 239.18C109.569 239.487 108.535 240.007 107.855 240.74C107.175 241.473 106.789 242.527 106.695 243.9C107.149 243.22 107.735 242.693 108.455 242.32C109.175 241.947 109.982 241.76 110.875 241.76ZM110.535 250.56C111.215 250.56 111.815 250.407 112.335 250.1C112.869 249.793 113.282 249.373 113.575 248.84C113.869 248.293 114.015 247.673 114.015 246.98C114.015 245.927 113.695 245.08 113.055 244.44C112.415 243.8 111.575 243.48 110.535 243.48C109.495 243.48 108.649 243.8 107.995 244.44C107.355 245.08 107.035 245.927 107.035 246.98C107.035 247.673 107.182 248.293 107.475 248.84C107.782 249.373 108.202 249.793 108.735 250.1C109.269 250.407 109.869 250.56 110.535 250.56ZM123.497 245C124.831 245.013 125.851 245.32 126.557 245.92C127.264 246.52 127.617 247.367 127.617 248.46C127.617 249.607 127.231 250.493 126.457 251.12C125.697 251.733 124.604 252.033 123.177 252.02L118.717 252V241.4H120.637V244.98L123.497 245ZM129.197 241.4H131.117V252H129.197V241.4ZM123.037 250.56C123.904 250.573 124.557 250.4 124.997 250.04C125.451 249.68 125.677 249.147 125.677 248.44C125.677 247.747 125.457 247.24 125.017 246.92C124.577 246.6 123.917 246.433 123.037 246.42L120.637 246.38V250.54L123.037 250.56ZM143.95 241.4V252H142.03V243.08H137.47L137.35 245.44C137.284 246.867 137.157 248.06 136.97 249.02C136.784 249.967 136.477 250.727 136.05 251.3C135.624 251.873 135.03 252.16 134.27 252.16C133.924 252.16 133.53 252.1 133.09 251.98L133.21 250.36C133.384 250.4 133.544 250.42 133.69 250.42C134.224 250.42 134.624 250.187 134.89 249.72C135.157 249.253 135.33 248.7 135.41 248.06C135.49 247.42 135.564 246.507 135.63 245.32L135.81 241.4H143.95ZM147.663 241.4H149.583V249.12L156.083 241.4H157.823V252H155.903V244.28L149.423 252H147.663V241.4ZM174.141 246.5C175.514 246.847 176.201 247.707 176.201 249.08C176.201 250.013 175.847 250.733 175.141 251.24C174.447 251.747 173.407 252 172.021 252H166.921V241.4H171.841C173.094 241.4 174.074 241.64 174.781 242.12C175.487 242.587 175.841 243.253 175.841 244.12C175.841 244.68 175.687 245.167 175.381 245.58C175.087 245.98 174.674 246.287 174.141 246.5ZM168.801 245.96H171.681C172.414 245.96 172.967 245.827 173.341 245.56C173.727 245.293 173.921 244.907 173.921 244.4C173.921 243.387 173.174 242.88 171.681 242.88H168.801V245.96ZM171.881 250.52C172.681 250.52 173.281 250.393 173.681 250.14C174.081 249.887 174.281 249.493 174.281 248.96C174.281 248.413 174.094 248.007 173.721 247.74C173.361 247.473 172.787 247.34 172.001 247.34H168.801V250.52H171.881ZM179.206 241.4H181.126V249.12L187.626 241.4H189.366V252H187.446V244.28L180.966 252H179.206V241.4ZM203.872 250.32V254.46H202.072V252H193.212V254.46H191.392V250.32H191.952C192.632 250.28 193.099 249.8 193.352 248.88C193.606 247.96 193.779 246.66 193.872 244.98L194.032 241.4H202.252V250.32H203.872ZM195.632 245.12C195.579 246.453 195.466 247.56 195.292 248.44C195.132 249.307 194.832 249.933 194.392 250.32H200.332V243.08H195.732L195.632 245.12ZM206.374 241.4H208.294V245.9H214.334V241.4H216.254V252H214.334V247.56H208.294V252H206.374V241.4ZM224.767 245C226.1 245.013 227.12 245.32 227.827 245.92C228.534 246.52 228.887 247.367 228.887 248.46C228.887 249.607 228.5 250.493 227.727 251.12C226.967 251.733 225.874 252.033 224.447 252.02L219.987 252V241.4H221.907V244.98L224.767 245ZM230.467 241.4H232.387V252H230.467V241.4ZM224.307 250.56C225.174 250.573 225.827 250.4 226.267 250.04C226.72 249.68 226.947 249.147 226.947 248.44C226.947 247.747 226.727 247.24 226.287 246.92C225.847 246.6 225.187 246.433 224.307 246.42L221.907 246.38V250.54L224.307 250.56Z" fill="#363636"/>
<circle cx="125" cy="73" r="72" stroke="#FE201D" stroke-width="2"/>
<g clip-path="url(#clip0_1_518)">
<path d="M147.465 66.8764L148.67 65.1695C149.439 64.0905 149.753 62.7462 149.543 61.4326C149.332 60.1194 148.614 58.9445 147.547 58.1665L146.311 57.2586C145.244 56.4806 143.915 56.1629 142.617 56.376C141.319 56.5892 140.157 57.3155 139.388 58.3948L139.347 58.452V51.8999C139.346 50.8795 138.944 49.9014 138.231 49.1795C137.518 48.458 136.551 48.052 135.542 48.0509H115.029C113.956 48.0433 112.926 48.471 112.167 49.2388L102.414 59.0952C101.656 59.8587 101.231 60.8972 101.234 61.9795V92.2285C101.236 93.249 101.637 94.227 102.351 94.9489C103.064 95.6705 104.031 96.0765 105.039 96.0776H135.542C136.552 96.0765 137.52 95.6698 138.233 94.9468C138.947 94.2242 139.347 93.2446 139.347 92.2235V78.4191C139.35 78.3738 139.35 78.329 139.347 78.2841L145.968 68.9511L144.5 68C144.834 68.2414 142.934 69.09 143 69.5C143.065 69.9103 142.242 70.6646 142 71L140 73.5C139.586 74.0819 139.717 74.8924 140.292 75.3107C140.867 75.7291 140.586 75.0819 141 74.5L144.5 70.5C145.141 69.6059 145.883 68.8962 145.968 68.9511L147.465 66.8764ZM112.599 52.476V58.9504C112.599 59.2768 112.337 59.5416 112.014 59.5416H105.594L112.599 52.476ZM136.783 92.2284C136.783 92.9224 136.228 93.4862 135.542 93.4891H105.039C104.709 93.4891 104.393 93.3559 104.16 93.1192C103.927 92.8829 103.797 92.5624 103.798 92.2284V62.1406H112.004C112.838 62.1391 113.639 61.8033 114.229 61.2063C114.819 60.6092 115.151 59.7997 115.152 58.9555V50.6553H135.542C135.872 50.6553 136.187 50.7877 136.42 51.0229C136.653 51.2585 136.783 51.578 136.783 51.9109V62.047L123.963 80.032C123.839 80.2068 123.759 80.4102 123.732 80.6233L122.517 90.023C122.457 90.4955 122.657 90.9634 123.039 91.2417C123.421 91.5203 123.924 91.5641 124.347 91.3564L132.778 87.2062C132.97 87.1125 133.136 86.9714 133.26 86.7963L136.783 81.8526L136.783 92.2284ZM126.106 82.2683C127.052 82.3515 127.958 82.6917 128.728 83.2533C129.498 83.8152 130.104 84.5769 130.48 85.4588L125.352 87.9697L126.106 82.2683ZM146.619 63.6506L132.408 83.5707C131.297 81.6482 129.434 80.2898 127.28 79.8306L141.491 59.9104C141.862 59.3886 142.423 59.038 143.05 58.9349C143.677 58.8318 144.319 58.9848 144.834 59.3604L146.081 60.2683C146.597 60.6436 146.943 61.2117 147.044 61.8464C147.145 62.4811 146.992 63.1301 146.619 63.6506Z" fill="#FE201D"/>
<path d="M145.968 68.9511L139.347 78.2841C139.35 78.329 139.35 78.3738 139.347 78.4191V92.2235C139.347 93.2446 138.947 94.2242 138.233 94.9468C137.52 95.6698 136.552 96.0765 135.542 96.0776H105.039C104.031 96.0765 103.064 95.6705 102.351 94.9489C101.637 94.227 101.236 93.249 101.234 92.2285V61.9795C101.231 60.8972 101.656 59.8587 102.414 59.0952L112.167 49.2388C112.926 48.471 113.956 48.0433 115.029 48.0509H135.542C136.551 48.052 137.518 48.458 138.231 49.1795C138.944 49.9014 139.346 50.8795 139.347 51.8999V58.452L139.388 58.3948C140.157 57.3155 141.319 56.5892 142.617 56.376C143.915 56.1629 145.244 56.4806 146.311 57.2586L147.547 58.1665C148.614 58.9445 149.332 60.1194 149.543 61.4326C149.753 62.7462 149.439 64.0905 148.67 65.1695L147.465 66.8764L145.968 68.9511ZM145.968 68.9511L144.5 68C144.834 68.2414 142.934 69.09 143 69.5C143.065 69.9103 142.242 70.6646 142 71L140 73.5C139.586 74.0819 139.717 74.8924 140.292 75.3107C140.867 75.7291 140.586 75.0819 141 74.5L144.5 70.5C145.141 69.6059 145.883 68.8962 145.968 68.9511ZM112.599 52.476V58.9504C112.599 59.2768 112.337 59.5416 112.014 59.5416H105.594L112.599 52.476ZM136.783 92.2284C136.783 92.9224 136.228 93.4862 135.542 93.4891H105.039C104.709 93.4891 104.393 93.3559 104.16 93.1192C103.927 92.883 103.797 92.5624 103.798 92.2284V62.1406H112.004C112.838 62.1391 113.639 61.8033 114.229 61.2063C114.819 60.6092 115.151 59.7997 115.152 58.9555V50.6553H135.542C135.872 50.6553 136.187 50.7877 136.42 51.0229C136.653 51.2585 136.783 51.578 136.783 51.9109V62.047L123.963 80.032C123.839 80.2068 123.759 80.4102 123.732 80.6233L122.517 90.023C122.457 90.4955 122.657 90.9634 123.039 91.2417C123.421 91.5203 123.924 91.5641 124.347 91.3564L132.778 87.2062C132.97 87.1125 133.136 86.9714 133.26 86.7963L136.783 81.8526L136.783 92.2284ZM126.106 82.2683C127.052 82.3515 127.958 82.6917 128.728 83.2533C129.498 83.8152 130.104 84.5769 130.48 85.4588L125.352 87.9697L126.106 82.2683ZM146.619 63.6506L132.408 83.5707C131.297 81.6482 129.434 80.2898 127.28 79.8306L141.491 59.9104C141.862 59.3886 142.423 59.038 143.05 58.9349C143.677 58.8318 144.319 58.9848 144.834 59.3604L146.081 60.2683C146.597 60.6436 146.943 61.2117 147.044 61.8464C147.145 62.4811 146.992 63.1301 146.619 63.6506Z" stroke="white" stroke-width="0.4"/>
<path d="M143 69L144.5 67.5L145.5 68H146.5L144 71.5L142.5 73.5L141.5 74.5L141 75.5L140 76L139.5 75.5V74L141.5 71L142.5 70L143 69Z" fill="#FE201D"/>
</g>
<defs>
<clipPath id="clip0_1_518">
<rect width="49" height="49" fill="white" transform="translate(101 48)"/>
</clipPath>
</defs>
</svg>
