<svg width="29" height="26" viewBox="0 0 29 26" fill="none" xmlns="http://www.w3.org/2000/svg">
<path d="M28.9109 19.2382L28.1779 17.4331C28.1282 17.3156 28.0499 17.2127 27.9501 17.1339L26.6626 16.1365C26.9353 15.4447 26.9838 14.6837 26.8012 13.9624C26.5879 13.025 26.172 12.1464 25.583 11.3893C24.9525 10.5629 24.05 9.99002 23.0376 9.77368C22.4235 9.10548 21.7203 8.38741 21.3538 8.00843L21.2449 6.18334C21.2495 6.12027 21.2495 6.05693 21.2449 5.99385C20.8982 4.99654 19.6305 1.5558 17.7585 1.43612C17.4916 1.44197 17.227 1.38454 16.9861 1.26846C16.7453 1.15239 16.5349 0.980935 16.3719 0.767923C16.3124 0.655021 16.2261 0.558647 16.1207 0.487327C16.0153 0.416006 15.8941 0.371939 15.7678 0.359024L12.3012 -9.42452e-06C12.1883 -0.0108276 12.0745 0.00418419 11.9681 0.0439044C11.8618 0.0836246 11.7657 0.147026 11.6872 0.229373L9.10213 2.90218C8.99314 3.03142 8.9273 3.19192 8.91394 3.36094L8.74557 5.15611L7.50752 6.67203C7.41632 6.7899 7.36124 6.932 7.34905 7.08093L7.17077 8.97583C7.14594 9.08074 7.14594 9.19005 7.17077 9.29497L7.78484 11.1799L4.81353 9.57421C4.70845 9.51747 4.59107 9.48778 4.47183 9.48778C4.3526 9.48778 4.23521 9.51747 4.13013 9.57421L0.990447 11.0702C0.871634 11.1248 0.76898 11.2096 0.692573 11.3163C0.616166 11.4229 0.568636 11.5478 0.554654 11.6785L9.56934e-06 16.2562C-0.0227731 16.4225 0.0122162 16.5916 0.0990533 16.7349L1.75308 19.5274L0.980542 21.522C0.928156 21.669 0.920924 21.8285 0.959787 21.9797C0.998649 22.1309 1.08181 22.2668 1.19844 22.3698L2.78314 23.7461C2.82116 23.7825 2.8646 23.8128 2.91189 23.8358L6.62603 25.9302C6.73638 25.9976 6.86344 26.0322 6.9925 26.0299C7.1334 26.0303 7.27125 25.9887 7.38867 25.9102L10.0133 24.2547H11.9942C12.279 24.2366 12.5517 24.1323 12.7766 23.9555L14.6387 24.7334H14.7377L17.709 25.7307C17.9056 25.7828 18.1144 25.7579 18.2934 25.6609L20.1356 24.6636L21.6906 24.5639C21.7924 24.5549 21.8925 24.5314 21.9877 24.494L23.2951 23.8657C23.446 24.0158 23.579 24.1832 23.6913 24.3644C23.8002 24.7733 24.236 25.3617 26.4744 25.7407H26.5536C26.6726 25.7396 26.7897 25.7111 26.8961 25.6575C27.0025 25.604 27.0954 25.5267 27.1677 25.4315L28.8217 23.1576C28.9042 23.0336 28.9489 22.888 28.9505 22.7388V19.5174C28.9572 19.4226 28.9437 19.3274 28.9109 19.2382ZM11.8159 20.7042C11.7862 20.8355 11.7862 20.9719 11.8159 21.1032L12.0437 22.7089H11.0533L10.1421 20.4051L11.8853 15.3686C11.9003 15.2862 11.9003 15.2017 11.8853 15.1193V12.7158C11.885 12.5417 11.8261 12.3729 11.7181 12.237C11.6102 12.1011 11.4596 12.0062 11.291 11.9678L9.60725 11.6187L8.66633 8.97583L8.8149 7.45991L10.0232 5.98388C10.1213 5.8692 10.1803 5.7259 10.1916 5.57498L10.36 3.82968L12.5092 1.60567L15.2329 1.87494C15.5299 2.21776 15.8948 2.49424 16.3041 2.68661C16.7135 2.87898 17.1583 2.98298 17.61 2.99194C18.1151 2.99194 19.1154 4.64748 19.7196 6.41272L19.8385 8.40736C19.8481 8.5948 19.9256 8.77219 20.0564 8.90601C20.0564 8.90601 20.6506 9.5044 21.2944 10.1826C21.0014 10.3178 20.717 10.471 20.4426 10.6413C20.2894 10.7415 20.1769 10.8936 20.1257 11.0702L19.6503 12.7955L19.0659 13.364L16.6691 13.0349C16.5649 13.0099 16.4563 13.0099 16.3521 13.0349C15.1438 13.384 13.9256 15.4085 13.6878 15.8174C13.6271 15.9272 13.5953 16.0508 13.5953 16.1764C13.5953 16.3021 13.6271 16.4257 13.6878 16.5355C13.8463 16.8646 14.0543 17.6026 13.7671 17.822C12.9115 18.6243 12.2449 19.6091 11.8159 20.7042ZM14.6585 19.0288C15.0346 18.6858 15.2908 18.2297 15.3889 17.7284C15.4871 17.2271 15.4219 16.7073 15.2032 16.2463C15.5831 15.5827 16.0877 15 16.6889 14.5309L19.2442 14.87C19.3579 14.8863 19.4739 14.8768 19.5835 14.8423C19.6932 14.8078 19.7938 14.7491 19.8781 14.6705L20.8685 13.733C20.9653 13.6357 21.0367 13.5158 21.0765 13.384L21.5321 11.7484C21.9722 11.5008 22.4572 11.3448 22.9583 11.2896C23.5529 11.4678 24.0719 11.8396 24.4341 12.3467C24.8798 12.9373 25.1939 13.6176 25.3552 14.3414C25.4281 14.6022 25.4455 14.8757 25.4063 15.1438C25.367 15.4119 25.272 15.6686 25.1274 15.8972C25.064 15.9724 25.0161 16.0594 24.9862 16.1533C24.9564 16.2473 24.9453 16.3462 24.9536 16.4444C24.9619 16.5427 24.9894 16.6383 25.0345 16.7258C25.0796 16.8133 25.1415 16.891 25.2165 16.9543L26.8508 18.2209L27.4549 19.687V22.4196L26.2268 24.0951C25.8253 24.0168 25.4358 23.8861 25.068 23.7062C24.7747 23.1669 24.3734 22.6948 23.8894 22.3199C23.7774 22.2273 23.6415 22.1687 23.4977 22.1511C23.3538 22.1334 23.208 22.1574 23.0772 22.2202L21.4727 22.9981L19.9078 23.0679C19.7912 23.0775 19.6771 23.1079 19.571 23.1576L17.8576 24.155L15.2428 23.3671L13.5195 22.639L13.3016 21.1231C13.6107 20.3409 14.072 19.6288 14.6585 19.0288ZM3.32788 19.7369C3.37858 19.6329 3.40495 19.5186 3.40495 19.4028C3.40495 19.2869 3.37858 19.1726 3.32788 19.0687L1.61442 16.1764L1.98088 12.257L4.45698 11.0403L7.52733 12.7058C7.59162 12.7442 7.66197 12.7711 7.73532 12.7856L10.3105 13.3241V15.0395L8.52767 20.1956C8.45869 20.3719 8.45869 20.5679 8.52767 20.7441L9.35964 22.8584L6.93307 24.3644L3.76367 22.5393L2.62467 21.542L3.32788 19.7369Z" fill="#363636"/>
</svg>
