<svg width="29" height="26" viewBox="0 0 29 26" fill="none" xmlns="http://www.w3.org/2000/svg">
<g clip-path="url(#clip0_1_162)">
<path d="M28.9108 19.2382L28.1779 17.4331C28.1282 17.3156 28.0498 17.2127 27.9501 17.1339L26.6625 16.1365C26.9352 15.4447 26.9837 14.6837 26.8012 13.9624C26.5878 13.025 26.1719 12.1464 25.5829 11.3893C24.9525 10.5629 24.0499 9.99002 23.0375 9.77368C22.4234 9.10548 21.7202 8.38741 21.3538 8.00843L21.2448 6.18334C21.2495 6.12027 21.2495 6.05693 21.2448 5.99385C20.8982 4.99654 19.6304 1.5558 17.7585 1.43612C17.4915 1.44197 17.2269 1.38454 16.9861 1.26846C16.7452 1.15239 16.5348 0.980935 16.3719 0.767923C16.3123 0.655021 16.226 0.558647 16.1206 0.487327C16.0152 0.416006 15.894 0.371939 15.7677 0.359024L12.3012 -9.42452e-06C12.1883 -0.0108276 12.0744 0.00418419 11.9681 0.0439044C11.8617 0.0836246 11.7657 0.147026 11.6871 0.229373L9.10207 2.90218C8.99308 3.03142 8.92724 3.19192 8.91388 3.36094L8.74551 5.15611L7.50746 6.67203C7.41625 6.7899 7.36118 6.932 7.34899 7.08093L7.17071 8.97583C7.14588 9.08074 7.14588 9.19005 7.17071 9.29497L7.78478 11.1799L4.81347 9.57421C4.70839 9.51747 4.59101 9.48778 4.47177 9.48778C4.35254 9.48778 4.23515 9.51747 4.13007 9.57421L0.990386 11.0702C0.871573 11.1248 0.768919 11.2096 0.692512 11.3163C0.616105 11.4229 0.568575 11.5478 0.554593 11.6785L-5.14658e-05 16.2562C-0.0228341 16.4225 0.0121551 16.5916 0.0989922 16.7349L1.75302 19.5274L0.980481 21.522C0.928095 21.669 0.920863 21.8285 0.959726 21.9797C0.998588 22.1309 1.08175 22.2668 1.19838 22.3698L2.78308 23.7461C2.8211 23.7825 2.86454 23.8128 2.91183 23.8358L6.62597 25.9302C6.73632 25.9976 6.86338 26.0322 6.99243 26.0299C7.13333 26.0303 7.27119 25.9887 7.38861 25.9102L10.0133 24.2547H11.9941C12.2789 24.2366 12.5517 24.1323 12.7766 23.9555L14.6386 24.7334H14.7377L17.709 25.7307C17.9055 25.7828 18.1143 25.7579 18.2933 25.6609L20.1355 24.6636L21.6905 24.5639C21.7923 24.5549 21.8924 24.5314 21.9877 24.494L23.295 23.8657C23.446 24.0158 23.579 24.1832 23.6912 24.3644C23.8002 24.7733 24.2359 25.3617 26.4743 25.7407H26.5536C26.6725 25.7396 26.7897 25.7111 26.8961 25.6575C27.0025 25.604 27.0954 25.5267 27.1676 25.4315L28.8217 23.1576C28.9041 23.0336 28.9488 22.888 28.9504 22.7388V19.5174C28.9571 19.4226 28.9436 19.3274 28.9108 19.2382ZM11.8159 20.7042C11.7861 20.8355 11.7861 20.9719 11.8159 21.1032L12.0437 22.7089H11.0532L10.142 20.4051L11.8852 15.3686C11.9003 15.2862 11.9003 15.2017 11.8852 15.1193V12.7158C11.885 12.5417 11.826 12.3729 11.7181 12.237C11.6101 12.1011 11.4595 12.0062 11.2909 11.9678L9.60719 11.6187L8.66627 8.97583L8.81484 7.45991L10.0232 5.98388C10.1213 5.8692 10.1803 5.7259 10.1915 5.57498L10.3599 3.82968L12.5092 1.60567L15.2329 1.87494C15.5298 2.21776 15.8947 2.49424 16.3041 2.68661C16.7134 2.87898 17.1583 2.98298 17.6099 2.99194C18.115 2.99194 19.1154 4.64748 19.7196 6.41272L19.8384 8.40736C19.8481 8.5948 19.9256 8.77219 20.0563 8.90601C20.0563 8.90601 20.6506 9.5044 21.2943 10.1826C21.0014 10.3178 20.7169 10.471 20.4426 10.6413C20.2893 10.7415 20.1769 10.8936 20.1256 11.0702L19.6502 12.7955L19.0659 13.364L16.669 13.0349C16.5648 13.0099 16.4563 13.0099 16.3521 13.0349C15.1437 13.384 13.9255 15.4085 13.6878 15.8174C13.6271 15.9272 13.5952 16.0508 13.5952 16.1764C13.5952 16.3021 13.6271 16.4257 13.6878 16.5355C13.8463 16.8646 14.0543 17.6026 13.767 17.822C12.9115 18.6243 12.2448 19.6091 11.8159 20.7042ZM14.6584 19.0288C15.0345 18.6858 15.2907 18.2297 15.3889 17.7284C15.487 17.2271 15.4219 16.7073 15.2032 16.2463C15.583 15.5827 16.0876 15 16.6888 14.5309L19.2441 14.87C19.3579 14.8863 19.4738 14.8768 19.5835 14.8423C19.6931 14.8078 19.7937 14.7491 19.878 14.6705L20.8685 13.733C20.9652 13.6357 21.0367 13.5158 21.0765 13.384L21.532 11.7484C21.9722 11.5008 22.4572 11.3448 22.9583 11.2896C23.5528 11.4678 24.0718 11.8396 24.434 12.3467C24.8797 12.9373 25.1939 13.6176 25.3551 14.3414C25.4281 14.6022 25.4455 14.8757 25.4062 15.1438C25.367 15.4119 25.2719 15.6686 25.1273 15.8972C25.064 15.9724 25.016 16.0594 24.9862 16.1533C24.9564 16.2473 24.9453 16.3462 24.9536 16.4444C24.9618 16.5427 24.9893 16.6383 25.0345 16.7258C25.0796 16.8133 25.1414 16.891 25.2165 16.9543L26.8507 18.2209L27.4549 19.687V22.4196L26.2267 24.0951C25.8253 24.0168 25.4357 23.8861 25.0679 23.7062C24.7746 23.1669 24.3733 22.6948 23.8893 22.3199C23.7773 22.2273 23.6415 22.1687 23.4976 22.1511C23.3538 22.1334 23.2079 22.1574 23.0771 22.2202L21.4726 22.9981L19.9077 23.0679C19.7911 23.0775 19.6771 23.1079 19.571 23.1576L17.8575 24.155L15.2428 23.3671L13.5194 22.639L13.3015 21.1231C13.6106 20.3409 14.072 19.6288 14.6584 19.0288ZM3.32782 19.7369C3.37852 19.6329 3.40489 19.5186 3.40489 19.4028C3.40489 19.2869 3.37852 19.1726 3.32782 19.0687L1.61436 16.1764L1.98082 12.257L4.45692 11.0403L7.52727 12.7058C7.59156 12.7442 7.66191 12.7711 7.73526 12.7856L10.3104 13.3241V15.0395L8.52761 20.1956C8.45863 20.3719 8.45863 20.5679 8.52761 20.7441L9.35958 22.8584L6.93301 24.3644L3.76361 22.5393L2.62461 21.542L3.32782 19.7369Z" fill="white"/>
</g>
<defs>
<clipPath id="clip0_1_162">
<rect width="29" height="26" fill="white"/>
</clipPath>
</defs>
</svg>
