<svg width="146" height="146" viewBox="0 0 146 146" fill="none" xmlns="http://www.w3.org/2000/svg">
<circle cx="73" cy="73" r="72" stroke="#FE201D" stroke-width="2"/>
<g clip-path="url(#clip0_1_107)">
<path d="M106.995 67.1743L100.665 66.1191L97.6051 58.0328L100.816 52.6061C101.086 52.1484 101.012 51.5654 100.636 51.1893L94.8111 45.3643C94.4211 44.9743 93.8105 44.9108 93.3487 45.213L86.8809 49.4501L79.9023 46.5376L78.8304 39.0363H78.8309C78.7498 38.4611 78.2583 38.0331 77.6773 38.0331H68.3573C67.7779 38.0331 67.2865 38.459 67.2038 39.0327L66.1324 46.5376L59.1595 49.4501L52.6854 45.2092H52.686C52.2241 44.907 51.6135 44.9705 51.2235 45.3611L45.3985 51.1861C45.0079 51.5767 44.9455 52.1888 45.2498 52.6501L49.5603 59.1976L46.5776 66.0965L39.067 67.1695C38.4933 67.2521 38.0674 67.7436 38.0674 68.323V77.643C38.0674 78.2224 38.4933 78.7139 39.067 78.7966L46.5776 79.8696L49.5635 86.7654L45.253 93.3129V93.3124C44.9492 93.7742 45.0116 94.3858 45.4022 94.7769L51.2272 100.602C51.6173 100.992 52.2274 101.055 52.6891 100.753L59.1539 96.5161L66.1325 99.4287L67.2044 106.93H67.2039C67.285 107.505 67.7765 107.933 68.3574 107.933H77.6774C78.2568 107.933 78.7483 107.507 78.831 106.934L79.9029 99.4323L86.881 96.5162L93.355 100.757C93.8164 101.059 94.4269 100.996 94.817 100.605L100.642 94.7802C101.033 94.3896 101.095 93.7775 100.791 93.3162L96.4807 86.7687L99.4629 79.8698L106.973 78.7968C107.545 78.7115 107.968 78.2211 107.967 77.6433V68.3232C107.967 67.7543 107.556 67.2685 106.995 67.1743ZM105.637 76.6332L98.482 77.6547C98.0815 77.7129 97.7398 77.974 97.5791 78.3459L94.0841 86.4172V86.4166C93.9281 86.7776 93.964 87.1931 94.1808 87.5213L98.3176 93.8009L93.8344 98.2851L87.6345 94.2237C87.3104 94.0141 86.9037 93.9767 86.5464 94.1234L78.3914 97.5378C78.0149 97.6975 77.7496 98.0428 77.6924 98.448L76.6673 105.603H69.3673L68.3459 98.448C68.2887 98.0428 68.0234 97.6975 67.6469 97.5378L59.4919 94.1255V94.126C59.1346 93.9783 58.7278 94.0158 58.4033 94.2259L52.2054 98.2846L47.7222 93.8003L51.8589 87.5208L51.8594 87.5213C52.0758 87.1926 52.1117 86.7776 51.9551 86.4166L48.4601 78.3454V78.3459C48.2994 77.974 47.9577 77.7129 47.5573 77.6547L40.3972 76.6332V69.3332L47.5526 68.3118C47.9531 68.2535 48.2948 67.9925 48.4555 67.6206L51.9505 59.5493V59.5498C52.1065 59.1889 52.0706 58.7733 51.8537 58.4452L47.717 52.1656L52.2002 47.6813L58.4001 51.7427C58.7241 51.9523 59.1309 51.9898 59.4882 51.8431L67.6432 48.4287C68.0197 48.269 68.285 47.9236 68.3422 47.5185L69.3673 40.3631H76.6672L77.6887 47.5185C77.7459 47.9237 78.0112 48.269 78.3877 48.4287L86.5427 51.841V51.8405C86.9 51.9882 87.3067 51.9507 87.6313 51.7406L93.8292 47.6819L98.3446 52.1973L95.3156 57.3233C95.1357 57.6276 95.104 57.9968 95.2293 58.3276L98.7243 67.5649C98.871 67.9524 99.2127 68.2327 99.6215 68.3009L105.637 69.3098L105.637 76.6332Z" fill="#FE201D"/>
<path d="M73.0167 54.3434C68.0733 54.3434 63.3322 56.3072 59.8361 59.8028C56.3406 63.2989 54.3767 68.04 54.3767 72.9834C54.3767 77.9269 56.3406 82.668 59.8361 86.1641C63.3322 89.6596 68.0733 91.6235 73.0167 91.6235C77.9602 91.6235 82.7013 89.6596 86.1974 86.1641C89.6929 82.668 91.6568 77.9269 91.6568 72.9834C91.6511 68.0415 89.6851 63.304 86.1906 59.8096C82.6961 56.3151 77.9586 54.3491 73.0167 54.3434ZM73.0167 89.2935C68.6912 89.2935 64.5425 87.5751 61.4838 84.5164C58.4251 81.4577 56.7067 77.309 56.7067 72.9834C56.7067 68.6579 58.4251 64.5091 61.4838 61.4504C64.5425 58.3917 68.6912 56.6734 73.0167 56.6734C77.3423 56.6734 81.491 58.3917 84.5497 61.4504C87.6084 64.5091 89.3268 68.6579 89.3268 72.9834C89.3221 77.3075 87.6022 81.4536 84.5445 84.5112C81.4869 87.5689 77.3408 89.2888 73.0167 89.2935Z" fill="#FE201D"/>
<path d="M75.6494 62.0269C75.4054 61.7013 74.9797 61.5682 74.5937 61.697C74.2073 61.8258 73.9468 62.1873 73.9468 62.5944V66.7397L73.0008 67.2126L72.0549 66.7397V62.5944C72.0549 62.2118 71.8243 61.8672 71.4709 61.7207C71.1174 61.5742 70.7107 61.6552 70.44 61.9255L67.6022 64.7633C67.4249 64.9407 67.3252 65.1814 67.3252 65.4322V69.216C67.3252 69.4668 67.4249 69.7075 67.6022 69.8849L70.1631 72.4453V83.4052C70.1631 83.656 70.2627 83.8968 70.4401 84.0741C70.6174 84.2515 70.8582 84.3511 71.109 84.3511H74.8927C75.1436 84.3511 75.3843 84.2515 75.5617 84.0741C75.739 83.8968 75.8387 83.656 75.8387 83.4052V72.4453L78.3995 69.8845V69.8849C78.5769 69.7075 78.6765 69.4668 78.6765 69.216V66.3782C78.6765 66.1733 78.6102 65.9744 78.4874 65.8106L75.6494 62.0269ZM76.7846 68.8245L74.2237 71.3854V71.3849C74.0464 71.5623 73.9467 71.803 73.9467 72.0539V82.4592H72.0548V72.0539C72.0548 71.803 71.9552 71.5623 71.7778 71.3849L69.217 68.8245V65.8237L70.1629 64.8778V67.3241C70.1629 67.6826 70.3652 68.0103 70.6861 68.1708L72.578 69.1167C72.844 69.2498 73.1574 69.2498 73.4234 69.1167L75.3153 68.1708C75.6362 68.0103 75.8385 67.6826 75.8385 67.3241V65.4322L76.7844 66.6932L76.7846 68.8245Z" fill="#FE201D"/>
</g>
<defs>
<clipPath id="clip0_1_107">
<rect width="70" height="70" fill="white" transform="translate(38 38)"/>
</clipPath>
</defs>
</svg>
