<svg width="24" height="29" viewBox="0 0 24 29" fill="none" xmlns="http://www.w3.org/2000/svg">
<path d="M23.4877 20.9144C23.3633 20.7631 23.2127 20.6411 23.045 20.5556C22.8773 20.4701 22.6959 20.4229 22.5115 20.4168H16.5276C16.5965 17.6605 16.9525 14.4576 17.2511 11.8161L17.3086 11.3057C17.5383 9.25123 17.745 7.47751 17.745 6.40562C17.7508 4.71414 17.1518 3.08932 16.0796 1.88837C14.99 0.679786 13.5133 0.000976563 11.9736 0.000976562C10.4339 0.000976563 8.95715 0.679786 7.86753 1.88837C7.32008 2.48123 6.88469 3.18955 6.58688 3.97182C6.28907 4.75409 6.13484 5.59454 6.13323 6.4439C6.20473 8.15264 6.35423 9.85624 6.58116 11.5481V11.931C6.87979 14.5724 7.23583 17.7753 7.30475 20.5188H1.36677C1.18461 20.5186 1.00427 20.5591 0.836528 20.6381C0.668789 20.717 0.517093 20.8327 0.390505 20.9782C0.14028 21.2658 0.000283336 21.6501 0 22.0501L0 29H23.8783V21.9863C23.878 21.5863 23.738 21.202 23.4877 20.9144ZM16.5046 22.4202H22.098V26.9455H1.78024V22.4202H16.5046ZM11.9104 2.00322C12.4382 2.00152 12.9611 2.11598 13.4488 2.33999C13.9366 2.56399 14.3796 2.89311 14.7523 3.30834C15.1249 3.72357 15.4199 4.2167 15.6201 4.75925C15.8203 5.30181 15.9219 5.88305 15.9188 6.46943C15.9188 7.43923 15.7236 9.20019 15.5054 11.2291V11.7013C15.1953 14.4958 14.8392 17.6605 14.7703 20.4806H9.18836C9.06202 17.5456 8.683 14.1641 8.37289 11.4843V11.3057C8.14319 9.25123 7.94793 7.47751 7.94793 6.49495C7.9412 5.31329 8.35386 4.17627 9.09648 3.33032C9.46636 2.90563 9.90883 2.56723 10.3979 2.33497C10.887 2.1027 11.413 1.98124 11.9449 1.9777L11.9104 2.00322Z" fill="#363636"/>
</svg>
