<svg width="34" height="34" viewBox="0 0 34 34" fill="none" xmlns="http://www.w3.org/2000/svg">
<path d="M26.1593 21.9553C26.0595 22.0144 25.9431 22.0394 25.8278 22.0263H23.6843C23.3291 22.0263 23.1633 21.8487 22.5001 21.15C22.2159 20.8421 21.8725 20.475 21.4106 19.9658C19.9778 18.6039 19.3383 18.4263 18.8883 18.4263C18.7535 18.4134 18.6174 18.4289 18.489 18.4718C18.3605 18.5146 18.2424 18.5838 18.1422 18.675C17.8225 18.9829 17.8225 19.4684 17.8343 20.6408C17.8343 20.925 17.8343 21.2329 17.8343 21.6C17.8343 21.9671 17.8343 21.9789 16.733 21.9789C15.4522 21.8894 14.2106 21.4983 13.1096 20.8377C12.0086 20.1771 11.0793 19.2657 10.3975 18.1776C7.81591 14.6842 6.98696 11.8421 6.98696 11.2737C6.98058 11.2424 6.98058 11.2102 6.98696 11.1789C6.98696 11.1789 6.98696 11.1789 7.25933 11.1789H9.4738C9.73433 11.1789 9.82907 11.1789 10.0067 11.7C11.0488 14.625 12.9435 17.7632 14.1041 17.7632C14.9804 17.7632 14.9804 16.8868 14.9804 16.4605V13.2632C14.9737 12.5712 14.722 11.9041 14.2699 11.3803C14.2075 11.3179 14.1556 11.2459 14.1159 11.1671C14.1159 11.1671 14.1159 11.1671 14.1988 11.1671H17.7514C17.7687 11.277 17.7687 11.3888 17.7514 11.4987V15.821C17.7514 16.5316 18.1659 16.9105 18.5804 16.9105C18.9949 16.9105 19.3975 16.65 19.9659 16.0934C21.1081 14.7025 22.0452 13.1552 22.7488 11.4987C22.7856 11.3928 22.857 11.3024 22.9516 11.2422C23.0462 11.182 23.1583 11.1556 23.2699 11.1671H25.4725C25.551 11.1559 25.6308 11.1559 25.7093 11.1671C25.721 11.2377 25.721 11.3097 25.7093 11.3803C24.9126 13.1008 23.9362 14.7323 22.7962 16.2474C22.6089 16.4507 22.505 16.717 22.505 16.9934C22.505 17.2698 22.6089 17.5361 22.7962 17.7395L23.1988 18.1539C24.3246 19.1992 25.3009 20.3946 26.1001 21.7066C26.1472 21.7805 26.168 21.8681 26.1593 21.9553Z" fill="white"/>
<path d="M21.1026 32.5421H12.0552C4.03809 32.5421 0.615723 29.1197 0.615723 21.1026V12.0553C0.615723 4.03815 4.03809 0.615784 12.0552 0.615784H21.1026C29.1197 0.615784 32.542 4.03815 32.542 12.0553V21.1026C32.542 29.1197 29.1197 32.5421 21.1026 32.5421ZM12.0552 2.36842C5.00914 2.36842 2.36835 5.0092 2.36835 12.0553V21.1026C2.36835 28.1487 5.00914 30.7895 12.0552 30.7895H21.1026C28.1486 30.7895 30.7894 28.1487 30.7894 21.1026V12.0553C30.7894 5.0092 28.1486 2.36842 21.1026 2.36842H12.0552Z" fill="white"/>
</svg>
