<svg width="25" height="27" viewBox="0 0 25 27" fill="none" xmlns="http://www.w3.org/2000/svg">
<g clip-path="url(#clip0_1_174)">
<path d="M24.5619 22.9479C24.4235 22.8042 24.2569 22.6915 24.0729 22.6171C24.068 22.5933 24.068 22.5686 24.0729 22.5448L22.7587 15.0919C22.6847 14.6615 22.4605 14.2726 22.1271 13.9962C21.8005 13.7111 21.3863 13.5502 20.9556 13.5413H18.9894V13.0969C18.99 12.9273 18.957 12.7594 18.8922 12.6031C18.8275 12.4468 18.7323 12.3053 18.6125 12.1872C18.4957 12.0661 18.3562 11.9698 18.2023 11.9041C18.0483 11.8384 17.883 11.8047 17.716 11.8047H15.271V9.13782C15.8644 8.71799 16.3599 8.17131 16.7227 7.53624C17.0855 6.90118 17.3067 6.19316 17.3708 5.46201C17.4349 4.73086 17.3403 3.99434 17.0937 3.30427C16.8471 2.6142 16.4544 1.98736 15.9433 1.46784C15.0284 0.534941 13.7869 0.00725288 12.4898 0C11.1797 0.00196898 9.92359 0.52963 8.99551 1.46784C8.53538 1.93246 8.17061 2.48505 7.9223 3.09364C7.67399 3.70222 7.54708 4.35472 7.54889 5.0134C7.54665 5.82501 7.73824 6.6251 8.10727 7.34518C8.4763 8.06526 9.01178 8.6839 9.66788 9.14816V11.8151H7.26364C7.09663 11.815 6.93129 11.8488 6.77734 11.9145C6.62338 11.9801 6.48392 12.0764 6.36715 12.1975C6.13159 12.4399 5.99979 12.7668 6.0004 13.1072V13.5517H4.06479C3.63389 13.5597 3.21937 13.7206 2.89323 14.0065C2.55987 14.283 2.33567 14.6719 2.26161 15.1022L0.91687 22.5448C0.922494 22.5686 0.922494 22.5934 0.91687 22.6171C0.732866 22.6915 0.56628 22.8042 0.427872 22.9479C0.292377 23.0827 0.184743 23.2435 0.111272 23.421C0.0378021 23.5985 -2.70908e-05 23.7891 1.45558e-08 23.9816V25.5425C0.00266777 25.9282 0.154862 26.2974 0.423668 26.5701C0.692475 26.8429 1.05629 26.9973 1.43643 27H23.5534C23.7432 27.0006 23.9312 26.9625 24.1062 26.8879C24.2812 26.8133 24.4396 26.7038 24.5721 26.5658C24.7085 26.4318 24.8168 26.2711 24.8903 26.0934C24.9639 25.9158 25.0012 25.7248 25 25.5322V23.9816C24.9929 23.5922 24.8356 23.2211 24.5619 22.9479ZM10.2995 2.79096C10.8163 2.19914 11.5364 1.82998 12.3125 1.75897C13.0886 1.68795 13.8622 1.92044 14.475 2.4089C15.0878 2.89735 15.4935 3.60488 15.6093 4.38682C15.7251 5.16875 15.5421 5.96603 15.0978 6.61562C14.8098 7.10283 14.3981 7.50266 13.9059 7.77335C13.7557 7.85391 13.6299 7.97437 13.542 8.12185C13.4541 8.26933 13.4073 8.43828 13.4067 8.61064V11.8047H11.5424V8.61064C11.5436 8.43262 11.4955 8.25783 11.4037 8.10616C11.3118 7.95448 11.1799 7.83201 11.0228 7.75268C10.5354 7.49192 10.1296 7.09807 9.85125 6.61562C9.56422 6.13196 9.41275 5.57798 9.41319 5.0134C9.4168 4.17864 9.74652 3.3794 10.3301 2.79096H10.2995ZM7.35533 13.1899H17.6243V14.0582H7.35533V13.1899ZM4.06479 15.4433H17.716H20.9148L22.1577 22.5448H2.80155C2.89323 21.5111 3.38223 19.0096 3.7286 17.2833C3.86104 16.539 3.99348 15.8155 4.06479 15.4433ZM23.1153 24.4158V25.098H1.8643V24.4158H23.1153Z" fill="white"/>
</g>
<defs>
<clipPath id="clip0_1_174">
<rect width="25" height="27" fill="white"/>
</clipPath>
</defs>
</svg>
