<svg width="146" height="146" viewBox="0 0 146 146" fill="none" xmlns="http://www.w3.org/2000/svg">
<circle cx="73" cy="73" r="72" stroke="#FE201D" stroke-width="2"/>
<g clip-path="url(#clip0_1_539)">
<path d="M82.0159 81.6606C88.0814 72.1429 87.3189 73.3303 87.4937 73.0821C89.702 69.9674 90.8691 66.3015 90.8691 62.4805C90.8691 52.3474 82.6463 44 72.5 44C62.3867 44 54.1309 52.3309 54.1309 62.4805C54.1309 66.299 55.3225 70.0609 57.6032 73.2176L62.9839 81.6607C57.231 82.5448 47.4512 85.1794 47.4512 90.9805C47.4512 93.0951 48.8314 96.1088 55.4069 98.4572C59.9983 100.097 66.0687 101 72.5 101C84.5262 101 97.5488 97.6076 97.5488 90.9805C97.5488 85.1784 87.7805 82.5466 82.0159 81.6606ZM60.393 71.3806C60.3746 71.3519 60.3554 71.3238 60.3354 71.2962C58.4376 68.6853 57.4707 65.5911 57.4707 62.4805C57.4707 54.1289 64.1956 47.3398 72.5 47.3398C80.7872 47.3398 87.5293 54.1319 87.5293 62.4805C87.5293 65.5961 86.5807 68.5854 84.7855 71.1274C84.6246 71.3396 85.4639 70.0358 72.5 90.3781L60.393 71.3806ZM72.5 97.6602C59.3639 97.6602 50.791 93.799 50.791 90.9805C50.791 89.0861 55.196 85.9713 64.9573 84.7571L71.0917 94.3829C71.3983 94.864 71.9293 95.1553 72.4999 95.1553C73.0704 95.1553 73.6016 94.8639 73.9081 94.3829L80.0424 84.7571C89.8038 85.9713 94.209 89.0861 94.209 90.9805C94.209 93.775 85.7132 97.6602 72.5 97.6602Z" fill="#FE201D" stroke="white"/>
<path d="M72.5 54.1309C67.896 54.1309 64.1504 57.8765 64.1504 62.4805C64.1504 67.0844 67.896 70.8301 72.5 70.8301C77.104 70.8301 80.8496 67.0844 80.8496 62.4805C80.8496 57.8765 77.104 54.1309 72.5 54.1309ZM72.5 67.4902C69.7376 67.4902 67.4902 65.2429 67.4902 62.4805C67.4902 59.7181 69.7376 57.4707 72.5 57.4707C75.2624 57.4707 77.5098 59.7181 77.5098 62.4805C77.5098 65.2429 75.2624 67.4902 72.5 67.4902Z" fill="#FE201D" stroke="white"/>
</g>
<defs>
<clipPath id="clip0_1_539">
<rect width="57" height="57" fill="white" transform="translate(44 44)"/>
</clipPath>
</defs>
</svg>
