<svg width="197" height="261" viewBox="0 0 197 261" fill="none" xmlns="http://www.w3.org/2000/svg">
<path d="M20.7666 177V191H18.7866V185.46C17.3066 186.033 15.9399 186.32 14.6866 186.32C12.9799 186.32 11.6532 185.907 10.7066 185.08C9.77323 184.253 9.30656 183.073 9.30656 181.54V177H11.2666V181.32C11.2666 182.36 11.5799 183.16 12.2066 183.72C12.8466 184.28 13.7466 184.56 14.9066 184.56C16.1999 184.56 17.4932 184.267 18.7866 183.68V177H20.7666ZM34.3931 185.76C34.3931 185.907 34.3798 186.1 34.3531 186.34H25.7531C25.8731 187.273 26.2798 188.027 26.9731 188.6C27.6798 189.16 28.5531 189.44 29.5931 189.44C30.8598 189.44 31.8798 189.013 32.6531 188.16L33.7131 189.4C33.2331 189.96 32.6331 190.387 31.9131 190.68C31.2065 190.973 30.4131 191.12 29.5331 191.12C28.4131 191.12 27.4198 190.893 26.5531 190.44C25.6865 189.973 25.0131 189.327 24.5331 188.5C24.0665 187.673 23.8331 186.74 23.8331 185.7C23.8331 184.673 24.0598 183.747 24.5131 182.92C24.9798 182.093 25.6131 181.453 26.4131 181C27.2265 180.533 28.1398 180.3 29.1531 180.3C30.1665 180.3 31.0665 180.533 31.8531 181C32.6531 181.453 33.2731 182.093 33.7131 182.92C34.1665 183.747 34.3931 184.693 34.3931 185.76ZM29.1531 181.92C28.2331 181.92 27.4598 182.2 26.8331 182.76C26.2198 183.32 25.8598 184.053 25.7531 184.96H32.5531C32.4465 184.067 32.0798 183.34 31.4531 182.78C30.8398 182.207 30.0731 181.92 29.1531 181.92ZM42.9917 180.3C44.0184 180.3 44.9384 180.527 45.7517 180.98C46.5651 181.433 47.1984 182.067 47.6517 182.88C48.1184 183.693 48.3517 184.633 48.3517 185.7C48.3517 186.767 48.1184 187.713 47.6517 188.54C47.1984 189.353 46.5651 189.987 45.7517 190.44C44.9384 190.893 44.0184 191.12 42.9917 191.12C42.2317 191.12 41.5317 190.973 40.8917 190.68C40.2651 190.387 39.7317 189.96 39.2917 189.4V194.88H37.3717V180.4H39.2117V182.08C39.6384 181.493 40.1784 181.053 40.8317 180.76C41.4851 180.453 42.2051 180.3 42.9917 180.3ZM42.8317 189.44C43.5117 189.44 44.1184 189.287 44.6517 188.98C45.1984 188.66 45.6251 188.22 45.9317 187.66C46.2517 187.087 46.4117 186.433 46.4117 185.7C46.4117 184.967 46.2517 184.32 45.9317 183.76C45.6251 183.187 45.1984 182.747 44.6517 182.44C44.1184 182.133 43.5117 181.98 42.8317 181.98C42.1651 181.98 41.5584 182.14 41.0117 182.46C40.4784 182.767 40.0517 183.2 39.7317 183.76C39.4251 184.32 39.2717 184.967 39.2717 185.7C39.2717 186.433 39.4251 187.087 39.7317 187.66C40.0384 188.22 40.4651 188.66 41.0117 188.98C41.5584 189.287 42.1651 189.44 42.8317 189.44ZM60.7213 185.76C60.7213 185.907 60.7079 186.1 60.6813 186.34H52.0813C52.2013 187.273 52.6079 188.027 53.3013 188.6C54.0079 189.16 54.8813 189.44 55.9213 189.44C57.1879 189.44 58.2079 189.013 58.9813 188.16L60.0413 189.4C59.5613 189.96 58.9613 190.387 58.2413 190.68C57.5346 190.973 56.7413 191.12 55.8613 191.12C54.7413 191.12 53.7479 190.893 52.8813 190.44C52.0146 189.973 51.3413 189.327 50.8613 188.5C50.3946 187.673 50.1613 186.74 50.1613 185.7C50.1613 184.673 50.3879 183.747 50.8413 182.92C51.3079 182.093 51.9413 181.453 52.7413 181C53.5546 180.533 54.4679 180.3 55.4813 180.3C56.4946 180.3 57.3946 180.533 58.1813 181C58.9813 181.453 59.6013 182.093 60.0413 182.92C60.4946 183.747 60.7213 184.693 60.7213 185.76ZM55.4813 181.92C54.5613 181.92 53.7879 182.2 53.1613 182.76C52.5479 183.32 52.1879 184.053 52.0813 184.96H58.8813C58.7746 184.067 58.4079 183.34 57.7813 182.78C57.1679 182.207 56.4013 181.92 55.4813 181.92ZM69.2055 185.48C69.9121 185.667 70.4588 185.967 70.8455 186.38C71.2321 186.793 71.4255 187.307 71.4255 187.92C71.4255 188.547 71.2121 189.107 70.7855 189.6C70.3588 190.08 69.7655 190.46 69.0055 190.74C68.2588 191.007 67.4188 191.14 66.4855 191.14C65.6988 191.14 64.9255 191.04 64.1655 190.84C63.4188 190.627 62.7521 190.327 62.1655 189.94L62.7455 188.48C63.2521 188.8 63.8321 189.053 64.4855 189.24C65.1388 189.413 65.7988 189.5 66.4655 189.5C67.3721 189.5 68.0921 189.347 68.6255 189.04C69.1721 188.72 69.4455 188.293 69.4455 187.76C69.4455 187.267 69.2255 186.887 68.7855 186.62C68.3588 186.353 67.7521 186.22 66.9655 186.22H65.0255V184.84H66.8255C67.5455 184.84 68.1121 184.713 68.5255 184.46C68.9388 184.207 69.1455 183.86 69.1455 183.42C69.1455 182.94 68.8988 182.567 68.4055 182.3C67.9255 182.033 67.2721 181.9 66.4455 181.9C65.3921 181.9 64.2788 182.173 63.1055 182.72L62.5855 181.24C63.8788 180.587 65.2321 180.26 66.6455 180.26C67.4988 180.26 68.2655 180.38 68.9455 180.62C69.6255 180.86 70.1588 181.2 70.5455 181.64C70.9321 182.08 71.1255 182.58 71.1255 183.14C71.1255 183.66 70.9521 184.127 70.6055 184.54C70.2588 184.953 69.7921 185.267 69.2055 185.48ZM84.1755 182.88C85.5488 183.013 86.5955 183.44 87.3155 184.16C88.0355 184.867 88.3955 185.773 88.3955 186.88C88.3955 187.68 88.1955 188.407 87.7955 189.06C87.3955 189.7 86.7955 190.213 85.9955 190.6C85.2088 190.973 84.2421 191.16 83.0955 191.16C82.0955 191.16 81.1355 191.013 80.2155 190.72C79.2955 190.413 78.5421 189.993 77.9555 189.46L78.8755 187.88C79.3555 188.333 79.9688 188.7 80.7155 188.98C81.4621 189.247 82.2555 189.38 83.0955 189.38C84.1355 189.38 84.9421 189.16 85.5155 188.72C86.1021 188.28 86.3955 187.673 86.3955 186.9C86.3955 186.127 86.1088 185.527 85.5355 185.1C84.9621 184.673 84.0955 184.46 82.9355 184.46H81.8155V183.06L85.3355 178.74H78.5955V177H87.8355V178.36L84.1755 182.88ZM90.4408 184.68H95.8208V186.34H90.4408V184.68ZM110.234 187.56H107.574V191H105.634V187.56H97.8538V186.16L105.014 177H107.174L100.314 185.84H105.694V182.8H107.574V185.84H110.234V187.56ZM128.484 189.32V193.46H126.684V191H117.824V193.46H116.004V189.32H116.564C117.244 189.28 117.71 188.8 117.964 187.88C118.217 186.96 118.39 185.66 118.484 183.98L118.644 180.4H126.864V189.32H128.484ZM120.244 184.12C120.19 185.453 120.077 186.56 119.904 187.44C119.744 188.307 119.444 188.933 119.004 189.32H124.944V182.08H120.344L120.244 184.12ZM130.985 180.4H132.905V184.9H138.945V180.4H140.865V191H138.945V186.56H132.905V191H130.985V180.4ZM153.098 180.4V191H151.378V187.64H148.298H148.078L145.758 191H143.698L146.278 187.38C145.478 187.14 144.865 186.747 144.438 186.2C144.012 185.64 143.798 184.947 143.798 184.12C143.798 182.907 144.212 181.987 145.038 181.36C145.865 180.72 147.005 180.4 148.458 180.4H153.098ZM145.758 184.18C145.758 184.887 145.978 185.413 146.418 185.76C146.872 186.093 147.545 186.26 148.438 186.26H151.378V182.08H148.518C146.678 182.08 145.758 182.78 145.758 184.18ZM169.435 185.5C170.809 185.847 171.495 186.707 171.495 188.08C171.495 189.013 171.142 189.733 170.435 190.24C169.742 190.747 168.702 191 167.315 191H162.215V180.4H167.135C168.389 180.4 169.369 180.64 170.075 181.12C170.782 181.587 171.135 182.253 171.135 183.12C171.135 183.68 170.982 184.167 170.675 184.58C170.382 184.98 169.969 185.287 169.435 185.5ZM164.095 184.96H166.975C167.709 184.96 168.262 184.827 168.635 184.56C169.022 184.293 169.215 183.907 169.215 183.4C169.215 182.387 168.469 181.88 166.975 181.88H164.095V184.96ZM167.175 189.52C167.975 189.52 168.575 189.393 168.975 189.14C169.375 188.887 169.575 188.493 169.575 187.96C169.575 187.413 169.389 187.007 169.015 186.74C168.655 186.473 168.082 186.34 167.295 186.34H164.095V189.52H167.175ZM179.281 184C180.614 184.013 181.634 184.32 182.341 184.92C183.047 185.52 183.401 186.367 183.401 187.46C183.401 188.607 183.014 189.493 182.241 190.12C181.481 190.733 180.387 191.033 178.961 191.02L174.501 191V180.4H176.421V183.98L179.281 184ZM184.981 180.4H186.901V191H184.981V180.4ZM178.821 189.56C179.687 189.573 180.341 189.4 180.781 189.04C181.234 188.68 181.461 188.147 181.461 187.44C181.461 186.747 181.241 186.24 180.801 185.92C180.361 185.6 179.701 185.433 178.821 185.42L176.421 185.38V189.54L178.821 189.56ZM7.975 216.48C8.68167 216.667 9.22833 216.967 9.615 217.38C10.0017 217.793 10.195 218.307 10.195 218.92C10.195 219.547 9.98167 220.107 9.555 220.6C9.12833 221.08 8.535 221.46 7.775 221.74C7.02833 222.007 6.18833 222.14 5.255 222.14C4.46833 222.14 3.695 222.04 2.935 221.84C2.18833 221.627 1.52167 221.327 0.935 220.94L1.515 219.48C2.02167 219.8 2.60167 220.053 3.255 220.24C3.90833 220.413 4.56833 220.5 5.235 220.5C6.14167 220.5 6.86167 220.347 7.395 220.04C7.94167 219.72 8.215 219.293 8.215 218.76C8.215 218.267 7.995 217.887 7.555 217.62C7.12833 217.353 6.52167 217.22 5.735 217.22H3.795V215.84H5.595C6.315 215.84 6.88167 215.713 7.295 215.46C7.70833 215.207 7.915 214.86 7.915 214.42C7.915 213.94 7.66833 213.567 7.175 213.3C6.695 213.033 6.04167 212.9 5.215 212.9C4.16167 212.9 3.04833 213.173 1.875 213.72L1.355 212.24C2.64833 211.587 4.00167 211.26 5.415 211.26C6.26833 211.26 7.035 211.38 7.715 211.62C8.395 211.86 8.92833 212.2 9.315 212.64C9.70167 213.08 9.895 213.58 9.895 214.14C9.895 214.66 9.72167 215.127 9.375 215.54C9.02833 215.953 8.56167 216.267 7.975 216.48ZM16.8939 211.3C18.3606 211.3 19.4806 211.66 20.2539 212.38C21.0406 213.1 21.4339 214.173 21.4339 215.6V222H19.6139V220.6C19.2939 221.093 18.8339 221.473 18.2339 221.74C17.6472 221.993 16.9472 222.12 16.1339 222.12C14.9472 222.12 13.9939 221.833 13.2739 221.26C12.5672 220.687 12.2139 219.933 12.2139 219C12.2139 218.067 12.5539 217.32 13.2339 216.76C13.9139 216.187 14.9939 215.9 16.4739 215.9H19.5139V215.52C19.5139 214.693 19.2739 214.06 18.7939 213.62C18.3139 213.18 17.6072 212.96 16.6739 212.96C16.0472 212.96 15.4339 213.067 14.8339 213.28C14.2339 213.48 13.7272 213.753 13.3139 214.1L12.5139 212.66C13.0606 212.22 13.7139 211.887 14.4739 211.66C15.2339 211.42 16.0406 211.3 16.8939 211.3ZM16.4539 220.64C17.1872 220.64 17.8206 220.48 18.3539 220.16C18.8872 219.827 19.2739 219.36 19.5139 218.76V217.28H16.5539C14.9272 217.28 14.1139 217.827 14.1139 218.92C14.1139 219.453 14.3206 219.873 14.7339 220.18C15.1472 220.487 15.7206 220.64 16.4539 220.64ZM30.2913 211.76C31.2779 211.76 32.1579 211.98 32.9313 212.42C33.7046 212.86 34.3046 213.473 34.7313 214.26C35.1713 215.033 35.3913 215.92 35.3913 216.92C35.3913 217.947 35.1579 218.86 34.6913 219.66C34.2379 220.447 33.5913 221.06 32.7513 221.5C31.9246 221.94 30.9779 222.16 29.9113 222.16C28.1113 222.16 26.7179 221.547 25.7313 220.32C24.7579 219.08 24.2713 217.34 24.2713 215.1C24.2713 212.927 24.7179 211.227 25.6113 210C26.5046 208.76 27.8713 207.94 29.7113 207.54L34.5513 206.46L34.8313 208.22L30.3713 209.18C28.9846 209.487 27.9513 210.007 27.2713 210.74C26.5913 211.473 26.2046 212.527 26.1113 213.9C26.5646 213.22 27.1513 212.693 27.8713 212.32C28.5913 211.947 29.3979 211.76 30.2913 211.76ZM29.9513 220.56C30.6313 220.56 31.2313 220.407 31.7513 220.1C32.2846 219.793 32.6979 219.373 32.9913 218.84C33.2846 218.293 33.4313 217.673 33.4313 216.98C33.4313 215.927 33.1113 215.08 32.4713 214.44C31.8313 213.8 30.9913 213.48 29.9513 213.48C28.9113 213.48 28.0646 213.8 27.4113 214.44C26.7713 215.08 26.4513 215.927 26.4513 216.98C26.4513 217.673 26.5979 218.293 26.8913 218.84C27.1979 219.373 27.6179 219.793 28.1513 220.1C28.6846 220.407 29.2846 220.56 29.9513 220.56ZM38.1334 211.4H40.0534V219.12L46.5534 211.4H48.2934V222H46.3734V214.28L39.8934 222H38.1334V211.4ZM57.6402 211.3C58.6668 211.3 59.5868 211.527 60.4002 211.98C61.2135 212.433 61.8468 213.067 62.3002 213.88C62.7668 214.693 63.0002 215.633 63.0002 216.7C63.0002 217.767 62.7668 218.713 62.3002 219.54C61.8468 220.353 61.2135 220.987 60.4002 221.44C59.5868 221.893 58.6668 222.12 57.6402 222.12C56.8802 222.12 56.1802 221.973 55.5402 221.68C54.9135 221.387 54.3802 220.96 53.9402 220.4V225.88H52.0202V211.4H53.8602V213.08C54.2868 212.493 54.8268 212.053 55.4802 211.76C56.1335 211.453 56.8535 211.3 57.6402 211.3ZM57.4802 220.44C58.1602 220.44 58.7668 220.287 59.3002 219.98C59.8468 219.66 60.2735 219.22 60.5802 218.66C60.9002 218.087 61.0602 217.433 61.0602 216.7C61.0602 215.967 60.9002 215.32 60.5802 214.76C60.2735 214.187 59.8468 213.747 59.3002 213.44C58.7668 213.133 58.1602 212.98 57.4802 212.98C56.8135 212.98 56.2068 213.14 55.6602 213.46C55.1268 213.767 54.7002 214.2 54.3802 214.76C54.0735 215.32 53.9202 215.967 53.9202 216.7C53.9202 217.433 54.0735 218.087 54.3802 218.66C54.6868 219.22 55.1135 219.66 55.6602 219.98C56.2068 220.287 56.8135 220.44 57.4802 220.44ZM69.472 211.3C70.9387 211.3 72.0587 211.66 72.832 212.38C73.6187 213.1 74.012 214.173 74.012 215.6V222H72.192V220.6C71.872 221.093 71.412 221.473 70.812 221.74C70.2254 221.993 69.5254 222.12 68.712 222.12C67.5254 222.12 66.572 221.833 65.852 221.26C65.1454 220.687 64.792 219.933 64.792 219C64.792 218.067 65.132 217.32 65.812 216.76C66.492 216.187 67.572 215.9 69.052 215.9H72.092V215.52C72.092 214.693 71.852 214.06 71.372 213.62C70.892 213.18 70.1854 212.96 69.252 212.96C68.6254 212.96 68.012 213.067 67.412 213.28C66.812 213.48 66.3054 213.753 65.892 214.1L65.092 212.66C65.6387 212.22 66.292 211.887 67.052 211.66C67.812 211.42 68.6187 211.3 69.472 211.3ZM69.032 220.64C69.7654 220.64 70.3987 220.48 70.932 220.16C71.4654 219.827 71.852 219.36 72.092 218.76V217.28H69.132C67.5054 217.28 66.692 217.827 66.692 218.92C66.692 219.453 66.8987 219.873 67.312 220.18C67.7254 220.487 68.2987 220.64 69.032 220.64ZM87.0494 216.76C87.0494 216.907 87.036 217.1 87.0094 217.34H78.4094C78.5294 218.273 78.936 219.027 79.6294 219.6C80.336 220.16 81.2094 220.44 82.2494 220.44C83.516 220.44 84.536 220.013 85.3094 219.16L86.3694 220.4C85.8894 220.96 85.2894 221.387 84.5694 221.68C83.8627 221.973 83.0694 222.12 82.1894 222.12C81.0694 222.12 80.076 221.893 79.2094 221.44C78.3427 220.973 77.6694 220.327 77.1894 219.5C76.7227 218.673 76.4894 217.74 76.4894 216.7C76.4894 215.673 76.716 214.747 77.1694 213.92C77.636 213.093 78.2694 212.453 79.0694 212C79.8827 211.533 80.796 211.3 81.8094 211.3C82.8227 211.3 83.7227 211.533 84.5094 212C85.3094 212.453 85.9294 213.093 86.3694 213.92C86.8227 214.747 87.0494 215.693 87.0494 216.76ZM81.8094 212.92C80.8894 212.92 80.116 213.2 79.4894 213.76C78.876 214.32 78.516 215.053 78.4094 215.96H85.2094C85.1027 215.067 84.736 214.34 84.1094 213.78C83.496 213.207 82.7294 212.92 81.8094 212.92ZM97.4788 213.08H93.5987V222H91.6788V213.08H87.7988V211.4H97.4788V213.08ZM108.553 216.76C108.553 216.907 108.54 217.1 108.513 217.34H99.9133C100.033 218.273 100.44 219.027 101.133 219.6C101.84 220.16 102.713 220.44 103.753 220.44C105.02 220.44 106.04 220.013 106.813 219.16L107.873 220.4C107.393 220.96 106.793 221.387 106.073 221.68C105.367 221.973 104.573 222.12 103.693 222.12C102.573 222.12 101.58 221.893 100.713 221.44C99.8466 220.973 99.1733 220.327 98.6933 219.5C98.2266 218.673 97.9933 217.74 97.9933 216.7C97.9933 215.673 98.2199 214.747 98.6733 213.92C99.1399 213.093 99.7733 212.453 100.573 212C101.387 211.533 102.3 211.3 103.313 211.3C104.327 211.3 105.227 211.533 106.013 212C106.813 212.453 107.433 213.093 107.873 213.92C108.327 214.747 108.553 215.693 108.553 216.76ZM103.313 212.92C102.393 212.92 101.62 213.2 100.993 213.76C100.38 214.32 100.02 215.053 99.9133 215.96H106.713C106.607 215.067 106.24 214.34 105.613 213.78C105 213.207 104.233 212.92 103.313 212.92ZM124.703 213.08H118.823V222H116.903V211.4H124.703V213.08ZM130.74 222.12C129.687 222.12 128.74 221.887 127.9 221.42C127.06 220.953 126.4 220.313 125.92 219.5C125.453 218.673 125.22 217.74 125.22 216.7C125.22 215.66 125.453 214.733 125.92 213.92C126.4 213.093 127.06 212.453 127.9 212C128.74 211.533 129.687 211.3 130.74 211.3C131.793 211.3 132.733 211.533 133.56 212C134.4 212.453 135.053 213.093 135.52 213.92C136 214.733 136.24 215.66 136.24 216.7C136.24 217.74 136 218.673 135.52 219.5C135.053 220.313 134.4 220.953 133.56 221.42C132.733 221.887 131.793 222.12 130.74 222.12ZM130.74 220.44C131.42 220.44 132.027 220.287 132.56 219.98C133.107 219.66 133.533 219.22 133.84 218.66C134.147 218.087 134.3 217.433 134.3 216.7C134.3 215.967 134.147 215.32 133.84 214.76C133.533 214.187 133.107 213.747 132.56 213.44C132.027 213.133 131.42 212.98 130.74 212.98C130.06 212.98 129.447 213.133 128.9 213.44C128.367 213.747 127.94 214.187 127.62 214.76C127.313 215.32 127.16 215.967 127.16 216.7C127.16 217.433 127.313 218.087 127.62 218.66C127.94 219.22 128.367 219.66 128.9 219.98C129.447 220.287 130.06 220.44 130.74 220.44ZM146.522 213.08H142.642V222H140.722V213.08H136.842V211.4H146.522V213.08ZM152.556 222.12C151.503 222.12 150.556 221.887 149.716 221.42C148.876 220.953 148.216 220.313 147.736 219.5C147.27 218.673 147.036 217.74 147.036 216.7C147.036 215.66 147.27 214.733 147.736 213.92C148.216 213.093 148.876 212.453 149.716 212C150.556 211.533 151.503 211.3 152.556 211.3C153.61 211.3 154.55 211.533 155.376 212C156.216 212.453 156.87 213.093 157.336 213.92C157.816 214.733 158.056 215.66 158.056 216.7C158.056 217.74 157.816 218.673 157.336 219.5C156.87 220.313 156.216 220.953 155.376 221.42C154.55 221.887 153.61 222.12 152.556 222.12ZM152.556 220.44C153.236 220.44 153.843 220.287 154.376 219.98C154.923 219.66 155.35 219.22 155.656 218.66C155.963 218.087 156.116 217.433 156.116 216.7C156.116 215.967 155.963 215.32 155.656 214.76C155.35 214.187 154.923 213.747 154.376 213.44C153.843 213.133 153.236 212.98 152.556 212.98C151.876 212.98 151.263 213.133 150.716 213.44C150.183 213.747 149.756 214.187 149.436 214.76C149.13 215.32 148.976 215.967 148.976 216.7C148.976 217.433 149.13 218.087 149.436 218.66C149.756 219.22 150.183 219.66 150.716 219.98C151.263 220.287 151.876 220.44 152.556 220.44ZM168.049 216.5C169.422 216.847 170.109 217.707 170.109 219.08C170.109 220.013 169.755 220.733 169.049 221.24C168.355 221.747 167.315 222 165.929 222H160.829V211.4H165.749C167.002 211.4 167.982 211.64 168.689 212.12C169.395 212.587 169.749 213.253 169.749 214.12C169.749 214.68 169.595 215.167 169.289 215.58C168.995 215.98 168.582 216.287 168.049 216.5ZM162.709 215.96H165.589C166.322 215.96 166.875 215.827 167.249 215.56C167.635 215.293 167.829 214.907 167.829 214.4C167.829 213.387 167.082 212.88 165.589 212.88H162.709V215.96ZM165.789 220.52C166.589 220.52 167.189 220.393 167.589 220.14C167.989 219.887 168.189 219.493 168.189 218.96C168.189 218.413 168.002 218.007 167.629 217.74C167.269 217.473 166.695 217.34 165.909 217.34H162.709V220.52H165.789ZM177.654 222.12C176.601 222.12 175.654 221.887 174.814 221.42C173.974 220.953 173.314 220.313 172.834 219.5C172.367 218.673 172.134 217.74 172.134 216.7C172.134 215.66 172.367 214.733 172.834 213.92C173.314 213.093 173.974 212.453 174.814 212C175.654 211.533 176.601 211.3 177.654 211.3C178.707 211.3 179.647 211.533 180.474 212C181.314 212.453 181.967 213.093 182.434 213.92C182.914 214.733 183.154 215.66 183.154 216.7C183.154 217.74 182.914 218.673 182.434 219.5C181.967 220.313 181.314 220.953 180.474 221.42C179.647 221.887 178.707 222.12 177.654 222.12ZM177.654 220.44C178.334 220.44 178.941 220.287 179.474 219.98C180.021 219.66 180.447 219.22 180.754 218.66C181.061 218.087 181.214 217.433 181.214 216.7C181.214 215.967 181.061 215.32 180.754 214.76C180.447 214.187 180.021 213.747 179.474 213.44C178.941 213.133 178.334 212.98 177.654 212.98C176.974 212.98 176.361 213.133 175.814 213.44C175.281 213.747 174.854 214.187 174.534 214.76C174.227 215.32 174.074 215.967 174.074 216.7C174.074 217.433 174.227 218.087 174.534 218.66C174.854 219.22 175.281 219.66 175.814 219.98C176.361 220.287 176.974 220.44 177.654 220.44ZM195.506 216.76C195.506 216.907 195.493 217.1 195.466 217.34H186.866C186.986 218.273 187.393 219.027 188.086 219.6C188.793 220.16 189.666 220.44 190.706 220.44C191.973 220.44 192.993 220.013 193.766 219.16L194.826 220.4C194.346 220.96 193.746 221.387 193.026 221.68C192.32 221.973 191.526 222.12 190.646 222.12C189.526 222.12 188.533 221.893 187.666 221.44C186.8 220.973 186.126 220.327 185.646 219.5C185.18 218.673 184.946 217.74 184.946 216.7C184.946 215.673 185.173 214.747 185.626 213.92C186.093 213.093 186.726 212.453 187.526 212C188.34 211.533 189.253 211.3 190.266 211.3C191.28 211.3 192.18 211.533 192.966 212C193.766 212.453 194.386 213.093 194.826 213.92C195.28 214.747 195.506 215.693 195.506 216.76ZM190.266 212.92C189.346 212.92 188.573 213.2 187.946 213.76C187.333 214.32 186.973 215.053 186.866 215.96H193.666C193.56 215.067 193.193 214.34 192.566 213.78C191.953 213.207 191.186 212.92 190.266 212.92ZM55.6041 241.4H57.5241V249.12L64.0241 241.4H65.7641V252H63.8441V244.28L57.3641 252H55.6041V241.4ZM75.0551 246.48C75.7617 246.667 76.3084 246.967 76.6951 247.38C77.0817 247.793 77.2751 248.307 77.2751 248.92C77.2751 249.547 77.0617 250.107 76.6351 250.6C76.2084 251.08 75.6151 251.46 74.8551 251.74C74.1084 252.007 73.2684 252.14 72.3351 252.14C71.5484 252.14 70.7751 252.04 70.0151 251.84C69.2684 251.627 68.6017 251.327 68.0151 250.94L68.5951 249.48C69.1017 249.8 69.6817 250.053 70.3351 250.24C70.9884 250.413 71.6484 250.5 72.3151 250.5C73.2217 250.5 73.9417 250.347 74.4751 250.04C75.0217 249.72 75.2951 249.293 75.2951 248.76C75.2951 248.267 75.0751 247.887 74.6351 247.62C74.2084 247.353 73.6017 247.22 72.8151 247.22H70.8751V245.84H72.6751C73.3951 245.84 73.9617 245.713 74.3751 245.46C74.7884 245.207 74.9951 244.86 74.9951 244.42C74.9951 243.94 74.7484 243.567 74.2551 243.3C73.7751 243.033 73.1217 242.9 72.2951 242.9C71.2417 242.9 70.1284 243.173 68.9551 243.72L68.4351 242.24C69.7284 241.587 71.0817 241.26 72.4951 241.26C73.3484 241.26 74.1151 241.38 74.7951 241.62C75.4751 241.86 76.0084 242.2 76.3951 242.64C76.7817 243.08 76.9751 243.58 76.9751 244.14C76.9751 244.66 76.8017 245.127 76.4551 245.54C76.1084 245.953 75.6417 246.267 75.0551 246.48ZM90.974 250.32V254.46H89.174V252H80.314V254.46H78.494V250.32H79.054C79.734 250.28 80.2007 249.8 80.454 248.88C80.7073 247.96 80.8807 246.66 80.974 244.98L81.134 241.4H89.354V250.32H90.974ZM82.734 245.12C82.6807 246.453 82.5673 247.56 82.394 248.44C82.234 249.307 81.934 249.933 81.494 250.32H87.434V243.08H82.834L82.734 245.12ZM103.055 246.76C103.055 246.907 103.042 247.1 103.015 247.34H94.4152C94.5352 248.273 94.9419 249.027 95.6352 249.6C96.3419 250.16 97.2152 250.44 98.2552 250.44C99.5219 250.44 100.542 250.013 101.315 249.16L102.375 250.4C101.895 250.96 101.295 251.387 100.575 251.68C99.8686 251.973 99.0752 252.12 98.1952 252.12C97.0752 252.12 96.0819 251.893 95.2152 251.44C94.3486 250.973 93.6752 250.327 93.1952 249.5C92.7286 248.673 92.4952 247.74 92.4952 246.7C92.4952 245.673 92.7219 244.747 93.1752 243.92C93.6419 243.093 94.2752 242.453 95.0752 242C95.8886 241.533 96.8019 241.3 97.8152 241.3C98.8286 241.3 99.7286 241.533 100.515 242C101.315 242.453 101.935 243.093 102.375 243.92C102.829 244.747 103.055 245.693 103.055 246.76ZM97.8152 242.92C96.8952 242.92 96.1219 243.2 95.4952 243.76C94.8819 244.32 94.5219 245.053 94.4152 245.96H101.215C101.109 245.067 100.742 244.34 100.115 243.78C99.5019 243.207 98.7352 242.92 97.8152 242.92ZM114.958 241.4V252H113.038V243.08H108.478L108.358 245.44C108.291 246.867 108.165 248.06 107.978 249.02C107.791 249.967 107.485 250.727 107.058 251.3C106.631 251.873 106.038 252.16 105.278 252.16C104.931 252.16 104.538 252.1 104.098 251.98L104.218 250.36C104.391 250.4 104.551 250.42 104.698 250.42C105.231 250.42 105.631 250.187 105.898 249.72C106.165 249.253 106.338 248.7 106.418 248.06C106.498 247.42 106.571 246.507 106.638 245.32L106.818 241.4H114.958ZM118.671 241.4H120.591V249.12L127.091 241.4H128.831V252H126.911V244.28L120.431 252H118.671V241.4ZM142.137 246.76C142.137 246.907 142.124 247.1 142.097 247.34H133.497C133.617 248.273 134.024 249.027 134.717 249.6C135.424 250.16 136.297 250.44 137.337 250.44C138.604 250.44 139.624 250.013 140.397 249.16L141.457 250.4C140.977 250.96 140.377 251.387 139.657 251.68C138.951 251.973 138.157 252.12 137.277 252.12C136.157 252.12 135.164 251.893 134.297 251.44C133.431 250.973 132.757 250.327 132.277 249.5C131.811 248.673 131.577 247.74 131.577 246.7C131.577 245.673 131.804 244.747 132.257 243.92C132.724 243.093 133.357 242.453 134.157 242C134.971 241.533 135.884 241.3 136.897 241.3C137.911 241.3 138.811 241.533 139.597 242C140.397 242.453 141.017 243.093 141.457 243.92C141.911 244.747 142.137 245.693 142.137 246.76ZM136.897 242.92C135.977 242.92 135.204 243.2 134.577 243.76C133.964 244.32 133.604 245.053 133.497 245.96H140.297C140.191 245.067 139.824 244.34 139.197 243.78C138.584 243.207 137.817 242.92 136.897 242.92Z" fill="#363636"/>
<circle cx="98" cy="73" r="72" stroke="#FE201D" stroke-width="2"/>
<g clip-path="url(#clip0_1_537)">
<path d="M107.016 81.6606C113.081 72.1429 112.319 73.3303 112.494 73.0821C114.702 69.9674 115.869 66.3015 115.869 62.4805C115.869 52.3474 107.646 44 97.5 44C87.3867 44 79.1309 52.3309 79.1309 62.4805C79.1309 66.299 80.3225 70.0609 82.6032 73.2176L87.9839 81.6607C82.231 82.5448 72.4512 85.1794 72.4512 90.9805C72.4512 93.0951 73.8314 96.1088 80.4069 98.4572C84.9983 100.097 91.0687 101 97.5 101C109.526 101 122.549 97.6076 122.549 90.9805C122.549 85.1784 112.78 82.5466 107.016 81.6606ZM85.393 71.3806C85.3746 71.3519 85.3554 71.3238 85.3354 71.2962C83.4376 68.6853 82.4707 65.5911 82.4707 62.4805C82.4707 54.1289 89.1956 47.3398 97.5 47.3398C105.787 47.3398 112.529 54.1319 112.529 62.4805C112.529 65.5961 111.581 68.5854 109.786 71.1274C109.625 71.3396 110.464 70.0358 97.5 90.3781L85.393 71.3806ZM97.5 97.6602C84.3639 97.6602 75.791 93.799 75.791 90.9805C75.791 89.0861 80.196 85.9713 89.9573 84.7571L96.0917 94.3829C96.3983 94.864 96.9293 95.1553 97.4999 95.1553C98.0704 95.1553 98.6016 94.8639 98.9081 94.3829L105.042 84.7571C114.804 85.9713 119.209 89.0861 119.209 90.9805C119.209 93.775 110.713 97.6602 97.5 97.6602Z" fill="#FE201D" stroke="white"/>
<path d="M97.5 54.1309C92.896 54.1309 89.1504 57.8765 89.1504 62.4805C89.1504 67.0844 92.896 70.8301 97.5 70.8301C102.104 70.8301 105.85 67.0844 105.85 62.4805C105.85 57.8765 102.104 54.1309 97.5 54.1309ZM97.5 67.4902C94.7376 67.4902 92.4902 65.2429 92.4902 62.4805C92.4902 59.7181 94.7376 57.4707 97.5 57.4707C100.262 57.4707 102.51 59.7181 102.51 62.4805C102.51 65.2429 100.262 67.4902 97.5 67.4902Z" fill="#FE201D" stroke="white"/>
</g>
<defs>
<clipPath id="clip0_1_537">
<rect width="57" height="57" fill="white" transform="translate(69 44)"/>
</clipPath>
</defs>
</svg>
